<?xml version="1.0" encoding="UTF-8"?><svg xmlns="http://www.w3.org/2000/svg" xmlns:xlink="http://www.w3.org/1999/xlink" fill-opacity="1" color-rendering="auto" color-interpolation="auto" text-rendering="auto" stroke="black" stroke-linecap="square" width="1068" stroke-miterlimit="10" shape-rendering="auto" stroke-opacity="1" fill="black" stroke-dasharray="none" font-weight="normal" stroke-width="1" height="153" font-family="'Dialog'" font-style="normal" stroke-linejoin="miter" font-size="12px" stroke-dashoffset="0" image-rendering="auto">
  <!--Generated by ySVG 2.5-->
  <defs id="genericDefs"/>
  <g>
    <defs id="defs1">
      <clipPath clipPathUnits="userSpaceOnUse" id="clipPath1">
        <path d="M0 0 L1068 0 L1068 153 L0 153 L0 0 Z"/>
      </clipPath>
      <clipPath clipPathUnits="userSpaceOnUse" id="clipPath2">
        <path d="M1 330 L1069 330 L1069 483 L1 483 L1 330 Z"/>
      </clipPath>
    </defs>
    <g fill="rgb(153,204,255)" text-rendering="geometricPrecision" shape-rendering="geometricPrecision" transform="matrix(1,0,0,1,-1,-330)" stroke="rgb(153,204,255)">
      <rect x="16" y="345" clip-path="url(#clipPath2)" width="179" rx="4" ry="4" height="123" stroke="none"/>
    </g>
    <g text-rendering="geometricPrecision" stroke-miterlimit="1.45" shape-rendering="geometricPrecision" transform="matrix(1,0,0,1,-1,-330)" stroke-linecap="butt">
      <rect x="16" y="345" clip-path="url(#clipPath2)" fill="none" width="179" rx="4" ry="4" height="123"/>
    </g>
    <g stroke-linecap="butt" transform="matrix(1,0,0,1,-1,-330)" fill-opacity="0.3333" fill="rgb(0,0,0)" text-rendering="geometricPrecision" font-family="sans-serif" shape-rendering="geometricPrecision" stroke="rgb(0,0,0)" stroke-opacity="0.3333" stroke-miterlimit="1.45">
      <text x="101.3955" xml:space="preserve" y="410.6543" clip-path="url(#clipPath2)" stroke="none">A</text>
    </g>
    <g fill="rgb(153,204,255)" text-rendering="geometricPrecision" shape-rendering="geometricPrecision" transform="matrix(1,0,0,1,-1,-330)" stroke="rgb(153,204,255)">
      <rect x="454.1667" y="345" clip-path="url(#clipPath2)" width="179" rx="4" ry="4" height="123" stroke="none"/>
    </g>
    <g text-rendering="geometricPrecision" stroke-miterlimit="1.45" shape-rendering="geometricPrecision" transform="matrix(1,0,0,1,-1,-330)" stroke-linecap="butt">
      <rect x="454.1667" y="345" clip-path="url(#clipPath2)" fill="none" width="179" rx="4" ry="4" height="123"/>
    </g>
    <g stroke-linecap="butt" transform="matrix(1,0,0,1,-1,-330)" fill-opacity="0.3333" fill="rgb(0,0,0)" text-rendering="geometricPrecision" font-family="sans-serif" shape-rendering="geometricPrecision" stroke="rgb(0,0,0)" stroke-opacity="0.3333" stroke-miterlimit="1.45">
      <text x="539.5505" xml:space="preserve" y="410.6543" clip-path="url(#clipPath2)" stroke="none">B</text>
    </g>
    <g fill="rgb(237,130,37)" text-rendering="geometricPrecision" shape-rendering="geometricPrecision" transform="matrix(1,0,0,1,-1,-330)" stroke="rgb(237,130,37)">
      <path d="M183 391.5 L210 391.5 L213 406.5 L210 421.5 L183 421.5 L186 406.5 Z" fill-rule="evenodd" clip-path="url(#clipPath2)" stroke="none"/>
    </g>
    <g text-rendering="geometricPrecision" stroke-miterlimit="1.45" shape-rendering="geometricPrecision" transform="matrix(1,0,0,1,-1,-330)" stroke-linecap="butt">
      <path fill="none" d="M183 391.5 L210 391.5 L213 406.5 L210 421.5 L183 421.5 L186 406.5 Z" fill-rule="evenodd" clip-path="url(#clipPath2)"/>
    </g>
    <g fill="rgb(237,130,37)" text-rendering="geometricPrecision" shape-rendering="geometricPrecision" transform="matrix(1,0,0,1,-1,-330)" stroke="rgb(237,130,37)">
      <path d="M449 391.5 L476 391.5 L479 406.5 L476 421.5 L449 421.5 L452 406.5 Z" fill-rule="evenodd" clip-path="url(#clipPath2)" stroke="none"/>
    </g>
    <g text-rendering="geometricPrecision" stroke-miterlimit="1.45" shape-rendering="geometricPrecision" transform="matrix(1,0,0,1,-1,-330)" stroke-linecap="butt">
      <path fill="none" d="M449 391.5 L476 391.5 L479 406.5 L476 421.5 L449 421.5 L452 406.5 Z" fill-rule="evenodd" clip-path="url(#clipPath2)"/>
    </g>
    <g fill="rgb(237,130,37)" text-rendering="geometricPrecision" shape-rendering="geometricPrecision" transform="matrix(1,0,0,1,-1,-330)" stroke="rgb(237,130,37)">
      <path d="M623 391.5 L650 391.5 L653 406.5 L650 421.5 L623 421.5 L626 406.5 Z" fill-rule="evenodd" clip-path="url(#clipPath2)" stroke="none"/>
    </g>
    <g text-rendering="geometricPrecision" stroke-miterlimit="1.45" shape-rendering="geometricPrecision" transform="matrix(1,0,0,1,-1,-330)" stroke-linecap="butt">
      <path fill="none" d="M623 391.5 L650 391.5 L653 406.5 L650 421.5 L623 421.5 L626 406.5 Z" fill-rule="evenodd" clip-path="url(#clipPath2)"/>
    </g>
    <g fill="rgb(153,204,255)" text-rendering="geometricPrecision" shape-rendering="geometricPrecision" transform="matrix(1,0,0,1,-1,-330)" stroke="rgb(153,204,255)">
      <rect x="874.3333" y="345" clip-path="url(#clipPath2)" width="179" rx="4" ry="4" height="123" stroke="none"/>
    </g>
    <g text-rendering="geometricPrecision" stroke-miterlimit="1.45" shape-rendering="geometricPrecision" transform="matrix(1,0,0,1,-1,-330)" stroke-linecap="butt">
      <rect x="874.3333" y="345" clip-path="url(#clipPath2)" fill="none" width="179" rx="4" ry="4" height="123"/>
    </g>
    <g stroke-linecap="butt" transform="matrix(1,0,0,1,-1,-330)" fill-opacity="0.3333" fill="rgb(0,0,0)" text-rendering="geometricPrecision" font-family="sans-serif" shape-rendering="geometricPrecision" stroke="rgb(0,0,0)" stroke-opacity="0.3333" stroke-miterlimit="1.45">
      <text x="959.6439" xml:space="preserve" y="410.6543" clip-path="url(#clipPath2)" stroke="none">C</text>
    </g>
    <g fill="rgb(237,130,37)" text-rendering="geometricPrecision" shape-rendering="geometricPrecision" transform="matrix(1,0,0,1,-1,-330)" stroke="rgb(237,130,37)">
      <path d="M863.3333 391.5 L890.3333 391.5 L893.3333 406.5 L890.3333 421.5 L863.3333 421.5 L866.3333 406.5 Z" fill-rule="evenodd" clip-path="url(#clipPath2)" stroke="none"/>
    </g>
    <g text-rendering="geometricPrecision" stroke-miterlimit="1.45" shape-rendering="geometricPrecision" transform="matrix(1,0,0,1,-1,-330)" stroke-linecap="butt">
      <path fill="none" d="M863.3333 391.5 L890.3333 391.5 L893.3333 406.5 L890.3333 421.5 L863.3333 421.5 L866.3333 406.5 Z" fill-rule="evenodd" clip-path="url(#clipPath2)"/>
    </g>
    <g stroke-linecap="butt" transform="matrix(1,0,0,1,-1,-330)" fill="rgb(237,130,37)" text-rendering="geometricPrecision" shape-rendering="geometricPrecision" stroke="rgb(237,130,37)" stroke-width="7" stroke-miterlimit="1.45">
      <path d="M426.1728 396 L426.1728 403 L212.9794 403 L212.9794 410 L426.1728 410 L426.1728 417 L454.1728 406.5 L426.1728 396 Z" stroke="none" clip-path="url(#clipPath2)"/>
      <path fill="none" d="M426.1728 396 L426.1728 403 L212.9794 403 L212.9794 410 L426.1728 410 L426.1728 417 L454.1728 406.5 L426.1728 396 Z" stroke-width="1" clip-path="url(#clipPath2)" stroke="black"/>
    </g>
    <g stroke-linecap="butt" transform="matrix(1,0,0,1,-1,-330)" fill="rgb(237,130,37)" text-rendering="geometricPrecision" shape-rendering="geometricPrecision" stroke="rgb(237,130,37)" stroke-width="7" stroke-miterlimit="1.45">
      <path d="M838.3444 396 L838.3444 403 L653.0026 403 L653.0026 410 L838.3444 410 L838.3444 417 L866.3444 406.5 L838.3444 396 Z" stroke="none" clip-path="url(#clipPath2)"/>
      <path fill="none" d="M838.3444 396 L838.3444 403 L653.0026 403 L653.0026 410 L838.3444 410 L838.3444 417 L866.3444 406.5 L838.3444 396 Z" stroke-width="1" clip-path="url(#clipPath2)" stroke="black"/>
    </g>
  </g>
</svg>
