<?xml version="1.0" encoding="UTF-8"?><svg xmlns="http://www.w3.org/2000/svg" xmlns:xlink="http://www.w3.org/1999/xlink" fill-opacity="1" color-rendering="auto" color-interpolation="auto" text-rendering="auto" stroke="black" stroke-linecap="square" width="1214" stroke-miterlimit="10" shape-rendering="auto" stroke-opacity="1" fill="black" stroke-dasharray="none" font-weight="normal" stroke-width="1" height="243" font-family="'Dialog'" font-style="normal" stroke-linejoin="miter" font-size="12px" stroke-dashoffset="0" image-rendering="auto">
  <!--Generated by ySVG 2.5-->
  <defs id="genericDefs"/>
  <g>
    <defs id="defs1">
      <clipPath clipPathUnits="userSpaceOnUse" id="clipPath1">
        <path d="M0 0 L1214 0 L1214 243 L0 243 L0 0 Z"/>
      </clipPath>
      <clipPath clipPathUnits="userSpaceOnUse" id="clipPath2">
        <path d="M79 262 L1293 262 L1293 505 L79 505 L79 262 Z"/>
      </clipPath>
    </defs>
    <g fill="rgb(237,130,37)" text-rendering="geometricPrecision" shape-rendering="geometricPrecision" transform="matrix(1,0,0,1,-79,-262)" stroke="rgb(237,130,37)">
      <path d="M94.25 359.25 L267.05 359.25 L286.25 381.25 L267.05 403.25 L94.25 403.25 L113.45 381.25 Z" fill-rule="evenodd" clip-path="url(#clipPath2)" stroke="none"/>
    </g>
    <g text-rendering="geometricPrecision" stroke-miterlimit="1.45" shape-rendering="geometricPrecision" transform="matrix(1,0,0,1,-79,-262)" stroke-linecap="butt">
      <path fill="none" d="M94.25 359.25 L267.05 359.25 L286.25 381.25 L267.05 403.25 L94.25 403.25 L113.45 381.25 Z" fill-rule="evenodd" clip-path="url(#clipPath2)"/>
      <text x="157.5342" xml:space="preserve" y="385.4043" clip-path="url(#clipPath2)" font-family="sans-serif" stroke="none">Endpoint A</text>
    </g>
    <g fill="rgb(237,130,37)" text-rendering="geometricPrecision" shape-rendering="geometricPrecision" transform="matrix(1,0,0,1,-79,-262)" stroke="rgb(237,130,37)">
      <path d="M587.7812 334.5 L760.5815 334.5 L779.7812 356.5 L760.5815 378.5 L587.7812 378.5 L606.981 356.5 Z" fill-rule="evenodd" clip-path="url(#clipPath2)" stroke="none"/>
    </g>
    <g text-rendering="geometricPrecision" stroke-miterlimit="1.45" shape-rendering="geometricPrecision" transform="matrix(1,0,0,1,-79,-262)" stroke-linecap="butt">
      <path fill="none" d="M587.7812 334.5 L760.5815 334.5 L779.7812 356.5 L760.5815 378.5 L587.7812 378.5 L606.981 356.5 Z" fill-rule="evenodd" clip-path="url(#clipPath2)"/>
      <text x="651.0537" xml:space="preserve" y="360.6543" clip-path="url(#clipPath2)" font-family="sans-serif" stroke="none">Endpoint B</text>
    </g>
    <g fill="rgb(237,90,0)" text-rendering="geometricPrecision" shape-rendering="geometricPrecision" transform="matrix(1,0,0,1,-79,-262)" stroke="rgb(237,90,0)">
      <rect x="343.5938" y="352" clip-path="url(#clipPath2)" width="192" rx="4" ry="4" height="58.5" stroke="none"/>
    </g>
    <g text-rendering="geometricPrecision" stroke-miterlimit="1.45" shape-rendering="geometricPrecision" transform="matrix(1,0,0,1,-79,-262)" stroke-linecap="butt">
      <rect x="343.5938" y="352" clip-path="url(#clipPath2)" fill="none" width="192" rx="4" ry="4" height="58.5"/>
      <text x="416.6836" y="385.4043" clip-path="url(#clipPath2)" font-family="sans-serif" stroke="none" font-weight="bold" xml:space="preserve">Router</text>
    </g>
    <g fill="rgb(237,130,37)" text-rendering="geometricPrecision" shape-rendering="geometricPrecision" transform="matrix(1,0,0,1,-79,-262)" stroke="rgb(237,130,37)">
      <path d="M587.7812 387 L760.5813 387 L779.7812 409 L760.5813 431 L587.7812 431 L606.9812 409 Z" fill-rule="evenodd" clip-path="url(#clipPath2)" stroke="none"/>
    </g>
    <g text-rendering="geometricPrecision" stroke-miterlimit="1.45" shape-rendering="geometricPrecision" transform="matrix(1,0,0,1,-79,-262)" stroke-linecap="butt">
      <path fill="none" d="M587.7812 387 L760.5813 387 L779.7812 409 L760.5813 431 L587.7812 431 L606.9812 409 Z" fill-rule="evenodd" clip-path="url(#clipPath2)"/>
      <text x="650.9805" xml:space="preserve" y="413.1543" clip-path="url(#clipPath2)" font-family="sans-serif" stroke="none">Endpoint C</text>
    </g>
    <g fill="rgb(237,130,37)" text-rendering="geometricPrecision" shape-rendering="geometricPrecision" transform="matrix(1,0,0,1,-79,-262)" stroke="rgb(237,130,37)">
      <rect x="94.25" width="38.75" height="44" y="359.25" clip-path="url(#clipPath2)" stroke="none"/>
    </g>
    <g text-rendering="geometricPrecision" stroke-miterlimit="1.45" shape-rendering="geometricPrecision" transform="matrix(1,0,0,1,-79,-262)" stroke-linecap="butt">
      <rect fill="none" x="94.25" width="38.75" height="44" y="359.25" clip-path="url(#clipPath2)"/>
    </g>
    <g fill="rgb(237,130,37)" text-rendering="geometricPrecision" shape-rendering="geometricPrecision" transform="matrix(1,0,0,1,-79,-262)" stroke="rgb(237,130,37)">
      <path d="M1068.1875 373.5 L1240.9875 373.5 L1260.1875 395.5 L1240.9875 417.5 L1068.1875 417.5 L1087.3875 395.5 Z" fill-rule="evenodd" clip-path="url(#clipPath2)" stroke="none"/>
    </g>
    <g text-rendering="geometricPrecision" stroke-miterlimit="1.45" shape-rendering="geometricPrecision" transform="matrix(1,0,0,1,-79,-262)" stroke-linecap="butt">
      <path fill="none" d="M1068.1875 373.5 L1240.9875 373.5 L1260.1875 395.5 L1240.9875 417.5 L1068.1875 417.5 L1087.3875 395.5 Z" fill-rule="evenodd" clip-path="url(#clipPath2)"/>
      <text x="1131.7852" xml:space="preserve" y="399.6543" clip-path="url(#clipPath2)" font-family="sans-serif" stroke="none">Endpoint E</text>
    </g>
    <g fill="rgb(237,90,0)" text-rendering="geometricPrecision" shape-rendering="geometricPrecision" transform="matrix(1,0,0,1,-79,-262)" stroke="rgb(237,90,0)">
      <rect x="831.9688" y="394.75" clip-path="url(#clipPath2)" width="192" rx="4" ry="4" height="58.5" stroke="none"/>
    </g>
    <g text-rendering="geometricPrecision" stroke-miterlimit="1.45" shape-rendering="geometricPrecision" transform="matrix(1,0,0,1,-79,-262)" stroke-linecap="butt">
      <rect x="831.9688" y="394.75" clip-path="url(#clipPath2)" fill="none" width="192" rx="4" ry="4" height="58.5"/>
      <text x="905.0586" y="428.1543" clip-path="url(#clipPath2)" font-family="sans-serif" stroke="none" font-weight="bold" xml:space="preserve">Router</text>
    </g>
    <g fill="rgb(237,130,37)" text-rendering="geometricPrecision" shape-rendering="geometricPrecision" transform="matrix(1,0,0,1,-79,-262)" stroke="rgb(237,130,37)">
      <path d="M1068.1875 426.25 L1240.9875 426.25 L1260.1875 448.25 L1240.9875 470.25 L1068.1875 470.25 L1087.3875 448.25 Z" fill-rule="evenodd" clip-path="url(#clipPath2)" stroke="none"/>
    </g>
    <g text-rendering="geometricPrecision" stroke-miterlimit="1.45" shape-rendering="geometricPrecision" transform="matrix(1,0,0,1,-79,-262)" stroke-linecap="butt">
      <path fill="none" d="M1068.1875 426.25 L1240.9875 426.25 L1260.1875 448.25 L1240.9875 470.25 L1068.1875 470.25 L1087.3875 448.25 Z" fill-rule="evenodd" clip-path="url(#clipPath2)"/>
      <text x="1132.125" xml:space="preserve" y="452.4043" clip-path="url(#clipPath2)" font-family="sans-serif" stroke="none">Endpoint F</text>
    </g>
    <g fill="rgb(237,130,37)" text-rendering="geometricPrecision" shape-rendering="geometricPrecision" transform="matrix(1,0,0,1,-79,-262)" stroke="rgb(237,130,37)">
      <path d="M1068.1875 320.75 L1240.9875 320.75 L1260.1875 342.75 L1240.9875 364.75 L1068.1875 364.75 L1087.3875 342.75 Z" fill-rule="evenodd" clip-path="url(#clipPath2)" stroke="none"/>
    </g>
    <g text-rendering="geometricPrecision" stroke-miterlimit="1.45" shape-rendering="geometricPrecision" transform="matrix(1,0,0,1,-79,-262)" stroke-linecap="butt">
      <path fill="none" d="M1068.1875 320.75 L1240.9875 320.75 L1260.1875 342.75 L1240.9875 364.75 L1068.1875 364.75 L1087.3875 342.75 Z" fill-rule="evenodd" clip-path="url(#clipPath2)"/>
      <text x="1130.9561" xml:space="preserve" y="346.9043" clip-path="url(#clipPath2)" font-family="sans-serif" stroke="none">Endpoint D</text>
    </g>
    <g fill="rgb(237,90,0)" text-rendering="geometricPrecision" shape-rendering="geometricPrecision" transform="matrix(1,0,0,1,-79,-262)" stroke="rgb(237,90,0)">
      <rect x="831.9688" y="313.5" clip-path="url(#clipPath2)" width="192" rx="4" ry="4" height="58.5" stroke="none"/>
    </g>
    <g text-rendering="geometricPrecision" stroke-miterlimit="1.45" shape-rendering="geometricPrecision" transform="matrix(1,0,0,1,-79,-262)" stroke-linecap="butt">
      <rect x="831.9688" y="313.5" clip-path="url(#clipPath2)" fill="none" width="192" rx="4" ry="4" height="58.5"/>
      <text x="905.0586" y="346.9043" clip-path="url(#clipPath2)" font-family="sans-serif" stroke="none" font-weight="bold" xml:space="preserve">Router</text>
    </g>
    <g fill="rgb(204,153,255)" text-rendering="geometricPrecision" shape-rendering="geometricPrecision" transform="matrix(1,0,0,1,-79,-262)" stroke="rgb(204,153,255)">
      <path d="M494.3236 415.8083 L577.5413 415.8083 L568.2947 445.8083 L485.0771 445.8083 Z" fill-rule="evenodd" clip-path="url(#clipPath2)" stroke="none"/>
    </g>
    <g text-rendering="geometricPrecision" stroke-miterlimit="1.45" shape-rendering="geometricPrecision" transform="matrix(1,0,0,1,-79,-262)" stroke-linecap="butt">
      <path fill="none" d="M494.3236 415.8083 L577.5413 415.8083 L568.2947 445.8083 L485.0771 445.8083 Z" fill-rule="evenodd" clip-path="url(#clipPath2)"/>
      <text x="495.8747" xml:space="preserve" y="434.9623" clip-path="url(#clipPath2)" font-family="sans-serif" stroke="none">Exchange A</text>
    </g>
    <g fill="rgb(204,153,255)" text-rendering="geometricPrecision" shape-rendering="geometricPrecision" transform="matrix(1,0,0,1,-79,-262)" stroke="rgb(204,153,255)">
      <path d="M270.2968 317.504 L353.5145 317.504 L344.2681 347.504 L261.0504 347.504 Z" fill-rule="evenodd" clip-path="url(#clipPath2)" stroke="none"/>
    </g>
    <g text-rendering="geometricPrecision" stroke-miterlimit="1.45" shape-rendering="geometricPrecision" transform="matrix(1,0,0,1,-79,-262)" stroke-linecap="butt">
      <path fill="none" d="M270.2968 317.504 L353.5145 317.504 L344.2681 347.504 L261.0504 347.504 Z" fill-rule="evenodd" clip-path="url(#clipPath2)"/>
      <text x="271.8479" xml:space="preserve" y="336.6583" clip-path="url(#clipPath2)" font-family="sans-serif" stroke="none">Exchange A</text>
    </g>
    <g fill="rgb(204,153,255)" text-rendering="geometricPrecision" shape-rendering="geometricPrecision" transform="matrix(1,0,0,1,-79,-262)" stroke="rgb(204,153,255)">
      <path d="M494.3237 317.504 L577.5413 317.504 L568.2949 347.504 L485.0773 347.504 Z" fill-rule="evenodd" clip-path="url(#clipPath2)" stroke="none"/>
    </g>
    <g text-rendering="geometricPrecision" stroke-miterlimit="1.45" shape-rendering="geometricPrecision" transform="matrix(1,0,0,1,-79,-262)" stroke-linecap="butt">
      <path fill="none" d="M494.3237 317.504 L577.5413 317.504 L568.2949 347.504 L485.0773 347.504 Z" fill-rule="evenodd" clip-path="url(#clipPath2)"/>
      <text x="495.8747" xml:space="preserve" y="336.6583" clip-path="url(#clipPath2)" font-family="sans-serif" stroke="none">Exchange A</text>
    </g>
    <g fill="rgb(204,153,255)" text-rendering="geometricPrecision" shape-rendering="geometricPrecision" transform="matrix(1,0,0,1,-79,-262)" stroke="rgb(204,153,255)">
      <path d="M751.5234 295.9999 L834.741 295.9999 L825.4946 325.9999 L742.277 325.9999 Z" fill-rule="evenodd" clip-path="url(#clipPath2)" stroke="none"/>
    </g>
    <g text-rendering="geometricPrecision" stroke-miterlimit="1.45" shape-rendering="geometricPrecision" transform="matrix(1,0,0,1,-79,-262)" stroke-linecap="butt">
      <path fill="none" d="M751.5234 295.9999 L834.741 295.9999 L825.4946 325.9999 L742.277 325.9999 Z" fill-rule="evenodd" clip-path="url(#clipPath2)"/>
      <text x="753.0627" xml:space="preserve" y="315.1543" clip-path="url(#clipPath2)" font-family="sans-serif" stroke="none">Exchange B</text>
    </g>
    <g fill="rgb(204,153,255)" text-rendering="geometricPrecision" shape-rendering="geometricPrecision" transform="matrix(1,0,0,1,-79,-262)" stroke="rgb(204,153,255)">
      <path d="M745.1207 439.5001 L828.3383 439.5001 L819.0919 469.5001 L735.8743 469.5001 Z" fill-rule="evenodd" clip-path="url(#clipPath2)" stroke="none"/>
    </g>
    <g text-rendering="geometricPrecision" stroke-miterlimit="1.45" shape-rendering="geometricPrecision" transform="matrix(1,0,0,1,-79,-262)" stroke-linecap="butt">
      <path fill="none" d="M745.1207 439.5001 L828.3383 439.5001 L819.0919 469.5001 L735.8743 469.5001 Z" fill-rule="evenodd" clip-path="url(#clipPath2)"/>
      <text x="746.5867" xml:space="preserve" y="458.6543" clip-path="url(#clipPath2)" font-family="sans-serif" stroke="none">Exchange C</text>
    </g>
    <g fill="rgb(204,153,255)" text-rendering="geometricPrecision" shape-rendering="geometricPrecision" transform="matrix(1,0,0,1,-79,-262)" stroke="rgb(204,153,255)">
      <path d="M973.2349 277.4799 L1056.4525 277.4799 L1047.2062 307.4799 L963.9885 307.4799 Z" fill-rule="evenodd" clip-path="url(#clipPath2)" stroke="none"/>
    </g>
    <g text-rendering="geometricPrecision" stroke-miterlimit="1.45" shape-rendering="geometricPrecision" transform="matrix(1,0,0,1,-79,-262)" stroke-linecap="butt">
      <path fill="none" d="M973.2349 277.4799 L1056.4525 277.4799 L1047.2062 307.4799 L963.9885 307.4799 Z" fill-rule="evenodd" clip-path="url(#clipPath2)"/>
      <text x="974.7742" xml:space="preserve" y="296.6343" clip-path="url(#clipPath2)" font-family="sans-serif" stroke="none">Exchange B</text>
    </g>
    <g fill="rgb(204,153,255)" text-rendering="geometricPrecision" shape-rendering="geometricPrecision" transform="matrix(1,0,0,1,-79,-262)" stroke="rgb(204,153,255)">
      <path d="M973.2349 380.5 L1056.4525 380.5 L1047.2062 410.5 L963.9885 410.5 Z" fill-rule="evenodd" clip-path="url(#clipPath2)" stroke="none"/>
    </g>
    <g text-rendering="geometricPrecision" stroke-miterlimit="1.45" shape-rendering="geometricPrecision" transform="matrix(1,0,0,1,-79,-262)" stroke-linecap="butt">
      <path fill="none" d="M973.2349 380.5 L1056.4525 380.5 L1047.2062 410.5 L963.9885 410.5 Z" fill-rule="evenodd" clip-path="url(#clipPath2)"/>
      <text x="974.701" xml:space="preserve" y="399.6543" clip-path="url(#clipPath2)" font-family="sans-serif" stroke="none">Exchange C</text>
    </g>
    <g fill="rgb(204,153,255)" text-rendering="geometricPrecision" shape-rendering="geometricPrecision" transform="matrix(1,0,0,1,-79,-262)" stroke="rgb(204,153,255)">
      <path d="M973.2347 459.2921 L1056.4528 459.2921 L1047.2063 489.2921 L963.9883 489.2921 Z" fill-rule="evenodd" clip-path="url(#clipPath2)" stroke="none"/>
    </g>
    <g text-rendering="geometricPrecision" stroke-miterlimit="1.45" shape-rendering="geometricPrecision" transform="matrix(1,0,0,1,-79,-262)" stroke-linecap="butt">
      <path fill="none" d="M973.2347 459.2921 L1056.4528 459.2921 L1047.2063 489.2921 L963.9883 489.2921 Z" fill-rule="evenodd" clip-path="url(#clipPath2)"/>
      <text x="974.701" xml:space="preserve" y="478.4463" clip-path="url(#clipPath2)" font-family="sans-serif" stroke="none">Exchange C</text>
    </g>
    <g fill="rgb(237,130,37)" text-rendering="geometricPrecision" shape-rendering="geometricPrecision" transform="matrix(1,0,0,1,-79,-262)" stroke="rgb(237,130,37)">
      <rect x="1239.042" width="38.75" height="44" y="426.25" clip-path="url(#clipPath2)" stroke="none"/>
    </g>
    <g text-rendering="geometricPrecision" stroke-miterlimit="1.45" shape-rendering="geometricPrecision" transform="matrix(1,0,0,1,-79,-262)" stroke-linecap="butt">
      <rect fill="none" x="1239.042" width="38.75" height="44" y="426.25" clip-path="url(#clipPath2)"/>
    </g>
    <g fill="rgb(237,130,37)" text-rendering="geometricPrecision" shape-rendering="geometricPrecision" transform="matrix(1,0,0,1,-79,-262)" stroke="rgb(237,130,37)">
      <rect x="1239.042" width="38.75" height="44" y="373.5" clip-path="url(#clipPath2)" stroke="none"/>
    </g>
    <g text-rendering="geometricPrecision" stroke-miterlimit="1.45" shape-rendering="geometricPrecision" transform="matrix(1,0,0,1,-79,-262)" stroke-linecap="butt">
      <rect fill="none" x="1239.042" width="38.75" height="44" y="373.5" clip-path="url(#clipPath2)"/>
    </g>
    <g fill="rgb(237,130,37)" text-rendering="geometricPrecision" shape-rendering="geometricPrecision" transform="matrix(1,0,0,1,-79,-262)" stroke="rgb(237,130,37)">
      <rect x="1239.042" width="38.75" height="44" y="320.75" clip-path="url(#clipPath2)" stroke="none"/>
    </g>
    <g text-rendering="geometricPrecision" stroke-miterlimit="1.45" shape-rendering="geometricPrecision" transform="matrix(1,0,0,1,-79,-262)" stroke-linecap="butt">
      <rect fill="none" x="1239.042" width="38.75" height="44" y="320.75" clip-path="url(#clipPath2)"/>
    </g>
    <g stroke-linecap="butt" transform="matrix(1,0,0,1,-79,-262)" fill="rgb(237,130,37)" text-rendering="geometricPrecision" shape-rendering="geometricPrecision" stroke="rgb(237,130,37)" stroke-width="7" stroke-miterlimit="1.45">
      <path d="M315.5809 370.75 L315.5809 377.75 L286.2865 377.75 L286.2865 384.75 L315.5809 384.75 L315.5809 391.75 L343.5809 381.25 L315.5809 370.75 Z" stroke="none" clip-path="url(#clipPath2)"/>
      <path fill="none" d="M315.5809 370.75 L315.5809 377.75 L286.2865 377.75 L286.2865 384.75 L315.5809 384.75 L315.5809 391.75 L343.5809 381.25 L315.5809 370.75 Z" stroke-width="1" clip-path="url(#clipPath2)" stroke="rgb(237,110,0)"/>
    </g>
    <g stroke-linecap="butt" transform="matrix(1,0,0,1,-79,-262)" fill="rgb(237,130,37)" text-rendering="geometricPrecision" shape-rendering="geometricPrecision" stroke="rgb(237,130,37)" stroke-width="7" stroke-miterlimit="1.45">
      <path d="M584.6538 349.1894 L585.6776 356.1141 L585.6776 356.1141 L535.0898 363.5933 L536.1063 370.5191 L586.7014 363.0388 L587.7252 369.9636 L606.9637 356.5052 L584.6538 349.1894 Z" stroke="none" clip-path="url(#clipPath2)"/>
      <path fill="none" d="M584.6538 349.1894 L585.6776 356.1141 L585.6776 356.1141 L535.0898 363.5933 L536.1063 370.5191 L586.7014 363.0388 L587.7252 369.9636 L606.9637 356.5052 L584.6538 349.1894 Z" stroke-width="1" clip-path="url(#clipPath2)" stroke="rgb(237,110,0)"/>
    </g>
    <g stroke-linecap="butt" transform="matrix(1,0,0,1,-79,-262)" fill="rgb(237,130,37)" text-rendering="geometricPrecision" shape-rendering="geometricPrecision" stroke="rgb(237,130,37)" stroke-width="7" stroke-miterlimit="1.45">
      <path d="M536.17 393.7113 L535.0262 400.6172 L585.674 409.0129 L585.674 409.0129 L584.5293 415.9186 L584.5293 415.9186 L606.9637 408.9942 L587.9635 395.2014 L586.8188 402.1071 L586.8188 402.1071 L536.17 393.7113 Z" stroke="none" clip-path="url(#clipPath2)"/>
      <path fill="none" d="M536.17 393.7113 L535.0262 400.6172 L585.674 409.0129 L585.674 409.0129 L584.5293 415.9186 L584.5293 415.9186 L606.9637 408.9942 L587.9635 395.2014 L586.8188 402.1071 L586.8188 402.1071 L536.17 393.7113 Z" stroke-width="1" clip-path="url(#clipPath2)" stroke="rgb(237,110,0)"/>
    </g>
    <g stroke-linecap="butt" transform="matrix(1,0,0,1,-79,-262)" fill="rgb(237,130,37)" text-rendering="geometricPrecision" shape-rendering="geometricPrecision" stroke="rgb(237,130,37)" stroke-width="7" stroke-miterlimit="1.45">
      <path d="M780.7561 405.6429 L778.8271 412.3718 L804.0804 419.626 L804.0804 419.626 L802.1477 426.3539 L831.9584 423.9927 L807.9457 406.1702 L806.013 412.8981 L806.013 412.8981 L780.7561 405.6429 Z" stroke="none" clip-path="url(#clipPath2)"/>
      <path fill="none" d="M780.7561 405.6429 L778.8271 412.3718 L804.0804 419.626 L804.0804 419.626 L802.1477 426.3539 L831.9584 423.9927 L807.9457 406.1702 L806.013 412.8981 L806.013 412.8981 L780.7561 405.6429 Z" stroke-width="1" clip-path="url(#clipPath2)" stroke="rgb(237,110,0)"/>
    </g>
    <g stroke-linecap="butt" transform="matrix(1,0,0,1,-79,-262)" fill="rgb(237,130,37)" text-rendering="geometricPrecision" shape-rendering="geometricPrecision" stroke="rgb(237,130,37)" stroke-width="7" stroke-miterlimit="1.45">
      <path d="M1064.8538 388.8647 L1066.0856 395.7554 L1066.0856 395.7554 L1023.382 403.3889 L1024.6105 410.2803 L1067.3174 402.6462 L1068.5491 409.537 L1087.3738 395.5055 L1064.8538 388.8647 Z" stroke="none" clip-path="url(#clipPath2)"/>
      <path fill="none" d="M1064.8538 388.8647 L1066.0856 395.7554 L1066.0856 395.7554 L1023.382 403.3889 L1024.6105 410.2803 L1067.3174 402.6462 L1068.5491 409.537 L1087.3738 395.5055 L1064.8538 388.8647 Z" stroke-width="1" clip-path="url(#clipPath2)" stroke="rgb(237,110,0)"/>
    </g>
    <g stroke-linecap="butt" transform="matrix(1,0,0,1,-79,-262)" fill="rgb(237,130,37)" text-rendering="geometricPrecision" shape-rendering="geometricPrecision" stroke="rgb(237,130,37)" stroke-width="7" stroke-miterlimit="1.45">
      <path d="M1068.1914 434.7069 L1067.1388 441.6273 L1024.5258 435.1459 L1023.4668 442.0654 L1066.0863 448.5477 L1066.0863 448.5477 L1065.0337 455.4681 L1087.3738 448.2453 L1068.1914 434.7069 Z" stroke="none" clip-path="url(#clipPath2)"/>
      <path fill="none" d="M1068.1914 434.7069 L1067.1388 441.6273 L1024.5258 435.1459 L1023.4668 442.0654 L1066.0863 448.5477 L1066.0863 448.5477 L1065.0337 455.4681 L1087.3738 448.2453 L1068.1914 434.7069 Z" stroke-width="1" clip-path="url(#clipPath2)" stroke="rgb(237,110,0)"/>
    </g>
    <g stroke-linecap="butt" transform="matrix(1,0,0,1,-79,-262)" fill="rgb(237,130,37)" text-rendering="geometricPrecision" shape-rendering="geometricPrecision" stroke="rgb(237,130,37)" stroke-width="7" stroke-miterlimit="1.45">
      <path d="M802.2077 339.7328 L803.9902 346.502 L778.8996 353.1089 L780.6837 359.8777 L805.7726 353.2713 L807.5552 360.0405 L831.9584 342.7567 L802.2077 339.7328 Z" stroke="none" clip-path="url(#clipPath2)"/>
      <path fill="none" d="M802.2077 339.7328 L803.9902 346.502 L778.8996 353.1089 L780.6837 359.8777 L805.7726 353.2713 L807.5552 360.0405 L831.9584 342.7567 L802.2077 339.7328 Z" stroke-width="1" clip-path="url(#clipPath2)" stroke="rgb(237,110,0)"/>
    </g>
    <g stroke-linecap="butt" transform="matrix(1,0,0,1,-79,-262)" fill="rgb(237,130,37)" text-rendering="geometricPrecision" shape-rendering="geometricPrecision" stroke="rgb(237,130,37)" stroke-width="7" stroke-miterlimit="1.45">
      <path d="M1066.3738 332.25 L1066.3738 339.25 L1023.9963 339.25 L1023.9963 346.25 L1066.3738 346.25 L1066.3738 353.25 L1087.3738 342.75 L1066.3738 332.25 Z" stroke="none" clip-path="url(#clipPath2)"/>
      <path fill="none" d="M1066.3738 332.25 L1066.3738 339.25 L1023.9963 339.25 L1023.9963 346.25 L1066.3738 346.25 L1066.3738 353.25 L1087.3738 342.75 L1066.3738 332.25 Z" stroke-width="1" clip-path="url(#clipPath2)" stroke="rgb(237,110,0)"/>
    </g>
  </g>
</svg>
