<?xml version="1.0" encoding="UTF-8" standalone="no"?>
<svg
   xmlns:dc="http://purl.org/dc/elements/1.1/"
   xmlns:cc="http://creativecommons.org/ns#"
   xmlns:rdf="http://www.w3.org/1999/02/22-rdf-syntax-ns#"
   xmlns:svg="http://www.w3.org/2000/svg"
   xmlns="http://www.w3.org/2000/svg"
   viewBox="0 0 736.17865 281.84668"
   height="281.84668"
   width="736.17865"
   xml:space="preserve"
   id="svg124"
   version="1.1"><metadata
     id="metadata130"><rdf:RDF><cc:Work
         rdf:about=""><dc:format>image/svg+xml</dc:format><dc:type
           rdf:resource="http://purl.org/dc/dcmitype/StillImage" /><dc:title></dc:title></cc:Work></rdf:RDF></metadata><defs
     id="defs128"><clipPath
       id="clipPath140"
       clipPathUnits="userSpaceOnUse"><path
         id="path138"
         d="M 0,211.385 H 552.134 V 0 H 0 Z" /></clipPath></defs><g
     transform="matrix(1.3333333,0,0,-1.3333333,0,281.84667)"
     id="g132"><g
       id="g134"><g
         clip-path="url(#clipPath140)"
         id="g136"><g
           transform="translate(206.6547,28.803)"
           id="g142"><path
             id="path144"
             style="fill:#0b3a42;fill-opacity:1;fill-rule:nonzero;stroke:none"
             d="m 0,0 c -1.381,0.391 -2.574,0.935 -3.579,1.632 -0.111,0.055 -0.188,0.153 -0.23,0.293 -0.042,0.139 -0.035,0.279 0.021,0.419 l 0.963,1.884 c 0.139,0.251 0.335,0.376 0.586,0.376 0.139,0 0.251,-0.028 0.335,-0.083 2.148,-1.285 4.185,-1.926 6.111,-1.926 1.785,0 3.25,0.453 4.395,1.36 1.144,0.906 1.716,2.128 1.716,3.663 0,1.004 -0.251,1.827 -0.754,2.469 -0.502,0.642 -1.13,1.158 -1.883,1.549 -0.754,0.39 -1.8,0.851 -3.139,1.382 -1.758,0.669 -3.168,1.29 -4.228,1.862 -1.061,0.571 -1.981,1.402 -2.762,2.49 -0.782,1.089 -1.173,2.497 -1.173,4.228 0,1.73 0.412,3.202 1.235,4.416 0.823,1.214 1.919,2.114 3.286,2.7 1.367,0.586 2.874,0.879 4.52,0.879 1.34,0 2.644,-0.189 3.914,-0.566 1.27,-0.377 2.393,-0.885 3.37,-1.527 0.111,-0.057 0.188,-0.161 0.23,-0.314 0.042,-0.154 0.021,-0.3 -0.063,-0.44 L 11.95,25.03 c -0.083,-0.168 -0.209,-0.279 -0.376,-0.335 -0.168,-0.056 -0.335,-0.028 -0.503,0.084 -1.869,1.116 -3.739,1.674 -5.609,1.674 -1.702,0 -3.062,-0.418 -4.081,-1.256 -1.019,-0.837 -1.527,-1.981 -1.527,-3.431 0,-1.005 0.251,-1.836 0.753,-2.492 0.502,-0.655 1.123,-1.178 1.863,-1.569 0.738,-0.391 1.792,-0.851 3.16,-1.381 0.251,-0.112 1.193,-0.474 2.825,-1.089 1.632,-0.614 2.93,-1.548 3.893,-2.803 0.963,-1.256 1.444,-2.763 1.444,-4.521 0,-1.73 -0.412,-3.237 -1.235,-4.52 C 11.734,2.106 10.597,1.123 9.146,0.439 7.695,-0.244 6.034,-0.586 4.165,-0.586 2.769,-0.586 1.381,-0.391 0,0" /></g><g
           transform="translate(240.5371,42.5316)"
           id="g146"><path
             id="path148"
             style="fill:#0b3a42;fill-opacity:1;fill-rule:nonzero;stroke:none"
             d="m 0,0 v 1.549 c 0,1.06 -0.258,2.037 -0.774,2.93 -0.517,0.893 -1.221,1.597 -2.114,2.114 -0.893,0.515 -1.87,0.774 -2.93,0.774 -1.061,0 -2.037,-0.259 -2.93,-0.774 -0.893,-0.517 -1.598,-1.221 -2.114,-2.114 -0.516,-0.893 -0.774,-1.87 -0.774,-2.93 V 0 Z m -10.38,-12.557 c -1.396,0.809 -2.498,1.918 -3.307,3.328 -0.81,1.409 -1.214,2.936 -1.214,4.583 V 1.34 c 0,1.646 0.404,3.174 1.214,4.583 0.809,1.409 1.911,2.518 3.307,3.328 1.395,0.809 2.915,1.214 4.562,1.214 1.646,0 3.167,-0.405 4.562,-1.214 C 0.139,8.441 1.241,7.332 2.051,5.923 2.86,4.514 3.265,2.986 3.265,1.34 v -2.847 c 0,-0.418 -0.147,-0.774 -0.44,-1.067 -0.293,-0.293 -0.648,-0.44 -1.067,-0.44 h -13.394 v -1.841 c 0,-1.061 0.258,-2.038 0.774,-2.93 0.516,-0.894 1.221,-1.598 2.114,-2.113 0.893,-0.517 1.869,-0.775 2.93,-0.775 h 6.069 c 0.167,0 0.307,-0.056 0.419,-0.168 0.111,-0.111 0.167,-0.251 0.167,-0.418 v -1.926 c 0,-0.167 -0.056,-0.307 -0.167,-0.419 -0.112,-0.111 -0.252,-0.167 -0.419,-0.167 h -6.069 c -1.647,0 -3.167,0.405 -4.562,1.214" /></g><g
           transform="translate(248.2807,28.928)"
           id="g150"><path
             id="path152"
             style="fill:#0b3a42;fill-opacity:1;fill-rule:nonzero;stroke:none"
             d="m 0,0 c -0.112,0.111 -0.167,0.252 -0.167,0.419 v 1.926 c 0,0.167 0.055,0.306 0.167,0.418 0.111,0.111 0.251,0.168 0.418,0.168 H 3.893 V 20.552 H 0.418 c -0.167,0 -0.307,0.055 -0.418,0.168 -0.112,0.111 -0.167,0.251 -0.167,0.418 v 1.799 c 0,0.168 0.055,0.307 0.167,0.419 0.111,0.112 0.251,0.167 0.418,0.167 h 5.233 c 0.418,0 0.774,-0.146 1.067,-0.439 0.293,-0.293 0.44,-0.648 0.44,-1.067 v -2.093 l 2.427,1.884 c 1.005,0.781 1.821,1.304 2.449,1.569 0.628,0.266 1.29,0.398 1.988,0.398 h 1.256 c 0.195,0 0.341,-0.056 0.439,-0.168 0.097,-0.111 0.147,-0.251 0.147,-0.418 v -2.051 c 0,-0.167 -0.056,-0.307 -0.168,-0.418 -0.112,-0.113 -0.251,-0.168 -0.418,-0.168 h -0.921 c -0.698,0 -1.354,-0.147 -1.967,-0.44 -0.615,-0.293 -1.536,-0.927 -2.763,-1.904 L 7.158,16.241 V 2.931 h 4.855 c 0.167,0 0.307,-0.057 0.419,-0.168 0.11,-0.112 0.167,-0.251 0.167,-0.418 V 0.419 C 12.599,0.252 12.542,0.111 12.432,0 12.32,-0.111 12.18,-0.167 12.013,-0.167 H 0.418 C 0.251,-0.167 0.111,-0.111 0,0" /></g><g
           transform="translate(275.8017,28.9075)"
           id="g154"><path
             id="path156"
             style="fill:#0b3a42;fill-opacity:1;fill-rule:nonzero;stroke:none"
             d="m 0,0 c -0.154,0.098 -0.259,0.23 -0.314,0.397 l -7.869,22.226 c -0.028,0.056 -0.042,0.153 -0.042,0.294 0,0.167 0.063,0.313 0.188,0.439 0.126,0.125 0.286,0.188 0.482,0.188 h 1.925 c 0.168,0 0.328,-0.049 0.482,-0.147 C -4.996,23.3 -4.891,23.168 -4.834,23 L 1.778,3.914 8.267,23 c 0.055,0.168 0.16,0.3 0.313,0.397 0.153,0.098 0.315,0.147 0.482,0.147 h 1.841 c 0.251,0 0.44,-0.091 0.566,-0.272 0.125,-0.181 0.146,-0.397 0.062,-0.649 L 3.662,0.397 C 3.606,0.23 3.501,0.098 3.349,0 3.194,-0.098 3.034,-0.146 2.867,-0.146 H 0.481 C 0.313,-0.146 0.153,-0.098 0,0" /></g><g
           transform="translate(296.206,55.8841)"
           id="g158"><path
             id="path160"
             style="fill:#0b3a42;fill-opacity:1;fill-rule:nonzero;stroke:none"
             d="m 0,0 c -0.112,0.111 -0.168,0.251 -0.168,0.419 v 3.642 c 0,0.167 0.056,0.306 0.168,0.418 0.111,0.111 0.251,0.167 0.418,0.167 h 2.01 C 2.595,4.646 2.734,4.59 2.846,4.479 2.957,4.367 3.014,4.228 3.014,4.061 V 0.419 C 3.014,0.251 2.957,0.111 2.846,0 2.734,-0.111 2.595,-0.167 2.428,-0.167 H 0.418 C 0.251,-0.167 0.111,-0.111 0,0 m 0.229,-26.684 c -0.292,0.293 -0.439,0.649 -0.439,1.068 v 19.087 h -4.352 c -0.168,0 -0.308,0.055 -0.419,0.167 -0.112,0.111 -0.167,0.251 -0.167,0.419 v 1.924 c 0,0.168 0.055,0.307 0.167,0.419 0.111,0.112 0.251,0.167 0.419,0.167 h 6.111 c 0.418,0 0.773,-0.146 1.067,-0.439 0.293,-0.293 0.44,-0.649 0.44,-1.067 v -19.086 h 4.31 c 0.168,0 0.307,-0.057 0.419,-0.168 0.111,-0.112 0.167,-0.251 0.167,-0.418 v -1.926 c 0,-0.167 -0.056,-0.308 -0.167,-0.419 -0.112,-0.111 -0.251,-0.167 -0.419,-0.167 H 1.297 c -0.418,0 -0.775,0.146 -1.068,0.439" /></g><g
           transform="translate(312.4462,29.431)"
           id="g162"><path
             id="path164"
             style="fill:#0b3a42;fill-opacity:1;fill-rule:nonzero;stroke:none"
             d="m 0,0 c -1.396,0.809 -2.498,1.918 -3.307,3.327 -0.809,1.409 -1.214,2.937 -1.214,4.584 v 6.529 c 0,1.647 0.405,3.174 1.214,4.583 0.809,1.41 1.911,2.519 3.307,3.329 1.395,0.808 2.916,1.213 4.562,1.213 1.2,0 2.337,-0.223 3.412,-0.669 1.074,-0.448 2.015,-1.061 2.825,-1.842 0.168,-0.167 0.251,-0.364 0.251,-0.586 0,-0.196 -0.083,-0.406 -0.251,-0.628 C 10.52,19.532 10.198,19.212 9.836,18.877 9.641,18.71 9.432,18.626 9.208,18.626 c -0.251,0 -0.475,0.098 -0.669,0.293 -1.117,1.032 -2.442,1.549 -3.977,1.549 -1.06,0 -2.037,-0.259 -2.929,-0.775 -0.894,-0.516 -1.599,-1.22 -2.114,-2.114 -0.517,-0.892 -0.775,-1.869 -0.775,-2.93 V 7.701 c 0,-1.06 0.258,-2.037 0.775,-2.93 C 0.034,3.878 0.739,3.174 1.633,2.657 2.525,2.141 3.502,1.884 4.562,1.884 c 1.535,0 2.86,0.515 3.977,1.548 0.194,0.195 0.418,0.293 0.669,0.293 0.224,0 0.433,-0.083 0.628,-0.251 0.335,-0.28 0.655,-0.601 0.963,-0.963 C 10.967,2.344 11.05,2.135 11.05,1.884 11.05,1.659 10.967,1.465 10.799,1.297 9.989,0.516 9.048,-0.099 7.974,-0.544 6.899,-0.99 5.762,-1.214 4.562,-1.214 2.916,-1.214 1.395,-0.81 0,0" /></g><g
           transform="translate(343.0019,42.5316)"
           id="g166"><path
             id="path168"
             style="fill:#0b3a42;fill-opacity:1;fill-rule:nonzero;stroke:none"
             d="m 0,0 v 1.549 c 0,1.06 -0.259,2.037 -0.774,2.93 -0.517,0.893 -1.222,1.597 -2.115,2.114 -0.893,0.515 -1.87,0.774 -2.929,0.774 -1.061,0 -2.037,-0.259 -2.93,-0.774 -0.894,-0.517 -1.599,-1.221 -2.114,-2.114 -0.517,-0.893 -0.775,-1.87 -0.775,-2.93 l 0,-1.549 z m -10.381,-12.557 c -1.395,0.809 -2.498,1.918 -3.307,3.328 -0.809,1.409 -1.213,2.936 -1.213,4.583 V 1.34 c 0,1.646 0.404,3.174 1.213,4.583 0.809,1.409 1.912,2.518 3.307,3.328 1.395,0.809 2.916,1.214 4.563,1.214 1.646,0 3.167,-0.405 4.562,-1.214 C 0.139,8.441 1.241,7.332 2.051,5.923 2.859,4.514 3.265,2.986 3.265,1.34 v -2.847 c 0,-0.418 -0.147,-0.774 -0.44,-1.067 -0.293,-0.293 -0.649,-0.44 -1.067,-0.44 h -13.395 v -1.841 c 0,-1.061 0.258,-2.038 0.775,-2.93 0.515,-0.894 1.22,-1.598 2.114,-2.113 0.893,-0.517 1.869,-0.775 2.93,-0.775 h 6.069 c 0.167,0 0.307,-0.056 0.418,-0.168 0.111,-0.111 0.168,-0.251 0.168,-0.418 v -1.926 c 0,-0.167 -0.057,-0.307 -0.168,-0.419 -0.111,-0.111 -0.251,-0.167 -0.418,-0.167 h -6.069 c -1.647,0 -3.168,0.405 -4.563,1.214" /></g><g
           transform="translate(372.0908,43.0765)"
           id="g170"><path
             id="path172"
             style="fill:#0b3a42;fill-opacity:1;fill-rule:nonzero;stroke:none"
             d="M 0,0 C 1.06,0 2.036,0.257 2.93,0.773 3.822,1.29 4.527,1.994 5.044,2.888 5.56,3.78 5.818,4.743 5.818,5.775 5.818,6.808 5.56,7.771 5.044,8.664 4.527,9.557 3.822,10.261 2.93,10.777 2.036,11.294 1.06,11.552 0,11.552 H -4.897 V 0 Z m -8.162,-14.148 c -0.112,0.111 -0.167,0.252 -0.167,0.419 v 26.998 c 0,0.418 0.146,0.773 0.439,1.066 0.293,0.294 0.649,0.44 1.068,0.44 h 7.031 c 1.675,0 3.209,-0.405 4.604,-1.213 C 6.208,12.751 7.311,11.663 8.12,10.296 8.929,8.929 9.334,7.422 9.334,5.775 9.334,4.129 8.929,2.622 8.12,1.255 7.311,-0.112 6.208,-1.2 4.813,-2.01 3.418,-2.819 1.884,-3.224 0.209,-3.224 h -5.106 v -10.505 c 0,-0.167 -0.056,-0.308 -0.167,-0.419 -0.113,-0.112 -0.251,-0.167 -0.419,-0.167 h -2.26 c -0.168,0 -0.308,0.055 -0.419,0.167" /></g><g
           transform="translate(385.9872,28.928)"
           id="g174"><path
             id="path176"
             style="fill:#0b3a42;fill-opacity:1;fill-rule:nonzero;stroke:none"
             d="m 0,0 c -0.112,0.111 -0.168,0.252 -0.168,0.419 v 1.926 c 0,0.167 0.056,0.306 0.168,0.418 0.11,0.111 0.251,0.168 0.418,0.168 H 3.893 V 20.552 H 0.418 c -0.167,0 -0.308,0.055 -0.418,0.168 -0.112,0.111 -0.168,0.251 -0.168,0.418 v 1.799 c 0,0.168 0.056,0.307 0.168,0.419 0.11,0.112 0.251,0.167 0.418,0.167 H 5.65 c 0.418,0 0.775,-0.146 1.068,-0.439 0.293,-0.293 0.439,-0.648 0.439,-1.067 v -2.093 l 2.428,1.884 c 1.004,0.781 1.82,1.304 2.448,1.569 0.628,0.266 1.29,0.398 1.988,0.398 h 1.256 c 0.195,0 0.341,-0.056 0.44,-0.168 0.097,-0.111 0.146,-0.251 0.146,-0.418 v -2.051 c 0,-0.167 -0.056,-0.307 -0.168,-0.418 -0.111,-0.113 -0.251,-0.168 -0.418,-0.168 h -0.921 c -0.698,0 -1.353,-0.147 -1.967,-0.44 -0.614,-0.293 -1.535,-0.927 -2.762,-1.904 L 7.157,16.241 V 2.931 h 4.856 c 0.167,0 0.306,-0.057 0.418,-0.168 0.111,-0.112 0.168,-0.251 0.168,-0.418 V 0.419 C 12.599,0.252 12.542,0.111 12.431,0 12.319,-0.111 12.18,-0.167 12.013,-0.167 H 0.418 C 0.251,-0.167 0.11,-0.111 0,0" /></g><g
           transform="translate(417.2109,32.0882)"
           id="g178"><path
             id="path180"
             style="fill:#0b3a42;fill-opacity:1;fill-rule:nonzero;stroke:none"
             d="m 0,0 c 0.893,0.517 1.598,1.221 2.114,2.114 0.516,0.893 0.775,1.869 0.775,2.93 v 6.948 c 0,1.061 -0.259,2.037 -0.775,2.93 C 1.598,15.815 0.893,16.52 0,17.036 c -0.894,0.516 -1.87,0.775 -2.93,0.775 -1.06,0 -2.037,-0.259 -2.929,-0.775 -0.894,-0.516 -1.599,-1.221 -2.115,-2.114 -0.516,-0.893 -0.774,-1.869 -0.774,-2.93 V 5.044 c 0,-1.061 0.258,-2.037 0.774,-2.93 0.516,-0.893 1.221,-1.597 2.115,-2.114 0.892,-0.517 1.869,-0.773 2.929,-0.773 1.06,0 2.036,0.256 2.93,0.773 m -7.492,-2.657 c -1.396,0.808 -2.498,1.918 -3.307,3.327 -0.809,1.409 -1.214,2.936 -1.214,4.584 v 6.529 c 0,1.647 0.405,3.174 1.214,4.583 0.809,1.409 1.911,2.519 3.307,3.328 1.394,0.809 2.916,1.214 4.562,1.214 1.647,0 3.167,-0.405 4.563,-1.214 C 3.027,18.885 4.13,17.775 4.939,16.366 5.748,14.957 6.153,13.43 6.153,11.783 V 5.254 C 6.153,3.606 5.748,2.079 4.939,0.67 4.13,-0.739 3.027,-1.849 1.633,-2.657 0.237,-3.467 -1.283,-3.871 -2.93,-3.871 c -1.646,0 -3.168,0.404 -4.562,1.214" /></g><g
           transform="translate(435.1474,28.9075)"
           id="g182"><path
             id="path184"
             style="fill:#0b3a42;fill-opacity:1;fill-rule:nonzero;stroke:none"
             d="m 0,0 c -0.154,0.098 -0.259,0.23 -0.314,0.397 l -7.87,22.226 c -0.027,0.056 -0.041,0.153 -0.041,0.294 0,0.167 0.063,0.313 0.188,0.439 0.126,0.125 0.286,0.188 0.481,0.188 h 1.926 c 0.167,0 0.327,-0.049 0.482,-0.147 C -4.995,23.3 -4.891,23.168 -4.835,23 L 1.778,3.914 8.267,23 c 0.055,0.168 0.16,0.3 0.313,0.397 0.153,0.098 0.315,0.147 0.482,0.147 h 1.841 c 0.251,0 0.44,-0.091 0.566,-0.272 0.125,-0.181 0.146,-0.397 0.062,-0.649 L 3.662,0.397 C 3.606,0.23 3.501,0.098 3.349,0 3.194,-0.098 3.034,-0.146 2.867,-0.146 H 0.481 C 0.313,-0.146 0.152,-0.098 0,0" /></g><g
           transform="translate(455.5517,55.8841)"
           id="g186"><path
             id="path188"
             style="fill:#0b3a42;fill-opacity:1;fill-rule:nonzero;stroke:none"
             d="m 0,0 c -0.112,0.111 -0.168,0.251 -0.168,0.419 v 3.642 c 0,0.167 0.056,0.306 0.168,0.418 0.111,0.111 0.251,0.167 0.418,0.167 h 2.01 C 2.595,4.646 2.734,4.59 2.846,4.479 2.957,4.367 3.014,4.228 3.014,4.061 V 0.419 C 3.014,0.251 2.957,0.111 2.846,0 2.734,-0.111 2.595,-0.167 2.428,-0.167 H 0.418 C 0.251,-0.167 0.111,-0.111 0,0 m 0.229,-26.684 c -0.292,0.293 -0.439,0.649 -0.439,1.068 v 19.087 h -4.352 c -0.168,0 -0.308,0.055 -0.419,0.167 -0.112,0.111 -0.167,0.251 -0.167,0.419 v 1.924 c 0,0.168 0.055,0.307 0.167,0.419 0.111,0.112 0.251,0.167 0.419,0.167 h 6.111 c 0.418,0 0.773,-0.146 1.067,-0.439 0.293,-0.293 0.44,-0.649 0.44,-1.067 v -19.086 h 4.31 c 0.168,0 0.307,-0.057 0.419,-0.168 0.111,-0.112 0.167,-0.251 0.167,-0.418 v -1.926 c 0,-0.167 -0.056,-0.308 -0.167,-0.419 -0.112,-0.111 -0.251,-0.167 -0.419,-0.167 H 1.297 c -0.418,0 -0.775,0.146 -1.068,0.439" /></g><g
           transform="translate(479.3056,32.0882)"
           id="g190"><path
             id="path192"
             style="fill:#0b3a42;fill-opacity:1;fill-rule:nonzero;stroke:none"
             d="m 0,0 c 0.906,0.517 1.617,1.221 2.134,2.114 0.516,0.893 0.774,1.869 0.774,2.93 v 6.948 c 0,1.061 -0.258,2.037 -0.774,2.93 C 1.617,15.815 0.906,16.52 0,17.036 c -0.907,0.516 -1.892,0.775 -2.951,0.775 -1.061,0 -2.037,-0.259 -2.93,-0.775 C -6.774,16.52 -7.479,15.815 -7.995,14.922 -8.512,14.029 -8.77,13.053 -8.77,11.992 V 5.044 c 0,-1.061 0.258,-2.037 0.775,-2.93 0.516,-0.893 1.221,-1.597 2.114,-2.114 0.893,-0.517 1.869,-0.773 2.93,-0.773 1.059,0 2.044,0.256 2.951,0.773 m -7.681,-2.699 c -1.34,0.781 -2.4,1.842 -3.181,3.18 -0.782,1.34 -1.172,2.805 -1.172,4.396 v 7.283 c 0,1.59 0.39,3.056 1.172,4.395 0.781,1.34 1.848,2.399 3.202,3.181 1.353,0.781 2.825,1.172 4.416,1.172 1.143,0 2.253,-0.21 3.327,-0.628 1.074,-0.419 2.016,-1.005 2.825,-1.758 v 9.334 c 0,0.167 0.056,0.307 0.168,0.418 0.112,0.112 0.251,0.168 0.418,0.168 h 2.094 c 0.167,0 0.307,-0.056 0.418,-0.168 0.111,-0.111 0.168,-0.251 0.168,-0.418 V -2.741 C 6.174,-2.908 6.117,-3.049 6.006,-3.16 5.895,-3.271 5.755,-3.327 5.588,-3.327 H 3.662 c -0.168,0 -0.308,0.056 -0.419,0.167 -0.111,0.111 -0.167,0.252 -0.167,0.419 v 1.842 C 2.295,-1.849 1.353,-2.581 0.251,-3.097 -0.852,-3.613 -2.03,-3.871 -3.286,-3.871 c -1.591,0 -3.056,0.391 -4.395,1.172" /></g><g
           transform="translate(507.0771,42.5316)"
           id="g194"><path
             id="path196"
             style="fill:#0b3a42;fill-opacity:1;fill-rule:nonzero;stroke:none"
             d="m 0,0 v 1.549 c 0,1.06 -0.259,2.037 -0.774,2.93 -0.517,0.893 -1.222,1.597 -2.115,2.114 -0.893,0.515 -1.87,0.774 -2.929,0.774 -1.061,0 -2.037,-0.259 -2.93,-0.774 -0.894,-0.517 -1.599,-1.221 -2.114,-2.114 -0.517,-0.893 -0.775,-1.87 -0.775,-2.93 l 0,-1.549 z m -10.381,-12.557 c -1.395,0.809 -2.498,1.918 -3.307,3.328 -0.809,1.409 -1.213,2.936 -1.213,4.583 V 1.34 c 0,1.646 0.404,3.174 1.213,4.583 0.809,1.409 1.912,2.518 3.307,3.328 1.395,0.809 2.916,1.214 4.563,1.214 1.646,0 3.167,-0.405 4.562,-1.214 C 0.139,8.441 1.241,7.332 2.051,5.923 2.859,4.514 3.265,2.986 3.265,1.34 v -2.847 c 0,-0.418 -0.147,-0.774 -0.44,-1.067 -0.293,-0.293 -0.649,-0.44 -1.067,-0.44 h -13.395 v -1.841 c 0,-1.061 0.258,-2.038 0.775,-2.93 0.515,-0.894 1.22,-1.598 2.114,-2.113 0.893,-0.517 1.869,-0.775 2.93,-0.775 h 6.069 c 0.167,0 0.307,-0.056 0.418,-0.168 0.111,-0.111 0.168,-0.251 0.168,-0.418 v -1.926 c 0,-0.167 -0.057,-0.307 -0.168,-0.419 -0.111,-0.111 -0.251,-0.167 -0.418,-0.167 h -6.069 c -1.647,0 -3.168,0.405 -4.563,1.214" /></g><g
           transform="translate(514.8203,28.928)"
           id="g198"><path
             id="path200"
             style="fill:#0b3a42;fill-opacity:1;fill-rule:nonzero;stroke:none"
             d="m 0,0 c -0.112,0.111 -0.168,0.252 -0.168,0.419 v 1.926 c 0,0.167 0.056,0.306 0.168,0.418 0.11,0.111 0.251,0.168 0.418,0.168 H 3.893 V 20.552 H 0.418 c -0.167,0 -0.308,0.055 -0.418,0.168 -0.112,0.111 -0.168,0.251 -0.168,0.418 v 1.799 c 0,0.168 0.056,0.307 0.168,0.419 0.11,0.112 0.251,0.167 0.418,0.167 H 5.65 c 0.418,0 0.775,-0.146 1.068,-0.439 0.293,-0.293 0.439,-0.648 0.439,-1.067 v -2.093 l 2.428,1.884 c 1.004,0.781 1.82,1.304 2.448,1.569 0.628,0.266 1.29,0.398 1.988,0.398 h 1.256 c 0.195,0 0.341,-0.056 0.44,-0.168 0.097,-0.111 0.146,-0.251 0.146,-0.418 v -2.051 c 0,-0.167 -0.056,-0.307 -0.168,-0.418 -0.111,-0.113 -0.251,-0.168 -0.418,-0.168 h -0.921 c -0.698,0 -1.353,-0.147 -1.967,-0.44 -0.614,-0.293 -1.535,-0.927 -2.762,-1.904 L 7.157,16.241 V 2.931 h 4.856 c 0.167,0 0.306,-0.057 0.418,-0.168 0.111,-0.112 0.168,-0.251 0.168,-0.418 V 0.419 C 12.599,0.252 12.542,0.111 12.431,0 12.319,-0.111 12.18,-0.167 12.013,-0.167 H 0.418 C 0.251,-0.167 0.11,-0.111 0,0" /></g><g
           transform="translate(537.4228,28.845)"
           id="g202"><path
             id="path204"
             style="fill:#0b3a42;fill-opacity:1;fill-rule:nonzero;stroke:none"
             d="m 0,0 c -1.229,0.335 -2.288,0.822 -3.181,1.465 -0.112,0.056 -0.188,0.146 -0.23,0.271 -0.042,0.126 -0.035,0.258 0.02,0.399 l 0.879,1.758 c 0.14,0.222 0.322,0.335 0.545,0.335 0.056,0 0.167,-0.029 0.335,-0.084 C 0.209,3.027 2.064,2.47 3.935,2.47 c 1.478,0 2.643,0.327 3.495,0.983 0.85,0.655 1.276,1.583 1.276,2.783 0,0.726 -0.188,1.319 -0.564,1.78 -0.377,0.46 -0.873,0.837 -1.487,1.13 -0.614,0.292 -1.577,0.69 -2.887,1.192 -1.704,0.641 -3.042,1.242 -4.019,1.8 -0.978,0.558 -1.744,1.269 -2.302,2.134 -0.558,0.866 -0.838,1.968 -0.838,3.307 0,2.149 0.712,3.781 2.135,4.898 1.424,1.116 3.251,1.674 5.484,1.674 1.171,0 2.336,-0.168 3.495,-0.503 1.157,-0.335 2.197,-0.809 3.118,-1.422 0.111,-0.057 0.181,-0.154 0.209,-0.293 0.028,-0.14 0.014,-0.266 -0.041,-0.377 L 10.171,19.84 c -0.056,-0.168 -0.16,-0.279 -0.314,-0.335 -0.153,-0.057 -0.314,-0.028 -0.481,0.084 -1.786,1.059 -3.502,1.59 -5.148,1.59 -1.368,0 -2.435,-0.293 -3.203,-0.879 -0.767,-0.586 -1.15,-1.438 -1.15,-2.553 0,-0.865 0.209,-1.563 0.627,-2.093 0.419,-0.53 0.921,-0.927 1.507,-1.193 C 2.596,14.195 3.53,13.826 4.813,13.352 6.46,12.766 7.758,12.222 8.706,11.72 9.654,11.218 10.437,10.548 11.05,9.711 11.664,8.873 11.971,7.785 11.971,6.445 11.971,4.297 11.225,2.602 9.731,1.36 8.238,0.118 6.251,-0.503 3.768,-0.503 2.483,-0.503 1.228,-0.335 0,0" /></g><g
           transform="translate(243.8754,92.3275)"
           id="g206"><path
             id="path208"
             style="fill:#4db05b;fill-opacity:1;fill-rule:nonzero;stroke:none"
             d="m 0,0 c 2.716,1.654 4.879,3.889 6.489,6.704 1.604,2.821 2.406,5.842 2.406,9.078 v 26.453 c 0,3.236 -0.802,6.257 -2.406,9.072 -1.61,2.81 -3.773,5.056 -6.489,6.711 -2.716,1.653 -5.643,2.483 -8.773,2.483 -3.131,0 -6.058,-0.83 -8.774,-2.483 -2.716,-1.655 -4.879,-3.901 -6.489,-6.711 -1.604,-2.815 -2.412,-5.836 -2.412,-9.072 V 15.782 c 0,-3.236 0.808,-6.257 2.412,-9.078 1.61,-2.815 3.773,-5.05 6.489,-6.704 2.716,-1.654 5.643,-2.484 8.774,-2.484 3.13,0 6.057,0.83 8.773,2.484 m -25.208,-12.612 c -5.029,2.942 -9,6.914 -11.927,11.925 -2.921,5.013 -4.386,10.505 -4.386,16.469 v 26.453 c 0,5.963 1.465,11.451 4.386,16.457 2.927,5.017 6.898,8.995 11.927,11.927 5.022,2.948 10.499,4.42 16.435,4.42 5.93,0 11.406,-1.472 16.435,-4.42 5.023,-2.932 9,-6.91 11.921,-11.927 2.926,-5.006 4.386,-10.494 4.386,-16.457 V 15.782 c 0,-5.964 -1.46,-11.456 -4.386,-16.469 -2.921,-5.011 -6.898,-8.983 -11.921,-11.925 -5.029,-2.938 -10.505,-4.409 -16.435,-4.409 -5.936,0 -11.413,1.471 -16.435,4.409" /></g><g
           transform="translate(291.8007,77.6077)"
           id="g210"><path
             id="path212"
             style="fill:#4db05b;fill-opacity:1;fill-rule:nonzero;stroke:none"
             d="m 0,0 c -4.326,1.449 -8.342,3.452 -12.048,6.024 -0.415,0.249 -0.703,0.68 -0.863,1.3 -0.172,0.631 -0.122,1.184 0.122,1.682 l 4.325,7.827 c 0.492,0.99 1.273,1.494 2.346,1.494 0.658,0 1.278,-0.172 1.858,-0.504 6.174,-3.888 11.944,-5.842 17.298,-5.842 4.359,0 7.806,1.069 10.317,3.176 2.512,2.114 3.767,4.863 3.767,8.259 0,2.235 -0.619,4.116 -1.852,5.654 -1.24,1.532 -2.888,2.837 -4.941,3.916 -2.063,1.068 -5.072,2.401 -9.022,3.972 l -3.584,1.488 c -5.604,2.401 -10.318,5.471 -14.146,9.194 -3.833,3.728 -5.753,9.199 -5.753,16.402 0,5.05 1.135,9.525 3.403,13.414 2.267,3.895 5.416,6.915 9.454,9.072 4.038,2.152 8.69,3.231 13.962,3.231 4.37,0 8.712,-0.73 13.038,-2.179 4.321,-1.455 8.215,-3.458 11.677,-6.025 0.411,-0.243 0.698,-0.68 0.864,-1.305 0.166,-0.62 0.122,-1.184 -0.122,-1.676 l -4.077,-7.828 c -0.493,-0.996 -1.284,-1.488 -2.351,-1.488 -0.664,0 -1.277,0.166 -1.853,0.492 -3.215,2.075 -6.284,3.563 -9.205,4.476 -2.927,0.912 -5.543,1.366 -7.849,1.366 -3.707,0 -6.633,-1.018 -8.774,-3.037 -2.14,-2.035 -3.209,-4.624 -3.209,-7.772 0,-3.225 1.173,-5.897 3.519,-8.01 2.35,-2.108 6.118,-4.243 11.306,-6.4 0.742,-0.249 3.563,-1.389 8.464,-3.414 4.902,-2.03 8.796,-4.989 11.678,-8.878 2.888,-3.9 4.326,-8.497 4.326,-13.791 0,-5.139 -1.218,-9.714 -3.645,-13.729 C 36.001,6.539 32.599,3.413 28.234,1.179 23.87,-1.057 18.842,-2.174 13.16,-2.174 8.713,-2.174 4.326,-1.449 0,0" /></g><g
           transform="translate(361.7978,79.7151)"
           id="g214"><path
             id="path216"
             style="fill:#003a40;fill-opacity:1;fill-rule:nonzero;stroke:none"
             d="m 0,0 c -4.99,2.942 -8.939,6.914 -11.866,11.926 -2.927,5.012 -4.381,10.505 -4.381,16.469 v 26.453 c 0,5.963 1.454,11.45 4.381,16.462 2.927,5.018 6.876,8.989 11.866,11.921 4.979,2.949 10.438,4.42 16.374,4.42 5.188,0 10.007,-0.941 14.454,-2.794 4.447,-1.864 8.237,-4.586 11.368,-8.137 0.492,-0.586 0.742,-1.289 0.742,-2.118 0,-0.825 -0.333,-1.655 -0.985,-2.484 L 36.51,66.409 c -0.658,-0.669 -1.318,-0.996 -1.976,-0.996 -0.824,0 -1.565,0.365 -2.223,1.118 -4.122,4.381 -9.393,6.582 -15.821,6.582 -3.132,0 -6.052,-0.829 -8.768,-2.483 C 5,68.976 2.837,66.729 1.233,63.919 -0.371,61.104 -1.173,58.083 -1.173,54.848 V 28.395 c 0,-3.237 0.802,-6.257 2.406,-9.073 1.604,-2.821 3.767,-5.055 6.489,-6.71 2.716,-1.654 5.636,-2.484 8.768,-2.484 3.136,0 6.057,0.786 8.779,2.357 2.716,1.577 4.857,3.734 6.422,6.466 1.566,2.728 2.346,5.715 2.346,8.94 v 6.09 H 17.485 c -0.747,0 -1.36,0.249 -1.858,0.742 -0.492,0.498 -0.741,1.123 -0.741,1.869 v 8.94 c 0,0.741 0.249,1.372 0.741,1.864 0.498,0.503 1.111,0.741 1.858,0.741 h 26.072 c 1.482,0 2.733,-0.514 3.767,-1.543 1.029,-1.04 1.543,-2.301 1.543,-3.789 V 28.395 C 48.867,22.431 47.401,16.938 44.48,11.926 41.56,6.914 37.604,2.942 32.62,0 27.631,-2.938 22.215,-4.409 16.374,-4.409 10.438,-4.409 4.979,-2.938 0,0" /></g><g
           transform="translate(467.3066,119.785)"
           id="g218"><path
             id="path220"
             style="fill:#003a40;fill-opacity:1;fill-rule:nonzero;stroke:none"
             d="m 0,0 v 1.112 c 0,4.066 -1.421,7.517 -4.259,10.377 -2.844,2.855 -6.29,4.282 -10.322,4.282 -4.033,0 -7.474,-1.427 -10.317,-4.282 -2.843,-2.86 -4.265,-6.311 -4.265,-10.377 V 0 Z m -29.346,-38.883 c -4.492,2.644 -8.054,6.251 -10.687,10.809 -2.639,4.547 -3.955,9.515 -3.955,14.903 V 0.243 c 0,5.383 1.316,10.356 3.955,14.914 2.633,4.547 6.195,8.154 10.687,10.803 4.487,2.65 9.409,3.983 14.765,3.983 5.354,0 10.277,-1.333 14.764,-3.983 4.492,-2.649 8.054,-6.256 10.687,-10.803 2.639,-4.558 3.961,-9.531 3.961,-14.914 v -8.325 c 0,-1.488 -0.519,-2.75 -1.543,-3.784 -1.035,-1.04 -2.29,-1.549 -3.773,-1.549 h -38.678 v -0.63 c 0,-4.055 1.422,-7.507 4.265,-10.367 2.843,-2.86 6.284,-4.282 10.317,-4.282 H 5.067 c 0.742,0 1.362,-0.254 1.854,-0.752 0.492,-0.498 0.741,-1.112 0.741,-1.858 v -8.951 c 0,-0.742 -0.249,-1.361 -0.741,-1.865 -0.492,-0.492 -1.112,-0.741 -1.854,-0.741 h -19.648 c -5.356,0 -10.278,1.328 -14.765,3.978" /></g><g
           transform="translate(533.039,94.0081)"
           id="g222"><path
             id="path224"
             style="fill:#003a40;fill-opacity:1;fill-rule:nonzero;stroke:none"
             d="m 0,0 c 2.843,2.854 4.265,6.317 4.265,10.372 v 16.274 c 0,4.055 -1.422,7.513 -4.265,10.373 -2.838,2.859 -6.284,4.281 -10.317,4.281 -4.038,0 -7.479,-1.422 -10.323,-4.281 -2.838,-2.86 -4.259,-6.318 -4.259,-10.373 V 10.372 c 0,-4.055 1.421,-7.518 4.259,-10.372 2.844,-2.86 6.285,-4.293 10.323,-4.293 4.033,0 7.479,1.433 10.317,4.293 m -25.082,-14.787 c -4.491,2.611 -8.054,6.146 -10.692,10.621 -2.633,4.476 -3.951,9.321 -3.951,14.538 v 16.274 c 0,5.217 1.318,10.063 3.951,14.538 2.638,4.464 6.201,8.01 10.692,10.621 4.486,2.606 9.41,3.911 14.765,3.911 5.355,0 10.272,-1.305 14.764,-3.911 4.487,-2.611 8.055,-6.157 10.694,-10.621 2.632,-4.475 3.955,-9.321 3.955,-14.538 V 10.372 c 0,-5.217 -1.323,-10.062 -3.955,-14.538 -2.639,-4.475 -6.207,-8.01 -10.694,-10.621 -4.492,-2.61 -9.409,-3.91 -14.764,-3.91 -5.355,0 -10.279,1.3 -14.765,3.91" /></g><g
           transform="translate(85.5449,175.1634)"
           id="g226"><path
             id="path228"
             style="fill:#4db05b;fill-opacity:1;fill-rule:nonzero;stroke:none"
             d="M 0,0 V 18.056 36.222 L -11.296,16.451 c -30.762,-6.887 -54.09,-33.439 -56.087,-65.778 h 18.056 C -47.159,-23.084 -26.243,-2.168 0,0" /></g><g
           transform="translate(36.2168,116.8338)"
           id="g230"><path
             id="path232"
             style="fill:#003a40;fill-opacity:1;fill-rule:nonzero;stroke:none"
             d="m 0,0 h -18.05 -18.167 l 19.771,-11.296 c 6.887,-30.762 33.434,-54.09 65.773,-56.087 v 18.061 C 23.084,-47.159 2.168,-26.243 0,0" /></g><g
           transform="translate(143.8779,125.8382)"
           id="g234"><path
             id="path236"
             style="fill:#003a40;fill-opacity:1;fill-rule:nonzero;stroke:none"
             d="m 0,0 h 18.056 18.16 L 16.446,11.296 C 9.564,42.059 -16.988,65.386 -49.327,67.377 V 49.327 C -23.084,47.159 -2.168,26.243 0,0" /></g><g
           transform="translate(94.5498,67.5091)"
           id="g238"><path
             id="path240"
             style="fill:#4db05b;fill-opacity:1;fill-rule:nonzero;stroke:none"
             d="m 0,0 v -18.056 -18.166 l 11.296,19.771 c 30.762,6.887 54.09,33.439 56.087,65.773 H 49.327 C 47.158,23.085 26.243,2.169 0,0" /></g><g
           transform="translate(89.9912,117.4793)"
           id="g242"><path
             id="path244"
             style="fill:#003a40;fill-opacity:1;fill-rule:nonzero;stroke:none"
             d="m 0,0 c -2.174,0 -3.938,1.765 -3.938,3.938 0,2.18 1.764,3.939 3.938,3.939 2.174,0 3.939,-1.759 3.939,-3.939 C 3.939,1.765 2.174,0 0,0 M 5.626,9.426 -27.803,31.714 -5.515,-1.715 27.914,-24.002 Z" /></g><g
           transform="translate(84.476,115.7645)"
           id="g246"><path
             id="path248"
             style="fill:#4db05b;fill-opacity:1;fill-rule:nonzero;stroke:none"
             d="M 0,0 -7.512,11.268 -41.704,5.57 -7.512,-0.127 -22.288,-22.288 -0.127,-7.512 5.571,-41.705 11.269,-7.512 Z" /></g><g
           transform="translate(103.1313,127.0345)"
           id="g250"><path
             id="path252"
             style="fill:#4db05b;fill-opacity:1;fill-rule:nonzero;stroke:none"
             d="M 0,0 14.77,22.16 -7.385,7.385 -13.083,41.577 -18.78,7.385 -7.512,-0.127 0,-11.396 34.192,-5.698 Z" /></g></g></g></g></svg>