<?xml version="1.0" encoding="UTF-8" standalone="no"?>
<!-- Created with Inkscape (http://www.inkscape.org/) -->

<svg
   xmlns:dc="http://purl.org/dc/elements/1.1/"
   xmlns:cc="http://creativecommons.org/ns#"
   xmlns:rdf="http://www.w3.org/1999/02/22-rdf-syntax-ns#"
   xmlns:svg="http://www.w3.org/2000/svg"
   xmlns="http://www.w3.org/2000/svg"
   xmlns:sodipodi="http://sodipodi.sourceforge.net/DTD/sodipodi-0.dtd"
   xmlns:inkscape="http://www.inkscape.org/namespaces/inkscape"
   version="1.1"
   id="svg3853"
   xml:space="preserve"
   width="760.77466"
   height="190.86667"
   viewBox="0 0 760.77466 190.86667"
   sodipodi:docname="osgeo-geoforall-distinct-cmyk.svg"
   inkscape:version="0.92.3 (2405546, 2018-03-11)"><metadata
     id="metadata3859"><rdf:RDF><cc:Work
         rdf:about=""><dc:format>image/svg+xml</dc:format><dc:type
           rdf:resource="http://purl.org/dc/dcmitype/StillImage" /><dc:title></dc:title></cc:Work></rdf:RDF></metadata><defs
     id="defs3857"><clipPath
       clipPathUnits="userSpaceOnUse"
       id="clipPath3869"><path
         d="M 0,143.15 H 570.581 V 0 H 0 Z"
         id="path3867"
         inkscape:connector-curvature="0" /></clipPath></defs><sodipodi:namedview
     pagecolor="#ffffff"
     bordercolor="#666666"
     borderopacity="1"
     objecttolerance="10"
     gridtolerance="10"
     guidetolerance="10"
     inkscape:pageopacity="0"
     inkscape:pageshadow="2"
     inkscape:window-width="640"
     inkscape:window-height="480"
     id="namedview3855"
     showgrid="false"
     inkscape:zoom="0.6191058"
     inkscape:cx="380.38733"
     inkscape:cy="95.433334"
     inkscape:window-x="0"
     inkscape:window-y="27"
     inkscape:window-maximized="0"
     inkscape:current-layer="g3861" /><g
     id="g3861"
     inkscape:groupmode="layer"
     inkscape:label="osgeo-geoforall-distinct-cmyk"
     transform="matrix(1.3333333,0,0,-1.3333333,0,190.86667)"><g
       id="g3863"><g
         id="g3865"
         clip-path="url(#clipPath3869)"><g
           id="g3871"
           transform="translate(89.0472,38.1018)"><path
             d="m 0,0 c -10.224,-3.912 -21.66,-3.66 -31.708,0.674 -8.042,3.469 -14.804,9.563 -19.264,17.08 -2.22,3.74 -3.814,7.839 -4.775,12.077 -0.505,2.227 -0.806,4.498 -0.934,6.776 -0.015,0.268 -0.025,0.537 -0.035,0.804 -0.039,1.065 -0.042,-1.474 -0.004,-0.114 0.016,0.545 0.047,1.089 0.084,1.632 0.085,1.267 0.243,2.529 0.444,3.782 1.417,8.841 5.761,17.046 12.175,23.273 6.255,6.074 14.412,10.029 23.025,11.3 8.959,1.322 18.267,-0.446 26.188,-4.802 7.08,-3.894 12.882,-9.916 16.67,-17.035 1.918,-3.604 3.267,-7.498 4.059,-11.499 0.408,-2.064 0.639,-4.161 0.727,-6.262 0.018,-0.437 -0.012,-1.592 0.019,0.248 -0.005,-0.312 -0.019,-0.623 -0.032,-0.935 -0.027,-0.617 -0.073,-1.234 -0.127,-1.85 -0.097,-1.098 -0.248,-2.192 -0.431,-3.279 -0.16,-0.95 0.158,-1.976 0,-2.919 0.726,4.32 0.834,8.835 0.482,13.2 -0.351,4.37 -1.378,8.644 -3.044,12.699 -3.298,8.025 -9.165,14.879 -16.505,19.483 -7.669,4.809 -16.895,6.919 -25.894,6.119 -8.704,-0.774 -17.022,-4.428 -23.607,-10.144 -6.722,-5.835 -11.366,-13.811 -13.287,-22.486 -0.98,-4.426 -1.107,-8.978 -0.94,-13.494 0.16,-4.33 1.037,-8.619 2.518,-12.688 2.976,-8.176 8.586,-15.278 15.758,-20.179 8.344,-5.701 18.709,-8.087 28.716,-6.848 3.328,0.411 6.593,1.271 9.722,2.468 0.094,0.036 0.014,1.353 0.014,1.459 C 0.015,-1.363 -0.062,-0.024 0,0"
             style="fill:#4db05b;fill-opacity:1;fill-rule:nonzero;stroke:none"
             id="path3873"
             inkscape:connector-curvature="0" /></g><g
           id="g3875"
           transform="translate(67.2767,35.4856)"><path
             d="m 0,0 c 0,0 -0.085,0.019 -0.251,0.053 -0.164,0.04 -0.407,0.111 -0.706,0.249 -0.597,0.268 -1.402,0.865 -2.108,1.877 -0.718,1.002 -1.361,2.367 -1.882,3.995 -0.529,1.627 -0.938,3.518 -1.232,5.6 -0.295,2.081 -0.478,4.354 -0.56,6.759 -0.081,2.406 -0.06,4.946 0.079,7.569 0.269,5.244 0.938,10.813 1.939,16.321 1.023,5.505 2.381,10.948 3.994,15.944 0.803,2.5 1.685,4.883 2.619,7.101 0.932,2.22 1.912,4.278 2.928,6.118 1.015,1.841 2.071,3.464 3.143,4.796 1.067,1.337 2.154,2.384 3.181,3.064 1.02,0.695 1.985,0.966 2.639,1.004 0.328,0.022 0.58,0.002 0.748,-0.019 0.167,-0.026 0.253,-0.039 0.253,-0.039 0,0 -0.086,0.01 -0.254,0.031 -0.168,0.016 -0.42,0.028 -0.744,-0.005 C 13.137,80.362 12.2,80.058 11.208,79.353 10.211,78.657 9.16,77.597 8.135,76.249 7.105,74.902 6.097,73.269 5.109,71.43 4.126,69.587 3.182,67.527 2.286,65.307 1.39,63.086 0.553,60.701 -0.244,58.213 -1.827,53.232 -3.152,47.804 -4.147,42.318 -5.17,36.837 -5.862,31.293 -6.155,26.074 c -0.14,-2.608 -0.208,-5.136 -0.159,-7.529 0.047,-2.394 0.196,-4.655 0.46,-6.728 0.269,-2.07 0.629,-3.955 1.113,-5.58 C -4.262,4.612 -3.657,3.248 -2.973,2.243 -2.296,1.231 -1.529,0.613 -0.942,0.33 -0.65,0.185 -0.411,0.106 -0.249,0.061 -0.084,0.021 0,0 0,0"
             style="fill:#4db05b;fill-opacity:1;fill-rule:nonzero;stroke:none"
             id="path3877"
             inkscape:connector-curvature="0" /></g><g
           id="g3879"
           transform="translate(68.0497,35.2063)"><path
             d="m 0,0 c 0,0 -0.421,0.09 -1.211,0.26 -0.199,0.036 -0.414,0.103 -0.653,0.174 -0.239,0.069 -0.499,0.145 -0.781,0.227 -0.141,0.037 -0.284,0.089 -0.431,0.146 -0.148,0.054 -0.3,0.111 -0.458,0.17 -0.314,0.121 -0.655,0.231 -0.994,0.398 -1.39,0.587 -3.008,1.486 -4.675,2.775 -1.667,1.288 -3.36,2.989 -4.911,5.069 -0.403,0.509 -0.757,1.069 -1.139,1.625 l -0.142,0.211 -0.132,0.217 c -0.088,0.146 -0.177,0.291 -0.266,0.439 -0.175,0.296 -0.365,0.586 -0.532,0.893 -0.327,0.618 -0.689,1.231 -0.99,1.888 -0.157,0.325 -0.314,0.654 -0.474,0.984 -0.144,0.336 -0.29,0.675 -0.437,1.016 -0.073,0.171 -0.147,0.343 -0.22,0.515 -0.067,0.174 -0.134,0.349 -0.2,0.525 -0.134,0.353 -0.269,0.707 -0.404,1.064 -0.121,0.361 -0.242,0.724 -0.365,1.091 -0.123,0.365 -0.247,0.733 -0.348,1.11 -0.108,0.375 -0.216,0.752 -0.325,1.131 -0.105,0.38 -0.19,0.767 -0.286,1.153 -0.201,0.772 -0.342,1.564 -0.506,2.357 -0.595,3.188 -0.879,6.54 -0.876,9.942 0.028,3.404 0.354,6.858 0.965,10.261 0.638,3.393 1.565,6.745 2.749,9.933 1.208,3.181 2.666,6.212 4.355,8.98 1.701,2.759 3.595,5.279 5.664,7.416 0.258,0.267 0.515,0.532 0.77,0.795 0.266,0.252 0.53,0.502 0.792,0.75 0.515,0.507 1.072,0.951 1.597,1.412 0.266,0.228 0.547,0.432 0.815,0.646 0.135,0.106 0.27,0.211 0.404,0.316 l 0.202,0.156 0.207,0.146 c 0.555,0.384 1.085,0.782 1.643,1.114 2.19,1.392 4.377,2.379 6.393,2.989 2.017,0.612 3.848,0.877 5.357,0.931 0.376,0.036 0.734,0.017 1.07,0.018 0.168,-10e-4 0.331,-0.002 0.488,-0.003 0.158,0 0.31,-0.002 0.456,-0.018 0.292,-0.024 0.562,-0.045 0.81,-0.065 0.248,-0.02 0.473,-0.032 0.672,-0.07 0.798,-0.123 1.224,-0.188 1.224,-0.188 0,0 -0.426,0.059 -1.226,0.171 -0.199,0.034 -0.425,0.044 -0.672,0.061 -0.248,0.016 -0.518,0.034 -0.81,0.053 -0.146,0.013 -0.297,0.014 -0.455,0.011 C 11.557,81.194 11.395,81.193 11.227,81.192 10.892,81.187 10.535,81.2 10.16,81.16 8.658,81.085 6.838,80.795 4.842,80.16 2.847,79.523 0.69,78.514 -1.475,77.12 -2.026,76.786 -2.549,76.387 -3.097,76.002 L -3.302,75.855 -3.5,75.699 c -0.133,-0.105 -0.266,-0.211 -0.399,-0.317 -0.266,-0.215 -0.543,-0.419 -0.805,-0.647 -0.518,-0.462 -1.067,-0.907 -1.574,-1.414 -0.258,-0.249 -0.518,-0.499 -0.781,-0.751 -0.251,-0.263 -0.504,-0.528 -0.758,-0.796 -0.127,-0.133 -0.255,-0.267 -0.384,-0.401 -0.122,-0.14 -0.245,-0.28 -0.368,-0.42 -0.246,-0.282 -0.494,-0.565 -0.743,-0.85 -0.238,-0.294 -0.477,-0.591 -0.717,-0.889 -0.242,-0.298 -0.484,-0.598 -0.709,-0.913 -0.23,-0.312 -0.461,-0.625 -0.693,-0.94 -0.23,-0.317 -0.445,-0.647 -0.67,-0.971 -0.458,-0.646 -0.866,-1.332 -1.297,-2.012 -1.671,-2.753 -3.112,-5.768 -4.304,-8.932 -1.17,-3.177 -2.077,-6.493 -2.706,-9.876 -0.616,-3.38 -0.948,-6.81 -0.985,-10.192 -0.012,-3.381 0.262,-6.712 0.845,-9.879 0.16,-0.789 0.298,-1.575 0.496,-2.342 0.094,-0.384 0.178,-0.767 0.28,-1.146 0.105,-0.377 0.21,-0.752 0.314,-1.125 0.098,-0.375 0.218,-0.741 0.337,-1.105 0.119,-0.364 0.237,-0.726 0.354,-1.087 0.132,-0.354 0.263,-0.707 0.392,-1.057 0.066,-0.176 0.13,-0.351 0.195,-0.525 0.072,-0.171 0.144,-0.341 0.215,-0.511 0.143,-0.34 0.285,-0.678 0.426,-1.013 0.156,-0.329 0.31,-0.655 0.463,-0.98 0.294,-0.654 0.649,-1.266 0.969,-1.881 0.163,-0.307 0.349,-0.597 0.521,-0.892 0.087,-0.147 0.174,-0.292 0.26,-0.438 l 0.13,-0.216 0.139,-0.21 c 0.375,-0.555 0.722,-1.115 1.119,-1.622 1.527,-2.074 3.183,-3.785 4.821,-5.088 1.64,-1.304 3.238,-2.223 4.616,-2.826 C -4.166,1.263 -3.827,1.148 -3.516,1.024 -3.36,0.964 -3.208,0.905 -3.062,0.848 -2.916,0.789 -2.774,0.736 -2.633,0.697 -2.354,0.611 -2.095,0.531 -1.857,0.459 -1.621,0.387 -1.406,0.315 -1.208,0.276 -0.42,0.096 0,0 0,0"
             style="fill:#4db05b;fill-opacity:1;fill-rule:nonzero;stroke:none"
             id="path3881"
             inkscape:connector-curvature="0" /></g><g
           id="g3883"
           transform="translate(67.1332,36.1985)"><path
             d="m 0,0 c 0,0 0.427,-0.06 1.227,-0.171 0.199,-0.035 0.424,-0.045 0.672,-0.06 0.247,-0.017 0.518,-0.035 0.809,-0.054 0.146,-0.014 0.297,-0.014 0.455,-0.011 0.157,0 0.319,0.001 0.487,0.003 0.335,0.005 0.692,-0.008 1.067,0.032 1.502,0.074 3.322,0.365 5.319,1 1.995,0.636 4.151,1.646 6.316,3.039 0.551,0.334 1.075,0.734 1.622,1.118 l 0.205,0.147 0.199,0.157 c 0.132,0.106 0.265,0.211 0.399,0.317 0.265,0.214 0.542,0.419 0.804,0.647 0.518,0.462 1.067,0.906 1.575,1.414 0.258,0.248 0.518,0.499 0.781,0.751 0.25,0.264 0.503,0.528 0.758,0.795 0.127,0.134 0.255,0.268 0.384,0.401 0.122,0.141 0.245,0.281 0.368,0.421 0.246,0.282 0.494,0.565 0.743,0.85 0.238,0.294 0.477,0.591 0.717,0.889 0.241,0.297 0.483,0.597 0.709,0.913 0.23,0.311 0.461,0.625 0.694,0.939 0.229,0.317 0.444,0.647 0.669,0.972 0.457,0.645 0.866,1.332 1.297,2.012 1.671,2.752 3.112,5.768 4.304,8.931 1.168,3.172 2.079,6.502 2.704,9.873 0.293,1.702 0.56,3.395 0.71,5.099 0.183,1.701 0.241,3.407 0.276,5.097 0.011,3.381 -0.263,6.711 -0.845,9.878 -0.16,0.789 -0.299,1.576 -0.496,2.342 -0.095,0.384 -0.179,0.768 -0.281,1.146 -0.105,0.377 -0.21,0.752 -0.314,1.125 -0.098,0.375 -0.217,0.741 -0.336,1.105 -0.119,0.364 -0.237,0.727 -0.354,1.087 -0.132,0.355 -0.263,0.707 -0.393,1.058 -0.065,0.175 -0.13,0.349 -0.195,0.524 -0.072,0.171 -0.143,0.341 -0.215,0.511 -0.143,0.34 -0.285,0.678 -0.426,1.014 -0.155,0.328 -0.31,0.655 -0.462,0.979 -0.294,0.655 -0.649,1.266 -0.969,1.882 -0.164,0.306 -0.35,0.596 -0.521,0.891 -0.088,0.146 -0.174,0.292 -0.261,0.438 l -0.129,0.217 -0.139,0.21 c -0.375,0.554 -0.723,1.114 -1.119,1.622 -1.528,2.073 -3.183,3.783 -4.821,5.088 -1.64,1.303 -3.238,2.222 -4.616,2.826 -0.336,0.172 -0.674,0.286 -0.985,0.41 -0.157,0.061 -0.308,0.12 -0.454,0.176 -0.146,0.059 -0.288,0.113 -0.429,0.152 -0.28,0.086 -0.539,0.165 -0.776,0.238 -0.237,0.072 -0.451,0.143 -0.65,0.182 -0.787,0.18 -1.207,0.276 -1.207,0.276 0,0 0.422,-0.09 1.212,-0.259 0.199,-0.036 0.414,-0.104 0.653,-0.174 0.238,-0.069 0.498,-0.146 0.779,-0.228 0.143,-0.037 0.286,-0.089 0.433,-0.145 0.147,-0.055 0.299,-0.112 0.457,-0.171 0.314,-0.12 0.655,-0.23 0.994,-0.397 1.39,-0.587 3.008,-1.487 4.676,-2.776 1.667,-1.288 3.359,-2.988 4.91,-5.068 0.404,-0.509 0.758,-1.069 1.139,-1.625 l 0.142,-0.21 0.133,-0.218 c 0.088,-0.146 0.177,-0.292 0.265,-0.439 0.175,-0.295 0.365,-0.586 0.532,-0.893 0.328,-0.618 0.69,-1.232 0.99,-1.888 0.157,-0.325 0.315,-0.653 0.474,-0.983 0.145,-0.337 0.291,-0.676 0.437,-1.017 1.173,-2.733 2.046,-5.762 2.654,-8.946 0.595,-3.188 0.879,-6.539 0.876,-9.942 -0.029,-1.701 -0.085,-3.417 -0.264,-5.13 -0.147,-1.717 -0.412,-3.433 -0.701,-5.127 -0.641,-3.406 -1.564,-6.743 -2.749,-9.937 -1.208,-3.18 -2.666,-6.213 -4.356,-8.979 -0.435,-0.685 -0.848,-1.374 -1.311,-2.023 -0.227,-0.327 -0.444,-0.659 -0.677,-0.976 -0.237,-0.316 -0.472,-0.63 -0.706,-0.942 C 25.64,12.089 25.394,11.789 25.148,11.491 24.904,11.192 24.661,10.896 24.419,10.602 24.166,10.316 23.914,10.033 23.664,9.752 23.539,9.61 23.414,9.471 23.29,9.331 23.16,9.197 23.03,9.063 22.9,8.93 22.642,8.663 22.385,8.397 22.13,8.135 21.864,7.883 21.6,7.633 21.338,7.385 20.823,6.878 20.267,6.433 19.741,5.973 19.476,5.745 19.195,5.54 18.926,5.326 18.791,5.221 18.656,5.115 18.521,5.011 L 18.321,4.854 18.113,4.709 C 17.559,4.324 17.028,3.927 16.47,3.595 14.281,2.202 12.094,1.216 10.078,0.605 8.061,-0.006 6.229,-0.271 4.721,-0.326 4.345,-0.361 3.987,-0.343 3.65,-0.344 3.482,-0.343 3.32,-0.341 3.163,-0.34 3.005,-0.341 2.853,-0.338 2.707,-0.322 2.415,-0.299 2.144,-0.277 1.896,-0.258 1.649,-0.237 1.423,-0.225 1.225,-0.187 0.426,-0.065 0,0 0,0"
             style="fill:#4db05b;fill-opacity:1;fill-rule:nonzero;stroke:none"
             id="path3885"
             inkscape:connector-curvature="0" /></g><g
           id="g3887"
           transform="translate(65.5492,35.803)"><path
             d="m 0,0 c 0,0 0.087,-0.01 0.255,-0.031 0.168,-0.016 0.419,-0.028 0.744,0.005 0.648,0.056 1.585,0.36 2.578,1.066 0.997,0.695 2.048,1.755 3.073,3.104 1.03,1.345 2.038,2.979 3.025,4.819 0.984,1.842 1.929,3.902 2.825,6.123 0.896,2.22 1.732,4.605 2.529,7.094 1.583,4.98 2.908,10.409 3.902,15.893 1.022,5.484 1.715,11.027 2.007,16.245 0.142,2.609 0.208,5.136 0.16,7.53 -0.047,2.393 -0.197,4.655 -0.46,6.727 -0.269,2.07 -0.63,3.955 -1.114,5.58 -0.478,1.625 -1.083,2.989 -1.767,3.994 -0.676,1.012 -1.444,1.629 -2.03,1.913 -0.292,0.146 -0.531,0.224 -0.694,0.27 -0.164,0.04 -0.249,0.061 -0.249,0.061 0,0 0.086,-0.018 0.252,-0.054 0.164,-0.04 0.406,-0.11 0.705,-0.248 0.597,-0.268 1.403,-0.865 2.109,-1.877 0.718,-1.002 1.361,-2.367 1.882,-3.995 0.529,-1.627 0.938,-3.519 1.231,-5.6 0.296,-2.082 0.478,-4.354 0.561,-6.76 0.082,-2.406 0.059,-4.946 -0.08,-7.568 C 21.175,49.048 20.507,43.476 19.505,37.97 18.48,32.464 17.125,27.022 15.51,22.025 14.708,19.525 13.824,17.144 12.892,14.925 11.959,12.705 10.98,10.647 9.963,8.807 8.949,6.966 7.893,5.344 6.82,4.011 5.754,2.675 4.667,1.627 3.64,0.946 2.62,0.252 1.655,-0.019 1.001,-0.058 0.674,-0.08 0.421,-0.06 0.253,-0.039 0.086,-0.013 0,0 0,0"
             style="fill:#4db05b;fill-opacity:1;fill-rule:nonzero;stroke:none"
             id="path3889"
             inkscape:connector-curvature="0" /></g><g
           id="g3891"
           transform="translate(104.7289,63.0032)"><path
             d="m 0,0 c 0,0 -0.291,-0.05 -0.836,-0.143 -0.544,-0.1 -1.348,-0.213 -2.374,-0.341 -0.514,-0.052 -1.083,-0.11 -1.703,-0.172 -0.622,-0.043 -1.293,-0.108 -2.012,-0.144 -0.719,-0.035 -1.485,-0.082 -2.292,-0.096 -0.404,-0.011 -0.819,-0.025 -1.242,-0.026 -0.425,-0.001 -0.859,-0.001 -1.302,-0.001 -1.773,0.013 -3.694,0.065 -5.721,0.194 -1.016,0.051 -2.055,0.144 -3.119,0.224 -1.061,0.102 -2.147,0.203 -3.247,0.342 -2.202,0.254 -4.468,0.587 -6.763,0.975 -0.574,0.1 -1.15,0.2 -1.728,0.3 -0.575,0.109 -1.151,0.217 -1.728,0.325 -0.578,0.118 -1.157,0.235 -1.736,0.352 -0.577,0.125 -1.155,0.249 -1.734,0.374 -4.611,1.05 -9.168,2.346 -13.349,3.83 -2.092,0.736 -4.083,1.539 -5.939,2.372 -1.856,0.832 -3.575,1.698 -5.117,2.58 -1.543,0.88 -2.9,1.791 -4.031,2.69 -1.132,0.896 -2.037,1.784 -2.683,2.596 -0.649,0.811 -1.039,1.54 -1.217,2.065 -0.113,0.254 -0.142,0.468 -0.183,0.604 -0.036,0.139 -0.054,0.21 -0.054,0.21 0,0 0.021,-0.07 0.062,-0.207 0.047,-0.135 0.082,-0.346 0.205,-0.595 0.194,-0.516 0.614,-1.219 1.274,-2.005 0.662,-0.785 1.582,-1.639 2.728,-2.496 1.147,-0.857 2.516,-1.722 4.059,-2.576 1.546,-0.849 3.269,-1.68 5.128,-2.476 1.859,-0.796 3.854,-1.553 5.936,-2.284 4.167,-1.453 8.712,-2.717 13.309,-3.74 0.575,-0.127 1.149,-0.254 1.723,-0.381 0.576,-0.12 1.15,-0.24 1.724,-0.359 0.577,-0.112 1.152,-0.223 1.727,-0.335 0.573,-0.103 1.146,-0.206 1.715,-0.308 2.284,-0.4 4.541,-0.744 6.733,-1.009 1.094,-0.148 2.176,-0.244 3.231,-0.369 1.058,-0.098 2.092,-0.208 3.102,-0.277 2.017,-0.163 3.931,-0.247 5.697,-0.289 0.442,-0.007 0.874,-0.014 1.297,-0.021 0.422,-0.006 0.835,0.003 1.238,0 0.805,-0.008 1.569,0.018 2.286,0.033 0.719,0.016 1.389,0.062 2.01,0.087 0.62,0.046 1.19,0.087 1.704,0.125 1.025,0.103 1.833,0.178 2.38,0.261 C -0.292,-0.039 0,0 0,0"
             style="fill:#4db05b;fill-opacity:1;fill-rule:nonzero;stroke:none"
             id="path3893"
             inkscape:connector-curvature="0" /></g><g
           id="g3895"
           transform="translate(86.4623,48.341)"><path
             d="m 0,0 c 0,0 -0.265,-0.029 -0.762,-0.084 -0.496,-0.052 -1.223,-0.151 -2.155,-0.201 -0.931,-0.078 -2.064,-0.113 -3.364,-0.141 -0.651,0.007 -1.343,0.003 -2.072,0.019 -0.365,0.017 -0.739,0.034 -1.122,0.052 -0.382,0.022 -0.775,0.027 -1.173,0.067 -0.399,0.034 -0.807,0.068 -1.222,0.103 -0.207,0.018 -0.417,0.036 -0.628,0.054 -0.21,0.026 -0.423,0.051 -0.637,0.077 -0.429,0.052 -0.865,0.105 -1.307,0.158 -0.443,0.056 -0.889,0.137 -1.342,0.207 -0.453,0.077 -0.914,0.132 -1.378,0.23 -0.462,0.089 -0.928,0.18 -1.4,0.271 -0.472,0.096 -0.947,0.212 -1.427,0.322 -0.24,0.057 -0.482,0.109 -0.723,0.172 -0.24,0.063 -0.481,0.128 -0.723,0.192 -1.938,0.509 -3.916,1.132 -5.879,1.893 -1.965,0.755 -3.919,1.632 -5.813,2.628 -1.891,1.002 -3.718,2.124 -5.434,3.345 -1.714,1.225 -3.315,2.55 -4.762,3.942 -1.449,1.388 -2.732,2.853 -3.829,4.329 -1.099,1.475 -2.01,2.964 -2.735,4.395 -0.737,1.428 -1.239,2.819 -1.618,4.063 -0.089,0.313 -0.175,0.616 -0.259,0.909 -0.066,0.297 -0.129,0.583 -0.191,0.858 -0.03,0.138 -0.06,0.272 -0.089,0.404 -0.028,0.132 -0.044,0.263 -0.065,0.391 -0.041,0.255 -0.079,0.498 -0.116,0.728 -0.042,0.23 -0.059,0.451 -0.079,0.658 -0.018,0.207 -0.036,0.401 -0.052,0.582 -0.042,0.36 -0.039,0.669 -0.047,0.919 -0.014,0.5 -0.02,0.766 -0.02,0.766 0,0 0.014,-0.266 0.041,-0.765 0.015,-0.249 0.02,-0.558 0.072,-0.917 0.021,-0.179 0.044,-0.372 0.068,-0.578 0.024,-0.206 0.046,-0.425 0.093,-0.653 0.041,-0.229 0.084,-0.471 0.129,-0.724 0.024,-0.126 0.042,-0.257 0.073,-0.388 0.032,-0.13 0.065,-0.263 0.098,-0.4 0.066,-0.272 0.135,-0.555 0.206,-0.85 0.089,-0.289 0.182,-0.589 0.276,-0.898 0.05,-0.154 0.092,-0.314 0.15,-0.47 0.058,-0.156 0.117,-0.315 0.177,-0.477 0.06,-0.161 0.121,-0.324 0.182,-0.49 0.031,-0.083 0.063,-0.166 0.094,-0.25 0.035,-0.082 0.072,-0.165 0.108,-0.248 0.144,-0.333 0.293,-0.674 0.445,-1.023 0.169,-0.342 0.342,-0.691 0.519,-1.047 0.737,-1.411 1.659,-2.875 2.767,-4.324 1.107,-1.45 2.399,-2.881 3.836,-4.256 1.44,-1.374 3.033,-2.682 4.739,-3.89 1.707,-1.205 3.526,-2.31 5.405,-3.299 1.875,-0.995 3.813,-1.874 5.761,-2.632 1.947,-0.764 3.912,-1.392 5.836,-1.906 0.241,-0.065 0.48,-0.13 0.719,-0.194 0.238,-0.064 0.478,-0.115 0.715,-0.173 0.477,-0.109 0.945,-0.23 1.414,-0.332 0.471,-0.098 0.937,-0.194 1.397,-0.289 0.455,-0.102 0.916,-0.164 1.365,-0.246 0.451,-0.074 0.894,-0.161 1.334,-0.222 0.44,-0.058 0.873,-0.117 1.299,-0.174 0.213,-0.029 0.424,-0.057 0.634,-0.086 0.21,-0.019 0.418,-0.041 0.625,-0.06 0.413,-0.04 0.818,-0.079 1.215,-0.118 0.795,-0.072 1.559,-0.098 2.285,-0.15 0.726,-0.031 1.417,-0.041 2.065,-0.06 1.297,0 2.429,0.011 3.359,0.07 0.931,0.034 1.661,0.107 2.159,0.148 C -0.266,-0.022 0,0 0,0"
             style="fill:#4db05b;fill-opacity:1;fill-rule:nonzero;stroke:none"
             id="path3897"
             inkscape:connector-curvature="0" /></g><g
           id="g3899"
           transform="translate(114.5731,71.1018)"><path
             d="m 0,0 c 0,0 0.006,0.378 0.018,1.086 0.002,0.708 -0.052,1.746 -0.231,3.055 -0.21,1.302 -0.574,2.871 -1.224,4.589 -0.648,1.718 -1.584,3.579 -2.829,5.463 -0.077,0.118 -0.154,0.237 -0.232,0.357 -0.083,0.116 -0.167,0.232 -0.251,0.349 -0.168,0.234 -0.338,0.47 -0.51,0.708 -0.166,0.242 -0.362,0.466 -0.545,0.703 -0.186,0.233 -0.375,0.47 -0.564,0.708 -0.2,0.229 -0.402,0.46 -0.606,0.693 -0.204,0.232 -0.403,0.473 -0.625,0.696 -0.436,0.453 -0.865,0.926 -1.339,1.366 -1.858,1.801 -3.989,3.525 -6.351,5.072 -2.36,1.549 -4.928,2.955 -7.649,4.135 -2.72,1.18 -5.578,2.159 -8.494,2.916 -0.728,0.193 -1.464,0.353 -2.195,0.531 -0.736,0.149 -1.475,0.306 -2.209,0.443 -1.484,0.269 -2.957,0.475 -4.433,0.636 -2.951,0.302 -5.877,0.391 -8.697,0.245 -0.353,-0.014 -0.704,-0.033 -1.053,-0.063 -0.349,-0.026 -0.697,-0.052 -1.043,-0.079 -0.689,-0.074 -1.374,-0.13 -2.047,-0.225 -1.35,-0.163 -2.661,-0.395 -3.929,-0.657 -1.268,-0.259 -2.486,-0.586 -3.657,-0.922 -1.163,-0.362 -2.284,-0.727 -3.331,-1.151 -2.107,-0.822 -3.962,-1.762 -5.537,-2.708 -1.577,-0.945 -2.868,-1.904 -3.879,-2.752 -0.512,-0.418 -0.939,-0.826 -1.317,-1.173 -0.366,-0.358 -0.673,-0.67 -0.92,-0.924 -0.475,-0.524 -0.729,-0.805 -0.729,-0.805 0,0 0.249,0.285 0.717,0.817 0.243,0.258 0.544,0.574 0.906,0.939 0.373,0.354 0.794,0.769 1.3,1.196 1,0.866 2.28,1.848 3.848,2.822 1.566,0.976 3.416,1.952 5.53,2.791 1.049,0.436 2.173,0.813 3.339,1.187 1.175,0.349 2.396,0.689 3.671,0.96 1.273,0.276 2.59,0.52 3.946,0.697 0.676,0.102 1.365,0.163 2.059,0.239 0.348,0.027 0.698,0.055 1.049,0.082 0.351,0.031 0.704,0.051 1.059,0.066 2.838,0.156 5.782,0.075 8.752,-0.22 1.482,-0.158 2.981,-0.364 4.46,-0.627 0.745,-0.137 1.483,-0.291 2.227,-0.44 0.736,-0.177 1.478,-0.334 2.21,-0.529 2.933,-0.77 5.807,-1.764 8.542,-2.96 2.735,-1.196 5.317,-2.62 7.689,-4.186 2.38,-1.559 4.507,-3.322 6.363,-5.151 0.474,-0.448 0.902,-0.928 1.337,-1.388 0.221,-0.227 0.42,-0.47 0.624,-0.706 0.203,-0.237 0.404,-0.472 0.603,-0.705 0.19,-0.241 0.377,-0.48 0.563,-0.718 0.182,-0.239 0.377,-0.467 0.542,-0.712 0.171,-0.242 0.341,-0.481 0.509,-0.718 0.083,-0.118 0.166,-0.236 0.249,-0.354 0.077,-0.121 0.153,-0.241 0.23,-0.361 1.243,-1.906 2.154,-3.797 2.777,-5.535 C -0.68,7.04 -0.339,5.46 -0.149,4.15 0.01,2.835 0.048,1.793 0.035,1.086 0.012,0.378 0,0 0,0"
             style="fill:#4db05b;fill-opacity:1;fill-rule:nonzero;stroke:none"
             id="path3901"
             inkscape:connector-curvature="0" /></g><g
           id="g3903"
           transform="translate(114.2162,69.7571)"><path
             d="m 0,0 c 0,0 -0.041,0.071 -0.12,0.209 -0.081,0.137 -0.188,0.35 -0.371,0.597 -0.091,0.124 -0.178,0.271 -0.301,0.416 -0.119,0.146 -0.249,0.305 -0.39,0.478 -0.151,0.163 -0.314,0.339 -0.488,0.526 -0.179,0.181 -0.377,0.367 -0.583,0.566 -0.84,0.78 -1.949,1.63 -3.295,2.488 -1.346,0.86 -2.926,1.731 -4.691,2.595 -3.534,1.725 -7.84,3.349 -12.541,4.789 -4.701,1.438 -9.813,2.667 -14.973,3.595 -2.586,0.477 -5.17,0.883 -7.735,1.207 -2.561,0.325 -5.092,0.57 -7.545,0.728 -4.906,0.312 -9.508,0.315 -13.423,-0.058 -1.957,-0.19 -3.741,-0.454 -5.301,-0.791 -1.56,-0.338 -2.896,-0.75 -3.951,-1.199 -1.057,-0.443 -1.833,-0.914 -2.32,-1.288 -0.255,-0.174 -0.422,-0.341 -0.542,-0.445 -0.119,-0.106 -0.18,-0.161 -0.18,-0.161 0,0 0.059,0.057 0.174,0.166 0.117,0.109 0.28,0.282 0.528,0.465 0.478,0.389 1.239,0.898 2.295,1.367 1.051,0.479 2.385,0.927 3.946,1.306 1.562,0.381 3.352,0.693 5.317,0.907 1.966,0.216 4.105,0.342 6.369,0.385 2.264,0.041 4.654,0.005 7.119,-0.149 2.465,-0.147 5.007,-0.379 7.581,-0.692 2.57,-0.313 5.184,-0.708 7.769,-1.174 5.183,-0.96 10.305,-2.218 15.021,-3.687 2.36,-0.727 4.609,-1.538 6.713,-2.375 2.103,-0.838 4.061,-1.708 5.825,-2.603 3.53,-1.779 6.267,-3.678 7.918,-5.294 0.833,-0.801 1.384,-1.528 1.71,-2.053 C -0.289,0.566 -0.19,0.353 -0.113,0.212 -0.039,0.072 0,0 0,0"
             style="fill:#4db05b;fill-opacity:1;fill-rule:nonzero;stroke:none"
             id="path3905"
             inkscape:connector-curvature="0" /></g><g
           id="g3907"
           transform="translate(28.3382,61.3743)"><path
             d="m 0,0 c 0,0 -0.453,0.147 -1.295,0.438 -0.839,0.297 -2.071,0.731 -3.622,1.318 -1.552,0.586 -3.428,1.314 -5.563,2.187 -1.068,0.438 -2.203,0.904 -3.393,1.411 -0.594,0.252 -1.205,0.513 -1.829,0.78 -0.311,0.135 -0.627,0.27 -0.945,0.408 -0.159,0.069 -0.319,0.139 -0.48,0.208 l -0.061,0.026 c 0.04,-0.02 -0.088,0.043 -0.086,0.041 l -0.03,0.015 -0.118,0.059 -0.059,0.03 -0.03,0.016 -0.048,0.028 -0.191,0.118 c -0.06,0.04 -0.132,0.084 -0.181,0.124 l -0.152,0.121 c -0.104,0.079 -0.198,0.17 -0.291,0.262 -0.096,0.09 -0.181,0.19 -0.265,0.292 -0.087,0.098 -0.16,0.208 -0.235,0.317 -0.293,0.44 -0.501,0.941 -0.604,1.472 -0.104,0.53 -0.095,1.092 0.031,1.634 0.036,0.133 0.072,0.269 0.115,0.401 0.048,0.126 0.105,0.271 0.152,0.379 0.077,0.173 0.156,0.347 0.235,0.52 0.626,1.395 1.298,2.826 2.012,4.286 0.713,1.46 1.479,2.944 2.28,4.454 0.81,1.505 1.638,3.042 2.48,4.605 1.692,3.123 3.36,6.387 4.902,9.775 1.562,3.379 3.021,6.87 4.424,10.388 1.403,3.517 2.81,7.033 4.3,10.445 0.373,0.853 0.744,1.703 1.112,2.548 0.185,0.423 0.37,0.844 0.554,1.265 L 3.395,61 l 0.137,0.314 0.034,0.079 0.07,0.141 0.076,0.153 0.02,0.04 0.039,0.066 0.081,0.13 c 0.053,0.083 0.112,0.18 0.166,0.248 0.108,0.136 0.211,0.277 0.336,0.399 0.235,0.257 0.514,0.468 0.803,0.658 0.588,0.364 1.262,0.585 1.954,0.63 0.173,0.006 0.347,0.017 0.52,0 0.087,-0.005 0.174,-0.011 0.26,-0.02 L 8.149,63.796 C 8.321,63.771 8.487,63.716 8.655,63.67 8.738,63.646 8.817,63.612 8.899,63.582 L 9.02,63.534 9.126,63.49 c 0.409,-0.181 0.815,-0.362 1.221,-0.541 3.239,-1.44 6.351,-2.876 9.277,-4.29 2.925,-1.416 5.68,-2.778 8.21,-4.063 2.531,-1.283 4.84,-2.485 6.876,-3.57 0.51,-0.27 1.004,-0.531 1.48,-0.784 0.474,-0.257 0.931,-0.505 1.37,-0.743 0.878,-0.477 1.685,-0.913 2.408,-1.32 2.902,-1.607 4.532,-2.587 4.532,-2.587 0.069,-0.042 0.091,-0.132 0.05,-0.201 -0.037,-0.061 -0.11,-0.086 -0.174,-0.064 0,0 -1.8,0.611 -4.901,1.788 -0.778,0.289 -1.633,0.623 -2.563,0.986 -0.466,0.181 -0.951,0.37 -1.453,0.566 -0.5,0.2 -1.019,0.408 -1.554,0.623 -2.144,0.854 -4.552,1.84 -7.166,2.943 -2.615,1.101 -5.435,2.325 -8.406,3.643 -2.969,1.32 -6.075,2.769 -9.267,4.312 -0.399,0.193 -0.799,0.387 -1.202,0.582 L 7.713,60.836 C 7.664,60.848 7.62,60.875 7.569,60.88 7.544,60.885 7.521,60.891 7.496,60.898 L 7.42,60.906 C 7.37,60.918 7.318,60.91 7.267,60.916 7.06,60.914 6.848,60.855 6.658,60.756 6.568,60.699 6.473,60.645 6.399,60.567 6.355,60.535 6.328,60.489 6.288,60.452 6.269,60.432 6.272,60.429 6.26,60.418 6.256,60.415 6.251,60.411 6.246,60.407 L 6.237,60.401 6.217,60.366 6.134,60.216 6.113,60.179 c -0.035,-0.07 0.025,0.053 0.012,0.027 L 6.088,60.129 5.937,59.821 5.634,59.204 C 5.432,58.792 5.229,58.379 5.026,57.965 4.619,57.137 4.21,56.305 3.799,55.47 2.157,52.128 0.382,48.783 -1.397,45.44 -3.176,42.097 -4.898,38.728 -6.47,35.354 c -1.591,-3.366 -3.004,-6.748 -4.295,-10.057 -0.65,-1.652 -1.289,-3.277 -1.914,-4.868 -0.635,-1.586 -1.273,-3.13 -1.928,-4.617 -0.653,-1.489 -1.311,-2.925 -1.972,-4.304 -0.082,-0.173 -0.164,-0.345 -0.245,-0.516 -0.028,-0.065 -0.039,-0.097 -0.063,-0.146 -0.015,-0.046 -0.027,-0.094 -0.044,-0.14 -0.051,-0.189 -0.055,-0.388 -0.027,-0.582 0.028,-0.195 0.097,-0.386 0.198,-0.552 0.026,-0.042 0.049,-0.085 0.081,-0.121 0.03,-0.039 0.057,-0.079 0.093,-0.111 0.032,-0.035 0.064,-0.072 0.102,-0.102 l 0.053,-0.048 c 0.019,-0.018 0.026,-0.017 0.038,-0.028 0.011,-0.009 0.02,-0.017 0.03,-0.028 l 0.008,-0.008 0.028,-0.017 0.058,-0.031 0.115,-0.064 0.029,-0.017 c 0.021,-0.012 -0.087,0.042 -0.027,0.013 l 0.059,-0.03 c 0.157,-0.078 0.313,-0.155 0.468,-0.232 0.312,-0.154 0.619,-0.307 0.923,-0.458 0.607,-0.304 1.2,-0.603 1.777,-0.893 1.155,-0.58 2.244,-1.146 3.267,-1.678 C -7.612,4.652 -5.844,3.69 -4.395,2.885 -2.944,2.079 -1.817,1.419 -1.049,0.97 -0.283,0.516 0.122,0.265 0.122,0.265 0.191,0.223 0.212,0.132 0.17,0.062 0.134,0.004 0.062,-0.021 0,0"
             style="fill:#4db05b;fill-opacity:1;fill-rule:nonzero;stroke:none"
             id="path3909"
             inkscape:connector-curvature="0" /></g><g
           id="g3911"
           transform="translate(63.2421,118.2131)"><path
             d="m 0,0 c 0,0 0.609,1.672 1.775,4.552 0.288,0.722 0.618,1.515 0.977,2.379 0.179,0.433 0.366,0.882 0.56,1.349 0.198,0.465 0.403,0.946 0.615,1.443 0.428,0.992 0.87,2.055 1.365,3.162 0.061,0.138 0.122,0.278 0.184,0.418 l 0.093,0.212 0.023,0.052 0.012,0.027 0.03,0.061 0.053,0.104 0.052,0.104 c 0.016,0.033 0.054,0.091 0.081,0.135 0.059,0.091 0.121,0.199 0.184,0.272 0.063,0.079 0.124,0.161 0.193,0.236 l 0.214,0.22 c 0.602,0.558 1.418,0.916 2.287,0.945 0.433,0.014 0.876,-0.052 1.295,-0.2 0.1,-0.04 0.213,-0.083 0.304,-0.122 l 0.233,-0.106 c 0.157,-0.07 0.313,-0.14 0.471,-0.212 0.629,-0.287 1.27,-0.58 1.922,-0.878 1.305,-0.595 2.646,-1.226 4.017,-1.89 2.745,-1.325 5.591,-2.824 8.544,-4.357 2.953,-1.533 6.022,-3.08 9.196,-4.533 3.164,-1.475 6.419,-2.885 9.69,-4.259 1.635,-0.69 3.269,-1.38 4.897,-2.067 0.812,-0.35 1.621,-0.699 2.428,-1.047 0.805,-0.355 1.606,-0.709 2.404,-1.062 1.594,-0.712 3.175,-1.418 4.737,-2.116 l 0.584,-0.262 0.146,-0.065 0.186,-0.094 0.071,-0.037 c 0.023,-0.011 0.046,-0.023 0.086,-0.047 l 0.206,-0.131 0.102,-0.068 0.085,-0.068 0.168,-0.136 c 0.108,-0.095 0.21,-0.198 0.308,-0.302 0.189,-0.217 0.363,-0.448 0.496,-0.702 0.563,-0.998 0.61,-2.264 0.141,-3.307 -1.37,-3.047 -2.725,-5.948 -4.044,-8.699 -1.316,-2.749 -2.594,-5.331 -3.77,-7.717 -1.191,-2.379 -2.283,-4.56 -3.276,-6.481 -0.491,-0.964 -0.957,-1.861 -1.392,-2.69 -0.433,-0.83 -0.83,-1.592 -1.197,-2.277 -0.727,-1.373 -1.31,-2.446 -1.709,-3.177 -0.403,-0.729 -0.618,-1.118 -0.618,-1.118 -0.026,-0.047 -0.085,-0.064 -0.133,-0.038 -0.043,0.024 -0.061,0.075 -0.044,0.12 0,0 0.16,0.415 0.459,1.193 0.304,0.775 0.751,1.911 1.336,3.35 0.288,0.722 0.618,1.516 0.975,2.381 0.356,0.865 0.743,1.8 1.166,2.795 0.834,1.995 1.803,4.234 2.86,6.675 1.073,2.434 2.23,5.074 3.49,7.848 1.255,2.773 2.62,5.695 4.057,8.675 0.224,0.469 0.228,1.054 -0.029,1.539 -0.058,0.123 -0.14,0.232 -0.224,0.339 -0.046,0.049 -0.093,0.099 -0.141,0.146 l -0.077,0.067 -0.038,0.034 -0.031,0.02 c -0.02,0.015 -0.039,0.03 -0.058,0.046 -0.004,0.007 -0.028,0.02 -0.053,0.033 l -0.07,0.039 -0.069,0.038 -0.035,0.019 c 0.007,-0.003 -0.067,0.035 0.008,-0.003 l -0.144,0.07 -0.576,0.28 c -1.538,0.748 -3.096,1.505 -4.666,2.269 -0.783,0.385 -1.569,0.771 -2.358,1.16 -0.785,0.394 -1.573,0.79 -2.363,1.187 -1.573,0.805 -3.152,1.614 -4.731,2.422 -3.155,1.624 -6.327,3.211 -9.49,4.687 -3.153,1.499 -6.31,2.855 -9.383,4.133 -3.072,1.277 -6.05,2.494 -8.829,3.746 -1.39,0.623 -2.736,1.245 -4.03,1.862 -0.647,0.308 -1.283,0.612 -1.908,0.908 -0.155,0.076 -0.311,0.15 -0.465,0.225 L 9.584,13.82 9.416,13.893 C 9.197,13.976 8.966,14.018 8.735,14.017 8.272,14.018 7.812,13.848 7.467,13.556 L 7.344,13.441 C 7.305,13.401 7.271,13.356 7.233,13.315 7.189,13.271 7.178,13.24 7.146,13.203 7.131,13.181 7.121,13.178 7.101,13.142 L 7.044,13.04 6.987,12.938 C 6.991,12.945 6.96,12.886 6.991,12.947 L 6.978,12.921 6.953,12.869 6.851,12.662 C 6.783,12.524 6.715,12.387 6.648,12.251 6.119,11.161 5.588,10.14 5.103,9.175 4.858,8.692 4.622,8.226 4.393,7.776 4.16,7.328 3.935,6.896 3.719,6.48 3.288,5.65 2.893,4.887 2.523,4.203 1.067,1.458 0.177,-0.083 0.177,-0.083 0.15,-0.129 0.09,-0.145 0.044,-0.118 0.001,-0.094 -0.016,-0.044 0,0"
             style="fill:#003a40;fill-opacity:1;fill-rule:nonzero;stroke:none"
             id="path3913"
             inkscape:connector-curvature="0" /></g><g
           id="g3915"
           transform="translate(112.7303,129.4167)"><path
             d="m 0,0 c -2.253,-4.831 -7.996,-6.92 -12.826,-4.667 -4.83,2.253 -6.921,7.996 -4.668,12.826 2.254,4.831 7.996,6.92 12.827,4.667 C 0.164,10.573 2.253,4.831 0,0"
             style="fill:#003a40;fill-opacity:1;fill-rule:nonzero;stroke:none"
             id="path3917"
             inkscape:connector-curvature="0" /></g><g
           id="g3919"
           transform="translate(5.5926,95.6926)"><path
             d="m 0,0 c -4.835,2.242 -6.937,7.98 -4.694,12.815 2.243,4.836 7.981,6.938 12.816,4.696 C 12.958,15.268 15.06,9.53 12.817,4.694 10.574,-0.141 4.836,-2.244 0,0"
             style="fill:#4db05b;fill-opacity:1;fill-rule:nonzero;stroke:none"
             id="path3921"
             inkscape:connector-curvature="0" /></g><g
           id="g3923"
           transform="translate(88.0941,28.3176)"><path
             d="m 0,0 c 0,0 -0.033,-0.115 -0.097,-0.338 -0.067,-0.221 -0.167,-0.549 -0.297,-0.977 -0.264,-0.855 -0.67,-2.099 -1.218,-3.668 -0.549,-1.57 -1.24,-3.463 -2.08,-5.614 -0.421,-1.075 -0.87,-2.217 -1.365,-3.413 -0.246,-0.598 -0.494,-1.214 -0.761,-1.838 -0.133,-0.312 -0.266,-0.629 -0.401,-0.949 -0.068,-0.16 -0.135,-0.32 -0.204,-0.482 l -0.025,-0.061 c 0.029,0.057 -0.054,-0.111 -0.051,-0.105 l -0.015,-0.03 -0.057,-0.119 -0.03,-0.059 -0.015,-0.031 -0.032,-0.054 c -0.043,-0.074 -0.088,-0.146 -0.134,-0.217 -0.044,-0.068 -0.096,-0.151 -0.139,-0.205 l -0.133,-0.169 c -0.088,-0.115 -0.188,-0.22 -0.29,-0.322 -0.099,-0.107 -0.209,-0.201 -0.321,-0.293 -0.109,-0.097 -0.229,-0.179 -0.35,-0.262 -0.485,-0.325 -1.038,-0.557 -1.625,-0.671 -0.586,-0.117 -1.209,-0.107 -1.81,0.031 -0.148,0.039 -0.298,0.079 -0.445,0.127 l -0.215,0.083 -0.202,0.083 c -0.172,0.077 -0.346,0.156 -0.521,0.234 -1.397,0.621 -2.827,1.295 -4.281,2.019 -1.456,0.722 -2.931,1.51 -4.428,2.338 -1.49,0.842 -3.013,1.7 -4.562,2.574 -3.092,1.759 -6.335,3.471 -9.727,5.005 -1.692,0.775 -3.412,1.526 -5.156,2.24 -0.873,0.358 -1.749,0.709 -2.631,1.055 -0.882,0.34 -1.767,0.68 -2.651,1.021 -1.773,0.67 -3.544,1.346 -5.304,2.027 -1.758,0.686 -3.497,1.394 -5.211,2.123 -0.856,0.366 -1.708,0.73 -2.557,1.094 -0.424,0.181 -0.847,0.363 -1.268,0.544 l -0.632,0.27 -0.315,0.136 -0.079,0.033 -0.163,0.08 -0.154,0.075 -0.041,0.021 -0.076,0.044 -0.15,0.092 c -0.094,0.06 -0.207,0.13 -0.283,0.189 -0.153,0.119 -0.31,0.235 -0.446,0.373 -0.287,0.263 -0.525,0.572 -0.737,0.894 -0.408,0.654 -0.656,1.406 -0.709,2.178 -0.007,0.194 -0.019,0.388 -0.002,0.581 0.007,0.098 0.013,0.195 0.023,0.292 l 0.047,0.288 c 0.028,0.193 0.087,0.379 0.139,0.566 0.026,0.094 0.064,0.183 0.098,0.273 l 0.101,0.251 c 0.179,0.411 0.357,0.818 0.534,1.224 1.423,3.248 2.856,6.36 4.287,9.279 1.433,2.918 2.817,5.662 4.133,8.178 2.63,5.033 4.942,9.171 6.634,12.033 1.678,2.869 2.72,4.47 2.72,4.47 0.059,0.091 0.181,0.117 0.272,0.058 0.075,-0.049 0.105,-0.14 0.081,-0.222 0,0 -0.549,-1.829 -1.655,-4.963 -1.092,-3.141 -2.758,-7.578 -4.901,-12.837 -1.071,-2.63 -2.271,-5.46 -3.574,-8.437 -1.304,-2.978 -2.754,-6.082 -4.314,-9.266 -0.196,-0.398 -0.392,-0.798 -0.589,-1.199 l -0.027,-0.058 c -0.006,-0.013 -0.018,-0.025 -0.022,-0.04 -0.005,-0.028 -0.027,-0.054 -0.029,-0.084 -0.003,-0.014 -0.008,-0.028 -0.014,-0.042 -0.002,-0.014 -0.003,-0.03 -0.006,-0.045 -0.012,-0.029 -0.004,-0.061 -0.012,-0.093 -0.005,-0.126 0.028,-0.26 0.082,-0.384 0.035,-0.056 0.062,-0.121 0.111,-0.168 0.017,-0.031 0.047,-0.046 0.068,-0.074 0.011,-0.013 -10e-4,0 -0.003,-0.004 -0.002,0 -0.005,-0.002 -0.008,-0.004 l -0.004,-0.003 0.034,-0.021 0.149,-0.084 0.038,-0.02 c 0.089,-0.045 -0.08,0.038 -0.049,0.022 l 0.077,-0.038 0.307,-0.153 0.614,-0.308 c 0.411,-0.205 0.823,-0.411 1.235,-0.617 0.825,-0.413 1.654,-0.828 2.486,-1.245 1.664,-0.838 3.328,-1.708 4.987,-2.607 1.657,-0.904 3.316,-1.819 4.973,-2.74 0.831,-0.455 1.663,-0.91 2.493,-1.364 0.832,-0.45 1.667,-0.893 2.503,-1.328 1.673,-0.869 3.356,-1.697 5.041,-2.488 3.362,-1.599 6.764,-2.97 10.104,-4.194 1.667,-0.618 3.306,-1.225 4.911,-1.82 1.599,-0.608 3.153,-1.225 4.645,-1.869 1.493,-0.643 2.93,-1.299 4.307,-1.965 0.172,-0.083 0.344,-0.165 0.515,-0.247 0.027,-0.014 0.027,-0.012 0.037,-0.016 l 0.024,-0.01 c 0.015,-0.006 0.031,-0.014 0.046,-0.022 0.033,-0.012 0.065,-0.02 0.097,-0.033 0.13,-0.038 0.268,-0.041 0.407,-0.027 0.139,0.016 0.276,0.062 0.398,0.131 0.03,0.018 0.063,0.033 0.088,0.056 0.028,0.019 0.059,0.038 0.082,0.063 0.026,0.023 0.053,0.043 0.074,0.071 l 0.049,0.051 c 0.003,0.001 0.007,0.003 0.013,0.003 l 0.004,0.001 0.016,0.028 0.032,0.057 0.066,0.116 0.016,0.028 c 0.014,0.026 -0.059,-0.123 -0.021,-0.046 l 0.03,0.059 c 0.079,0.157 0.158,0.312 0.236,0.466 0.157,0.311 0.312,0.617 0.466,0.92 0.304,0.607 0.613,1.194 0.911,1.768 0.593,1.149 1.176,2.231 1.724,3.247 1.099,2.03 2.099,3.781 2.942,5.213 0.844,1.432 1.532,2.546 2.013,3.3 0.244,0.376 0.43,0.664 0.555,0.858 0.129,0.192 0.195,0.292 0.195,0.292 0.061,0.09 0.183,0.114 0.273,0.054 C -0.007,0.169 0.023,0.08 0,0"
             style="fill:#003a40;fill-opacity:1;fill-rule:nonzero;stroke:none"
             id="path3925"
             inkscape:connector-curvature="0" /></g><g
           id="g3927"
           transform="translate(53.7318,5.592)"><path
             d="m 0,0 c -2.242,-4.835 -7.98,-6.937 -12.816,-4.693 -4.835,2.243 -6.937,7.98 -4.695,12.815 2.243,4.836 7.981,6.938 12.817,4.695 C 0.141,10.575 2.244,4.837 0,0"
             style="fill:#003a40;fill-opacity:1;fill-rule:nonzero;stroke:none"
             id="path3929"
             inkscape:connector-curvature="0" /></g><g
           id="g3931"
           transform="translate(120.6195,85.9387)"><path
             d="m 0,0 c 0,0 0.123,-0.017 0.361,-0.048 0.237,-0.034 0.586,-0.087 1.038,-0.167 0.903,-0.158 2.214,-0.421 3.852,-0.822 1.638,-0.4 3.603,-0.938 5.814,-1.646 1.106,-0.353 2.276,-0.745 3.498,-1.182 0.61,-0.221 1.236,-0.447 1.872,-0.688 0.319,-0.119 0.64,-0.241 0.964,-0.368 0.162,-0.063 0.325,-0.126 0.489,-0.19 l 0.061,-0.024 c -0.123,0.062 0.203,-0.098 0.181,-0.087 l 0.03,-0.013 0.121,-0.055 0.06,-0.027 0.032,-0.016 0.082,-0.045 c 0.109,-0.062 0.217,-0.126 0.324,-0.194 l 0.159,-0.103 c 0.054,-0.035 0.107,-0.072 0.142,-0.098 l 0.236,-0.182 c 0.159,-0.121 0.306,-0.256 0.449,-0.396 0.147,-0.137 0.28,-0.287 0.41,-0.441 0.133,-0.151 0.25,-0.314 0.365,-0.48 0.452,-0.668 0.775,-1.431 0.938,-2.242 0.164,-0.81 0.157,-1.674 -0.031,-2.512 -0.051,-0.208 -0.107,-0.416 -0.174,-0.62 l -0.112,-0.302 -0.111,-0.272 c -0.076,-0.174 -0.153,-0.348 -0.229,-0.523 -0.608,-1.403 -1.276,-2.836 -2.049,-4.269 -0.767,-1.435 -1.631,-2.874 -2.575,-4.317 -0.94,-1.444 -1.948,-2.899 -2.951,-4.387 -1.007,-1.486 -1.996,-3.014 -2.905,-4.603 -0.915,-1.587 -1.745,-3.238 -2.509,-4.934 -0.764,-1.698 -1.474,-3.436 -2.113,-5.216 -0.641,-1.779 -1.215,-3.596 -1.766,-5.425 -0.551,-1.829 -1.09,-3.663 -1.671,-5.469 -0.577,-1.808 -1.211,-3.582 -1.878,-5.325 -0.342,-0.867 -0.682,-1.73 -1.021,-2.59 -0.169,-0.43 -0.339,-0.858 -0.508,-1.285 l -0.252,-0.64 -0.126,-0.319 -0.032,-0.081 c 0.014,0.025 -0.172,-0.352 -0.102,-0.211 l -0.018,-0.04 -0.071,-0.155 -0.02,-0.044 -0.065,-0.116 -0.134,-0.228 -0.143,-0.225 c -0.047,-0.073 -0.102,-0.155 -0.139,-0.202 -0.166,-0.219 -0.332,-0.44 -0.523,-0.635 -0.371,-0.407 -0.802,-0.749 -1.257,-1.05 -0.919,-0.586 -1.978,-0.941 -3.075,-1.023 -0.274,-0.014 -0.55,-0.029 -0.826,-0.008 -0.138,0.008 -0.276,0.017 -0.414,0.03 -0.136,0.019 -0.274,0.039 -0.411,0.063 -0.274,0.041 -0.54,0.119 -0.807,0.193 -0.133,0.039 -0.261,0.089 -0.391,0.137 l -0.193,0.075 -0.155,0.063 c -0.416,0.166 -0.827,0.335 -1.237,0.505 -3.281,1.35 -6.395,2.783 -9.286,4.273 -2.893,1.485 -5.585,2.982 -8.048,4.413 -2.458,1.439 -4.686,2.815 -6.638,4.082 -1.953,1.266 -3.629,2.428 -4.995,3.413 -1.367,0.986 -2.422,1.799 -3.136,2.367 -0.714,0.568 -1.084,0.893 -1.084,0.893 -0.168,0.147 -0.185,0.403 -0.037,0.572 0.094,0.107 0.234,0.152 0.365,0.134 0,0 0.487,-0.073 1.381,-0.252 0.895,-0.177 2.197,-0.458 3.832,-0.864 1.636,-0.407 3.605,-0.935 5.832,-1.61 2.229,-0.671 4.718,-1.483 7.405,-2.43 2.683,-0.955 5.565,-2.044 8.568,-3.293 3.004,-1.245 6.108,-2.696 9.259,-4.328 0.394,-0.204 0.79,-0.409 1.185,-0.619 0.041,-0.021 0.005,-0.004 -0.002,-0.002 -0.012,0.004 -0.024,0.009 -0.037,0.012 -0.025,0.009 -0.052,0.009 -0.077,0.017 -0.051,0.018 -0.106,0.014 -0.158,0.025 -0.026,0.004 -0.053,0.004 -0.08,0.002 -0.026,0.002 -0.052,0.004 -0.078,0.002 -0.052,-0.008 -0.102,-0.003 -0.153,-0.018 -0.197,-0.034 -0.37,-0.109 -0.511,-0.232 -0.077,-0.053 -0.134,-0.131 -0.196,-0.202 -0.023,-0.043 -0.058,-0.075 -0.075,-0.121 10e-4,-0.004 -0.025,-0.037 -0.04,-0.063 -0.018,-0.027 -0.034,-0.054 -0.049,-0.083 -0.014,-0.028 -0.027,-0.056 -0.04,-0.086 l -0.017,-0.045 c 0.003,0.002 0.013,0.022 0.02,0.032 l 0.089,0.147 0.022,0.036 c 0.084,0.166 -0.089,-0.184 -0.064,-0.135 l 0.041,0.077 0.162,0.301 0.325,0.607 c 0.217,0.405 0.435,0.811 0.653,1.219 0.438,0.813 0.878,1.63 1.319,2.452 0.899,1.635 1.844,3.263 2.852,4.873 1.003,1.61 2.055,3.206 3.095,4.808 1.04,1.602 2.057,3.214 3.001,4.852 0.946,1.638 1.814,3.303 2.617,4.982 0.802,1.68 1.525,3.379 2.146,5.103 0.627,1.72 1.153,3.462 1.638,5.19 0.489,1.728 0.947,3.437 1.443,5.087 0.492,1.653 1.032,3.242 1.632,4.755 0.594,1.516 1.256,2.95 1.935,4.32 0.085,0.172 0.168,0.343 0.252,0.513 0.017,0.034 0.005,0.011 0.004,0.009 l -0.007,-0.019 c -0.004,-0.011 -0.006,-0.025 -0.007,-0.038 -0.007,-0.025 -0.015,-0.051 -0.013,-0.079 -0.011,-0.106 -0.005,-0.211 0.027,-0.296 0.032,-0.086 0.077,-0.156 0.136,-0.218 0.014,-0.016 0.034,-0.026 0.048,-0.042 0.017,-0.014 0.038,-0.024 0.053,-0.039 0.018,-0.011 0.039,-0.019 0.056,-0.032 0.009,-0.006 0.019,-0.01 0.03,-0.012 0.002,0.002 0.017,-0.01 0.034,-0.021 0.015,-0.011 0.032,-0.02 0.048,-0.029 0.033,-0.019 0.068,-0.034 0.103,-0.047 l 0.027,-0.009 -0.027,0.017 -0.056,0.033 -0.114,0.069 -0.028,0.018 c -0.042,0.021 0.266,-0.13 0.122,-0.058 l -0.058,0.031 c -0.155,0.084 -0.308,0.168 -0.461,0.251 -0.306,0.165 -0.607,0.331 -0.903,0.498 -0.596,0.33 -1.172,0.662 -1.735,0.985 -1.123,0.651 -2.177,1.29 -3.162,1.907 -1.969,1.23 -3.649,2.383 -5.012,3.375 -1.364,0.991 -2.412,1.822 -3.116,2.41 -0.352,0.293 -0.619,0.526 -0.798,0.684 -0.177,0.161 -0.269,0.244 -0.269,0.244 -0.167,0.152 -0.179,0.41 -0.028,0.577 C -0.262,-0.028 -0.127,0.016 0,0"
             style="fill:#4db05b;fill-opacity:1;fill-rule:nonzero;stroke:none"
             id="path3933"
             inkscape:connector-curvature="0" /></g><g
           id="g3935"
           transform="translate(143.5614,52.0403)"><path
             d="m 0,0 c 4.835,-2.242 6.937,-7.981 4.694,-12.816 -2.243,-4.835 -7.981,-6.938 -12.816,-4.696 -4.836,2.243 -6.938,7.982 -4.695,12.818 C -10.574,0.141 -4.836,2.243 0,0"
             style="fill:#4db05b;fill-opacity:1;fill-rule:nonzero;stroke:none"
             id="path3937"
             inkscape:connector-curvature="0" /></g><g
           id="g3939"
           transform="translate(178.8866,46.2873)"><path
             d="m 0,0 c -3.453,2.023 -6.192,4.763 -8.216,8.216 -2.026,3.452 -3.039,7.232 -3.039,11.341 v 18.229 c 0,4.109 1.013,7.888 3.039,11.34 2.024,3.453 4.763,6.191 8.216,8.217 3.452,2.025 7.232,3.039 11.34,3.039 3.596,0 6.933,-0.642 10.015,-1.926 3.081,-1.284 5.705,-3.154 7.874,-5.606 0.342,-0.4 0.513,-0.885 0.513,-1.455 0,-0.571 -0.228,-1.142 -0.685,-1.712 l -3.765,-3.937 c -0.458,-0.457 -0.914,-0.685 -1.37,-0.685 -0.571,0 -1.085,0.257 -1.54,0.771 -2.854,3.023 -6.505,4.536 -10.956,4.536 -2.169,0 -4.194,-0.571 -6.077,-1.712 -1.882,-1.142 -3.38,-2.682 -4.493,-4.622 -1.112,-1.94 -1.669,-4.022 -1.669,-6.248 V 19.557 c 0,-2.226 0.557,-4.31 1.669,-6.248 1.113,-1.942 2.611,-3.482 4.493,-4.622 1.883,-1.142 3.908,-1.712 6.077,-1.712 2.168,0 4.194,0.542 6.077,1.627 1.883,1.082 3.366,2.567 4.451,4.449 1.083,1.884 1.626,3.937 1.626,6.163 v 4.193 H 12.111 c -0.513,0 -0.942,0.172 -1.283,0.514 -0.343,0.343 -0.515,0.771 -0.515,1.284 v 6.164 c 0,0.512 0.172,0.94 0.515,1.282 0.341,0.343 0.77,0.514 1.283,0.514 H 30.17 c 1.027,0 1.897,-0.357 2.61,-1.07 0.714,-0.714 1.071,-1.582 1.071,-2.611 v -9.927 c 0,-4.109 -1.014,-7.889 -3.039,-11.341 C 28.786,4.763 26.047,2.023 22.596,0 19.143,-2.025 15.391,-3.039 11.34,-3.039 7.232,-3.039 3.452,-2.025 0,0"
             style="fill:#4db05b;fill-opacity:1;fill-rule:nonzero;stroke:none"
             id="path3941"
             inkscape:connector-curvature="0" /></g><g
           id="g3943"
           transform="translate(253.5619,73.8899)"><path
             d="m 0,0 v 0.77 c 0,2.795 -0.984,5.177 -2.953,7.146 -1.968,1.968 -4.351,2.953 -7.146,2.953 -2.797,0 -5.178,-0.985 -7.147,-2.953 -1.968,-1.969 -2.953,-4.351 -2.953,-7.146 V 0 Z m -20.327,-26.79 c -3.111,1.825 -5.578,4.308 -7.403,7.446 -1.827,3.138 -2.739,6.562 -2.739,10.272 v 9.243 c 0,3.707 0.912,7.131 2.739,10.269 1.825,3.138 4.292,5.62 7.403,7.447 3.109,1.825 6.518,2.738 10.228,2.738 3.708,0 7.117,-0.913 10.228,-2.738 C 3.237,16.06 5.705,13.578 7.532,10.44 9.357,7.302 10.27,3.878 10.27,0.171 v -5.734 c 0,-1.029 -0.356,-1.898 -1.069,-2.611 -0.714,-0.715 -1.583,-1.07 -2.611,-1.07 h -26.789 v -0.429 c 0,-2.796 0.985,-5.178 2.953,-7.145 1.969,-1.969 4.35,-2.953 7.147,-2.953 H 3.509 c 0.514,0 0.942,-0.171 1.284,-0.514 0.343,-0.343 0.514,-0.77 0.514,-1.283 v -6.163 c 0,-0.514 -0.171,-0.942 -0.514,-1.284 -0.342,-0.342 -0.77,-0.513 -1.284,-0.513 h -13.608 c -3.71,0 -7.119,0.912 -10.228,2.738"
             style="fill:#4db05b;fill-opacity:1;fill-rule:nonzero;stroke:none"
             id="path3945"
             inkscape:connector-curvature="0" /></g><g
           id="g3947"
           transform="translate(301.1058,56.1301)"><path
             d="m 0,0 c 1.968,1.969 2.952,4.35 2.952,7.146 v 11.212 c 0,2.795 -0.984,5.178 -2.952,7.146 -1.969,1.969 -4.353,2.953 -7.147,2.953 -2.796,0 -5.178,-0.984 -7.147,-2.953 -1.968,-1.968 -2.953,-4.351 -2.953,-7.146 V 7.146 c 0,-2.796 0.985,-5.177 2.953,-7.146 1.969,-1.969 4.351,-2.953 7.147,-2.953 2.794,0 5.178,0.984 7.147,2.953 m -17.375,-10.186 c -3.111,1.798 -5.578,4.237 -7.403,7.318 -1.827,3.082 -2.739,6.419 -2.739,10.014 v 11.212 c 0,3.594 0.912,6.933 2.739,10.014 1.825,3.081 4.292,5.52 7.403,7.317 3.109,1.797 6.518,2.696 10.228,2.696 3.708,0 7.118,-0.899 10.228,-2.696 3.108,-1.797 5.576,-4.236 7.403,-7.317 1.826,-3.081 2.739,-6.42 2.739,-10.014 V 7.146 c 0,-3.595 -0.913,-6.932 -2.739,-10.014 -1.827,-3.081 -4.295,-5.52 -7.403,-7.318 -3.11,-1.796 -6.52,-2.696 -10.228,-2.696 -3.71,0 -7.119,0.9 -10.228,2.696"
             style="fill:#4db05b;fill-opacity:1;fill-rule:nonzero;stroke:none"
             id="path3949"
             inkscape:connector-curvature="0" /></g><g
           id="g3951"
           transform="translate(326.5667,44.8752)"><path
             d="M 0,0 C -0.342,0.342 -0.513,0.77 -0.513,1.283 V 57 c 0,1.028 0.356,1.897 1.07,2.611 0.713,0.713 1.584,1.07 2.61,1.07 h 29.187 c 0.513,0 0.941,-0.171 1.283,-0.514 0.342,-0.342 0.513,-0.77 0.513,-1.283 v -6.42 c 0,-0.513 -0.171,-0.941 -0.513,-1.283 -0.342,-0.342 -0.77,-0.514 -1.283,-0.514 H 9.929 V 34.662 h 16.689 c 0.514,0 0.942,-0.171 1.284,-0.513 0.343,-0.342 0.514,-0.771 0.514,-1.283 v -6.078 c 0,-0.513 -0.171,-0.941 -0.514,-1.283 -0.342,-0.343 -0.77,-0.514 -1.284,-0.514 H 9.929 V 1.283 C 9.929,0.77 9.758,0.342 9.415,0 9.073,-0.343 8.645,-0.514 8.132,-0.514 H 1.284 C 0.771,-0.514 0.343,-0.343 0,0"
             style="fill:#003a40;fill-opacity:1;fill-rule:nonzero;stroke:none"
             id="path3953"
             inkscape:connector-curvature="0" /></g><g
           id="g3955"
           transform="translate(393.9691,56.1301)"><path
             d="m 0,0 c 1.969,1.969 2.953,4.35 2.953,7.146 v 11.212 c 0,2.795 -0.984,5.178 -2.953,7.146 -1.968,1.969 -4.352,2.953 -7.146,2.953 -2.797,0 -5.178,-0.984 -7.147,-2.953 -1.969,-1.968 -2.953,-4.351 -2.953,-7.146 V 7.146 c 0,-2.796 0.984,-5.177 2.953,-7.146 1.969,-1.969 4.35,-2.953 7.147,-2.953 2.794,0 5.178,0.984 7.146,2.953 m -17.374,-10.186 c -3.111,1.798 -5.579,4.237 -7.403,7.318 -1.828,3.082 -2.74,6.419 -2.74,10.014 v 11.212 c 0,3.594 0.912,6.933 2.74,10.014 1.824,3.081 4.292,5.52 7.403,7.317 3.108,1.797 6.518,2.696 10.228,2.696 3.708,0 7.117,-0.899 10.227,-2.696 3.109,-1.797 5.577,-4.236 7.403,-7.317 1.826,-3.081 2.74,-6.42 2.74,-10.014 V 7.146 c 0,-3.595 -0.914,-6.932 -2.74,-10.014 -1.826,-3.081 -4.294,-5.52 -7.403,-7.318 -3.11,-1.796 -6.519,-2.696 -10.227,-2.696 -3.71,0 -7.12,0.9 -10.228,2.696"
             style="fill:#003a40;fill-opacity:1;fill-rule:nonzero;stroke:none"
             id="path3957"
             inkscape:connector-curvature="0" /></g><g
           id="g3959"
           transform="translate(416.0931,44.8752)"><path
             d="m 0,0 c -0.342,0.342 -0.514,0.77 -0.514,1.283 v 6.334 c 0,0.514 0.172,0.942 0.514,1.283 0.343,0.343 0.771,0.514 1.284,0.514 h 6.505 v 29.442 h -7.36 c -0.514,0 -0.943,0.171 -1.283,0.514 -0.343,0.342 -0.514,0.77 -0.514,1.283 v 6.077 c 0,0.514 0.171,0.942 0.514,1.284 0.34,0.342 0.769,0.513 1.283,0.513 h 13.266 c 1.027,0 1.897,-0.356 2.611,-1.069 0.712,-0.714 1.069,-1.583 1.069,-2.61 v -3.082 l 4.621,3.68 c 1.713,1.369 3.195,2.325 4.451,2.868 1.254,0.541 2.74,0.813 4.45,0.813 h 2.655 c 0.513,0 0.941,-0.171 1.283,-0.514 0.343,-0.342 0.514,-0.77 0.514,-1.283 v -6.591 c 0,-0.513 -0.171,-0.942 -0.514,-1.284 -0.342,-0.342 -0.77,-0.514 -1.283,-0.514 h -2.226 c -1.484,0 -2.768,-0.256 -3.85,-0.769 -1.085,-0.514 -2.741,-1.656 -4.965,-3.424 L 17.803,30.982 V 9.414 h 8.473 c 0.514,0 0.942,-0.171 1.285,-0.514 0.341,-0.341 0.513,-0.769 0.513,-1.283 V 1.283 C 28.074,0.77 27.902,0.342 27.561,0 27.218,-0.343 26.79,-0.514 26.276,-0.514 H 1.284 C 0.771,-0.514 0.343,-0.343 0,0"
             style="fill:#003a40;fill-opacity:1;fill-rule:nonzero;stroke:none"
             id="path3961"
             inkscape:connector-curvature="0" /></g><g
           id="g3963"
           transform="translate(487.9017,68.3264)"><path
             d="M 0,0 -7.019,22.852 -14.036,0 Z m -30.983,-23.409 c -0.399,0.37 -0.599,0.842 -0.599,1.413 0,0.284 0.028,0.514 0.086,0.684 l 18.572,57.087 c 0.172,0.57 0.499,1.027 0.985,1.37 0.484,0.342 1.041,0.513 1.668,0.513 h 6.676 c 0.628,0 1.184,-0.171 1.669,-0.513 0.485,-0.343 0.814,-0.8 0.985,-1.37 l 18.573,-57.087 c 0.055,-0.17 0.086,-0.4 0.086,-0.684 0,-0.571 -0.201,-1.043 -0.601,-1.413 -0.399,-0.371 -0.885,-0.556 -1.454,-0.556 H 9.5 c -0.629,0 -1.185,0.185 -1.669,0.556 -0.484,0.37 -0.812,0.842 -0.983,1.413 L 2.996,-9.672 h -20.028 l -3.852,-12.324 c -0.171,-0.571 -0.5,-1.043 -0.983,-1.413 -0.487,-0.371 -1.042,-0.556 -1.67,-0.556 h -5.991 c -0.571,0 -1.057,0.185 -1.455,0.556"
             style="fill:#4db05b;fill-opacity:1;fill-rule:nonzero;stroke:none"
             id="path3965"
             inkscape:connector-curvature="0" /></g><g
           id="g3967"
           transform="translate(519.2709,45.4309)"><path
             d="m 0,0 c -0.714,0.713 -1.07,1.584 -1.07,2.61 v 51.953 h -7.789 c -0.513,0 -0.942,0.171 -1.284,0.513 -0.341,0.342 -0.512,0.77 -0.512,1.283 v 6.334 c 0,0.514 0.171,0.942 0.512,1.284 0.342,0.342 0.771,0.514 1.284,0.514 h 14.38 c 1.026,0 1.896,-0.357 2.61,-1.071 0.713,-0.714 1.07,-1.583 1.07,-2.61 V 8.858 h 7.788 c 0.514,0 0.942,-0.17 1.284,-0.513 0.342,-0.342 0.514,-0.77 0.514,-1.283 V 0.728 c 0,-0.514 -0.172,-0.942 -0.514,-1.284 -0.342,-0.342 -0.77,-0.513 -1.284,-0.513 H 2.61 C 1.583,-1.069 0.712,-0.714 0,0"
             style="fill:#4db05b;fill-opacity:1;fill-rule:nonzero;stroke:none"
             id="path3969"
             inkscape:connector-curvature="0" /></g><g
           id="g3971"
           transform="translate(551.7943,45.4309)"><path
             d="m 0,0 c -0.714,0.713 -1.07,1.584 -1.07,2.61 v 51.953 h -7.789 c -0.512,0 -0.941,0.171 -1.284,0.513 -0.341,0.342 -0.512,0.77 -0.512,1.283 v 6.334 c 0,0.514 0.171,0.942 0.512,1.284 0.343,0.342 0.772,0.514 1.284,0.514 h 14.38 c 1.026,0 1.896,-0.357 2.61,-1.071 0.713,-0.714 1.07,-1.583 1.07,-2.61 V 8.858 h 7.788 c 0.514,0 0.942,-0.17 1.284,-0.513 0.343,-0.342 0.514,-0.77 0.514,-1.283 V 0.728 c 0,-0.514 -0.171,-0.942 -0.514,-1.284 -0.342,-0.342 -0.77,-0.513 -1.284,-0.513 H 2.611 C 1.583,-1.069 0.712,-0.714 0,0"
             style="fill:#4db05b;fill-opacity:1;fill-rule:nonzero;stroke:none"
             id="path3973"
             inkscape:connector-curvature="0" /></g></g></g></g></svg>