<?xml version="1.0" encoding="UTF-8"?><svg xmlns="http://www.w3.org/2000/svg" xmlns:xlink="http://www.w3.org/1999/xlink" fill-opacity="1" color-rendering="auto" color-interpolation="auto" text-rendering="auto" stroke="black" stroke-linecap="square" width="1086" stroke-miterlimit="10" shape-rendering="auto" stroke-opacity="1" fill="black" stroke-dasharray="none" font-weight="normal" stroke-width="1" height="162" font-family="'Dialog'" font-style="normal" stroke-linejoin="miter" font-size="12px" stroke-dashoffset="0" image-rendering="auto">
  <!--Generated by ySVG 2.5-->
  <defs id="genericDefs"/>
  <g>
    <defs id="defs1">
      <clipPath clipPathUnits="userSpaceOnUse" id="clipPath1">
        <path d="M0 0 L1086 0 L1086 162 L0 162 L0 0 Z"/>
      </clipPath>
      <clipPath clipPathUnits="userSpaceOnUse" id="clipPath2">
        <path d="M1 325 L1087 325 L1087 487 L1 487 L1 325 Z"/>
      </clipPath>
    </defs>
    <g transform="matrix(1,0,0,1,-1,-325)" fill-opacity="0.3333" fill="rgb(153,204,255)" text-rendering="geometricPrecision" shape-rendering="geometricPrecision" stroke="rgb(153,204,255)" stroke-opacity="0.3333">
      <rect x="892.3333" y="421" clip-path="url(#clipPath2)" width="179" rx="4" ry="4" height="51" stroke="none"/>
    </g>
    <g stroke-linecap="butt" transform="matrix(1,0,0,1,-1,-325)" fill-opacity="0.3333" fill="rgb(0,0,0)" text-rendering="geometricPrecision" shape-rendering="geometricPrecision" stroke="rgb(0,0,0)" stroke-opacity="0.3333" stroke-miterlimit="1.45">
      <rect x="892.3333" y="421" clip-path="url(#clipPath2)" fill="none" width="179" rx="4" ry="4" height="51"/>
      <text x="977.2132" xml:space="preserve" y="450.6543" clip-path="url(#clipPath2)" font-family="sans-serif" stroke="none">D</text>
    </g>
    <g transform="matrix(1,0,0,1,-1,-325)" fill-opacity="0.3333" fill="rgb(153,204,255)" text-rendering="geometricPrecision" shape-rendering="geometricPrecision" stroke="rgb(153,204,255)" stroke-opacity="0.3333">
      <rect x="892.3333" y="340" clip-path="url(#clipPath2)" width="179" rx="4" ry="4" height="51" stroke="none"/>
    </g>
    <g stroke-linecap="butt" transform="matrix(1,0,0,1,-1,-325)" fill-opacity="0.3333" fill="rgb(0,0,0)" text-rendering="geometricPrecision" shape-rendering="geometricPrecision" stroke="rgb(0,0,0)" stroke-opacity="0.3333" stroke-miterlimit="1.45">
      <rect x="892.3333" y="340" clip-path="url(#clipPath2)" fill="none" width="179" rx="4" ry="4" height="51"/>
      <text x="977.6439" xml:space="preserve" y="369.6543" clip-path="url(#clipPath2)" font-family="sans-serif" stroke="none">C</text>
    </g>
    <g transform="matrix(1,0,0,1,-1,-325)" fill-opacity="0.3333" fill="rgb(153,204,255)" text-rendering="geometricPrecision" shape-rendering="geometricPrecision" stroke="rgb(153,204,255)" stroke-opacity="0.3333">
      <rect x="16" y="345" clip-path="url(#clipPath2)" width="179" rx="4" ry="4" height="123" stroke="none"/>
    </g>
    <g stroke-linecap="butt" transform="matrix(1,0,0,1,-1,-325)" fill-opacity="0.3333" fill="rgb(0,0,0)" text-rendering="geometricPrecision" shape-rendering="geometricPrecision" stroke="rgb(0,0,0)" stroke-opacity="0.3333" stroke-miterlimit="1.45">
      <rect x="16" y="345" clip-path="url(#clipPath2)" fill="none" width="179" rx="4" ry="4" height="123"/>
      <text x="101.3955" xml:space="preserve" y="410.6543" clip-path="url(#clipPath2)" font-family="sans-serif" stroke="none">A</text>
    </g>
    <g transform="matrix(1,0,0,1,-1,-325)" fill-opacity="0.3333" fill="rgb(153,204,255)" text-rendering="geometricPrecision" shape-rendering="geometricPrecision" stroke="rgb(153,204,255)" stroke-opacity="0.3333">
      <rect x="454.1667" y="345" clip-path="url(#clipPath2)" width="179" rx="4" ry="4" height="123" stroke="none"/>
    </g>
    <g stroke-linecap="butt" transform="matrix(1,0,0,1,-1,-325)" fill-opacity="0.3333" fill="rgb(0,0,0)" text-rendering="geometricPrecision" shape-rendering="geometricPrecision" stroke="rgb(0,0,0)" stroke-opacity="0.3333" stroke-miterlimit="1.45">
      <rect x="454.1667" y="345" clip-path="url(#clipPath2)" fill="none" width="179" rx="4" ry="4" height="123"/>
      <text x="539.5505" xml:space="preserve" y="410.6543" clip-path="url(#clipPath2)" font-family="sans-serif" stroke="none">B</text>
    </g>
    <g fill="rgb(237,130,37)" text-rendering="geometricPrecision" shape-rendering="geometricPrecision" transform="matrix(1,0,0,1,-1,-325)" stroke="rgb(237,130,37)">
      <path d="M183 391.5 L210 391.5 L213 406.5 L210 421.5 L183 421.5 L186 406.5 Z" fill-rule="evenodd" clip-path="url(#clipPath2)" stroke="none"/>
    </g>
    <g text-rendering="geometricPrecision" stroke-miterlimit="1.45" shape-rendering="geometricPrecision" transform="matrix(1,0,0,1,-1,-325)" stroke-linecap="butt">
      <path fill="none" d="M183 391.5 L210 391.5 L213 406.5 L210 421.5 L183 421.5 L186 406.5 Z" fill-rule="evenodd" clip-path="url(#clipPath2)"/>
    </g>
    <g fill="rgb(237,130,37)" text-rendering="geometricPrecision" shape-rendering="geometricPrecision" transform="matrix(1,0,0,1,-1,-325)" stroke="rgb(237,130,37)">
      <path d="M449 391.5 L476 391.5 L479 406.5 L476 421.5 L449 421.5 L452 406.5 Z" fill-rule="evenodd" clip-path="url(#clipPath2)" stroke="none"/>
    </g>
    <g text-rendering="geometricPrecision" stroke-miterlimit="1.45" shape-rendering="geometricPrecision" transform="matrix(1,0,0,1,-1,-325)" stroke-linecap="butt">
      <path fill="none" d="M449 391.5 L476 391.5 L479 406.5 L476 421.5 L449 421.5 L452 406.5 Z" fill-rule="evenodd" clip-path="url(#clipPath2)"/>
    </g>
    <g fill="rgb(237,130,37)" text-rendering="geometricPrecision" shape-rendering="geometricPrecision" transform="matrix(1,0,0,1,-1,-325)" stroke="rgb(237,130,37)">
      <path d="M623 352.5 L650 352.5 L653 367.5 L650 382.5 L623 382.5 L626 367.5 Z" fill-rule="evenodd" clip-path="url(#clipPath2)" stroke="none"/>
    </g>
    <g text-rendering="geometricPrecision" stroke-miterlimit="1.45" shape-rendering="geometricPrecision" transform="matrix(1,0,0,1,-1,-325)" stroke-linecap="butt">
      <path fill="none" d="M623 352.5 L650 352.5 L653 367.5 L650 382.5 L623 382.5 L626 367.5 Z" fill-rule="evenodd" clip-path="url(#clipPath2)"/>
    </g>
    <g fill="rgb(237,130,37)" text-rendering="geometricPrecision" shape-rendering="geometricPrecision" transform="matrix(1,0,0,1,-1,-325)" stroke="rgb(237,130,37)">
      <path d="M886.3333 352.5 L913.3333 352.5 L916.3333 367.5 L913.3333 382.5 L886.3333 382.5 L889.3333 367.5 Z" fill-rule="evenodd" clip-path="url(#clipPath2)" stroke="none"/>
    </g>
    <g text-rendering="geometricPrecision" stroke-miterlimit="1.45" shape-rendering="geometricPrecision" transform="matrix(1,0,0,1,-1,-325)" stroke-linecap="butt">
      <path fill="none" d="M886.3333 352.5 L913.3333 352.5 L916.3333 367.5 L913.3333 382.5 L886.3333 382.5 L889.3333 367.5 Z" fill-rule="evenodd" clip-path="url(#clipPath2)"/>
    </g>
    <g fill="rgb(237,130,37)" text-rendering="geometricPrecision" shape-rendering="geometricPrecision" transform="matrix(1,0,0,1,-1,-325)" stroke="rgb(237,130,37)">
      <path d="M623 431.5 L650 431.5 L653 446.5 L650 461.5 L623 461.5 L626 446.5 Z" fill-rule="evenodd" clip-path="url(#clipPath2)" stroke="none"/>
    </g>
    <g text-rendering="geometricPrecision" stroke-miterlimit="1.45" shape-rendering="geometricPrecision" transform="matrix(1,0,0,1,-1,-325)" stroke-linecap="butt">
      <path fill="none" d="M623 431.5 L650 431.5 L653 446.5 L650 461.5 L623 461.5 L626 446.5 Z" fill-rule="evenodd" clip-path="url(#clipPath2)"/>
    </g>
    <g fill="rgb(237,130,37)" text-rendering="geometricPrecision" shape-rendering="geometricPrecision" transform="matrix(1,0,0,1,-1,-325)" stroke="rgb(237,130,37)">
      <path d="M886.3333 431.5 L913.3333 431.5 L916.3333 446.5 L913.3333 461.5 L886.3333 461.5 L889.3333 446.5 Z" fill-rule="evenodd" clip-path="url(#clipPath2)" stroke="none"/>
    </g>
    <g text-rendering="geometricPrecision" stroke-miterlimit="1.45" shape-rendering="geometricPrecision" transform="matrix(1,0,0,1,-1,-325)" stroke-linecap="butt">
      <path fill="none" d="M886.3333 431.5 L913.3333 431.5 L916.3333 446.5 L913.3333 461.5 L886.3333 461.5 L889.3333 446.5 Z" fill-rule="evenodd" clip-path="url(#clipPath2)"/>
    </g>
    <g stroke-linecap="butt" transform="matrix(1,0,0,1,-1,-325)" fill="rgb(237,130,37)" text-rendering="geometricPrecision" shape-rendering="geometricPrecision" stroke="rgb(237,130,37)" stroke-width="7" stroke-miterlimit="1.45">
      <path d="M426.1728 396 L426.1728 403 L212.9794 403 L212.9794 410 L426.1728 410 L426.1728 417 L454.1728 406.5 L426.1728 396 Z" stroke="none" clip-path="url(#clipPath2)"/>
      <path fill="none" d="M426.1728 396 L426.1728 403 L212.9794 403 L212.9794 410 L426.1728 410 L426.1728 417 L454.1728 406.5 L426.1728 396 Z" stroke-width="1" clip-path="url(#clipPath2)" stroke="rgb(237,110,0)"/>
    </g>
    <g stroke-linecap="butt" transform="matrix(1,0,0,1,-1,-325)" fill="rgb(237,130,37)" text-rendering="geometricPrecision" shape-rendering="geometricPrecision" stroke="rgb(237,130,37)" stroke-width="7" stroke-miterlimit="1.45">
      <path d="M864.3007 355.7146 L864.3433 362.7145 L864.3433 362.7145 L652.9952 363.9998 L653.0382 370.9997 L864.3859 369.7144 L864.3859 369.7144 L864.4285 376.7142 L892.3641 366.0441 L864.3007 355.7146 Z" stroke="none" clip-path="url(#clipPath2)"/>
      <path fill="none" d="M864.3007 355.7146 L864.3433 362.7145 L864.3433 362.7145 L652.9952 363.9998 L653.0382 370.9997 L864.3859 369.7144 L864.3859 369.7144 L864.4285 376.7142 L892.3641 366.0441 L864.3007 355.7146 Z" stroke-width="1" clip-path="url(#clipPath2)" stroke="rgb(237,110,0)"/>
    </g>
    <g stroke-linecap="butt" transform="matrix(1,0,0,1,-1,-325)" fill="rgb(237,130,37)" text-rendering="geometricPrecision" shape-rendering="geometricPrecision" stroke="rgb(237,130,37)" stroke-width="7" stroke-miterlimit="1.45">
      <path d="M868.3598 436 L868.3598 443 L653.0118 443 L653.0118 450 L868.3598 450 L868.3598 457 L889.3598 446.5 L868.3598 436 Z" stroke="none" clip-path="url(#clipPath2)"/>
      <path fill="none" d="M868.3598 436 L868.3598 443 L653.0118 443 L653.0118 450 L868.3598 450 L868.3598 457 L889.3598 446.5 L868.3598 436 Z" stroke-width="1" clip-path="url(#clipPath2)" stroke="rgb(237,110,0)"/>
    </g>
  </g>
</svg>
