<?xml version="1.0" encoding="UTF-8"?><svg xmlns="http://www.w3.org/2000/svg" xmlns:xlink="http://www.w3.org/1999/xlink" fill-opacity="1" color-rendering="auto" color-interpolation="auto" text-rendering="auto" stroke="black" stroke-linecap="square" width="1086" stroke-miterlimit="10" shape-rendering="auto" stroke-opacity="1" fill="black" stroke-dasharray="none" font-weight="normal" stroke-width="1" height="153" font-family="'Dialog'" font-style="normal" stroke-linejoin="miter" font-size="12px" stroke-dashoffset="0" image-rendering="auto">
  <!--Generated by ySVG 2.5-->
  <defs id="genericDefs"/>
  <g>
    <defs id="defs1">
      <clipPath clipPathUnits="userSpaceOnUse" id="clipPath1">
        <path d="M0 0 L1086 0 L1086 153 L0 153 L0 0 Z"/>
      </clipPath>
      <clipPath clipPathUnits="userSpaceOnUse" id="clipPath2">
        <path d="M1 330 L1087 330 L1087 483 L1 483 L1 330 Z"/>
      </clipPath>
    </defs>
    <g fill="rgb(153,204,255)" text-rendering="geometricPrecision" shape-rendering="geometricPrecision" transform="matrix(1,0,0,1,-1,-330)" stroke="rgb(153,204,255)">
      <rect x="16" y="345" clip-path="url(#clipPath2)" width="179" rx="4" ry="4" height="123" stroke="none"/>
    </g>
    <g text-rendering="geometricPrecision" stroke-miterlimit="1.45" shape-rendering="geometricPrecision" transform="matrix(1,0,0,1,-1,-330)" stroke-linecap="butt">
      <rect x="16" y="345" clip-path="url(#clipPath2)" fill="none" width="179" rx="4" ry="4" height="123"/>
      <text x="84.3975" xml:space="preserve" y="410.6543" clip-path="url(#clipPath2)" font-family="sans-serif" stroke="none">Twitter</text>
    </g>
    <g fill="rgb(153,204,255)" text-rendering="geometricPrecision" shape-rendering="geometricPrecision" transform="matrix(1,0,0,1,-1,-330)" stroke="rgb(153,204,255)">
      <rect x="454.1667" y="345" clip-path="url(#clipPath2)" width="179" rx="4" ry="4" height="123" stroke="none"/>
    </g>
    <g text-rendering="geometricPrecision" stroke-miterlimit="1.45" shape-rendering="geometricPrecision" transform="matrix(1,0,0,1,-1,-330)" stroke-linecap="butt">
      <rect x="454.1667" y="345" clip-path="url(#clipPath2)" fill="none" width="179" rx="4" ry="4" height="123"/>
      <text x="516.8337" xml:space="preserve" y="410.6543" clip-path="url(#clipPath2)" font-family="sans-serif" stroke="none">API REST</text>
    </g>
    <g fill="rgb(153,204,255)" text-rendering="geometricPrecision" shape-rendering="geometricPrecision" transform="matrix(1,0,0,1,-1,-330)" stroke="rgb(153,204,255)">
      <rect x="892.3333" y="345" clip-path="url(#clipPath2)" width="179" rx="4" ry="4" height="123" stroke="none"/>
    </g>
    <g text-rendering="geometricPrecision" stroke-miterlimit="1.45" shape-rendering="geometricPrecision" transform="matrix(1,0,0,1,-1,-330)" stroke-linecap="butt">
      <rect x="892.3333" y="345" clip-path="url(#clipPath2)" fill="none" width="179" rx="4" ry="4" height="123"/>
      <text x="955.973" xml:space="preserve" y="410.6543" clip-path="url(#clipPath2)" font-family="sans-serif" stroke="none">Postgres</text>
    </g>
    <g text-rendering="geometricPrecision" stroke-miterlimit="1.45" shape-rendering="geometricPrecision" transform="matrix(1,0,0,1,-1,-330)" stroke-linecap="butt">
      <path fill="none" d="M439.1619 400.25 L442.0119 405 L195.0107 405 L195.0107 408 L442.0119 408 L439.1619 412.75 L454.1619 406.5 L439.1619 400.25 Z" clip-path="url(#clipPath2)"/>
    </g>
    <g text-rendering="geometricPrecision" stroke-miterlimit="1.45" shape-rendering="geometricPrecision" transform="matrix(1,0,0,1,-1,-330)" stroke-linecap="butt">
      <path fill="none" d="M877.3285 400.25 L880.1785 405 L633.1774 405 L633.1774 408 L880.1785 408 L877.3285 412.75 L892.3285 406.5 L877.3285 400.25 Z" clip-path="url(#clipPath2)"/>
    </g>
  </g>
</svg>
