<?xml version="1.0" encoding="UTF-8"?><svg xmlns="http://www.w3.org/2000/svg" xmlns:xlink="http://www.w3.org/1999/xlink" fill-opacity="1" color-rendering="auto" color-interpolation="auto" text-rendering="auto" stroke="black" stroke-linecap="square" width="429" stroke-miterlimit="10" shape-rendering="auto" stroke-opacity="1" fill="black" stroke-dasharray="none" font-weight="normal" stroke-width="1" height="333" font-family="'Dialog'" font-style="normal" stroke-linejoin="miter" font-size="12px" stroke-dashoffset="0" image-rendering="auto">
  <!--Generated by ySVG 2.5-->
  <defs id="genericDefs"/>
  <g>
    <defs id="defs1">
      <clipPath clipPathUnits="userSpaceOnUse" id="clipPath1">
        <path d="M0 0 L429 0 L429 333 L0 333 L0 0 Z"/>
      </clipPath>
      <clipPath clipPathUnits="userSpaceOnUse" id="clipPath2">
        <path d="M150 215 L579 215 L579 548 L150 548 L150 215 Z"/>
      </clipPath>
    </defs>
    <g fill="rgb(204,255,255)" text-rendering="geometricPrecision" shape-rendering="geometricPrecision" transform="matrix(1,0,0,1,-150,-215)" stroke="rgb(204,255,255)">
      <path d="M175.3444 351.2986 L262.2944 351.2986 L252.6333 390.8472 L165.6833 390.8472 Z" fill-rule="evenodd" clip-path="url(#clipPath2)" stroke="none"/>
    </g>
    <g text-rendering="geometricPrecision" stroke-miterlimit="1.45" shape-rendering="geometricPrecision" transform="matrix(1,0,0,1,-150,-215)" stroke-linecap="butt">
      <path fill="none" d="M175.3444 351.2986 L262.2944 351.2986 L252.6333 390.8472 L165.6833 390.8472 Z" fill-rule="evenodd" clip-path="url(#clipPath2)"/>
      <text x="188.776" xml:space="preserve" y="375.2272" clip-path="url(#clipPath2)" font-family="sans-serif" stroke="none">New Cat</text>
    </g>
    <g fill="red" text-rendering="geometricPrecision" shape-rendering="geometricPrecision" transform="matrix(1,0,0,1,-150,-215)" stroke="red">
      <circle r="7.1875" clip-path="url(#clipPath2)" cx="213.9889" cy="314.1111" stroke="none"/>
      <circle stroke-linecap="butt" clip-path="url(#clipPath2)" fill="none" r="7.1875" cx="213.9889" cy="314.1111" stroke-miterlimit="1.45"/>
      <path fill="rgb(204,255,255)" d="M410.5167 275.2986 L497.4667 275.2986 L487.8055 314.8472 L400.8556 314.8472 Z" clip-path="url(#clipPath2)" fill-rule="evenodd" stroke="none"/>
    </g>
    <g text-rendering="geometricPrecision" stroke-miterlimit="1.45" shape-rendering="geometricPrecision" transform="matrix(1,0,0,1,-150,-215)" stroke-linecap="butt">
      <path fill="none" d="M410.5167 275.2986 L497.4667 275.2986 L487.8055 314.8472 L400.8556 314.8472 Z" fill-rule="evenodd" clip-path="url(#clipPath2)"/>
      <text x="413.791" xml:space="preserve" y="299.2272" clip-path="url(#clipPath2)" font-family="sans-serif" stroke="none">New Person</text>
    </g>
    <g fill="red" text-rendering="geometricPrecision" shape-rendering="geometricPrecision" transform="matrix(1,0,0,1,-150,-215)" stroke="red">
      <circle r="7.1875" clip-path="url(#clipPath2)" cx="449.1611" cy="238.1111" stroke="none"/>
      <circle stroke-linecap="butt" clip-path="url(#clipPath2)" fill="none" r="7.1875" cx="449.1611" cy="238.1111" stroke-miterlimit="1.45"/>
      <path fill="rgb(255,204,0)" d="M398.5611 394.3174 L449.1611 361.7173 L499.7611 394.3174 L449.1611 426.9174 Z" clip-path="url(#clipPath2)" fill-rule="evenodd" stroke="none"/>
    </g>
    <g text-rendering="geometricPrecision" stroke-miterlimit="1.45" shape-rendering="geometricPrecision" transform="matrix(1,0,0,1,-150,-215)" stroke-linecap="butt">
      <path fill="none" d="M398.5611 394.3174 L449.1611 361.7173 L499.7611 394.3174 L449.1611 426.9174 Z" fill-rule="evenodd" clip-path="url(#clipPath2)"/>
      <text x="427.4463" xml:space="preserve" y="391.4873" clip-path="url(#clipPath2)" font-family="sans-serif" stroke="none">Is a cat</text>
      <text x="418.8945" xml:space="preserve" y="405.456" clip-path="url(#clipPath2)" font-family="sans-serif" stroke="none">available?</text>
    </g>
    <g fill="rgb(204,255,255)" text-rendering="geometricPrecision" shape-rendering="geometricPrecision" transform="matrix(1,0,0,1,-150,-215)" stroke="rgb(204,255,255)">
      <path d="M476.1167 493.3875 L563.0667 493.3875 L553.4056 532.9361 L466.4556 532.9361 Z" fill-rule="evenodd" clip-path="url(#clipPath2)" stroke="none"/>
    </g>
    <g text-rendering="geometricPrecision" stroke-miterlimit="1.45" shape-rendering="geometricPrecision" transform="matrix(1,0,0,1,-150,-215)" stroke-linecap="butt">
      <path fill="none" d="M476.1167 493.3875 L563.0667 493.3875 L553.4056 532.9361 L466.4556 532.9361 Z" fill-rule="evenodd" clip-path="url(#clipPath2)"/>
      <text x="498.7972" xml:space="preserve" y="517.3161" clip-path="url(#clipPath2)" font-family="sans-serif" stroke="none">Sorry</text>
    </g>
    <g fill="rgb(204,255,255)" text-rendering="geometricPrecision" shape-rendering="geometricPrecision" transform="matrix(1,0,0,1,-150,-215)" stroke="rgb(204,255,255)">
      <path d="M338.4167 493.3875 L425.3667 493.3875 L415.7056 532.9361 L328.7556 532.9361 Z" fill-rule="evenodd" clip-path="url(#clipPath2)" stroke="none"/>
    </g>
    <g text-rendering="geometricPrecision" stroke-miterlimit="1.45" shape-rendering="geometricPrecision" transform="matrix(1,0,0,1,-150,-215)" stroke-linecap="butt">
      <path fill="none" d="M338.4167 493.3875 L425.3667 493.3875 L415.7056 532.9361 L328.7556 532.9361 Z" fill-rule="evenodd" clip-path="url(#clipPath2)"/>
      <text x="337.7125" xml:space="preserve" y="517.3161" clip-path="url(#clipPath2)" font-family="sans-serif" stroke="none">Cat adopted!</text>
    </g>
    <g fill="rgb(204,255,255)" text-rendering="geometricPrecision" shape-rendering="geometricPrecision" transform="matrix(1,0,0,1,-150,-215)" stroke="rgb(204,255,255)">
      <path d="M175.3444 437.7174 L262.2944 437.7174 L252.6333 477.266 L165.6833 477.266 Z" fill-rule="evenodd" clip-path="url(#clipPath2)" stroke="none"/>
    </g>
    <g text-rendering="geometricPrecision" stroke-miterlimit="1.45" shape-rendering="geometricPrecision" transform="matrix(1,0,0,1,-150,-215)" stroke-linecap="butt">
      <path fill="none" d="M175.3444 437.7174 L262.2944 437.7174 L252.6333 477.266 L165.6833 477.266 Z" fill-rule="evenodd" clip-path="url(#clipPath2)"/>
      <text x="177.5758" xml:space="preserve" y="461.646" clip-path="url(#clipPath2)" font-family="sans-serif" stroke="none">Cat waiting!</text>
      <path fill="none" d="M213.9889 321.2986 L213.9889 342.2896" stroke-width="2" clip-path="url(#clipPath2)" stroke="red"/>
      <path fill="red" d="M213.9889 351.2896 L219.6139 337.7896 L213.9889 341.1646 L208.3639 337.7896 Z" stroke-width="2" clip-path="url(#clipPath2)" stroke="none"/>
      <path fill="none" d="M449.1611 245.2986 L449.1611 266.2896" stroke-width="2" clip-path="url(#clipPath2)" stroke="red"/>
      <path fill="red" d="M449.1611 275.2896 L454.7861 261.7896 L449.1611 265.1646 L443.5361 261.7896 Z" stroke-width="2" clip-path="url(#clipPath2)" stroke="none"/>
      <path fill="none" d="M449.1611 314.8927 L449.1611 352.7021" stroke-width="2" clip-path="url(#clipPath2)" stroke="red"/>
      <path fill="red" d="M449.1611 361.7021 L454.7861 348.2021 L449.1611 351.5771 L443.5361 348.2021 Z" stroke-width="2" clip-path="url(#clipPath2)" stroke="none"/>
      <path fill="none" d="M476.2916 409.4005 L514.7611 430.7875 L514.7611 484.4129" stroke-width="2" clip-path="url(#clipPath2)" stroke="red"/>
      <path fill="red" d="M514.7611 493.4129 L520.3861 479.9129 L514.7611 483.2879 L509.1361 479.9129 Z" stroke-width="2" clip-path="url(#clipPath2)" stroke="none"/>
    </g>
    <g stroke-linecap="butt" transform="matrix(1,0,0,1,-150,-215)" fill-opacity="0.4667" fill="rgb(255,255,255)" text-rendering="geometricPrecision" shape-rendering="geometricPrecision" stroke="rgb(255,255,255)" stroke-width="2" stroke-opacity="0.4667" stroke-miterlimit="1.45">
      <rect x="502.35" width="18.9473" height="17.9688" y="403.9188" clip-path="url(#clipPath2)" stroke="none"/>
    </g>
    <g text-rendering="geometricPrecision" stroke-miterlimit="1.45" shape-rendering="geometricPrecision" font-family="sans-serif" transform="matrix(1,0,0,1,-150,-215)" stroke-linecap="butt">
      <text x="504.35" xml:space="preserve" y="417.0575" clip-path="url(#clipPath2)" stroke="none">no</text>
    </g>
    <g stroke-linecap="butt" transform="matrix(1,0,0,1,-150,-215)" fill="red" text-rendering="geometricPrecision" shape-rendering="geometricPrecision" stroke="red" stroke-width="2" stroke-miterlimit="1.45">
      <path fill="none" d="M420.821 408.6526 L377.0611 430.7875 L377.0611 484.4129" clip-path="url(#clipPath2)"/>
      <path d="M377.0611 493.4129 L382.6861 479.9129 L377.0611 483.2879 L371.4361 479.9129 Z" clip-path="url(#clipPath2)" stroke="none"/>
    </g>
    <g stroke-linecap="butt" transform="matrix(1,0,0,1,-150,-215)" fill-opacity="0.4667" fill="rgb(255,255,255)" text-rendering="geometricPrecision" shape-rendering="geometricPrecision" stroke="rgb(255,255,255)" stroke-width="2" stroke-opacity="0.4667" stroke-miterlimit="1.45">
      <rect x="370.8804" width="24.7363" height="17.9688" y="401.4328" clip-path="url(#clipPath2)" stroke="none"/>
    </g>
    <g text-rendering="geometricPrecision" stroke-miterlimit="1.45" shape-rendering="geometricPrecision" font-family="sans-serif" transform="matrix(1,0,0,1,-150,-215)" stroke-linecap="butt">
      <text x="372.8804" xml:space="preserve" y="414.5715" clip-path="url(#clipPath2)" stroke="none">yes</text>
    </g>
    <g stroke-linecap="butt" transform="matrix(1,0,0,1,-150,-215)" fill="red" text-rendering="geometricPrecision" shape-rendering="geometricPrecision" stroke="red" stroke-width="2" stroke-miterlimit="1.45">
      <path fill="none" d="M213.9889 390.8775 L213.9889 428.7112" clip-path="url(#clipPath2)"/>
      <path d="M213.9889 437.7112 L219.6139 424.2112 L213.9889 427.5862 L208.3639 424.2112 Z" clip-path="url(#clipPath2)" stroke="none"/>
    </g>
  </g>
</svg>
