<?xml version="1.0" encoding="UTF-8"?><svg xmlns="http://www.w3.org/2000/svg" xmlns:xlink="http://www.w3.org/1999/xlink" fill-opacity="1" color-rendering="auto" color-interpolation="auto" text-rendering="auto" stroke="black" stroke-linecap="square" width="868" stroke-miterlimit="10" shape-rendering="auto" stroke-opacity="1" fill="black" stroke-dasharray="none" font-weight="normal" stroke-width="1" height="523" font-family="'Dialog'" font-style="normal" stroke-linejoin="miter" font-size="12px" stroke-dashoffset="0" image-rendering="auto">
  <!--Generated by ySVG 2.5-->
  <defs id="genericDefs"/>
  <g>
    <defs id="defs1">
      <clipPath clipPathUnits="userSpaceOnUse" id="clipPath1">
        <path d="M0 0 L868 0 L868 523 L0 523 L0 0 Z"/>
      </clipPath>
      <clipPath clipPathUnits="userSpaceOnUse" id="clipPath2">
        <path d="M501 91 L1369 91 L1369 614 L501 614 L501 91 Z"/>
      </clipPath>
    </defs>
    <g fill="rgb(237,130,37)" text-rendering="geometricPrecision" shape-rendering="geometricPrecision" transform="matrix(1,0,0,1,-501,-91)" stroke="rgb(237,130,37)">
      <path d="M516.9756 320.75 L689.7757 320.75 L708.9756 342.75 L689.7757 364.75 L516.9756 364.75 L536.1757 342.75 Z" fill-rule="evenodd" clip-path="url(#clipPath2)" stroke="none"/>
    </g>
    <g text-rendering="geometricPrecision" stroke-miterlimit="1.45" shape-rendering="geometricPrecision" transform="matrix(1,0,0,1,-501,-91)" stroke-linecap="butt">
      <path fill="none" d="M516.9756 320.75 L689.7757 320.75 L708.9756 342.75 L689.7757 364.75 L516.9756 364.75 L536.1757 342.75 Z" fill-rule="evenodd" clip-path="url(#clipPath2)"/>
      <text x="546.2154" font-size="30px" y="353.1357" clip-path="url(#clipPath2)" font-family="sans-serif" stroke="none" xml:space="preserve">Endpoint</text>
    </g>
    <g fill="rgb(237,130,37)" text-rendering="geometricPrecision" shape-rendering="geometricPrecision" transform="matrix(1,0,0,1,-501,-91)" stroke="rgb(237,130,37)">
      <path d="M1161.6973 363.8463 L1334.4973 363.8463 L1353.6973 385.8463 L1334.4973 407.8463 L1161.6973 407.8463 L1180.8973 385.8463 Z" fill-rule="evenodd" clip-path="url(#clipPath2)" stroke="none"/>
    </g>
    <g text-rendering="geometricPrecision" stroke-miterlimit="1.45" shape-rendering="geometricPrecision" transform="matrix(1,0,0,1,-501,-91)" stroke-linecap="butt">
      <path fill="none" d="M1161.6973 363.8463 L1334.4973 363.8463 L1353.6973 385.8463 L1334.4973 407.8463 L1161.6973 407.8463 L1180.8973 385.8463 Z" fill-rule="evenodd" clip-path="url(#clipPath2)"/>
      <text x="1190.937" font-size="30px" y="396.232" clip-path="url(#clipPath2)" font-family="sans-serif" stroke="none" xml:space="preserve">Endpoint</text>
    </g>
    <g fill="rgb(237,90,0)" text-rendering="geometricPrecision" shape-rendering="geometricPrecision" transform="matrix(1,0,0,1,-501,-91)" stroke="rgb(237,90,0)">
      <rect x="831.9688" y="313.5" clip-path="url(#clipPath2)" width="192" rx="4" ry="4" height="58.5" stroke="none"/>
    </g>
    <g text-rendering="geometricPrecision" stroke-miterlimit="1.45" shape-rendering="geometricPrecision" transform="matrix(1,0,0,1,-501,-91)" stroke-linecap="butt">
      <rect x="831.9688" y="313.5" clip-path="url(#clipPath2)" fill="none" width="192" rx="4" ry="4" height="58.5"/>
      <text x="870.6934" font-size="30px" y="353.1357" clip-path="url(#clipPath2)" font-family="sans-serif" stroke="none" font-weight="bold" xml:space="preserve">Router</text>
    </g>
    <g fill="rgb(204,153,255)" text-rendering="geometricPrecision" shape-rendering="geometricPrecision" transform="matrix(1,0,0,1,-501,-91)" stroke="rgb(204,153,255)">
      <path d="M733.4866 298.9037 L816.7042 298.9037 L807.4578 328.9037 L724.2402 328.9037 Z" fill-rule="evenodd" clip-path="url(#clipPath2)" stroke="none"/>
    </g>
    <g text-rendering="geometricPrecision" stroke-miterlimit="1.45" shape-rendering="geometricPrecision" transform="matrix(1,0,0,1,-501,-91)" stroke-linecap="butt">
      <path fill="none" d="M733.4866 298.9037 L816.7042 298.9037 L807.4578 328.9037 L724.2402 328.9037 Z" fill-rule="evenodd" clip-path="url(#clipPath2)"/>
      <text x="731.2418" font-size="16px" y="319.4428" clip-path="url(#clipPath2)" font-family="sans-serif" stroke="none" xml:space="preserve">Exchange</text>
    </g>
    <g fill="rgb(204,153,255)" text-rendering="geometricPrecision" shape-rendering="geometricPrecision" transform="matrix(1,0,0,1,-501,-91)" stroke="rgb(204,153,255)">
      <path d="M1063.2152 402 L1146.4327 402 L1137.1864 432 L1053.9688 432 Z" fill-rule="evenodd" clip-path="url(#clipPath2)" stroke="none"/>
    </g>
    <g text-rendering="geometricPrecision" stroke-miterlimit="1.45" shape-rendering="geometricPrecision" transform="matrix(1,0,0,1,-501,-91)" stroke-linecap="butt">
      <path fill="none" d="M1063.2152 402 L1146.4327 402 L1137.1864 432 L1053.9688 432 Z" fill-rule="evenodd" clip-path="url(#clipPath2)"/>
      <text x="1060.9703" font-size="16px" y="422.5391" clip-path="url(#clipPath2)" font-family="sans-serif" stroke="none" xml:space="preserve">Exchange</text>
    </g>
    <g fill="rgb(51,102,255)" text-rendering="geometricPrecision" shape-rendering="geometricPrecision" transform="matrix(1,0,0,1,-501,-91)" stroke="rgb(51,102,255)">
      <path d="M516.9756 492.8867 L573.2112 466.8263 L652.7402 466.8263 L708.9756 492.8867 L708.9756 529.7416 L652.7402 555.802 L573.2112 555.802 L516.9756 529.7416 Z" fill-rule="evenodd" clip-path="url(#clipPath2)" stroke="none"/>
    </g>
    <g stroke-linecap="butt" transform="matrix(1,0,0,1,-501,-91)" fill="navy" text-rendering="geometricPrecision" shape-rendering="geometricPrecision" stroke="navy" stroke-miterlimit="1.45">
      <path fill="none" d="M516.9756 492.8867 L573.2112 466.8263 L652.7402 466.8263 L708.9756 492.8867 L708.9756 529.7416 L652.7402 555.802 L573.2112 555.802 L516.9756 529.7416 Z" fill-rule="evenodd" clip-path="url(#clipPath2)"/>
    </g>
    <g font-size="22px" stroke-linecap="butt" transform="matrix(1,0,0,1,-501,-91)" text-rendering="geometricPrecision" font-family="sans-serif" shape-rendering="geometricPrecision" stroke-miterlimit="1.45">
      <text x="522.6285" xml:space="preserve" y="518.9304" clip-path="url(#clipPath2)" stroke="none">External System</text>
    </g>
    <g fill="rgb(51,102,255)" text-rendering="geometricPrecision" shape-rendering="geometricPrecision" transform="matrix(1,0,0,1,-501,-91)" stroke="rgb(51,102,255)">
      <path d="M1161.6973 535.983 L1217.9327 509.9226 L1297.4618 509.9226 L1353.6973 535.983 L1353.6973 572.8379 L1297.4618 598.8983 L1217.9327 598.8983 L1161.6973 572.8379 Z" fill-rule="evenodd" clip-path="url(#clipPath2)" stroke="none"/>
    </g>
    <g stroke-linecap="butt" transform="matrix(1,0,0,1,-501,-91)" fill="navy" text-rendering="geometricPrecision" shape-rendering="geometricPrecision" stroke="navy" stroke-miterlimit="1.45">
      <path fill="none" d="M1161.6973 535.983 L1217.9327 509.9226 L1297.4618 509.9226 L1353.6973 535.983 L1353.6973 572.8379 L1297.4618 598.8983 L1217.9327 598.8983 L1161.6973 572.8379 Z" fill-rule="evenodd" clip-path="url(#clipPath2)"/>
    </g>
    <g font-size="22px" stroke-linecap="butt" transform="matrix(1,0,0,1,-501,-91)" text-rendering="geometricPrecision" font-family="sans-serif" shape-rendering="geometricPrecision" stroke-miterlimit="1.45">
      <text x="1167.3501" xml:space="preserve" y="562.0267" clip-path="url(#clipPath2)" stroke="none">External System</text>
    </g>
    <g fill="rgb(237,130,37)" text-rendering="geometricPrecision" shape-rendering="geometricPrecision" transform="matrix(1,0,0,1,-501,-91)" stroke="rgb(237,130,37)">
      <path d="M1161.6973 284.75 L1334.4973 284.75 L1353.6973 306.75 L1334.4973 328.75 L1161.6973 328.75 L1180.8973 306.75 Z" fill-rule="evenodd" clip-path="url(#clipPath2)" stroke="none"/>
    </g>
    <g text-rendering="geometricPrecision" stroke-miterlimit="1.45" shape-rendering="geometricPrecision" transform="matrix(1,0,0,1,-501,-91)" stroke-linecap="butt">
      <path fill="none" d="M1161.6973 284.75 L1334.4973 284.75 L1353.6973 306.75 L1334.4973 328.75 L1161.6973 328.75 L1180.8973 306.75 Z" fill-rule="evenodd" clip-path="url(#clipPath2)"/>
      <text x="1190.937" font-size="30px" y="317.1357" clip-path="url(#clipPath2)" font-family="sans-serif" stroke="none" xml:space="preserve">Endpoint</text>
    </g>
    <g fill="rgb(204,153,255)" text-rendering="geometricPrecision" shape-rendering="geometricPrecision" transform="matrix(1,0,0,1,-501,-91)" stroke="rgb(204,153,255)">
      <path d="M1063.2152 262.9037 L1146.4327 262.9037 L1137.1864 292.9037 L1053.9688 292.9037 Z" fill-rule="evenodd" clip-path="url(#clipPath2)" stroke="none"/>
    </g>
    <g text-rendering="geometricPrecision" stroke-miterlimit="1.45" shape-rendering="geometricPrecision" transform="matrix(1,0,0,1,-501,-91)" stroke-linecap="butt">
      <path fill="none" d="M1063.2152 262.9037 L1146.4327 262.9037 L1137.1864 292.9037 L1053.9688 292.9037 Z" fill-rule="evenodd" clip-path="url(#clipPath2)"/>
      <text x="1060.9703" font-size="16px" y="283.4428" clip-path="url(#clipPath2)" font-family="sans-serif" stroke="none" xml:space="preserve">Exchange</text>
    </g>
    <g fill="rgb(51,102,255)" text-rendering="geometricPrecision" shape-rendering="geometricPrecision" transform="matrix(1,0,0,1,-501,-91)" stroke="rgb(51,102,255)">
      <path d="M1161.6973 132.8867 L1217.9327 106.8263 L1297.4618 106.8263 L1353.6973 132.8867 L1353.6973 169.7416 L1297.4618 195.802 L1217.9327 195.802 L1161.6973 169.7416 Z" fill-rule="evenodd" clip-path="url(#clipPath2)" stroke="none"/>
    </g>
    <g stroke-linecap="butt" transform="matrix(1,0,0,1,-501,-91)" fill="navy" text-rendering="geometricPrecision" shape-rendering="geometricPrecision" stroke="navy" stroke-miterlimit="1.45">
      <path fill="none" d="M1161.6973 132.8867 L1217.9327 106.8263 L1297.4618 106.8263 L1353.6973 132.8867 L1353.6973 169.7416 L1297.4618 195.802 L1217.9327 195.802 L1161.6973 169.7416 Z" fill-rule="evenodd" clip-path="url(#clipPath2)"/>
    </g>
    <g font-size="22px" stroke-linecap="butt" transform="matrix(1,0,0,1,-501,-91)" text-rendering="geometricPrecision" font-family="sans-serif" shape-rendering="geometricPrecision" stroke-miterlimit="1.45">
      <text x="1167.3501" xml:space="preserve" y="158.9304" clip-path="url(#clipPath2)" stroke="none">External System</text>
    </g>
    <g stroke-linecap="butt" transform="matrix(1,0,0,1,-501,-91)" fill="rgb(204,153,255)" text-rendering="geometricPrecision" shape-rendering="geometricPrecision" stroke="rgb(204,153,255)" stroke-width="7" stroke-miterlimit="1.45">
      <path d="M803.9539 332.25 L803.9539 339.25 L708.9906 339.25 L708.9906 346.25 L803.9539 346.25 L803.9539 353.25 L831.9539 342.75 L803.9539 332.25 Z" stroke="none" clip-path="url(#clipPath2)"/>
      <path fill="none" d="M803.9539 332.25 L803.9539 339.25 L708.9906 339.25 L708.9906 346.25 L803.9539 346.25 L803.9539 353.25 L831.9539 342.75 L803.9539 332.25 Z" stroke-width="1" clip-path="url(#clipPath2)" stroke="purple"/>
    </g>
    <g stroke-linecap="butt" transform="matrix(1,0,0,1,-501,-91)" fill="rgb(204,153,255)" text-rendering="geometricPrecision" shape-rendering="geometricPrecision" stroke="rgb(204,153,255)" stroke-width="7" stroke-miterlimit="1.45">
      <path d="M1024.5537 355.6555 L1023.3781 362.556 L1159.5867 385.7629 L1159.5867 385.7629 L1158.411 392.6635 L1180.8762 385.8398 L1161.9381 371.9618 L1160.7625 378.8624 L1024.5537 355.6555 Z" stroke="none" clip-path="url(#clipPath2)"/>
      <path fill="none" d="M1024.5537 355.6555 L1023.3781 362.556 L1159.5867 385.7629 L1159.5867 385.7629 L1158.411 392.6635 L1180.8762 385.8398 L1161.9381 371.9618 L1160.7625 378.8624 L1024.5537 355.6555 Z" stroke-width="1" clip-path="url(#clipPath2)" stroke="purple"/>
    </g>
    <g stroke-linecap="butt" transform="matrix(1,0,0,1,-501,-91)" fill="rgb(204,153,255)" text-rendering="geometricPrecision" shape-rendering="geometricPrecision" stroke="rgb(204,153,255)" stroke-width="5" stroke-miterlimit="1.45">
      <path d="M612.9756 364.7671 L605.4756 382.7671 L610.4756 379.7671 L610.4756 451.842 L605.4756 448.842 L612.9756 466.842 L620.4756 448.842 L615.4756 451.842 L615.4756 379.7671 L620.4756 382.7671 L612.9756 364.7671 Z" stroke="none" clip-path="url(#clipPath2)"/>
    </g>
    <g stroke-linecap="round" transform="matrix(1,0,0,1,-501,-91)" fill="purple" text-rendering="geometricPrecision" shape-rendering="geometricPrecision" stroke-dasharray="4,3,0,3" stroke="purple" stroke-miterlimit="1.45">
      <path fill="none" d="M612.9756 364.7671 L605.4756 382.7671 L610.4756 379.7671 L610.4756 451.842 L605.4756 448.842 L612.9756 466.842 L620.4756 448.842 L615.4756 451.842 L615.4756 379.7671 L620.4756 382.7671 L612.9756 364.7671 Z" clip-path="url(#clipPath2)"/>
    </g>
    <g stroke-linecap="butt" transform="matrix(1,0,0,1,-501,-91)" fill="rgb(204,153,255)" text-rendering="geometricPrecision" shape-rendering="geometricPrecision" stroke="rgb(204,153,255)" stroke-width="5" stroke-miterlimit="1.45">
      <path d="M1257.6973 407.8633 L1250.1973 425.8633 L1255.1973 422.8633 L1255.1973 494.9383 L1250.1973 491.9383 L1257.6973 509.9383 L1265.1973 491.9383 L1260.1973 494.9383 L1260.1973 422.8633 L1265.1973 425.8633 L1257.6973 407.8633 Z" stroke="none" clip-path="url(#clipPath2)"/>
    </g>
    <g stroke-linecap="round" transform="matrix(1,0,0,1,-501,-91)" fill="purple" text-rendering="geometricPrecision" shape-rendering="geometricPrecision" stroke-dasharray="4,3,0,3" stroke="purple" stroke-miterlimit="1.45">
      <path fill="none" d="M1257.6973 407.8633 L1250.1973 425.8633 L1255.1973 422.8633 L1255.1973 494.9383 L1250.1973 491.9383 L1257.6973 509.9383 L1265.1973 491.9383 L1260.1973 494.9383 L1260.1973 422.8633 L1265.1973 425.8633 L1257.6973 407.8633 Z" clip-path="url(#clipPath2)"/>
    </g>
    <g stroke-linecap="butt" transform="matrix(1,0,0,1,-501,-91)" fill="rgb(204,153,255)" text-rendering="geometricPrecision" shape-rendering="geometricPrecision" stroke="rgb(204,153,255)" stroke-width="7" stroke-miterlimit="1.45">
      <path d="M1158.5953 299.3521 L1159.5918 306.2808 L1159.5918 306.2808 L1023.4448 325.8629 L1024.4401 332.7918 L1160.5884 313.2095 L1160.5884 313.2095 L1161.585 320.1382 L1180.8762 306.7555 L1158.5953 299.3521 Z" stroke="none" clip-path="url(#clipPath2)"/>
      <path fill="none" d="M1158.5953 299.3521 L1159.5918 306.2808 L1159.5918 306.2808 L1023.4448 325.8629 L1024.4401 332.7918 L1160.5884 313.2095 L1160.5884 313.2095 L1161.585 320.1382 L1180.8762 306.7555 L1158.5953 299.3521 Z" stroke-width="1" clip-path="url(#clipPath2)" stroke="purple"/>
    </g>
    <g stroke-linecap="butt" transform="matrix(1,0,0,1,-501,-91)" fill="rgb(204,153,255)" text-rendering="geometricPrecision" shape-rendering="geometricPrecision" stroke="rgb(204,153,255)" stroke-width="5" stroke-miterlimit="1.45">
      <path d="M1257.6973 195.7912 L1250.1973 213.7912 L1255.1973 210.7912 L1255.1973 269.778 L1250.1973 266.778 L1257.6973 284.778 L1265.1973 266.778 L1260.1973 269.778 L1260.1973 210.7912 L1265.1973 213.7912 L1257.6973 195.7912 Z" stroke="none" clip-path="url(#clipPath2)"/>
    </g>
    <g stroke-linecap="round" transform="matrix(1,0,0,1,-501,-91)" fill="purple" text-rendering="geometricPrecision" shape-rendering="geometricPrecision" stroke-dasharray="4,3,0,3" stroke="purple" stroke-miterlimit="1.45">
      <path fill="none" d="M1257.6973 195.7912 L1250.1973 213.7912 L1255.1973 210.7912 L1255.1973 269.778 L1250.1973 266.778 L1257.6973 284.778 L1265.1973 266.778 L1260.1973 269.778 L1260.1973 210.7912 L1265.1973 213.7912 L1257.6973 195.7912 Z" clip-path="url(#clipPath2)"/>
    </g>
  </g>
</svg>
