<?xml version="1.0" encoding="UTF-8" standalone="no"?>
<!-- Created with Inkscape (http://www.inkscape.org/) -->
<svg xmlns:dc="http://purl.org/dc/elements/1.1/" xmlns:cc="http://creativecommons.org/ns#" xmlns:rdf="http://www.w3.org/1999/02/22-rdf-syntax-ns#" xmlns:svg="http://www.w3.org/2000/svg" xmlns="http://www.w3.org/2000/svg" xmlns:sodipodi="http://sodipodi.sourceforge.net/DTD/sodipodi-0.dtd" xmlns:inkscape="http://www.inkscape.org/namespaces/inkscape" version="1.2" width="106.66666" height="64" id="svg4787" sodipodi:docname="Hot_logo.svg" inkscape:version="0.92.1 r15371">
  <metadata id="metadata4793">
    <rdf:RDF>
      <cc:Work rdf:about="">
        <dc:format>image/svg+xml</dc:format>
        <dc:type rdf:resource="http://purl.org/dc/dcmitype/StillImage"/>
      </cc:Work>
    </rdf:RDF>
  </metadata>
  <defs id="defs4791"/>
  <sodipodi:namedview pagecolor="#ffffff" bordercolor="#666666" borderopacity="1" objecttolerance="10" gridtolerance="10" guidetolerance="10" inkscape:pageopacity="0" inkscape:pageshadow="2" inkscape:window-width="1280" inkscape:window-height="960" id="namedview4789" showgrid="false" inkscape:zoom="6.9532166" inkscape:cx="48.939407" inkscape:cy="23.458332" inkscape:window-x="0" inkscape:window-y="27" inkscape:window-maximized="1" inkscape:current-layer="layer1"/>
  <g inkscape:groupmode="layer" id="layer1" inkscape:label="Layer 1">
    <g id="g4842">
      <path id="path4774" style="color:#000000;fill:#d73f3f;" d="m 18.06545,2.55495 10.41916,11.81747 h -0.0804 -17.45912 l 10.41916,11.85511 0.0804,0.0753 H 21.36425 3.90512 L 14.3645,38.15793 24.78366,50.01303 35.20282,61.8305 H 52.66193 70.12106 87.53995 L 77.1208,50.01303 77.0404,49.90018 h 0.0804 17.45912 L 84.20096,38.08272 h 0.0401 17.45912 L 91.24081,26.22761 80.82173,14.37245 70.40257,2.55498 H 52.94346 35.48433 18.06543 Z"/>
      <g id="g4833">
        <ellipse ry="19.728268" rx="21.087585" cy="32.192707" cx="52.802616" style="color:#000000;fill:#ffffff;" id="ellipse4776"/>
        <g id="g4784">
          <path style="color:#000000;fill:#d73f3f;stroke:none;stroke-width:3.86207938;" d="m 41.022811,33.18169 v 6.613876 H 38.546056 V 24.790642 h 2.476755 v 6.253916 h 3.534788 v -6.253916 h 2.476756 V 39.795566 H 44.557599 V 33.18169 h -3.534788" id="path4778"/>
          <path style="color:#000000;fill:#d73f3f;stroke:none;stroke-width:3.86207938;" d="m 51.750415,34.98139 c -9e-6,0.299951 -9e-6,0.55491 0,0.764867 0.0161,0.194977 0.03201,0.374948 0.0481,0.539904 0.03201,0.149984 0.06411,0.284953 0.09623,0.404934 0.0481,0.104983 0.104196,0.217469 0.16832,0.33745 0.144278,0.254958 0.352671,0.457421 0.625197,0.607397 0.288556,0.134969 0.609175,0.202463 0.961856,0.202454 0.352661,9e-6 0.665269,-0.0675 0.937795,-0.202454 0.288547,-0.149976 0.50497,-0.352439 0.649248,-0.607397 0.0641,-0.119981 0.112217,-0.232467 0.144278,-0.33745 0.0481,-0.119981 0.0802,-0.25495 0.09622,-0.404934 0.032,-0.149959 0.0481,-0.329929 0.0481,-0.539904 0.0161,-0.209957 0.02405,-0.464916 0.02405,-0.764867 v -5.376581 c -1e-5,-0.299934 -0.0084,-0.554893 -0.02405,-0.764867 -1e-5,-0.209958 -0.0161,-0.38992 -0.0481,-0.539904 -0.0161,-0.149967 -0.0481,-0.277451 -0.09622,-0.382434 -0.03201,-0.11998 -0.0802,-0.239952 -0.144278,-0.35995 -0.144278,-0.254941 -0.360701,-0.449901 -0.649248,-0.584897 -0.272526,-0.149949 -0.585134,-0.224946 -0.937795,-0.224954 -0.352681,8e-6 -0.6733,0.07494 -0.961856,0.224954 -0.272526,0.134996 -0.480919,0.329956 -0.625197,0.584897 -0.128238,0.224972 -0.216413,0.472436 -0.264497,0.742384 -0.032,0.269956 -0.0481,0.704886 -0.0481,1.304771 v 5.376581 m 6.276059,0.045 c -1e-5,0.854862 -0.07215,1.552235 -0.216413,2.092139 -0.144297,0.539921 -0.376732,1.027329 -0.697351,1.462259 -0.737422,0.959836 -1.89164,1.439749 -3.462643,1.439749 -1.571022,0 -2.725231,-0.479913 -3.462654,-1.439749 -0.320609,-0.43493 -0.553062,-0.922338 -0.697331,-1.462259 -0.144288,-0.539904 -0.216422,-1.237277 -0.216422,-2.092139 v -5.466566 c 0,-0.854835 0.07215,-1.552227 0.216422,-2.092139 0.144269,-0.539895 0.376722,-1.027303 0.697331,-1.46225 0.737423,-0.959818 1.891632,-1.43974 3.462654,-1.439749 1.571003,9e-6 2.725221,0.479931 3.462643,1.439749 0.320619,0.434947 0.553054,0.922355 0.697351,1.46225 0.144259,0.539912 0.216403,1.237304 0.216413,2.092139 v 5.466566" id="path4780"/>
          <path style="color:#000000;fill:#d73f3f;stroke:none;stroke-width:3.86207938;" d="M 65.09341,39.795566 H 62.616654 V 26.927773 h -3.101952 v -2.137131 h 8.704711 v 2.137131 H 65.09341 v 12.867793" id="path4782"/>
        </g>
      </g>
    </g>
  </g>
</svg>