<?xml version="1.0" encoding="UTF-8"?>
<!DOCTYPE svg PUBLIC "-//W3C//DTD SVG 1.1//EN" "http://www.w3.org/Graphics/SVG/1.1/DTD/svg11.dtd">
<svg width="217mm" height="122mm" viewBox="0 0 21700 12200" version="1.1" xmlns="http://www.w3.org/2000/svg" xmlns:xlink="http://www.w3.org/1999/xlink" stroke-width="28.222" stroke-linejoin="round" xml:space="preserve">
 <path fill="rgb(255,255,255)" stroke="none" d="M 10845,12191 L 0,12191 0,0 21689,0 21689,12191 10845,12191 Z"/>
 <path fill="none" stroke="rgb(179,179,179)" stroke-linejoin="round" d="M 11427,10320 L 2065,10320 2065,442 20790,442 20790,10320 11427,10320 Z"/>
 <path fill="none" stroke="rgb(179,179,179)" stroke-linejoin="round" d="M 2065,10469 L 2065,10319"/>
 <path fill="none" stroke="rgb(179,179,179)" stroke-linejoin="round" d="M 2065,10469 L 2065,10319"/>
 <path fill="none" stroke="rgb(179,179,179)" stroke-linejoin="round" d="M 5185,10469 L 5185,10319"/>
 <path fill="none" stroke="rgb(179,179,179)" stroke-linejoin="round" d="M 5185,10469 L 5185,10319"/>
 <path fill="none" stroke="rgb(179,179,179)" stroke-linejoin="round" d="M 8306,10469 L 8306,10319"/>
 <path fill="none" stroke="rgb(179,179,179)" stroke-linejoin="round" d="M 8306,10469 L 8306,10319"/>
 <path fill="none" stroke="rgb(179,179,179)" stroke-linejoin="round" d="M 11426,10469 L 11426,10319"/>
 <path fill="none" stroke="rgb(179,179,179)" stroke-linejoin="round" d="M 11426,10469 L 11426,10319"/>
 <path fill="none" stroke="rgb(179,179,179)" stroke-linejoin="round" d="M 14547,10469 L 14547,10319"/>
 <path fill="none" stroke="rgb(179,179,179)" stroke-linejoin="round" d="M 14547,10469 L 14547,10319"/>
 <path fill="none" stroke="rgb(179,179,179)" stroke-linejoin="round" d="M 17669,10469 L 17669,10319"/>
 <path fill="none" stroke="rgb(179,179,179)" stroke-linejoin="round" d="M 17669,10469 L 17669,10319"/>
 <path fill="none" stroke="rgb(179,179,179)" stroke-linejoin="round" d="M 20789,10469 L 20789,10319"/>
 <path fill="none" stroke="rgb(179,179,179)" stroke-linejoin="round" d="M 20789,10469 L 20789,10319"/>
 <path fill="none" stroke="rgb(179,179,179)" stroke-linejoin="round" d="M 2065,10319 L 20789,10319"/>
 <path fill="none" stroke="rgb(179,179,179)" stroke-linejoin="round" d="M 1915,10319 L 2065,10319"/>
 <path fill="none" stroke="rgb(179,179,179)" stroke-linejoin="round" d="M 1915,10319 L 2065,10319"/>
 <path fill="none" stroke="rgb(179,179,179)" stroke-linejoin="round" d="M 1915,8672 L 2065,8672"/>
 <path fill="none" stroke="rgb(179,179,179)" stroke-linejoin="round" d="M 1915,8672 L 2065,8672"/>
 <path fill="none" stroke="rgb(179,179,179)" stroke-linejoin="round" d="M 1915,7026 L 2065,7026"/>
 <path fill="none" stroke="rgb(179,179,179)" stroke-linejoin="round" d="M 1915,7026 L 2065,7026"/>
 <path fill="none" stroke="rgb(179,179,179)" stroke-linejoin="round" d="M 1915,5380 L 2065,5380"/>
 <path fill="none" stroke="rgb(179,179,179)" stroke-linejoin="round" d="M 1915,5380 L 2065,5380"/>
 <path fill="none" stroke="rgb(179,179,179)" stroke-linejoin="round" d="M 1915,3734 L 2065,3734"/>
 <path fill="none" stroke="rgb(179,179,179)" stroke-linejoin="round" d="M 1915,3734 L 2065,3734"/>
 <path fill="none" stroke="rgb(179,179,179)" stroke-linejoin="round" d="M 1915,2087 L 2065,2087"/>
 <path fill="none" stroke="rgb(179,179,179)" stroke-linejoin="round" d="M 1915,2087 L 2065,2087"/>
 <path fill="none" stroke="rgb(179,179,179)" stroke-linejoin="round" d="M 1915,441 L 2065,441"/>
 <path fill="none" stroke="rgb(179,179,179)" stroke-linejoin="round" d="M 1915,441 L 2065,441"/>
 <path fill="none" stroke="rgb(179,179,179)" stroke-linejoin="round" d="M 2065,10319 L 2065,441"/>
 <path fill="rgb(255,66,14)" stroke="none" d="M 5061,2087 L 5186,2212 5311,2087 5186,1962 5061,2087 Z"/>
 <path fill="none" stroke="rgb(255,66,14)" stroke-linejoin="round" d="M 5061,2087 L 5186,2212 5311,2087 5186,1962 5061,2087 Z"/>
 <path fill="rgb(255,66,14)" stroke="none" d="M 17544,9331 L 17669,9456 17794,9331 17669,9206 17544,9331 Z"/>
 <path fill="none" stroke="rgb(255,66,14)" stroke-linejoin="round" d="M 17544,9331 L 17669,9456 17794,9331 17669,9206 17544,9331 Z"/>
 <path fill="rgb(255,66,14)" stroke="none" d="M 5373,2169 L 5498,2294 5623,2169 5498,2044 5373,2169 Z"/>
 <path fill="none" stroke="rgb(255,66,14)" stroke-linejoin="round" d="M 5373,2169 L 5498,2294 5623,2169 5498,2044 5373,2169 Z"/>
 <path fill="rgb(255,66,14)" stroke="none" d="M 16763,9825 L 16888,9950 17013,9825 16888,9700 16763,9825 Z"/>
 <path fill="none" stroke="rgb(255,66,14)" stroke-linejoin="round" d="M 16763,9825 L 16888,9950 17013,9825 16888,9700 16763,9825 Z"/>
 <path fill="rgb(255,66,14)" stroke="none" d="M 15671,9166 L 15796,9291 15921,9166 15796,9041 15671,9166 Z"/>
 <path fill="none" stroke="rgb(255,66,14)" stroke-linejoin="round" d="M 15671,9166 L 15796,9291 15921,9166 15796,9041 15671,9166 Z"/>
 <path fill="rgb(255,66,14)" stroke="none" d="M 4280,2252 L 4405,2377 4530,2252 4405,2127 4280,2252 Z"/>
 <path fill="none" stroke="rgb(255,66,14)" stroke-linejoin="round" d="M 4280,2252 L 4405,2377 4530,2252 4405,2127 4280,2252 Z"/>
 <path fill="rgb(255,66,14)" stroke="none" d="M 12862,7026 L 12987,7151 13112,7026 12987,6901 12862,7026 Z"/>
 <path fill="none" stroke="rgb(255,66,14)" stroke-linejoin="round" d="M 12862,7026 L 12987,7151 13112,7026 12987,6901 12862,7026 Z"/>
 <path fill="rgb(255,66,14)" stroke="none" d="M 8182,4557 L 8307,4682 8432,4557 8307,4432 8182,4557 Z"/>
 <path fill="none" stroke="rgb(255,66,14)" stroke-linejoin="round" d="M 8182,4557 L 8307,4682 8432,4557 8307,4432 8182,4557 Z"/>
 <path fill="rgb(255,66,14)" stroke="none" d="M 14422,8672 L 14547,8797 14672,8672 14547,8547 14422,8672 Z"/>
 <path fill="none" stroke="rgb(255,66,14)" stroke-linejoin="round" d="M 14422,8672 L 14547,8797 14672,8672 14547,8547 14422,8672 Z"/>
 <path fill="rgb(255,66,14)" stroke="none" d="M 5061,5380 L 5186,5505 5311,5380 5186,5255 5061,5380 Z"/>
 <path fill="none" stroke="rgb(255,66,14)" stroke-linejoin="round" d="M 5061,5380 L 5186,5505 5311,5380 5186,5255 5061,5380 Z"/>
 <path fill="rgb(255,66,14)" stroke="none" d="M 5061,6202 L 5186,6327 5311,6202 5186,6078 5061,6202 Z"/>
 <path fill="none" stroke="rgb(255,66,14)" stroke-linejoin="round" d="M 5061,6202 L 5186,6327 5311,6202 5186,6078 5061,6202 Z"/>
 <path fill="rgb(255,66,14)" stroke="none" d="M 11301,7849 L 11426,7974 11551,7849 11426,7724 11301,7849 Z"/>
 <path fill="none" stroke="rgb(255,66,14)" stroke-linejoin="round" d="M 11301,7849 L 11426,7974 11551,7849 11426,7724 11301,7849 Z"/>
 <path fill="rgb(255,66,14)" stroke="none" d="M 3500,3734 L 3625,3859 3750,3734 3625,3609 3500,3734 Z"/>
 <path fill="none" stroke="rgb(255,66,14)" stroke-linejoin="round" d="M 3500,3734 L 3625,3859 3750,3734 3625,3609 3500,3734 Z"/>
 <path fill="rgb(255,66,14)" stroke="none" d="M 11301,2910 L 11426,3035 11551,2910 11426,2785 11301,2910 Z"/>
 <path fill="none" stroke="rgb(255,66,14)" stroke-linejoin="round" d="M 11301,2910 L 11426,3035 11551,2910 11426,2785 11301,2910 Z"/>
 <path fill="rgb(255,66,14)" stroke="none" d="M 15983,5380 L 16108,5505 16233,5380 16108,5255 15983,5380 Z"/>
 <path fill="none" stroke="rgb(255,66,14)" stroke-linejoin="round" d="M 15983,5380 L 16108,5505 16233,5380 16108,5255 15983,5380 Z"/>
 <path fill="rgb(255,66,14)" stroke="none" d="M 9742,7026 L 9867,7151 9992,7026 9867,6901 9742,7026 Z"/>
 <path fill="none" stroke="rgb(255,66,14)" stroke-linejoin="round" d="M 9742,7026 L 9867,7151 9992,7026 9867,6901 9742,7026 Z"/>
 <path fill="rgb(255,66,14)" stroke="none" d="M 8182,6202 L 8307,6327 8432,6202 8307,6078 8182,6202 Z"/>
 <path fill="none" stroke="rgb(255,66,14)" stroke-linejoin="round" d="M 8182,6202 L 8307,6327 8432,6202 8307,6078 8182,6202 Z"/>
 <path fill="rgb(255,66,14)" stroke="none" d="M 6621,7602 L 6746,7727 6871,7602 6746,7477 6621,7602 Z"/>
 <path fill="none" stroke="rgb(255,66,14)" stroke-linejoin="round" d="M 6621,7602 L 6746,7727 6871,7602 6746,7477 6621,7602 Z"/>
 <path fill="rgb(255,66,14)" stroke="none" d="M 13954,4639 L 14079,4764 14204,4639 14079,4514 13954,4639 Z"/>
 <path fill="none" stroke="rgb(255,66,14)" stroke-linejoin="round" d="M 13954,4639 L 14079,4764 14204,4639 14079,4514 13954,4639 Z"/>
 <path fill="rgb(255,66,14)" stroke="none" d="M 14422,3734 L 14547,3859 14672,3734 14547,3609 14422,3734 Z"/>
 <path fill="none" stroke="rgb(255,66,14)" stroke-linejoin="round" d="M 14422,3734 L 14547,3859 14672,3734 14547,3609 14422,3734 Z"/>
 <path fill="rgb(255,66,14)" stroke="none" d="M 17544,2087 L 17669,2212 17794,2087 17669,1962 17544,2087 Z"/>
 <path fill="none" stroke="rgb(255,66,14)" stroke-linejoin="round" d="M 17544,2087 L 17669,2212 17794,2087 17669,1962 17544,2087 Z"/>
 <path fill="rgb(255,66,14)" stroke="none" d="M 1940,10319 L 2065,10444 2190,10319 2065,10194 1940,10319 Z"/>
 <path fill="none" stroke="rgb(255,66,14)" stroke-linejoin="round" d="M 1940,10319 L 2065,10444 2190,10319 2065,10194 1940,10319 Z"/>
 <path fill="rgb(102,0,204)" stroke="none" d="M 9692,7026 L 9867,7201 10042,7026 9867,6851 9692,7026 Z"/>
 <path fill="none" stroke="rgb(102,0,204)" stroke-linejoin="round" d="M 9692,7026 L 9867,7201 10042,7026 9867,6851 9692,7026 Z"/>
 <path fill="rgb(102,0,204)" stroke="none" d="M 8132,6202 L 8307,6377 8482,6202 8307,6028 8132,6202 Z"/>
 <path fill="none" stroke="rgb(102,0,204)" stroke-linejoin="round" d="M 8132,6202 L 8307,6377 8482,6202 8307,6028 8132,6202 Z"/>
 <path fill="rgb(102,0,204)" stroke="none" d="M 6571,7602 L 6746,7777 6921,7602 6746,7427 6571,7602 Z"/>
 <path fill="none" stroke="rgb(102,0,204)" stroke-linejoin="round" d="M 6571,7602 L 6746,7777 6921,7602 6746,7427 6571,7602 Z"/>
 <path fill="rgb(102,0,204)" stroke="none" d="M 13904,4639 L 14079,4814 14254,4639 14079,4464 13904,4639 Z"/>
 <path fill="none" stroke="rgb(102,0,204)" stroke-linejoin="round" d="M 13904,4639 L 14079,4814 14254,4639 14079,4464 13904,4639 Z"/>
 <path fill="rgb(102,0,204)" stroke="none" d="M 14372,3734 L 14547,3909 14722,3734 14547,3559 14372,3734 Z"/>
 <path fill="none" stroke="rgb(102,0,204)" stroke-linejoin="round" d="M 14372,3734 L 14547,3909 14722,3734 14547,3559 14372,3734 Z"/>
 <path fill="rgb(102,0,204)" stroke="none" d="M 17494,2087 L 17669,2262 17844,2087 17669,1912 17494,2087 Z"/>
 <path fill="none" stroke="rgb(102,0,204)" stroke-linejoin="round" d="M 17494,2087 L 17669,2262 17844,2087 17669,1912 17494,2087 Z"/>
 <path fill="rgb(255,255,255)" stroke="none" d="M 1940,10319 L 2065,10444 2190,10319 2065,10194 1940,10319 Z"/>
 <path fill="none" stroke="rgb(255,255,255)" stroke-linejoin="round" d="M 1940,10319 L 2065,10444 2190,10319 2065,10194 1940,10319 Z"/>
 <defs>
  <mask id="mask1">
   <g>
    <defs>
     <linearGradient id="gradient1" x1="9867" y1="1839" x2="9867" y2="10652" gradientUnits="userSpaceOnUse">
      <stop offset="0.5" style="stop-color:rgb(179,179,179)"/>
      <stop offset="0.5" style="stop-color:rgb(179,179,179)"/>
      <stop offset="1" style="stop-color:rgb(179,179,179)"/>
      <stop offset="1" style="stop-color:rgb(179,179,179)"/>
     </linearGradient>
    </defs>
    <path style="fill:url(#gradient1)" d="M 1565,1839 L 18169,1839 18169,10652 1565,10652 1565,1839 Z"/>
   </g>
  </mask>
 </defs>
 <g style="mask:url(#mask1)">
  <path fill="none" stroke="rgb(102,0,204)" stroke-width="1000" stroke-linejoin="round" d="M 2065,10152 L 17669,2339"/>
 </g>
 <text class="TextShape"><tspan class="TextParagraph" font-family="Liberation Sans, sans-serif" font-size="353px" font-weight="400"><tspan class="TextPosition" x="1972" y="10887"><tspan fill="rgb(0,0,0)" stroke="none">0</tspan></tspan></tspan></text>
 <text class="TextShape"><tspan class="TextParagraph" font-family="Liberation Sans, sans-serif" font-size="353px" font-weight="400"><tspan class="TextPosition" x="5000" y="10887"><tspan fill="rgb(0,0,0)" stroke="none">20</tspan></tspan></tspan></text>
 <text class="TextShape"><tspan class="TextParagraph" font-family="Liberation Sans, sans-serif" font-size="353px" font-weight="400"><tspan class="TextPosition" x="8121" y="10887"><tspan fill="rgb(0,0,0)" stroke="none">40</tspan></tspan></tspan></text>
 <text class="TextShape"><tspan class="TextParagraph" font-family="Liberation Sans, sans-serif" font-size="353px" font-weight="400"><tspan class="TextPosition" x="11242" y="10887"><tspan fill="rgb(0,0,0)" stroke="none">60</tspan></tspan></tspan></text>
 <text class="TextShape"><tspan class="TextParagraph" font-family="Liberation Sans, sans-serif" font-size="353px" font-weight="400"><tspan class="TextPosition" x="14363" y="10887"><tspan fill="rgb(0,0,0)" stroke="none">80</tspan></tspan></tspan></text>
 <text class="TextShape"><tspan class="TextParagraph" font-family="Liberation Sans, sans-serif" font-size="353px" font-weight="400"><tspan class="TextPosition" x="17392" y="10887"><tspan fill="rgb(0,0,0)" stroke="none">100</tspan></tspan></tspan></text>
 <text class="TextShape"><tspan class="TextParagraph" font-family="Liberation Sans, sans-serif" font-size="353px" font-weight="400"><tspan class="TextPosition" x="20512" y="10887"><tspan fill="rgb(0,0,0)" stroke="none">120</tspan></tspan></tspan></text>
 <text class="TextShape"><tspan class="TextParagraph" font-family="Liberation Sans, sans-serif" font-size="353px" font-weight="400"><tspan class="TextPosition" x="1630" y="10440"><tspan fill="rgb(0,0,0)" stroke="none">0</tspan></tspan></tspan></text>
 <text class="TextShape"><tspan class="TextParagraph" font-family="Liberation Sans, sans-serif" font-size="353px" font-weight="400"><tspan class="TextPosition" x="1445" y="8793"><tspan fill="rgb(0,0,0)" stroke="none">20</tspan></tspan></tspan></text>
 <text class="TextShape"><tspan class="TextParagraph" font-family="Liberation Sans, sans-serif" font-size="353px" font-weight="400"><tspan class="TextPosition" x="1445" y="7147"><tspan fill="rgb(0,0,0)" stroke="none">40</tspan></tspan></tspan></text>
 <text class="TextShape"><tspan class="TextParagraph" font-family="Liberation Sans, sans-serif" font-size="353px" font-weight="400"><tspan class="TextPosition" x="1445" y="5500"><tspan fill="rgb(0,0,0)" stroke="none">60</tspan></tspan></tspan></text>
 <text class="TextShape"><tspan class="TextParagraph" font-family="Liberation Sans, sans-serif" font-size="353px" font-weight="400"><tspan class="TextPosition" x="1445" y="3854"><tspan fill="rgb(0,0,0)" stroke="none">80</tspan></tspan></tspan></text>
 <text class="TextShape"><tspan class="TextParagraph" font-family="Liberation Sans, sans-serif" font-size="353px" font-weight="400"><tspan class="TextPosition" x="1259" y="2207"><tspan fill="rgb(0,0,0)" stroke="none">100</tspan></tspan></tspan></text>
 <text class="TextShape"><tspan class="TextParagraph" font-family="Liberation Sans, sans-serif" font-size="353px" font-weight="400"><tspan class="TextPosition" x="1259" y="561"><tspan fill="rgb(0,0,0)" stroke="none">120</tspan></tspan></tspan></text>
 <text class="TextShape"><tspan class="TextParagraph" font-family="Liberation Sans, sans-serif" font-size="353px" font-weight="400"><tspan class="TextPosition" x="3453" y="1783"><tspan fill="rgb(0,0,0)" stroke="none">Efecto Dunning-Kruger</tspan></tspan></tspan></text>
 <text class="TextShape"><tspan class="TextParagraph" font-family="Liberation Sans, sans-serif" font-size="353px" font-weight="400"><tspan class="TextPosition" x="15685" y="9027"><tspan fill="rgb(0,0,0)" stroke="none">Síndrome de la Impostora</tspan></tspan></tspan></text>
 <text class="TextShape"><tspan class="TextParagraph" font-family="Liberation Sans, sans-serif" font-size="353px" font-weight="400"><tspan class="TextPosition" x="9496" y="6722"><tspan fill="rgb(0,0,0)" stroke="none">Ideal</tspan></tspan></tspan></text>
 <text class="TextShape"><tspan class="TextParagraph" font-family="Liberation Sans, sans-serif" font-size="318px" font-weight="400"><tspan class="TextPosition" x="9577" y="11597"><tspan fill="rgb(0,0,0)" stroke="none">Cuánto sabes de verdad</tspan></tspan></tspan></text>
 <text class="TextShape" transform="rotate(-90 837 7364)"><tspan class="TextParagraph" font-family="Liberation Sans, sans-serif" font-size="318px" font-weight="400"><tspan class="TextPosition" x="837" y="7364"><tspan fill="rgb(0,0,0)" stroke="none">Cuánto crees que sabes</tspan></tspan></tspan></text>
</svg>