<svg data-v-c30b0e7e="" class="sketchy-canvas visible" xmlns="http://www.w3.org/2000/svg" xmlns:xlink="http://www.w3.org/1999/xlink" width="1006" height="935" stroke-linecap="round"><defs><clipPath id="ygc106_0_0"><rect x="25" y="25" width="955.5" height="885" transform="matrix(1, 0, 0, 1, 0, 0)"/></clipPath></defs><g clip-path="url(#ygc106_0_0)"><path d="M630.98 28.078 L974.091 29.621 L974.069 903.453 L628.026 906.828" stroke="none" stroke-width="0" fill="rgb(236, 236, 193)"/><path d="M630.221 30.062 C760.48 31.27, 888.484 31.758, 976.003 29.782 M629.905 30.628 C730.728 30.78, 831.934 31.128, 975.577 30.571 M974.778 30.323 C972.595 245.77, 972.245 460.425, 975.993 905.59 M975.247 29.964 C976.472 318.735, 976.538 607.275, 975.207 905.076 M974.387 905.413 C865.291 901.958, 752.554 903.846, 628.373 904.12 M975.402 904.872 C839.094 906.661, 703.651 906.054, 629.468 905.501 M630.167 904.998 C632.978 665.473, 633.284 426.667, 630.013 30.138 M629.861 905.135 C631.62 608.812, 631.282 312.456, 629.391 29.985" stroke="rgb(102, 56, 0)" stroke-width="1" fill="none"/></g><g clip-path="url(#ygc106_0_0)"><g class="text-container" transform="matrix(1, 0, 0, 1, 802.5, 30)"><text font-family="'Arial'" font-size="26px" font-style="normal" font-weight="bold" text-decoration="none" text-anchor="middle" fill="rgb(0, 0, 0)" fill-opacity="1" dy="0.9230769230769231em" transform="" data-sketchy-clip-path="ygc106_0_0" style="font-style: normal;font-weight: 700;font-size: 26px;font-family: Comic Sans MS, cursive;" stroke="none" stroke-width="1px" dominant-baseline="auto">Beneficio</text></g></g><g clip-path="url(#ygc106_0_0)"><path d="M28.662 28.046 L611.37 30.494 L611.156 906.127 L29.416 904.185" stroke="none" stroke-width="0" fill="rgb(236, 236, 193)"/><path d="M29.718 30.568 C172.298 31.206, 315.785 30.41, 612.378 29.657 M29.949 30.105 C160.354 29.686, 291.088 29.947, 613.161 29.745 M612.876 29.633 C609.78 211.07, 610.072 390.79, 612.455 904.888 M613.092 29.733 C613.572 372.657, 613.242 715.617, 613.237 905.103 M612.983 905.31 C447.005 905.453, 283.173 905.755, 29.52 905.782 M612.963 905.17 C479.777 906.2, 346.151 905.826, 29.698 904.994 M30.729 905.605 C31.861 579.803, 31.959 255.594, 30.291 30.528 M29.902 905.136 C33.239 589.317, 33.103 273.668, 30.228 29.679" stroke="rgb(102, 56, 0)" stroke-width="1" fill="none"/></g><g clip-path="url(#ygc106_0_0)"><g class="text-container" transform="matrix(1, 0, 0, 1, 321.5, 30)"><text font-family="'Arial'" font-size="26px" font-style="normal" font-weight="bold" text-decoration="none" text-anchor="middle" fill="rgb(0, 0, 0)" fill-opacity="1" dy="0.9230769230769231em" transform="" data-sketchy-clip-path="ygc106_0_0" style="font-style: normal;font-weight: 700;font-size: 26px;font-family: Comic Sans MS, cursive;" stroke="none" stroke-width="1px" dominant-baseline="auto">Coste</text></g></g><g clip-path="url(#ygc106_0_0)"><path d="M127.55 115.852 L129.773 106.725 L135.601 106.157 L300.262 106.522 L305.544 112.482 L309.678 113.583 L306.733 192.74 L302.178 201.157 L298.82 199.328 L133.474 200.851 L126.08 193.195 L128.653 189.587 L126.202 116.34" stroke="none" stroke-width="0" fill="rgb(255, 0, 160)"/><path d="M127 114.75 M127 114.75 C127.782 107.518, 131.282 104.716, 137 104.75 M127 114.75 C125.027 108.102, 130.096 104.75, 137 104.75 M137 104.75 C175.829 105.44, 211.741 103.842, 298 104.75 M137 104.75 C196.306 104.546, 254.146 103.023, 298 104.75 M298 104.75 C302.672 106.103, 307.691 111.035, 308 114.75 M298 104.75 C303.692 104.736, 309.229 110.624, 308 114.75 M308 114.75 C308.822 137.081, 307.993 160.479, 308 190.75 M308 114.75 C308.862 141.457, 308.617 167.952, 308 190.75 M308 190.75 C306.109 196.599, 304.173 202.242, 298 200.75 M308 190.75 C306.328 194.053, 302.963 202.589, 298 200.75 M298 200.75 C236.595 199.72, 176.139 200.691, 137 200.75 M298 200.75 C239.22 200.306, 179.629 201.234, 137 200.75 M137 200.75 C129.9 202.274, 127.481 195.417, 127 190.75 M137 200.75 C131.254 200.419, 126.661 196.214, 127 190.75 M127 190.75 C127.934 167.987, 129.318 145.997, 127 114.75 M127 190.75 C126.936 164.898, 126.503 138.898, 127 114.75" stroke="rgb(102, 56, 0)" stroke-width="1" fill="none"/></g><g clip-path="url(#ygc106_0_0)"><g class="text-container" transform="matrix(1, 0, 0, 1, 217.5, 145.75)"><text font-family="'Arial'" font-size="12px" font-style="normal" font-weight="normal" text-decoration="none" text-anchor="middle" fill="rgb(0, 0, 0)" fill-opacity="1" dy="0.9166666666666666em" transform="" data-sketchy-clip-path="ygc106_0_0" style="font-style: normal;font-weight: 400;font-size: 12px;font-family: Comic Sans MS, cursive;" stroke="none" stroke-width="1px" dominant-baseline="auto">Desarrollo Software</text></g></g><g clip-path="url(#ygc106_0_0)"><path d="M653.01 113.312 L654.037 107.493 L660.842 105.457 L825.695 103.872 L830.642 110.173 L834.079 113.905 L832.828 194.846 L828.214 199.103 L823.171 200.402 L657.161 200.365 L651.961 193.149 L653.083 191.452 L650.602 114.677" stroke="none" stroke-width="0" fill="rgb(0, 150, 255)"/><path d="M651.5 114.75 M651.5 114.75 C652.925 109.604, 657.003 103.086, 661.5 104.75 M661.5 104.75 C718.56 105.067, 773.375 105.149, 822.5 104.75 M822.5 104.75 C829.359 103.031, 833.757 109.39, 832.5 114.75 M832.5 114.75 C832.467 132.141, 833.571 148.364, 832.5 190.75 M832.5 190.75 C832.089 196.389, 829.479 200.819, 822.5 200.75 M822.5 200.75 C772.203 200.272, 723.483 202.182, 661.5 200.75 M661.5 200.75 C657.141 201.978, 650.501 197.313, 651.5 190.75 M651.5 190.75 C650.051 166.108, 652.785 143.308, 651.5 114.75" stroke="rgb(102, 56, 0)" stroke-width="1" fill="none"/></g><g clip-path="url(#ygc106_0_0)"><g class="text-container" transform="matrix(1, 0, 0, 1, 742, 145.75)"><text font-family="'Arial'" font-size="12px" font-style="normal" font-weight="normal" text-decoration="none" text-anchor="middle" fill="rgb(0, 0, 0)" fill-opacity="1" dy="0.9166666666666666em" transform="" data-sketchy-clip-path="ygc106_0_0" style="font-style: normal;font-weight: 400;font-size: 12px;font-family: Comic Sans MS, cursive;" stroke="none" stroke-width="1px" dominant-baseline="auto">Cliente</text></g></g><g clip-path="url(#ygc106_0_0)"><path d="M666.58 144.906 L667.931 136.853 L681.992 153.968 L667.581 169.625 L667.683 163.578 L277.025 162.207 L286.453 154.624 L278.831 143.237 L667.985 142.955" stroke="none" stroke-width="0" fill="rgb(210, 0, 255)"/><path d="M668.43 143.297 M665.927 143.99 C666.245 141.326, 666.789 138.958, 666.047 137.716 M666.256 143.786 C666.187 141.421, 666.481 139.333, 666.428 137.806 M664.529 135.844 C672.026 142.628, 676.902 147.45, 682.401 154.175 M667.167 138.022 C670.151 141.645, 673.772 146.094, 681.156 152.143 M681.729 151.98 C675.021 157.72, 670.903 161.491, 665.833 168.786 M681.261 151.948 C677.429 156.501, 674.945 160.145, 666.089 167.653 M666.214 168.094 C666.635 166.808, 666.873 164.913, 666.083 162.155 M666.603 167.779 C666.358 166.644, 666.433 165.018, 666.698 161.524 M665.795 161.459 C535.534 163.73, 404.177 162.59, 277.314 161.288 M666.007 161.576 C574.908 162.099, 482.079 162.18, 278.584 162.22 M278.46 161.741 C280.142 159.578, 282.871 154.687, 288.255 153.417 M277.634 161.288 C279.436 159.343, 281.539 157.006, 286.549 152.784 M285.89 151.815 C285.269 148.531, 281.558 147.187, 278.877 144.572 M286.624 152.196 C285.007 151.042, 283.447 148.231, 278.51 143.885 M278.946 142.856 C377.096 143.596, 479.026 141.481, 666.862 143.736 M277.56 144.136 C381.206 142.283, 484.02 142.115, 666.494 144.019" stroke="rgb(102, 56, 0)" stroke-width="1" fill="none"/></g><g clip-path="url(#ygc106_0_0)"><g class="text-container" transform="matrix(1, 0, 0, 1, 479.75, 145.75)"><text font-family="'Arial'" font-size="12px" font-style="normal" font-weight="normal" text-decoration="none" text-anchor="middle" fill="rgb(0, 0, 0)" fill-opacity="1" dy="0.9166666666666666em" transform="" data-sketchy-clip-path="ygc106_0_0" style="font-style: normal;font-weight: 400;font-size: 12px;font-family: Comic Sans MS, cursive;" stroke="none" stroke-width="1px" dominant-baseline="auto">Vendo</text></g></g><g clip-path="url(#ygc106_0_0)"><path d="M140.461 294.844 L143.9 289.149 L152.865 286.625 L315.153 286.299 L322.983 293.828 L324.942 297.295 L321.252 375.356 L315.105 381.333 L314.665 381.983 L149.843 379.409 L143.591 375.357 L142.165 369.861 L142.495 296.508" stroke="none" stroke-width="0" fill="rgb(255, 0, 160)"/><path d="M142 295.75 M142 295.75 C140.242 289.31, 147.106 285.718, 152 285.75 M152 285.75 C188.772 284.418, 226.076 284.086, 313 285.75 M313 285.75 C317.462 284.781, 324.378 291.424, 323 295.75 M323 295.75 C325.028 323.003, 321.222 349.901, 323 371.75 M323 371.75 C324.159 378.816, 319.912 383.637, 313 381.75 M313 381.75 C266.954 381.382, 224.267 380.79, 152 381.75 M152 381.75 C148.22 383.027, 140.288 376.825, 142 371.75 M142 371.75 C141.972 340.022, 142.881 313.363, 142 295.75" stroke="rgb(102, 56, 0)" stroke-width="1" fill="none"/></g><g clip-path="url(#ygc106_0_0)"><g class="text-container" transform="matrix(1, 0, 0, 1, 232.5, 326.75)"><text font-family="'Arial'" font-size="12px" font-style="normal" font-weight="normal" text-decoration="none" text-anchor="middle" fill="rgb(0, 0, 0)" fill-opacity="1" dy="0.9166666666666666em" transform="" data-sketchy-clip-path="ygc106_0_0" style="font-style: normal;font-weight: 400;font-size: 12px;font-family: Comic Sans MS, cursive;" stroke="none" stroke-width="1px" dominant-baseline="auto">Desarrollo Software</text></g></g><g clip-path="url(#ygc106_0_0)"><path d="M628.656 252.317 L633.619 245.74 L639.838 242.729 L805.297 245.665 L811.684 248.095 L810.206 255.279 L809.004 333.384 L804.978 340.492 L801.668 340.983 L636.559 340.357 L631.814 335.49 L631.041 329.587 L631.247 255.42" stroke="none" stroke-width="0" fill="rgb(0, 150, 255)"/><path d="M629.5 253.75 M629.5 253.75 C627.548 247.453, 632.828 242.419, 639.5 243.75 M639.5 243.75 C700.73 247.216, 763.977 243.243, 800.5 243.75 M800.5 243.75 C806.193 243.254, 812.251 246.882, 810.5 253.75 M810.5 253.75 C810.636 281.281, 811.827 311.892, 810.5 329.75 M810.5 329.75 C812.087 336.413, 806.153 341.069, 800.5 339.75 M800.5 339.75 C756.662 339.426, 711.091 339.071, 639.5 339.75 M639.5 339.75 C632.106 339.875, 627.936 336.043, 629.5 329.75 M629.5 329.75 C628.676 312.799, 628.448 297.539, 629.5 253.75" stroke="rgb(102, 56, 0)" stroke-width="1" fill="none"/></g><g clip-path="url(#ygc106_0_0)"><g class="text-container" transform="matrix(1, 0, 0, 1, 720, 284.75)"><text font-family="'Arial'" font-size="12px" font-style="normal" font-weight="normal" text-decoration="none" text-anchor="middle" fill="rgb(0, 0, 0)" fill-opacity="1" dy="0.9166666666666666em" transform="" data-sketchy-clip-path="ygc106_0_0" style="font-style: normal;font-weight: 400;font-size: 12px;font-family: Comic Sans MS, cursive;" stroke="none" stroke-width="1px" dominant-baseline="auto">Cliente</text></g></g><g clip-path="url(#ygc106_0_0)"><path d="M643.206 268.338 L648.325 263.573 L654.239 259.602 L819.671 259.959 L822.809 263.022 L823.739 268.617 L825.427 349.386 L820.168 353.326 L815.308 354.047 L651.011 355.322 L646.128 349.238 L646.302 343.604 L646.272 267.4" stroke="none" stroke-width="0" fill="rgb(0, 150, 255)"/><path d="M644.5 268.75 M644.5 268.75 C642.508 263.094, 647 257.246, 654.5 258.75 M644.5 268.75 C642.248 261.156, 650.181 259.618, 654.5 258.75 M654.5 258.75 C710.848 258.143, 767.656 256.25, 815.5 258.75 M654.5 258.75 C707.217 257.986, 759.485 258.375, 815.5 258.75 M815.5 258.75 C820.073 258.075, 825.608 261.858, 825.5 268.75 M815.5 258.75 C821.422 260.837, 827.77 260.961, 825.5 268.75 M825.5 268.75 C825.834 287.388, 824.685 304.371, 825.5 344.75 M825.5 268.75 C824.922 294.734, 825.576 320.61, 825.5 344.75 M825.5 344.75 C825.97 352.203, 822.659 352.965, 815.5 354.75 M825.5 344.75 C826.017 352.47, 820.238 352.657, 815.5 354.75 M815.5 354.75 C758.111 352.691, 702.797 352.331, 654.5 354.75 M815.5 354.75 C776.561 355.143, 737.503 355.431, 654.5 354.75 M654.5 354.75 C649.867 354.132, 645.617 350.501, 644.5 344.75 M654.5 354.75 C647.846 354.782, 642.944 351.806, 644.5 344.75 M644.5 344.75 C643.256 323.803, 643.287 300.917, 644.5 268.75 M644.5 344.75 C644.246 315.887, 644.674 287.828, 644.5 268.75" stroke="rgb(102, 56, 0)" stroke-width="1" fill="none"/></g><g clip-path="url(#ygc106_0_0)"><g class="text-container" transform="matrix(1, 0, 0, 1, 735, 299.75)"><text font-family="'Arial'" font-size="12px" font-style="normal" font-weight="normal" text-decoration="none" text-anchor="middle" fill="rgb(0, 0, 0)" fill-opacity="1" dy="0.9166666666666666em" transform="" data-sketchy-clip-path="ygc106_0_0" style="font-style: normal;font-weight: 400;font-size: 12px;font-family: Comic Sans MS, cursive;" stroke="none" stroke-width="1px" dominant-baseline="auto">Cliente</text></g></g><g clip-path="url(#ygc106_0_0)"><path d="M659.923 285.649 L662.133 275.244 L669.662 274.176 L833.481 273.012 L837.77 281.156 L841.835 284.858 L838.795 365.494 L832.891 369.297 L830.373 369.864 L664.194 370.958 L662.027 364.887 L660.407 359.563 L660.457 285.464" stroke="none" stroke-width="0" fill="rgb(0, 150, 255)"/><path d="M659.5 283.75 M659.5 283.75 C657.737 279.422, 662.017 273.1, 669.5 273.75 M659.5 283.75 C657.795 279.491, 663.143 273.268, 669.5 273.75 M669.5 273.75 C715.611 276.769, 759.376 273.868, 830.5 273.75 M669.5 273.75 C717.8 274.531, 764.995 274.303, 830.5 273.75 M830.5 273.75 C837.113 272.414, 841.443 278.027, 840.5 283.75 M830.5 273.75 C837.681 272.946, 842.143 278.486, 840.5 283.75 M840.5 283.75 C839.079 303.421, 841.151 323.975, 840.5 359.75 M840.5 283.75 C841.112 309.197, 841.203 335.743, 840.5 359.75 M840.5 359.75 C840.754 364.261, 834.608 369.397, 830.5 369.75 M840.5 359.75 C840.63 365.695, 834.672 367.888, 830.5 369.75 M830.5 369.75 C774.614 371.156, 717.866 370.162, 669.5 369.75 M830.5 369.75 C773.743 370.284, 716.512 369.514, 669.5 369.75 M669.5 369.75 C665.633 370.074, 660.214 365.72, 659.5 359.75 M669.5 369.75 C664.164 369.589, 658.044 364.564, 659.5 359.75 M659.5 359.75 C659.963 337.489, 660.485 318.88, 659.5 283.75 M659.5 359.75 C658.96 338.525, 660.037 318.66, 659.5 283.75" stroke="rgb(102, 56, 0)" stroke-width="1" fill="none"/></g><g clip-path="url(#ygc106_0_0)"><g class="text-container" transform="matrix(1, 0, 0, 1, 750, 314.75)"><text font-family="'Arial'" font-size="12px" font-style="normal" font-weight="normal" text-decoration="none" text-anchor="middle" fill="rgb(0, 0, 0)" fill-opacity="1" dy="0.9166666666666666em" transform="" data-sketchy-clip-path="ygc106_0_0" style="font-style: normal;font-weight: 400;font-size: 12px;font-family: Comic Sans MS, cursive;" stroke="none" stroke-width="1px" dominant-baseline="auto">Cliente</text></g></g><g clip-path="url(#ygc106_0_0)"><path d="M674.239 297.617 L677.076 290.883 L683.445 287.907 L848.363 288.15 L856.456 296.792 L856.573 299.606 L856.103 379.817 L848.194 385.767 L844.703 386.214 L680.301 384.413 L674.238 377.58 L673.89 374.31 L674.931 298.394" stroke="none" stroke-width="0" fill="rgb(0, 150, 255)"/><path d="M674.5 298.75 M674.5 298.75 C675.221 291.619, 679.773 288.022, 684.5 288.75 M684.5 288.75 C734.066 289.322, 781.445 288.835, 845.5 288.75 M845.5 288.75 C849.586 286.892, 853.832 294.996, 855.5 298.75 M855.5 298.75 C854.819 318.174, 856.78 333.611, 855.5 374.75 M855.5 374.75 C854.765 381.296, 851.447 385.262, 845.5 384.75 M845.5 384.75 C797.75 386.459, 753.016 384.2, 684.5 384.75 M684.5 384.75 C679.437 383.455, 673.415 379.868, 674.5 374.75 M674.5 374.75 C674.972 352.787, 673.701 327.389, 674.5 298.75" stroke="rgb(102, 56, 0)" stroke-width="1" fill="none"/></g><g clip-path="url(#ygc106_0_0)"><g class="text-container" transform="matrix(1, 0, 0, 1, 765, 329.75)"><text font-family="'Arial'" font-size="12px" font-style="normal" font-weight="normal" text-decoration="none" text-anchor="middle" fill="rgb(0, 0, 0)" fill-opacity="1" dy="0.9166666666666666em" transform="" data-sketchy-clip-path="ygc106_0_0" style="font-style: normal;font-weight: 400;font-size: 12px;font-family: Comic Sans MS, cursive;" stroke="none" stroke-width="1px" dominant-baseline="auto">Cliente</text></g></g><g clip-path="url(#ygc106_0_0)"><path d="M690.376 312.874 L690.859 305.908 L698.69 303.694 L865.56 304.572 L867.93 308.774 L868.586 313.734 L868.401 395.212 L862.518 400.705 L858.539 397.76 L694.384 398.625 L690.024 394.415 L691.012 390.813 L688.09 315.688" stroke="none" stroke-width="0" fill="rgb(0, 150, 255)"/><path d="M689.5 313.75 M689.5 313.75 C689.55 309.876, 692.406 303.434, 699.5 303.75 M699.5 303.75 C736.857 305.226, 779.684 301.8, 860.5 303.75 M860.5 303.75 C867.609 302.736, 871.816 308.804, 870.5 313.75 M870.5 313.75 C868.851 345.225, 870.625 374.331, 870.5 389.75 M870.5 389.75 C870.186 395.481, 867.074 399.772, 860.5 399.75 M860.5 399.75 C819.079 402.733, 779.45 400.365, 699.5 399.75 M699.5 399.75 C695.015 401.518, 690.903 395.275, 689.5 389.75 M689.5 389.75 C690.691 361.409, 690.173 332.5, 689.5 313.75" stroke="rgb(102, 56, 0)" stroke-width="1" fill="none"/></g><g clip-path="url(#ygc106_0_0)"><g class="text-container" transform="matrix(1, 0, 0, 1, 780, 344.75)"><text font-family="'Arial'" font-size="12px" font-style="normal" font-weight="normal" text-decoration="none" text-anchor="middle" fill="rgb(0, 0, 0)" fill-opacity="1" dy="0.9166666666666666em" transform="" data-sketchy-clip-path="ygc106_0_0" style="font-style: normal;font-weight: 400;font-size: 12px;font-family: Comic Sans MS, cursive;" stroke="none" stroke-width="1px" dominant-baseline="auto">Cliente</text></g></g><g clip-path="url(#ygc106_0_0)"><path d="M704.452 329.454 L706.761 323.248 L714.235 317.449 L881.024 319.083 L884.516 322.977 L884.279 327.828 L883.938 409.305 L878.887 413.647 L876.507 413.462 L709.042 414.526 L706.088 408.559 L704.437 404.275 L702.536 326.845" stroke="none" stroke-width="0" fill="rgb(0, 150, 255)"/><path d="M704.5 328.75 M704.5 328.75 C706.062 324.112, 710.733 319.511, 714.5 318.75 M714.5 318.75 C758.088 318.07, 801.833 321.243, 875.5 318.75 M875.5 318.75 C879.648 318.908, 884.472 323.641, 885.5 328.75 M885.5 328.75 C887.891 348.34, 886.437 368.859, 885.5 404.75 M885.5 404.75 C886.473 411.584, 881.539 415.636, 875.5 414.75 M875.5 414.75 C817.043 413.204, 755.005 414.718, 714.5 414.75 M714.5 414.75 C710.479 416.142, 706.406 411.475, 704.5 404.75 M704.5 404.75 C702.822 384.349, 705.656 360.745, 704.5 328.75" stroke="rgb(102, 56, 0)" stroke-width="1" fill="none"/></g><g clip-path="url(#ygc106_0_0)"><g class="text-container" transform="matrix(1, 0, 0, 1, 795, 359.75)"><text font-family="'Arial'" font-size="12px" font-style="normal" font-weight="normal" text-decoration="none" text-anchor="middle" fill="rgb(0, 0, 0)" fill-opacity="1" dy="0.9166666666666666em" transform="" data-sketchy-clip-path="ygc106_0_0" style="font-style: normal;font-weight: 400;font-size: 12px;font-family: Comic Sans MS, cursive;" stroke="none" stroke-width="1px" dominant-baseline="auto">Cliente</text></g></g><g clip-path="url(#ygc106_0_0)"><path d="M720.438 342.451 L721.969 337.481 L729.729 335.066 L894.104 335.703 L900.551 340.954 L899.585 344.068 L899.264 422.703 L893.13 430.124 L889.969 428.403 L725.265 427.979 L718.725 424.082 L720.293 421.504 L720.66 343.331" stroke="none" stroke-width="0" fill="rgb(0, 150, 255)"/><path d="M719.5 343.75 M719.5 343.75 C718.634 337.609, 722.209 332.479, 729.5 333.75 M729.5 333.75 C777.124 332.434, 821.689 332.568, 890.5 333.75 M890.5 333.75 C895.341 334.855, 898.525 339.537, 900.5 343.75 M900.5 343.75 C898.137 366.901, 898.758 391.76, 900.5 419.75 M900.5 419.75 C900.172 425.763, 896.904 428.54, 890.5 429.75 M890.5 429.75 C845.001 431.179, 800.948 430.48, 729.5 429.75 M729.5 429.75 C724.604 429.697, 721.117 426.84, 719.5 419.75 M719.5 419.75 C720.588 395.735, 720.732 369.45, 719.5 343.75" stroke="rgb(102, 56, 0)" stroke-width="1" fill="none"/></g><g clip-path="url(#ygc106_0_0)"><g class="text-container" transform="matrix(1, 0, 0, 1, 810, 374.75)"><text font-family="'Arial'" font-size="12px" font-style="normal" font-weight="normal" text-decoration="none" text-anchor="middle" fill="rgb(0, 0, 0)" fill-opacity="1" dy="0.9166666666666666em" transform="" data-sketchy-clip-path="ygc106_0_0" style="font-style: normal;font-weight: 400;font-size: 12px;font-family: Comic Sans MS, cursive;" stroke="none" stroke-width="1px" dominant-baseline="auto">Cliente</text></g></g><g clip-path="url(#ygc106_0_0)"><path d="M682.765 326.334 L679.838 319.02 L697.637 332.815 L681.387 349.106 L679.56 343.452 L304.178 341.894 L313.474 331.773 L301.245 326.214 L681.944 324.006" stroke="none" stroke-width="0" fill="rgb(210, 0, 255)"/><path d="M682.7 326.45 M682.034 325.025 C680.941 322.444, 681.496 320.084, 681.323 318.762 M681.293 325.027 C681.522 322.481, 681.641 320.531, 681.228 318.664 M680.324 316.755 C683.526 322.746, 687.281 325.001, 697.32 334.717 M681.349 318.847 C686.329 323.909, 693.681 330.344, 696.469 333.375 M694.632 334.578 C693.741 337.126, 687.587 342.197, 680.748 349.476 M695.936 333.078 C693.98 337.3, 689.27 340.748, 681.225 349.514 M681.321 349.077 C681.302 346.705, 681.593 345.085, 681.441 343.284 M681.251 348.901 C681.696 347.023, 681.645 345.036, 681.615 342.993 M682.137 341.657 C559.923 343.316, 439.356 343.976, 303.445 343.144 M681.389 342.416 C573.042 343.105, 463.636 343.313, 303.096 343.304 M302.451 342.564 C304.441 340.727, 307.7 339.119, 311.271 333.322 M302.188 342.945 C305.45 339.126, 309.78 335.571, 311.994 333.229 M310.789 334.813 C309.424 329.897, 305.406 327.092, 302.019 325.674 M311.443 333.422 C308.964 331.095, 308.115 329.577, 302.582 324.932 M301.701 325.183 C404.903 324.685, 508.543 324.158, 682.33 323.743 M302.223 325.059 C443.203 323.023, 582.938 322.842, 681.251 324.408" stroke="rgb(102, 56, 0)" stroke-width="1" fill="none"/></g><g clip-path="url(#ygc106_0_0)"><g class="text-container" transform="matrix(1, 0, 0, 1, 499.5, 326.75)"><text font-family="'Arial'" font-size="12px" font-style="normal" font-weight="normal" text-decoration="none" text-anchor="middle" fill="rgb(0, 0, 0)" fill-opacity="1" dy="0.9166666666666666em" transform="" data-sketchy-clip-path="ygc106_0_0" style="font-style: normal;font-weight: 400;font-size: 12px;font-family: Comic Sans MS, cursive;" stroke="none" stroke-width="1px" dominant-baseline="auto">Vendo</text></g></g><g clip-path="url(#ygc106_0_0)"><path d="M140.837 523.443 L145.511 518.894 L152.757 514.528 L315.637 514.555 L323.764 520.695 L322.247 524.825 L320.557 603.606 L314.935 611.388 L312.082 610.967 L148.802 610.243 L143.983 606.516 L141.684 599.979 L141.031 523.792" stroke="none" stroke-width="0" fill="rgb(255, 0, 160)"/><path d="M142 524.75 M142 524.75 C140.325 518.418, 147.929 513.024, 152 514.75 M152 514.75 C209.472 513.938, 267.636 516.268, 313 514.75 M313 514.75 C319.038 516.179, 322.203 518.458, 323 524.75 M323 524.75 C323.595 548.94, 321.916 572.787, 323 600.75 M323 600.75 C323.803 606.94, 320.294 611.372, 313 610.75 M313 610.75 C262.113 612.494, 212.11 611.618, 152 610.75 M152 610.75 C144.599 610.084, 141.516 604.808, 142 600.75 M142 600.75 C142.816 582.806, 140.399 563.567, 142 524.75" stroke="rgb(102, 56, 0)" stroke-width="1" fill="none"/></g><g clip-path="url(#ygc106_0_0)"><g class="text-container" transform="matrix(1, 0, 0, 1, 232.5, 555.75)"><text font-family="'Arial'" font-size="12px" font-style="normal" font-weight="normal" text-decoration="none" text-anchor="middle" fill="rgb(0, 0, 0)" fill-opacity="1" dy="0.9166666666666666em" transform="" data-sketchy-clip-path="ygc106_0_0" style="font-style: normal;font-weight: 400;font-size: 12px;font-family: Comic Sans MS, cursive;" stroke="none" stroke-width="1px" dominant-baseline="auto">Desarrollo Software</text></g></g><g clip-path="url(#ygc106_0_0)"><path d="M629.529 482.855 L632.694 474.879 L640.808 473.059 L803.273 471.989 L808.782 477.687 L808.976 482.464 L809.036 564.49 L806.061 566.232 L802.169 567.414 L635.052 567.764 L631.444 561.604 L627.963 557.747 L631.411 483.752" stroke="none" stroke-width="0" fill="rgb(0, 150, 255)"/><path d="M629.5 482.75 M629.5 482.75 C627.668 475.373, 634.184 473.082, 639.5 472.75 M639.5 472.75 C688.792 473.528, 741.294 474.397, 800.5 472.75 M800.5 472.75 C805.434 474.388, 811.671 475.364, 810.5 482.75 M810.5 482.75 C809.735 506.605, 808.37 530.336, 810.5 558.75 M810.5 558.75 C810.294 565.101, 807.607 569.245, 800.5 568.75 M800.5 568.75 C755.701 568.635, 709.71 568.702, 639.5 568.75 M639.5 568.75 C633.511 569.118, 631.274 564.9, 629.5 558.75 M629.5 558.75 C629.837 543.879, 627.684 526.997, 629.5 482.75" stroke="rgb(102, 56, 0)" stroke-width="1" fill="none"/></g><g clip-path="url(#ygc106_0_0)"><g class="text-container" transform="matrix(1, 0, 0, 1, 720, 513.75)"><text font-family="'Arial'" font-size="12px" font-style="normal" font-weight="normal" text-decoration="none" text-anchor="middle" fill="rgb(0, 0, 0)" fill-opacity="1" dy="0.9166666666666666em" transform="" data-sketchy-clip-path="ygc106_0_0" style="font-style: normal;font-weight: 400;font-size: 12px;font-family: Comic Sans MS, cursive;" stroke="none" stroke-width="1px" dominant-baseline="auto">Cliente</text></g></g><g clip-path="url(#ygc106_0_0)"><path d="M645.692 497.005 L645.816 489.825 L653.53 486.616 L818.368 488.387 L824.969 494.587 L826.065 498.242 L823.455 579.124 L819.532 583.237 L817.334 583.833 L650.248 582.908 L646.48 578.798 L644.132 572.767 L643.188 498.477" stroke="none" stroke-width="0" fill="rgb(0, 150, 255)"/><path d="M644.5 497.75 M644.5 497.75 C645.898 493.168, 648.964 486.818, 654.5 487.75 M654.5 487.75 C707.49 487.022, 764.413 485.746, 815.5 487.75 M815.5 487.75 C822.309 488.111, 825.231 493.036, 825.5 497.75 M825.5 497.75 C827.513 514.438, 826.037 534.478, 825.5 573.75 M825.5 573.75 C825.942 580.33, 819.481 583.442, 815.5 583.75 M815.5 583.75 C767.913 584.15, 717.053 585.81, 654.5 583.75 M654.5 583.75 C649.186 583.926, 645.012 579.046, 644.5 573.75 M644.5 573.75 C643.58 552.595, 646.943 531.24, 644.5 497.75" stroke="rgb(102, 56, 0)" stroke-width="1" fill="none"/></g><g clip-path="url(#ygc106_0_0)"><g class="text-container" transform="matrix(1, 0, 0, 1, 735, 528.75)"><text font-family="'Arial'" font-size="12px" font-style="normal" font-weight="normal" text-decoration="none" text-anchor="middle" fill="rgb(0, 0, 0)" fill-opacity="1" dy="0.9166666666666666em" transform="" data-sketchy-clip-path="ygc106_0_0" style="font-style: normal;font-weight: 400;font-size: 12px;font-family: Comic Sans MS, cursive;" stroke="none" stroke-width="1px" dominant-baseline="auto">Cliente</text></g></g><g clip-path="url(#ygc106_0_0)"><path d="M658.514 512.486 L663.684 507.366 L668.752 503.702 L832.846 503.883 L840.089 509.17 L842.328 512.478 L840.738 593.652 L836.068 597.043 L830.953 598.091 L664.811 596.02 L660.558 591.956 L659.76 588.33 L659.514 513.203" stroke="none" stroke-width="0" fill="rgb(0, 150, 255)"/><path d="M659.5 512.75 M659.5 512.75 C660.703 508.889, 663.811 502.275, 669.5 502.75 M659.5 512.75 C659.592 508.435, 662.973 502.54, 669.5 502.75 M669.5 502.75 C705.14 504.81, 742.75 504.852, 830.5 502.75 M669.5 502.75 C730.062 502.204, 791.378 501.632, 830.5 502.75 M830.5 502.75 C835.948 501.327, 842.276 506.251, 840.5 512.75 M830.5 502.75 C837.356 503.964, 841.747 505.362, 840.5 512.75 M840.5 512.75 C839.042 532.445, 839.257 553.094, 840.5 588.75 M840.5 512.75 C840.894 538.409, 840.414 565.389, 840.5 588.75 M840.5 588.75 C839.259 595.105, 835.286 598.765, 830.5 598.75 M840.5 588.75 C840.878 593.852, 837.165 597.544, 830.5 598.75 M830.5 598.75 C795.981 597.184, 765.668 596.913, 669.5 598.75 M830.5 598.75 C776.439 600.434, 724.207 599.883, 669.5 598.75 M669.5 598.75 C662.635 600.259, 658.869 592.529, 659.5 588.75 M669.5 598.75 C665.039 599.527, 659.156 596.424, 659.5 588.75 M659.5 588.75 C661.43 567.356, 657.866 543.232, 659.5 512.75 M659.5 588.75 C658.418 566.222, 659.52 544.711, 659.5 512.75" stroke="rgb(102, 56, 0)" stroke-width="1" fill="none"/></g><g clip-path="url(#ygc106_0_0)"><g class="text-container" transform="matrix(1, 0, 0, 1, 750, 543.75)"><text font-family="'Arial'" font-size="12px" font-style="normal" font-weight="normal" text-decoration="none" text-anchor="middle" fill="rgb(0, 0, 0)" fill-opacity="1" dy="0.9166666666666666em" transform="" data-sketchy-clip-path="ygc106_0_0" style="font-style: normal;font-weight: 400;font-size: 12px;font-family: Comic Sans MS, cursive;" stroke="none" stroke-width="1px" dominant-baseline="auto">Cliente</text></g></g><g clip-path="url(#ygc106_0_0)"><path d="M674.924 526.793 L676.459 522.411 L682.99 518.241 L849.538 519.417 L853.814 525.278 L853.843 528.69 L856.466 606.975 L850.808 613.493 L846.331 612.791 L680.884 614.623 L677.144 608.063 L672.555 603.607 L673.462 527.9" stroke="none" stroke-width="0" fill="rgb(0, 150, 255)"/><path d="M674.5 527.75 M674.5 527.75 C672.918 520.382, 680.843 519.171, 684.5 517.75 M684.5 517.75 C735.143 516.735, 786.085 516.045, 845.5 517.75 M845.5 517.75 C851.146 518.107, 856.196 521.324, 855.5 527.75 M855.5 527.75 C854.272 551.996, 853.62 580.446, 855.5 603.75 M855.5 603.75 C854.404 610.998, 851.422 614.36, 845.5 613.75 M845.5 613.75 C810.41 614.135, 771.147 616.033, 684.5 613.75 M684.5 613.75 C677.31 613.726, 675.309 609.636, 674.5 603.75 M674.5 603.75 C674.204 579.68, 674.058 557.434, 674.5 527.75" stroke="rgb(102, 56, 0)" stroke-width="1" fill="none"/></g><g clip-path="url(#ygc106_0_0)"><g class="text-container" transform="matrix(1, 0, 0, 1, 765, 558.75)"><text font-family="'Arial'" font-size="12px" font-style="normal" font-weight="normal" text-decoration="none" text-anchor="middle" fill="rgb(0, 0, 0)" fill-opacity="1" dy="0.9166666666666666em" transform="" data-sketchy-clip-path="ygc106_0_0" style="font-style: normal;font-weight: 400;font-size: 12px;font-family: Comic Sans MS, cursive;" stroke="none" stroke-width="1px" dominant-baseline="auto">Cliente</text></g></g><g clip-path="url(#ygc106_0_0)"><path d="M687.595 543.539 L691.487 537.482 L699.819 533.959 L865.928 534.752 L869.713 537.543 L870.394 543.457 L870.81 621.614 L863.628 626.471 L860.906 627.571 L695.698 629.054 L690.309 621.659 L690.954 618.208 L690.625 541.674" stroke="none" stroke-width="0" fill="rgb(0, 150, 255)"/><path d="M689.5 542.75 M689.5 542.75 C688.487 536.951, 695.481 531.965, 699.5 532.75 M699.5 532.75 C752.215 533.718, 800.138 531.238, 860.5 532.75 M860.5 532.75 C864.184 531.67, 870.888 536.093, 870.5 542.75 M870.5 542.75 C869.313 564.996, 872.299 585.403, 870.5 618.75 M870.5 618.75 C869.114 625.126, 866.601 628.086, 860.5 628.75 M860.5 628.75 C816.472 629.808, 775.98 627.253, 699.5 628.75 M699.5 628.75 C692.014 630.256, 690.371 625.063, 689.5 618.75 M689.5 618.75 C689.571 595.828, 690.169 574.918, 689.5 542.75" stroke="rgb(102, 56, 0)" stroke-width="1" fill="none"/></g><g clip-path="url(#ygc106_0_0)"><g class="text-container" transform="matrix(1, 0, 0, 1, 780, 573.75)"><text font-family="'Arial'" font-size="12px" font-style="normal" font-weight="normal" text-decoration="none" text-anchor="middle" fill="rgb(0, 0, 0)" fill-opacity="1" dy="0.9166666666666666em" transform="" data-sketchy-clip-path="ygc106_0_0" style="font-style: normal;font-weight: 400;font-size: 12px;font-family: Comic Sans MS, cursive;" stroke="none" stroke-width="1px" dominant-baseline="auto">Cliente</text></g></g><g clip-path="url(#ygc106_0_0)"><path d="M705.264 558.163 L706.633 551.669 L712.717 549.322 L881.133 547.637 L885.884 552.214 L885.159 558.733 L884.538 636.314 L879.728 644.197 L875.424 643.473 L710.112 642.009 L705.16 638.484 L704.259 635.748 L704.799 557.748" stroke="none" stroke-width="0" fill="rgb(0, 150, 255)"/><path d="M704.5 557.75 M704.5 557.75 C704.05 552.978, 710.726 549.632, 714.5 547.75 M704.5 557.75 C703.75 553.192, 708.275 547.855, 714.5 547.75 M714.5 547.75 C767.147 548.707, 822.676 549.887, 875.5 547.75 M714.5 547.75 C775.176 550.149, 835.949 550.137, 875.5 547.75 M875.5 547.75 C881.819 547.985, 883.65 551.544, 885.5 557.75 M875.5 547.75 C882.966 549.082, 887.031 550.365, 885.5 557.75 M885.5 557.75 C884.655 586.958, 885.722 619.43, 885.5 633.75 M885.5 557.75 C885.253 575.088, 886.238 593.103, 885.5 633.75 M885.5 633.75 C883.535 640.403, 879.904 645.228, 875.5 643.75 M885.5 633.75 C885.319 637.997, 880.628 643.415, 875.5 643.75 M875.5 643.75 C842.075 644.891, 805.217 644.199, 714.5 643.75 M875.5 643.75 C819.753 644.484, 763.273 644.42, 714.5 643.75 M714.5 643.75 C709.22 642.672, 703.383 637.751, 704.5 633.75 M714.5 643.75 C708.531 642.71, 702.684 640.45, 704.5 633.75 M704.5 633.75 C704.497 615.207, 704.95 592.776, 704.5 557.75 M704.5 633.75 C704.633 615.782, 704.814 597.564, 704.5 557.75" stroke="rgb(102, 56, 0)" stroke-width="1" fill="none"/></g><g clip-path="url(#ygc106_0_0)"><g class="text-container" transform="matrix(1, 0, 0, 1, 795, 588.75)"><text font-family="'Arial'" font-size="12px" font-style="normal" font-weight="normal" text-decoration="none" text-anchor="middle" fill="rgb(0, 0, 0)" fill-opacity="1" dy="0.9166666666666666em" transform="" data-sketchy-clip-path="ygc106_0_0" style="font-style: normal;font-weight: 400;font-size: 12px;font-family: Comic Sans MS, cursive;" stroke="none" stroke-width="1px" dominant-baseline="auto">Cliente</text></g></g><g clip-path="url(#ygc106_0_0)"><path d="M721.026 572.579 L721.992 564.93 L730.617 563.247 L894.624 563.186 L898.271 567.81 L902.187 573.788 L898.027 653.898 L892.408 657.383 L891.801 656.925 L724.608 659.444 L721.535 652.281 L719.229 646.887 L720.31 570.875" stroke="none" stroke-width="0" fill="rgb(0, 150, 255)"/><path d="M719.5 572.75 M719.5 572.75 C721.082 567.14, 723.843 561.695, 729.5 562.75 M729.5 562.75 C771.079 561.188, 811.297 561.775, 890.5 562.75 M890.5 562.75 C896.115 564.288, 900.694 566.28, 900.5 572.75 M900.5 572.75 C901.884 596.673, 899.433 623.067, 900.5 648.75 M900.5 648.75 C900.921 653.823, 894.171 659.643, 890.5 658.75 M890.5 658.75 C839.833 657.498, 789.305 658.417, 729.5 658.75 M729.5 658.75 C722.207 657.086, 719.051 655.485, 719.5 648.75 M719.5 648.75 C719.771 630.542, 718.828 609.098, 719.5 572.75" stroke="rgb(102, 56, 0)" stroke-width="1" fill="none"/></g><g clip-path="url(#ygc106_0_0)"><g class="text-container" transform="matrix(1, 0, 0, 1, 810, 603.75)"><text font-family="'Arial'" font-size="12px" font-style="normal" font-weight="normal" text-decoration="none" text-anchor="middle" fill="rgb(0, 0, 0)" fill-opacity="1" dy="0.9166666666666666em" transform="" data-sketchy-clip-path="ygc106_0_0" style="font-style: normal;font-weight: 400;font-size: 12px;font-family: Comic Sans MS, cursive;" stroke="none" stroke-width="1px" dominant-baseline="auto">Cliente</text></g></g><g clip-path="url(#ygc106_0_0)"><path d="M341.898 507.84 L345.009 502.212 L353.022 499.841 L517.716 501.896 L524.481 506.589 L523.998 510.912 L522.168 587.908 L519.464 593.769 L513.004 597.68 L348 593.163 L344.82 588.647 L342.601 586.896 L341.977 511.687" stroke="none" stroke-width="0" fill="rgb(255, 0, 210)"/><path d="M343.5 509.75 M343.5 509.75 C342.215 505.017, 347.223 499.686, 353.5 499.75 M343.5 509.75 C344.009 504.539, 346.323 501.365, 353.5 499.75 M353.5 499.75 C401.274 500.161, 447.611 498.693, 514.5 499.75 M353.5 499.75 C401.141 498.787, 448.422 499.351, 514.5 499.75 M514.5 499.75 C520.585 501.322, 524.901 504.444, 524.5 509.75 M514.5 499.75 C518.704 501.852, 524.24 501.991, 524.5 509.75 M524.5 509.75 C522.83 526.69, 524.254 540.509, 524.5 585.75 M524.5 509.75 C523.504 536.834, 524.695 562.268, 524.5 585.75 M524.5 585.75 C526.424 591.11, 519.287 595.287, 514.5 595.75 M524.5 585.75 C526.366 590.062, 519.308 594.868, 514.5 595.75 M514.5 595.75 C481.753 597.582, 445.572 597.493, 353.5 595.75 M514.5 595.75 C470.983 594.842, 426.44 594.673, 353.5 595.75 M353.5 595.75 C348.903 596.894, 342.885 592.993, 343.5 585.75 M353.5 595.75 C348.216 597.275, 345.127 589.914, 343.5 585.75 M343.5 585.75 C343.17 560.1, 343.936 536.989, 343.5 509.75 M343.5 585.75 C343.619 566.869, 344.503 545.46, 343.5 509.75" stroke="rgb(102, 56, 0)" stroke-width="1" fill="none"/></g><g clip-path="url(#ygc106_0_0)"><g class="text-container" transform="matrix(1, 0, 0, 1, 434, 540.75)"><text font-family="'Arial'" font-size="12px" font-style="normal" font-weight="normal" text-decoration="none" text-anchor="middle" fill="rgb(0, 0, 0)" fill-opacity="1" dy="0.9166666666666666em" transform="" data-sketchy-clip-path="ygc106_0_0" style="font-style: normal;font-weight: 400;font-size: 12px;font-family: Comic Sans MS, cursive;" stroke="none" stroke-width="1px" dominant-baseline="auto">Consultoría</text></g></g><g clip-path="url(#ygc106_0_0)"><path d="M360.484 523.314 L359.853 516.683 L369.736 516.389 L535.161 517.174 L539.684 518.906 L540.52 524.947 L540.558 605.622 L531.837 610.675 L530.327 609.598 L363.635 609.496 L360.05 603.793 L357.584 601.605 L358.237 526.33" stroke="none" stroke-width="0" fill="rgb(255, 0, 210)"/><path d="M358.5 524.75 M358.5 524.75 C357.242 518.184, 362.338 515.031, 368.5 514.75 M368.5 514.75 C421.352 513.687, 474.058 514.486, 529.5 514.75 M529.5 514.75 C533.515 515.749, 539.508 518.301, 539.5 524.75 M539.5 524.75 C540.889 542.881, 541.1 559.432, 539.5 600.75 M539.5 600.75 C537.912 606.985, 536 611.243, 529.5 610.75 M529.5 610.75 C482.585 613.589, 435.888 610.909, 368.5 610.75 M368.5 610.75 C362.666 610.722, 357.44 605.806, 358.5 600.75 M358.5 600.75 C359.466 577.186, 358.166 551.018, 358.5 524.75" stroke="rgb(102, 56, 0)" stroke-width="1" fill="none"/></g><g clip-path="url(#ygc106_0_0)"><g class="text-container" transform="matrix(1, 0, 0, 1, 449, 555.75)"><text font-family="'Arial'" font-size="12px" font-style="normal" font-weight="normal" text-decoration="none" text-anchor="middle" fill="rgb(0, 0, 0)" fill-opacity="1" dy="0.9166666666666666em" transform="" data-sketchy-clip-path="ygc106_0_0" style="font-style: normal;font-weight: 400;font-size: 12px;font-family: Comic Sans MS, cursive;" stroke="none" stroke-width="1px" dominant-baseline="auto">Consultoría</text></g></g><g clip-path="url(#ygc106_0_0)"><path d="M372.982 541.634 L376.607 531.222 L384.897 528.752 L547.642 529.475 L555.346 535.765 L554.352 539.91 L555.445 619.473 L550.036 625.38 L542.542 626.603 L377.89 625.076 L373.198 621.029 L372.888 615.73 L374.836 538.479" stroke="none" stroke-width="0" fill="rgb(255, 0, 210)"/><path d="M373.5 539.75 M373.5 539.75 C375.151 534.915, 378.725 530.424, 383.5 529.75 M383.5 529.75 C435.962 529.832, 490.935 530.941, 544.5 529.75 M544.5 529.75 C548.773 528.822, 554.531 535.992, 554.5 539.75 M554.5 539.75 C554.482 567.131, 554.838 600.37, 554.5 615.75 M554.5 615.75 C555.511 622.168, 551.031 624.263, 544.5 625.75 M544.5 625.75 C511.835 628.184, 477.097 625.052, 383.5 625.75 M383.5 625.75 C378.186 627.467, 372.707 619.594, 373.5 615.75 M373.5 615.75 C374.847 589.374, 371.736 560.226, 373.5 539.75" stroke="rgb(102, 56, 0)" stroke-width="1" fill="none"/></g><g clip-path="url(#ygc106_0_0)"><g class="text-container" transform="matrix(1, 0, 0, 1, 464, 570.75)"><text font-family="'Arial'" font-size="12px" font-style="normal" font-weight="normal" text-decoration="none" text-anchor="middle" fill="rgb(0, 0, 0)" fill-opacity="1" dy="0.9166666666666666em" transform="" data-sketchy-clip-path="ygc106_0_0" style="font-style: normal;font-weight: 400;font-size: 12px;font-family: Comic Sans MS, cursive;" stroke="none" stroke-width="1px" dominant-baseline="auto">Consultoría</text></g></g><g clip-path="url(#ygc106_0_0)"><path d="M388.531 556.49 L393.322 548.53 L399.605 542.989 L562.715 544.019 L569.206 551.409 L569.365 556.061 L566.979 635.609 L563.543 639.044 L557.805 640.436 L392.93 640.044 L389.392 634.446 L386.603 631.334 L388.164 556.294" stroke="none" stroke-width="0" fill="rgb(255, 0, 210)"/><path d="M388.5 554.75 M388.5 554.75 C388.959 547.637, 392.896 544.637, 398.5 544.75 M388.5 554.75 C387.434 550.713, 393.992 542.743, 398.5 544.75 M398.5 544.75 C449.19 547.235, 499.895 544.654, 559.5 544.75 M398.5 544.75 C431.223 544.205, 466.582 542.907, 559.5 544.75 M559.5 544.75 C564.537 544.239, 567.769 547.483, 569.5 554.75 M559.5 544.75 C565.898 545.572, 571.133 549.407, 569.5 554.75 M569.5 554.75 C568.737 571.108, 569.818 589.925, 569.5 630.75 M569.5 554.75 C569.723 572.12, 569.706 589.112, 569.5 630.75 M569.5 630.75 C568.43 635.55, 564.989 641.676, 559.5 640.75 M569.5 630.75 C570.061 636.154, 565.035 641.72, 559.5 640.75 M559.5 640.75 C507.503 638.877, 453.783 638.714, 398.5 640.75 M559.5 640.75 C518.66 642.973, 476.469 641.796, 398.5 640.75 M398.5 640.75 C394.788 641.568, 386.907 638.149, 388.5 630.75 M398.5 640.75 C390.918 641.778, 387.274 638.32, 388.5 630.75 M388.5 630.75 C389.174 604.59, 389.368 573.383, 388.5 554.75 M388.5 630.75 C388.622 614.543, 390.091 600.195, 388.5 554.75" stroke="rgb(102, 56, 0)" stroke-width="1" fill="none"/></g><g clip-path="url(#ygc106_0_0)"><g class="text-container" transform="matrix(1, 0, 0, 1, 479, 585.75)"><text font-family="'Arial'" font-size="12px" font-style="normal" font-weight="normal" text-decoration="none" text-anchor="middle" fill="rgb(0, 0, 0)" fill-opacity="1" dy="0.9166666666666666em" transform="" data-sketchy-clip-path="ygc106_0_0" style="font-style: normal;font-weight: 400;font-size: 12px;font-family: Comic Sans MS, cursive;" stroke="none" stroke-width="1px" dominant-baseline="auto">Consultoría</text></g></g><g clip-path="url(#ygc106_0_0)"><path d="M649.977 584.743 L649.95 577.198 L667.942 590.777 L652.396 606.544 L650.513 602.877 L525.586 601.081 L534.043 593.792 L523.181 582.548 L651.011 585.349" stroke="none" stroke-width="0" fill="rgb(210, 0, 255)"/><path d="M651.447 582.435 M651.63 583.619 C651.975 581.719, 651.451 580.182, 652.078 577.649 M649.873 578.823 C656.351 582.354, 662.135 589.138, 664.631 593.847 M665.864 592.081 C661.891 596.514, 657.335 603.594, 650.463 606.096 M651.625 608.257 C652.036 606.064, 651.955 604.036, 651.42 601.923 M651.115 603.431 C612.08 599.382, 571.659 598.908, 523.362 603.503 M523.519 601.161 C526.654 598.841, 529.099 596.477, 533.673 592.425 M534.605 591.979 C530.536 589.218, 527.143 586.285, 523.597 584.202 M523.847 584.481 C569.195 586.252, 610.057 582.87, 651.649 582.242" stroke="rgb(102, 56, 0)" stroke-width="1" fill="none"/></g><g clip-path="url(#ygc106_0_0)"><g class="text-container" transform="matrix(1, 0, 0, 1, 595.5, 585.75)"><text font-family="'Arial'" font-size="12px" font-style="normal" font-weight="normal" text-decoration="none" text-anchor="middle" fill="rgb(0, 0, 0)" fill-opacity="1" dy="0.9166666666666666em" transform="" data-sketchy-clip-path="ygc106_0_0" style="font-style: normal;font-weight: 400;font-size: 12px;font-family: Comic Sans MS, cursive;" stroke="none" stroke-width="1px" dominant-baseline="auto">Ofrezco Soporte</text></g></g><g clip-path="url(#ygc106_0_0)"><path d="M391.53 580.884 L391.513 577.257 L406.703 590.263 L392.981 604.584 L392.982 599.463 L263.165 599.363 L274.915 590.497 L263.291 581.802 L390.074 580.709" stroke="none" stroke-width="0" fill="rgb(210, 0, 255)"/><path d="M391.564 582.726 M391.911 581.527 C392.051 580.05, 391.169 578.405, 391.041 575.389 M391.683 581.732 C391.347 579.716, 391.721 578.415, 391.667 575.566 M389.743 577.291 C395.957 580.261, 399.874 584.331, 404.654 590.535 M391.449 575.084 C396.517 579.216, 399.788 583.034, 407.556 589.736 M407.168 591.48 C402.287 596.551, 397.028 600.464, 390.044 605.853 M407.198 590.062 C403.364 594.891, 398.033 598.553, 391.962 606.255 M391.471 605.537 C391.3 604.163, 392.134 602.346, 391.546 599.068 M391.657 605.504 C391.895 604.098, 391.341 602.727, 391.722 599.26 M390.431 598.015 C358.482 598.505, 325.804 598.698, 263.502 598.191 M391.519 600.385 C349.401 600.436, 307.477 599.916, 263.821 599.344 M264.254 600.342 C267.585 596.434, 268.269 595.582, 274.393 589.421 M264.793 598.937 C266.653 597.565, 269.187 594.787, 273.941 590.9 M272.776 591.475 C269.637 586.966, 266.218 584.751, 265.11 582.6 M273.133 591.012 C270.684 586.939, 267.922 584.726, 264.347 581.569 M264.681 582.171 C295.378 583.462, 321.213 582.255, 391.359 581.594 M264.486 581.562 C296.134 582.601, 326.529 581.855, 391.897 581.392" stroke="rgb(102, 56, 0)" stroke-width="1" fill="none"/></g><g clip-path="url(#ygc106_0_0)"><g class="text-container" transform="matrix(1, 0, 0, 1, 335.625, 583.5)"><text font-family="'Arial'" font-size="12px" font-style="normal" font-weight="normal" text-decoration="none" text-anchor="middle" fill="rgb(0, 0, 0)" fill-opacity="1" dy="0.9166666666666666em" transform="" data-sketchy-clip-path="ygc106_0_0" style="font-style: normal;font-weight: 400;font-size: 12px;font-family: Comic Sans MS, cursive;" stroke="none" stroke-width="1px" dominant-baseline="auto">Tengo el conocimiento</text></g></g><g clip-path="url(#ygc106_0_0)"><path d="M644.848 712.817 L645.896 704.171 L652.603 700.366 L819.201 702.125 L824.993 708.543 L826.511 710.384 L825.169 790.909 L820.426 796.259 L815.54 798.874 L650.442 797.104 L644.016 792.563 L644.97 788.534 L644.204 712.787" stroke="none" stroke-width="0" fill="rgb(0, 150, 255)"/><path d="M644.5 711.75 M644.5 711.75 C646.416 708.171, 647.945 700.41, 654.5 701.75 M654.5 701.75 C693.278 701.574, 737.053 702.837, 815.5 701.75 M815.5 701.75 C820.77 703.381, 825.929 705.745, 825.5 711.75 M825.5 711.75 C825.09 734.043, 823.753 753.931, 825.5 787.75 M825.5 787.75 C823.615 795.063, 822.994 795.816, 815.5 797.75 M815.5 797.75 C770.694 798.192, 724.842 796.76, 654.5 797.75 M654.5 797.75 C650.532 798.128, 643.332 791.593, 644.5 787.75 M644.5 787.75 C642.053 763.212, 644.434 739.56, 644.5 711.75" stroke="rgb(102, 56, 0)" stroke-width="1" fill="none"/></g><g clip-path="url(#ygc106_0_0)"><g class="text-container" transform="matrix(1, 0, 0, 1, 735, 742.75)"><text font-family="'Arial'" font-size="12px" font-style="normal" font-weight="normal" text-decoration="none" text-anchor="middle" fill="rgb(0, 0, 0)" fill-opacity="1" dy="0.9166666666666666em" transform="" data-sketchy-clip-path="ygc106_0_0" style="font-style: normal;font-weight: 400;font-size: 12px;font-family: Comic Sans MS, cursive;" stroke="none" stroke-width="1px" dominant-baseline="auto">Cliente</text></g></g><g clip-path="url(#ygc106_0_0)"><path d="M660.13 728.174 L662.932 719.869 L669.236 718.431 L834.229 716.532 L840.856 724.687 L842.321 727.678 L839.394 805.453 L835.447 812.3 L828.521 812.228 L667.259 810.254 L661.624 805.326 L658.427 800.955 L661.245 727.052" stroke="none" stroke-width="0" fill="rgb(0, 150, 255)"/><path d="M659.5 726.75 M659.5 726.75 C659.09 722.651, 663.311 717.8, 669.5 716.75 M669.5 716.75 C710.437 713.857, 747.63 713.377, 830.5 716.75 M830.5 716.75 C836.597 718.706, 838.966 722.664, 840.5 726.75 M840.5 726.75 C838.667 751.072, 841.592 776.232, 840.5 802.75 M840.5 802.75 C840.303 806.694, 836.585 811.166, 830.5 812.75 M830.5 812.75 C791.435 811.79, 752.784 811.548, 669.5 812.75 M669.5 812.75 C663.566 814.511, 661.435 807.983, 659.5 802.75 M659.5 802.75 C660.139 778.699, 660.869 756.145, 659.5 726.75" stroke="rgb(102, 56, 0)" stroke-width="1" fill="none"/></g><g clip-path="url(#ygc106_0_0)"><g class="text-container" transform="matrix(1, 0, 0, 1, 750, 757.75)"><text font-family="'Arial'" font-size="12px" font-style="normal" font-weight="normal" text-decoration="none" text-anchor="middle" fill="rgb(0, 0, 0)" fill-opacity="1" dy="0.9166666666666666em" transform="" data-sketchy-clip-path="ygc106_0_0" style="font-style: normal;font-weight: 400;font-size: 12px;font-family: Comic Sans MS, cursive;" stroke="none" stroke-width="1px" dominant-baseline="auto">Cliente</text></g></g><g clip-path="url(#ygc106_0_0)"><path d="M674.244 743.623 L677.635 732.751 L686.112 730.36 L848.493 731.542 L854.62 739.149 L856.113 743.345 L854.682 819.646 L847.745 826.439 L846.257 826.598 L679.015 827.762 L673.71 821.256 L674.266 818.853 L673.278 743.417" stroke="none" stroke-width="0" fill="rgb(0, 150, 255)"/><path d="M674.5 741.75 M674.5 741.75 C675.486 736.241, 679.623 733.17, 684.5 731.75 M674.5 741.75 C676.541 734.439, 679.593 731.355, 684.5 731.75 M684.5 731.75 C742.445 730.963, 804.021 732.289, 845.5 731.75 M684.5 731.75 C731.375 729.451, 778.695 729.882, 845.5 731.75 M845.5 731.75 C852.027 732.765, 854.128 735.937, 855.5 741.75 M845.5 731.75 C852.7 731.462, 855.18 734.221, 855.5 741.75 M855.5 741.75 C854.783 763.272, 855.467 788.05, 855.5 817.75 M855.5 741.75 C855.663 758.741, 855.937 773.867, 855.5 817.75 M855.5 817.75 C854.861 822.731, 850.334 827.913, 845.5 827.75 M855.5 817.75 C857.486 821.648, 851.592 827.291, 845.5 827.75 M845.5 827.75 C783.846 826.528, 719.674 826.955, 684.5 827.75 M845.5 827.75 C797.241 828.194, 749.781 829.403, 684.5 827.75 M684.5 827.75 C677.854 825.82, 674.453 824.184, 674.5 817.75 M684.5 827.75 C677.6 828.122, 675.019 822.885, 674.5 817.75 M674.5 817.75 C675.069 790.202, 675.818 758.926, 674.5 741.75 M674.5 817.75 C673.496 799.708, 673.848 780.779, 674.5 741.75" stroke="rgb(102, 56, 0)" stroke-width="1" fill="none"/></g><g clip-path="url(#ygc106_0_0)"><g class="text-container" transform="matrix(1, 0, 0, 1, 765, 772.75)"><text font-family="'Arial'" font-size="12px" font-style="normal" font-weight="normal" text-decoration="none" text-anchor="middle" fill="rgb(0, 0, 0)" fill-opacity="1" dy="0.9166666666666666em" transform="" data-sketchy-clip-path="ygc106_0_0" style="font-style: normal;font-weight: 400;font-size: 12px;font-family: Comic Sans MS, cursive;" stroke="none" stroke-width="1px" dominant-baseline="auto">Cliente</text></g></g><g clip-path="url(#ygc106_0_0)"><path d="M690.002 756.978 L691.934 751.678 L700.738 745.589 L862.854 746.337 L869.038 753.47 L868.907 756.904 L869.959 834.68 L864.293 842.792 L859.497 841.174 L697.361 843.14 L691.678 836.89 L688.58 831.682 L690.761 755.972" stroke="none" stroke-width="0" fill="rgb(0, 150, 255)"/><path d="M689.5 756.75 M689.5 756.75 C688.517 751.201, 695.546 745.678, 699.5 746.75 M689.5 756.75 C691.299 753.142, 695.206 745.893, 699.5 746.75 M699.5 746.75 C755.52 749.347, 814.16 747.294, 860.5 746.75 M699.5 746.75 C758.005 746.04, 816.621 746.041, 860.5 746.75 M860.5 746.75 C866.551 745.949, 868.583 751.211, 870.5 756.75 M860.5 746.75 C866.4 747.354, 868.23 750.654, 870.5 756.75 M870.5 756.75 C869.241 784.024, 871.502 810.853, 870.5 832.75 M870.5 756.75 C870.428 775.684, 869.881 796.285, 870.5 832.75 M870.5 832.75 C870.406 838.102, 866.662 842.248, 860.5 842.75 M870.5 832.75 C868.673 840.379, 867.145 842.863, 860.5 842.75 M860.5 842.75 C798.482 842.943, 738.333 842.215, 699.5 842.75 M860.5 842.75 C802.587 843.445, 745.382 844.846, 699.5 842.75 M699.5 842.75 C693.073 841.166, 689.628 838.958, 689.5 832.75 M699.5 842.75 C693.521 843.432, 691.4 837.056, 689.5 832.75 M689.5 832.75 C689.616 806.187, 688.079 783.122, 689.5 756.75 M689.5 832.75 C689.78 813.342, 690.354 794.924, 689.5 756.75" stroke="rgb(102, 56, 0)" stroke-width="1" fill="none"/></g><g clip-path="url(#ygc106_0_0)"><g class="text-container" transform="matrix(1, 0, 0, 1, 780, 787.75)"><text font-family="'Arial'" font-size="12px" font-style="normal" font-weight="normal" text-decoration="none" text-anchor="middle" fill="rgb(0, 0, 0)" fill-opacity="1" dy="0.9166666666666666em" transform="" data-sketchy-clip-path="ygc106_0_0" style="font-style: normal;font-weight: 400;font-size: 12px;font-family: Comic Sans MS, cursive;" stroke="none" stroke-width="1px" dominant-baseline="auto">Cliente</text></g></g><g clip-path="url(#ygc106_0_0)"><path d="M703.738 771.449 L705.948 764.729 L715.666 760.37 L879.878 763.901 L885.825 767.168 L884.295 770.624 L884.639 850.133 L880.005 857.633 L876.491 858.319 L708.743 856.096 L704.731 852.106 L702.836 847.153 L705.146 770.735" stroke="none" stroke-width="0" fill="rgb(0, 150, 255)"/><path d="M704.5 771.75 M704.5 771.75 C702.615 767.216, 707.123 760.382, 714.5 761.75 M714.5 761.75 C761.396 763.105, 808.755 761.187, 875.5 761.75 M875.5 761.75 C883.01 763.728, 884.834 764.918, 885.5 771.75 M885.5 771.75 C886.806 787.332, 884.765 803.593, 885.5 847.75 M885.5 847.75 C883.958 855.023, 879.973 859.584, 875.5 857.75 M875.5 857.75 C817.472 857.875, 757.633 857.257, 714.5 857.75 M714.5 857.75 C708.286 856.688, 702.607 851.584, 704.5 847.75 M704.5 847.75 C705.618 825.824, 705.777 806.555, 704.5 771.75" stroke="rgb(102, 56, 0)" stroke-width="1" fill="none"/></g><g clip-path="url(#ygc106_0_0)"><g class="text-container" transform="matrix(1, 0, 0, 1, 795, 802.75)"><text font-family="'Arial'" font-size="12px" font-style="normal" font-weight="normal" text-decoration="none" text-anchor="middle" fill="rgb(0, 0, 0)" fill-opacity="1" dy="0.9166666666666666em" transform="" data-sketchy-clip-path="ygc106_0_0" style="font-style: normal;font-weight: 400;font-size: 12px;font-family: Comic Sans MS, cursive;" stroke="none" stroke-width="1px" dominant-baseline="auto">Cliente</text></g></g><g clip-path="url(#ygc106_0_0)"><path d="M720.98 788.647 L721.575 779.029 L728.576 775.371 L894.938 776.517 L898.387 784.827 L902.127 787.155 L898.3 865.887 L896.268 873.601 L890.604 871.893 L725.269 871.392 L721.35 864.791 L721.354 860.803 L720.644 787.488" stroke="none" stroke-width="0" fill="rgb(0, 150, 255)"/><path d="M719.5 786.75 M719.5 786.75 C717.617 780.201, 723.933 775.579, 729.5 776.75 M729.5 776.75 C783.305 775.704, 832.998 774.447, 890.5 776.75 M890.5 776.75 C897.418 776.265, 901.445 780.478, 900.5 786.75 M900.5 786.75 C902.157 811.899, 902.503 835.662, 900.5 862.75 M900.5 862.75 C898.817 866.277, 896.294 873.92, 890.5 872.75 M890.5 872.75 C842.694 872.675, 795.253 872.15, 729.5 872.75 M729.5 872.75 C722.242 872.95, 720.085 867.786, 719.5 862.75 M719.5 862.75 C720.485 835.515, 719.528 807.611, 719.5 786.75" stroke="rgb(102, 56, 0)" stroke-width="1" fill="none"/></g><g clip-path="url(#ygc106_0_0)"><g class="text-container" transform="matrix(1, 0, 0, 1, 810, 817.75)"><text font-family="'Arial'" font-size="12px" font-style="normal" font-weight="normal" text-decoration="none" text-anchor="middle" fill="rgb(0, 0, 0)" fill-opacity="1" dy="0.9166666666666666em" transform="" data-sketchy-clip-path="ygc106_0_0" style="font-style: normal;font-weight: 400;font-size: 12px;font-family: Comic Sans MS, cursive;" stroke="none" stroke-width="1px" dominant-baseline="auto">Cliente</text></g></g><g clip-path="url(#ygc106_0_0)"><path d="M732.804 802.624 L736.484 792.699 L745.961 790.488 L910.206 791.475 L914.993 796.181 L914.924 801.543 L915.491 882.427 L910.466 888.679 L905.027 888.798 L742.094 886.622 L736.925 880.646 L734.16 877.145 L732.911 801.005" stroke="none" stroke-width="0" fill="rgb(0, 150, 255)"/><path d="M734.5 801.75 M734.5 801.75 C734.413 796.077, 737.716 790.606, 744.5 791.75 M744.5 791.75 C795.451 794.185, 844.638 792.419, 905.5 791.75 M905.5 791.75 C910.46 789.881, 914.555 794.488, 915.5 801.75 M915.5 801.75 C913.758 818.878, 915.379 838.839, 915.5 877.75 M915.5 877.75 C915.728 884.152, 911.592 889.083, 905.5 887.75 M905.5 887.75 C851.769 885.869, 798.077 885.945, 744.5 887.75 M744.5 887.75 C737.976 889.114, 733.079 884.231, 734.5 877.75 M734.5 877.75 C733.251 861.128, 736.952 839.757, 734.5 801.75" stroke="rgb(102, 56, 0)" stroke-width="1" fill="none"/></g><g clip-path="url(#ygc106_0_0)"><g class="text-container" transform="matrix(1, 0, 0, 1, 825, 832.75)"><text font-family="'Arial'" font-size="12px" font-style="normal" font-weight="normal" text-decoration="none" text-anchor="middle" fill="rgb(0, 0, 0)" fill-opacity="1" dy="0.9166666666666666em" transform="" data-sketchy-clip-path="ygc106_0_0" style="font-style: normal;font-weight: 400;font-size: 12px;font-family: Comic Sans MS, cursive;" stroke="none" stroke-width="1px" dominant-baseline="auto">Cliente</text></g></g><g clip-path="url(#ygc106_0_0)"><path d="M359.952 737.807 L361.302 732.805 L367.483 727.208 L531.505 731.429 L536.944 734.511 L538.451 738.443 L537.84 820.193 L532.371 824.508 L529.628 826.334 L363.376 824.773 L358.981 817.736 L356.511 814.592 L356.543 737.607" stroke="none" stroke-width="0" fill="rgb(255, 0, 210)"/><path d="M358.5 738.75 M358.5 738.75 C357.671 732.929, 364.242 730.072, 368.5 728.75 M368.5 728.75 C416.103 729.1, 460.873 725.372, 529.5 728.75 M529.5 728.75 C534.03 727.003, 537.82 735.051, 539.5 738.75 M539.5 738.75 C541.312 753.952, 537.722 773.951, 539.5 814.75 M539.5 814.75 C540.804 821.616, 534.369 826.503, 529.5 824.75 M529.5 824.75 C490.403 824.939, 452.175 825.614, 368.5 824.75 M368.5 824.75 C361.076 824.46, 357.262 820.896, 358.5 814.75 M358.5 814.75 C359.631 792.142, 356.972 769.419, 358.5 738.75" stroke="rgb(102, 56, 0)" stroke-width="1" fill="none"/></g><g clip-path="url(#ygc106_0_0)"><g class="text-container" transform="matrix(1, 0, 0, 1, 449, 769.75)"><text font-family="'Arial'" font-size="12px" font-style="normal" font-weight="normal" text-decoration="none" text-anchor="middle" fill="rgb(0, 0, 0)" fill-opacity="1" dy="0.9166666666666666em" transform="" data-sketchy-clip-path="ygc106_0_0" style="font-style: normal;font-weight: 400;font-size: 12px;font-family: Comic Sans MS, cursive;" stroke="none" stroke-width="1px" dominant-baseline="auto">Consultoría</text></g></g><g clip-path="url(#ygc106_0_0)"><path d="M373.626 755.033 L377.327 746.561 L384.694 742.762 L548.898 744.485 L551.789 750.408 L553.185 755.238 L553.921 832.406 L547.494 839.618 L544.691 839.703 L379.607 837.653 L374.347 833.694 L371.549 829.766 L375.119 754.372" stroke="none" stroke-width="0" fill="rgb(255, 0, 210)"/><path d="M373.5 753.75 M373.5 753.75 C372.417 749.576, 378.526 744.608, 383.5 743.75 M383.5 743.75 C428.806 741.243, 471.738 743.763, 544.5 743.75 M544.5 743.75 C551.085 743.305, 552.777 748.005, 554.5 753.75 M554.5 753.75 C555.631 774.438, 554.593 799.707, 554.5 829.75 M554.5 829.75 C556.46 835.156, 550.731 839.853, 544.5 839.75 M544.5 839.75 C488.554 841.882, 436.294 839.492, 383.5 839.75 M383.5 839.75 C379.142 837.935, 372.265 833.904, 373.5 829.75 M373.5 829.75 C374.109 799.932, 374.418 769.414, 373.5 753.75" stroke="rgb(102, 56, 0)" stroke-width="1" fill="none"/></g><g clip-path="url(#ygc106_0_0)"><g class="text-container" transform="matrix(1, 0, 0, 1, 464, 784.75)"><text font-family="'Arial'" font-size="12px" font-style="normal" font-weight="normal" text-decoration="none" text-anchor="middle" fill="rgb(0, 0, 0)" fill-opacity="1" dy="0.9166666666666666em" transform="" data-sketchy-clip-path="ygc106_0_0" style="font-style: normal;font-weight: 400;font-size: 12px;font-family: Comic Sans MS, cursive;" stroke="none" stroke-width="1px" dominant-baseline="auto">Consultoría</text></g></g><g clip-path="url(#ygc106_0_0)"><path d="M388.566 767.272 L391.641 762.779 L400.348 759.677 L563.561 759.006 L570.439 763.222 L567.982 768.229 L570.414 847.024 L562.841 854.27 L561.458 856.641 L392.928 852.137 L388.343 848.099 L389.206 842.76 L388.726 769.755" stroke="none" stroke-width="0" fill="rgb(255, 0, 210)"/><path d="M388.5 768.75 M388.5 768.75 C389.319 764.632, 391.892 759.882, 398.5 758.75 M398.5 758.75 C441.718 758.43, 485.055 757.748, 559.5 758.75 M559.5 758.75 C564.501 758.585, 567.677 761.49, 569.5 768.75 M569.5 768.75 C570.662 797.14, 570.391 826.6, 569.5 844.75 M569.5 844.75 C571.402 848.997, 566.986 852.892, 559.5 854.75 M559.5 854.75 C519.013 855.861, 483.279 854.409, 398.5 854.75 M398.5 854.75 C392.954 854.436, 388.601 851.582, 388.5 844.75 M388.5 844.75 C390.228 825.877, 389.103 804.525, 388.5 768.75" stroke="rgb(102, 56, 0)" stroke-width="1" fill="none"/></g><g clip-path="url(#ygc106_0_0)"><g class="text-container" transform="matrix(1, 0, 0, 1, 479, 799.75)"><text font-family="'Arial'" font-size="12px" font-style="normal" font-weight="normal" text-decoration="none" text-anchor="middle" fill="rgb(0, 0, 0)" fill-opacity="1" dy="0.9166666666666666em" transform="" data-sketchy-clip-path="ygc106_0_0" style="font-style: normal;font-weight: 400;font-size: 12px;font-family: Comic Sans MS, cursive;" stroke="none" stroke-width="1px" dominant-baseline="auto">Consultoría</text></g></g><g clip-path="url(#ygc106_0_0)"><path d="M402.829 782.906 L405.957 774.977 L413.571 772.004 L578.505 772.657 L583.077 780.51 L585.309 784.052 L584.445 864.914 L577.526 867.009 L574.78 868.346 L410.589 867.821 L402.756 862.097 L404.875 860.157 L402.929 783.656" stroke="none" stroke-width="0" fill="rgb(255, 0, 210)"/><path d="M403.5 783.75 M403.5 783.75 C401.577 778.318, 409.826 774.592, 413.5 773.75 M413.5 773.75 C476.526 774.932, 542.562 775.693, 574.5 773.75 M574.5 773.75 C578.731 774.651, 583.566 776.46, 584.5 783.75 M584.5 783.75 C584.909 806.26, 583.942 825.1, 584.5 859.75 M584.5 859.75 C584.666 866.738, 580.755 869.216, 574.5 869.75 M574.5 869.75 C530.483 869.144, 489.717 871.586, 413.5 869.75 M413.5 869.75 C409.253 870.105, 401.818 864.994, 403.5 859.75 M403.5 859.75 C402.966 839.966, 404.734 822.191, 403.5 783.75" stroke="rgb(102, 56, 0)" stroke-width="1" fill="none"/></g><g clip-path="url(#ygc106_0_0)"><g class="text-container" transform="matrix(1, 0, 0, 1, 494, 814.75)"><text font-family="'Arial'" font-size="12px" font-style="normal" font-weight="normal" text-decoration="none" text-anchor="middle" fill="rgb(0, 0, 0)" fill-opacity="1" dy="0.9166666666666666em" transform="" data-sketchy-clip-path="ygc106_0_0" style="font-style: normal;font-weight: 400;font-size: 12px;font-family: Comic Sans MS, cursive;" stroke="none" stroke-width="1px" dominant-baseline="auto">Consultoría</text></g></g><g clip-path="url(#ygc106_0_0)"><path d="M666.271 810.869 L666.973 806.475 L681.884 822.02 L665.369 835.574 L666.717 832.402 L538.359 830.787 L548.292 823.649 L539.465 811.761 L666.583 810.908" stroke="none" stroke-width="0" fill="rgb(210, 0, 255)"/><path d="M668.303 813.065 M666.167 812.199 C666.84 811.662, 666.577 809.225, 666.54 806.588 M666.139 805.376 C671.243 810.36, 676.7 814.496, 680.286 822.061 M681.177 820.056 C675.507 824.792, 673.183 830.247, 668.157 837.624 M665.93 836.865 C666.436 833.973, 666.593 832.124, 665.927 831.112 M667.342 831.011 C632.802 832.004, 602.845 833.02, 538.496 829.063 M538.881 830.366 C542.248 827.68, 546.116 824.239, 549.227 822.145 M547.562 821.012 C546.936 818.97, 543.541 816.765, 540.564 811.903 M538.785 812.103 C578.206 815.772, 617.474 812.213, 665.965 811.233" stroke="rgb(102, 56, 0)" stroke-width="1" fill="none"/></g><g clip-path="url(#ygc106_0_0)"><g class="text-container" transform="matrix(1, 0, 0, 1, 610.5, 814.75)"><text font-family="'Arial'" font-size="12px" font-style="normal" font-weight="normal" text-decoration="none" text-anchor="middle" fill="rgb(0, 0, 0)" fill-opacity="1" dy="0.9166666666666666em" transform="" data-sketchy-clip-path="ygc106_0_0" style="font-style: normal;font-weight: 400;font-size: 12px;font-family: Comic Sans MS, cursive;" stroke="none" stroke-width="1px" dominant-baseline="auto">Ofrezco Soporte</text></g></g></svg>