<svg data-v-c30b0e7e="" class="sketchy-canvas visible" xmlns="http://www.w3.org/2000/svg" xmlns:xlink="http://www.w3.org/1999/xlink" width="1006" height="780" stroke-linecap="round"><defs><clipPath id="ygc111_0_0"><rect x="25" y="25" width="955.5" height="730" transform="matrix(1, 0, 0, 1, 0, 0)"/></clipPath></defs><g clip-path="url(#ygc111_0_0)"><path d="M630.307 31.89 L976.685 29.707 L977.482 751.007 L631.266 748.367" stroke="none" stroke-width="0" fill="rgb(236, 236, 193)"/><path d="M629.529 30.758 C719.828 29.898, 809.173 28.403, 974.235 32.118 M629.682 31.417 C707.321 32.349, 784.789 32.361, 976.048 31.387 M976.137 31.863 C977.527 241.491, 978.113 450.192, 976.158 750.173 M975.617 31.584 C973.245 208.182, 973.336 384.179, 975.344 750.272 M974.462 750.018 C889.011 752.872, 803.677 752.464, 629.817 750.509 M975.106 750.155 C848.838 751.509, 723.106 750.569, 629.709 750.207 M629.363 749.211 C628.325 485.701, 629.024 221.625, 630.191 31.064 M629.133 749.907 C630.006 471.715, 629.982 192.725, 629.683 31.292" stroke="rgb(102, 56, 0)" stroke-width="1" fill="none"/></g><g clip-path="url(#ygc111_0_0)"><g class="text-container" transform="matrix(1, 0, 0, 1, 802.5, 31.4375)"><text font-family="'Arial'" font-size="26px" font-style="normal" font-weight="bold" text-decoration="none" text-anchor="middle" fill="rgb(0, 0, 0)" fill-opacity="1" dy="0.9230769230769231em" transform="" data-sketchy-clip-path="ygc111_0_0" style="font-style: normal;font-weight: 700;font-size: 26px;font-family: Comic Sans MS, cursive;" stroke="none" stroke-width="1px" dominant-baseline="auto">Beneficio</text></g></g><g clip-path="url(#ygc111_0_0)"><path d="M30.256 31.827 L613.563 29.617 L612.719 749.46 L29.779 748.773" stroke="none" stroke-width="0" fill="rgb(236, 236, 193)"/><path d="M30.272 30.619 C155.934 30.024, 282.191 30.608, 613.17 29.217 M30.381 30.324 C154.911 31.919, 279.719 32.262, 613.249 29.879 M613.761 30.604 C614.923 221.702, 615.302 412.246, 612.622 749.333 M613.077 29.965 C610.392 229.725, 610.434 428.839, 612.921 749.937 M612.427 749.222 C441.961 749.903, 271.332 749.48, 29.845 750.75 M613.2 749.81 C409.948 748.989, 207.419 748.802, 30.296 749.971 M30.617 750.063 C31.465 471.698, 31.534 192.949, 29.83 30.693 M30.19 749.957 C28.542 520.319, 28.856 290.506, 30.085 29.7" stroke="rgb(102, 56, 0)" stroke-width="1" fill="none"/></g><g clip-path="url(#ygc111_0_0)"><g class="text-container" transform="matrix(1, 0, 0, 1, 321.5, 30)"><text font-family="'Arial'" font-size="26px" font-style="normal" font-weight="bold" text-decoration="none" text-anchor="middle" fill="rgb(0, 0, 0)" fill-opacity="1" dy="0.9230769230769231em" transform="" data-sketchy-clip-path="ygc111_0_0" style="font-style: normal;font-weight: 700;font-size: 26px;font-family: Comic Sans MS, cursive;" stroke="none" stroke-width="1px" dominant-baseline="auto">Coste Compartido</text></g></g><g clip-path="url(#ygc111_0_0)"><path d="M142.148 605.477 L145.71 599.105 L153.059 596.387 L317.955 594.478 L322.049 601.543 L321.111 605.192 L321.073 685.035 L317.154 688.237 L313.225 689.007 L146.993 690.034 L142.331 682.526 L141.896 682.229 L141.629 604.985" stroke="none" stroke-width="0" fill="rgba(255, 0, 160, 0.28)"/><path d="M142 604.438 M142 604.438 C140.098 596.993, 148.164 594.61, 152 594.438 M152 594.438 C209.822 594.463, 269.635 596.011, 313 594.438 M313 594.438 C318.329 592.667, 323.891 597.127, 323 604.438 M323 604.438 C324.373 626.591, 324.772 647.267, 323 680.438 M323 680.438 C321.898 685.276, 317.547 690.61, 313 690.438 M313 690.438 C266.611 691.435, 220.429 693.289, 152 690.438 M152 690.438 C146.24 690.756, 140.143 685.947, 142 680.438 M142 680.438 C141.97 659.723, 141.969 643.519, 142 604.438" stroke="rgb(102, 56, 0)" stroke-width="1" fill="none"/></g><g clip-path="url(#ygc111_0_0)"><g class="text-container" transform="matrix(1, 0, 0, 1, 232.5, 635.438)"><text font-family="'Arial'" font-size="12px" font-style="normal" font-weight="normal" text-decoration="none" text-anchor="middle" fill="rgb(0, 0, 0)" fill-opacity="1" dy="0.9166666666666666em" transform="" data-sketchy-clip-path="ygc111_0_0" style="font-style: normal;font-weight: 400;font-size: 12px;font-family: Comic Sans MS, cursive;" stroke="none" stroke-width="1px" dominant-baseline="auto">Desarrollo Software</text></g></g><g clip-path="url(#ygc111_0_0)"><path d="M143.693 161.889 L144.103 152.558 L150.672 151.172 L316.758 153.62 L324.092 159.482 L322.51 161.288 L323.936 242.613 L317.529 247.513 L314.258 246.01 L148.195 246.382 L144.226 243.062 L143.601 237.398 L142.17 161.235" stroke="none" stroke-width="0" fill="rgba(255, 0, 160, 0.28)"/><path d="M142 161.438 M142 161.438 C142.56 157.633, 144.689 150.608, 152 151.438 M152 151.438 C186.069 152.933, 218.34 152.234, 313 151.438 M313 151.438 C316.758 152.444, 321.745 156.833, 323 161.438 M323 161.438 C322.323 190.384, 322.199 217.119, 323 237.438 M323 237.438 C322.919 243.758, 318.874 247.68, 313 247.438 M313 247.438 C258.563 246.673, 203.069 244.989, 152 247.438 M152 247.438 C147.201 246.396, 141.783 243.274, 142 237.438 M142 237.438 C143.21 216.303, 143.026 199.018, 142 161.438" stroke="rgb(102, 56, 0)" stroke-width="1" fill="none"/></g><g clip-path="url(#ygc111_0_0)"><g class="text-container" transform="matrix(1, 0, 0, 1, 232.5, 192.438)"><text font-family="'Arial'" font-size="12px" font-style="normal" font-weight="normal" text-decoration="none" text-anchor="middle" fill="rgb(0, 0, 0)" fill-opacity="1" dy="0.9166666666666666em" transform="" data-sketchy-clip-path="ygc111_0_0" style="font-style: normal;font-weight: 400;font-size: 12px;font-family: Comic Sans MS, cursive;" stroke="none" stroke-width="1px" dominant-baseline="auto">Desarrollo Software</text></g></g><g clip-path="url(#ygc111_0_0)"><path d="M628.472 78.096 L633.69 70.111 L638.986 66.812 L806.005 67.274 L811.654 75.499 L811.594 79.808 L808.443 156.545 L804.493 163.606 L801.146 164.409 L635.299 162.614 L630.697 159.404 L627.659 152.449 L628.936 76.834" stroke="none" stroke-width="0" fill="rgb(0, 150, 255)"/><path d="M629.5 78.438 M629.5 78.438 C628.062 72.369, 633.294 69.124, 639.5 68.438 M639.5 68.438 C680.997 66.286, 721.224 65.524, 800.5 68.438 M800.5 68.438 C805.73 68.153, 810.696 73.257, 810.5 78.438 M810.5 78.438 C812.105 100.858, 810.081 126.588, 810.5 154.438 M810.5 154.438 C810.04 161.388, 804.21 163.655, 800.5 164.438 M800.5 164.438 C762.426 162.949, 724.656 165.014, 639.5 164.438 M639.5 164.438 C635.87 165.585, 630.109 158.805, 629.5 154.438 M629.5 154.438 C628.437 136.737, 631.301 120.565, 629.5 78.438" stroke="rgb(102, 56, 0)" stroke-width="1" fill="none"/></g><g clip-path="url(#ygc111_0_0)"><g class="text-container" transform="matrix(1, 0, 0, 1, 720, 109.438)"><text font-family="'Arial'" font-size="12px" font-style="normal" font-weight="normal" text-decoration="none" text-anchor="middle" fill="rgb(0, 0, 0)" fill-opacity="1" dy="0.9166666666666666em" transform="" data-sketchy-clip-path="ygc111_0_0" style="font-style: normal;font-weight: 400;font-size: 12px;font-family: Comic Sans MS, cursive;" stroke="none" stroke-width="1px" dominant-baseline="auto">Cliente</text></g></g><g clip-path="url(#ygc111_0_0)"><path d="M646.181 94.257 L645.585 85.344 L654.342 82.963 L818.762 83.906 L825.52 87.858 L824.214 94.911 L823.309 174.792 L820.828 177.895 L816.322 179.079 L649.106 179.78 L643.712 172.66 L644.216 169.668 L645.908 94.388" stroke="none" stroke-width="0" fill="rgb(0, 150, 255)"/><path d="M644.5 93.438 M644.5 93.438 C644.024 88.775, 648.294 84.188, 654.5 83.438 M654.5 83.438 C712.774 84.175, 774.043 84.52, 815.5 83.438 M815.5 83.438 C820.7 81.894, 824.744 87.315, 825.5 93.438 M825.5 93.438 C825.304 115.545, 825.692 136.082, 825.5 169.438 M825.5 169.438 C826.932 174.138, 820.027 179.507, 815.5 179.438 M815.5 179.438 C762.814 180.163, 711.561 182.135, 654.5 179.438 M654.5 179.438 C647.12 180.574, 646.432 175.337, 644.5 169.438 M644.5 169.438 C645.913 148.505, 646.559 124.067, 644.5 93.438" stroke="rgb(102, 56, 0)" stroke-width="1" fill="none"/></g><g clip-path="url(#ygc111_0_0)"><g class="text-container" transform="matrix(1, 0, 0, 1, 735, 124.438)"><text font-family="'Arial'" font-size="12px" font-style="normal" font-weight="normal" text-decoration="none" text-anchor="middle" fill="rgb(0, 0, 0)" fill-opacity="1" dy="0.9166666666666666em" transform="" data-sketchy-clip-path="ygc111_0_0" style="font-style: normal;font-weight: 400;font-size: 12px;font-family: Comic Sans MS, cursive;" stroke="none" stroke-width="1px" dominant-baseline="auto">Cliente</text></g></g><g clip-path="url(#ygc111_0_0)"><path d="M660.16 108.93 L662.517 101.621 L669.951 98.684 L835.231 98.22 L838.409 106.236 L840.482 109.547 L838.384 189.769 L832.479 192.322 L830.862 193.192 L664.229 193.871 L659.786 190.068 L658.863 184.812 L658.28 108.554" stroke="none" stroke-width="0" fill="rgb(0, 150, 255)"/><path d="M659.5 108.438 M659.5 108.438 C658.697 103.43, 665.974 98.766, 669.5 98.438 M669.5 98.438 C711.649 100.834, 756.977 97.68, 830.5 98.438 M830.5 98.438 C835.074 97.36, 841.584 104.156, 840.5 108.438 M840.5 108.438 C841.656 135.664, 839.45 165.156, 840.5 184.438 M840.5 184.438 C840.721 189.611, 835.952 194.341, 830.5 194.438 M830.5 194.438 C767.632 193.753, 709.17 195.403, 669.5 194.438 M669.5 194.438 C665.875 193.687, 660.638 190.816, 659.5 184.438 M659.5 184.438 C658.42 168.395, 659.905 148.117, 659.5 108.438" stroke="rgb(102, 56, 0)" stroke-width="1" fill="none"/></g><g clip-path="url(#ygc111_0_0)"><g class="text-container" transform="matrix(1, 0, 0, 1, 750, 139.438)"><text font-family="'Arial'" font-size="12px" font-style="normal" font-weight="normal" text-decoration="none" text-anchor="middle" fill="rgb(0, 0, 0)" fill-opacity="1" dy="0.9166666666666666em" transform="" data-sketchy-clip-path="ygc111_0_0" style="font-style: normal;font-weight: 400;font-size: 12px;font-family: Comic Sans MS, cursive;" stroke="none" stroke-width="1px" dominant-baseline="auto">Cliente</text></g></g><g clip-path="url(#ygc111_0_0)"><path d="M673.602 123.504 L679.207 116.064 L685.084 114.098 L850.995 112.315 L853.081 119.049 L854.097 124.858 L854.606 203.711 L848.74 207.253 L843.707 209.73 L681.182 209.253 L674.508 203.103 L675.278 199.071 L675.721 121.46" stroke="none" stroke-width="0" fill="rgb(0, 150, 255)"/><path d="M674.5 123.438 M674.5 123.438 C675.836 117.949, 678.131 114.329, 684.5 113.438 M684.5 113.438 C732.563 112.43, 785.069 112.003, 845.5 113.438 M845.5 113.438 C849.162 114.257, 854.19 118.928, 855.5 123.438 M855.5 123.438 C856.552 152.452, 854.564 181.696, 855.5 199.438 M855.5 199.438 C854.182 205.191, 851.821 209.469, 845.5 209.438 M845.5 209.438 C804.989 212.03, 761.209 209.065, 684.5 209.438 M684.5 209.438 C678.991 208.598, 675.454 203.139, 674.5 199.438 M674.5 199.438 C674.161 177, 675.744 151.749, 674.5 123.438" stroke="rgb(102, 56, 0)" stroke-width="1" fill="none"/></g><g clip-path="url(#ygc111_0_0)"><g class="text-container" transform="matrix(1, 0, 0, 1, 765, 154.438)"><text font-family="'Arial'" font-size="12px" font-style="normal" font-weight="normal" text-decoration="none" text-anchor="middle" fill="rgb(0, 0, 0)" fill-opacity="1" dy="0.9166666666666666em" transform="" data-sketchy-clip-path="ygc111_0_0" style="font-style: normal;font-weight: 400;font-size: 12px;font-family: Comic Sans MS, cursive;" stroke="none" stroke-width="1px" dominant-baseline="auto">Cliente</text></g></g><g clip-path="url(#ygc111_0_0)"><path d="M689.054 140.35 L690.798 133.137 L698.384 128.576 L866.392 130.406 L868.171 134.816 L872.117 139.004 L868.764 217.237 L863.669 224.884 L862.328 223.474 L694.381 223.135 L689.407 217.028 L691.126 214.159 L688.475 140.295" stroke="none" stroke-width="0" fill="rgb(0, 150, 255)"/><path d="M689.5 138.438 M689.5 138.438 C688.51 133.158, 694.658 130.068, 699.5 128.438 M699.5 128.438 C752.044 128.006, 804.293 127.108, 860.5 128.438 M860.5 128.438 C866.112 127.923, 868.832 133.072, 870.5 138.438 M870.5 138.438 C870.291 168.112, 870.755 197.686, 870.5 214.438 M870.5 214.438 C872.14 221.663, 866.912 223.212, 860.5 224.438 M860.5 224.438 C805.078 223.92, 749.124 224.417, 699.5 224.438 M699.5 224.438 C694.877 225.8, 689.245 221.949, 689.5 214.438 M689.5 214.438 C688.917 194.649, 690.725 176.833, 689.5 138.438" stroke="rgb(102, 56, 0)" stroke-width="1" fill="none"/></g><g clip-path="url(#ygc111_0_0)"><g class="text-container" transform="matrix(1, 0, 0, 1, 780, 169.438)"><text font-family="'Arial'" font-size="12px" font-style="normal" font-weight="normal" text-decoration="none" text-anchor="middle" fill="rgb(0, 0, 0)" fill-opacity="1" dy="0.9166666666666666em" transform="" data-sketchy-clip-path="ygc111_0_0" style="font-style: normal;font-weight: 400;font-size: 12px;font-family: Comic Sans MS, cursive;" stroke="none" stroke-width="1px" dominant-baseline="auto">Cliente</text></g></g><g clip-path="url(#ygc111_0_0)"><path d="M703.5 154.858 L707.242 146.057 L713.304 143.752 L880.935 144.844 L884.709 147.695 L886.978 154.18 L883.74 235.258 L880.494 236.681 L875.051 241.054 L710.709 239.92 L703.652 231.585 L705.704 230.469 L703.507 154.268" stroke="none" stroke-width="0" fill="rgb(0, 150, 255)"/><path d="M704.5 153.438 M704.5 153.438 C704.847 148.534, 707.394 142.165, 714.5 143.438 M714.5 143.438 C759.648 142.573, 804.119 144.444, 875.5 143.438 M875.5 143.438 C879.193 142.629, 885.149 147.992, 885.5 153.438 M885.5 153.438 C885.241 177.917, 886.122 202.725, 885.5 229.438 M885.5 229.438 C885.093 235.884, 882.959 237.442, 875.5 239.438 M875.5 239.438 C820.949 238.643, 767.074 236.749, 714.5 239.438 M714.5 239.438 C709.762 238.553, 704.877 235.334, 704.5 229.438 M704.5 229.438 C703.787 202.087, 704.568 175.736, 704.5 153.438" stroke="rgb(102, 56, 0)" stroke-width="1" fill="none"/></g><g clip-path="url(#ygc111_0_0)"><g class="text-container" transform="matrix(1, 0, 0, 1, 795, 184.438)"><text font-family="'Arial'" font-size="12px" font-style="normal" font-weight="normal" text-decoration="none" text-anchor="middle" fill="rgb(0, 0, 0)" fill-opacity="1" dy="0.9166666666666666em" transform="" data-sketchy-clip-path="ygc111_0_0" style="font-style: normal;font-weight: 400;font-size: 12px;font-family: Comic Sans MS, cursive;" stroke="none" stroke-width="1px" dominant-baseline="auto">Cliente</text></g></g><g clip-path="url(#ygc111_0_0)"><path d="M719.576 167.732 L722.322 161.228 L730.889 158.301 L894.93 160.524 L900.294 165.904 L899.561 168.019 L898.006 246.916 L894.777 253.786 L889.184 254.155 L726.609 251.801 L721.368 247.444 L720.88 245.938 L720.706 170.334" stroke="none" stroke-width="0" fill="rgb(0, 150, 255)"/><path d="M719.5 168.438 M719.5 168.438 C717.553 161.023, 723.435 158.232, 729.5 158.438 M729.5 158.438 C765.963 157.193, 804.785 160.305, 890.5 158.438 M890.5 158.438 C897.585 157.659, 898.879 163.431, 900.5 168.438 M900.5 168.438 C898.411 193.212, 898.116 216.116, 900.5 244.438 M900.5 244.438 C902.423 248.393, 895.425 252.475, 890.5 254.438 M890.5 254.438 C828.822 254.759, 765.886 255.64, 729.5 254.438 M729.5 254.438 C722.261 253.062, 720.952 251.388, 719.5 244.438 M719.5 244.438 C720.782 213.552, 720.276 184.716, 719.5 168.438" stroke="rgb(102, 56, 0)" stroke-width="1" fill="none"/></g><g clip-path="url(#ygc111_0_0)"><g class="text-container" transform="matrix(1, 0, 0, 1, 810, 199.438)"><text font-family="'Arial'" font-size="12px" font-style="normal" font-weight="normal" text-decoration="none" text-anchor="middle" fill="rgb(0, 0, 0)" fill-opacity="1" dy="0.9166666666666666em" transform="" data-sketchy-clip-path="ygc111_0_0" style="font-style: normal;font-weight: 400;font-size: 12px;font-family: Comic Sans MS, cursive;" stroke="none" stroke-width="1px" dominant-baseline="auto">Cliente</text></g></g><g clip-path="url(#ygc111_0_0)"><path d="M682.341 189.453 L680.468 186.403 L695.277 198.832 L681.295 216.349 L681.706 207.201 L301.109 209.142 L309.838 199.87 L301.862 191.243 L682.769 190.946" stroke="none" stroke-width="0" fill="rgb(210, 0, 255)"/><path d="M682.756 191.12 M681.067 189.88 C681.701 188.844, 681.167 186.367, 681.603 184.708 M681.987 186.249 C685.577 189.03, 692.104 195.882, 698.197 199.351 M695.651 200.761 C693.629 203.436, 690.824 206.517, 680.047 214.906 M681.672 214.55 C681.106 212.781, 681.76 210.612, 681.583 208.592 M681.25 207.343 C534.51 210.111, 387.234 211.642, 303.409 209.526 M302.443 207.338 C305.562 206.027, 306.822 202.629, 310.229 199.604 M310.826 200.081 C310.096 197.905, 308.067 195.146, 303.528 190.016 M302.973 189.428 C421.251 191.056, 539.92 190.258, 681.758 191.256" stroke="rgb(102, 56, 0)" stroke-width="1" fill="none"/></g><g clip-path="url(#ygc111_0_0)"><g class="text-container" transform="matrix(1, 0, 0, 1, 499.5, 192.438)"><text font-family="'Arial'" font-size="12px" font-style="normal" font-weight="normal" text-decoration="none" text-anchor="middle" fill="rgb(0, 0, 0)" fill-opacity="1" dy="0.9166666666666666em" transform="" data-sketchy-clip-path="ygc111_0_0" style="font-style: normal;font-weight: 400;font-size: 12px;font-family: Comic Sans MS, cursive;" stroke="none" stroke-width="1px" dominant-baseline="auto">Vendo</text></g></g><g clip-path="url(#ygc111_0_0)"><path d="M141.835 390.971 L145.866 382.513 L150.638 379.788 L318.243 382.336 L322.569 385.45 L321.567 391.242 L320.518 468.735 L316.189 476.267 L314.129 478.426 L149.807 476.227 L144.316 471.179 L142.886 466.51 L142.814 389.419" stroke="none" stroke-width="0" fill="rgba(255, 0, 160, 0.28)"/><path d="M142 390.438 M142 390.438 C142.411 383.995, 146.942 381.321, 152 380.438 M142 390.438 C143.346 384.758, 145.656 381.41, 152 380.438 M152 380.438 C197.057 381.132, 243.081 382.147, 313 380.438 M152 380.438 C211.383 381.301, 272.194 382.136, 313 380.438 M313 380.438 C317.997 381.967, 323.177 383.139, 323 390.438 M313 380.438 C318.166 378.377, 323.853 385.372, 323 390.438 M323 390.438 C322.961 410.604, 323.388 432.553, 323 466.438 M323 390.438 C322.415 413.074, 322.674 436.054, 323 466.438 M323 466.438 C322.703 471.564, 318.811 476.127, 313 476.438 M323 466.438 C325.104 471.151, 317.428 478.485, 313 476.438 M313 476.438 C274.265 476.056, 234.873 476.696, 152 476.438 M313 476.438 C248.78 477.008, 184.819 476.298, 152 476.438 M152 476.438 C145.823 478.431, 140.932 473.377, 142 466.438 M152 476.438 C144.37 475.371, 143.069 471.076, 142 466.438 M142 466.438 C143.648 440.073, 143.43 412.438, 142 390.438 M142 466.438 C141.552 435.211, 141.029 406.243, 142 390.438" stroke="rgb(102, 56, 0)" stroke-width="1" fill="none"/></g><g clip-path="url(#ygc111_0_0)"><g class="text-container" transform="matrix(1, 0, 0, 1, 232.5, 421.438)"><text font-family="'Arial'" font-size="12px" font-style="normal" font-weight="normal" text-decoration="none" text-anchor="middle" fill="rgb(0, 0, 0)" fill-opacity="1" dy="0.9166666666666666em" transform="" data-sketchy-clip-path="ygc111_0_0" style="font-style: normal;font-weight: 400;font-size: 12px;font-family: Comic Sans MS, cursive;" stroke="none" stroke-width="1px" dominant-baseline="auto">Desarrollo Software</text></g></g><g clip-path="url(#ygc111_0_0)"><path d="M630.686 309.169 L634.015 299.83 L637.795 298.678 L805.228 297.967 L811.476 305.068 L809.187 308.051 L808.752 387.062 L803.189 394.521 L799.551 394.622 L633.865 392.037 L631.054 388.427 L631.291 382.549 L629.124 306.045" stroke="none" stroke-width="0" fill="rgb(0, 150, 255)"/><path d="M629.5 307.438 M629.5 307.438 C631.459 301.929, 634.466 295.616, 639.5 297.438 M629.5 307.438 C627.411 301.881, 634.296 297.679, 639.5 297.438 M639.5 297.438 C686.719 297.083, 736.704 294.901, 800.5 297.438 M639.5 297.438 C678.313 298.703, 715.301 299.272, 800.5 297.438 M800.5 297.438 C806.779 296.664, 810.017 302.12, 810.5 307.438 M800.5 297.438 C805.062 296.31, 811.28 300.208, 810.5 307.438 M810.5 307.438 C809.902 329.147, 812.163 348.062, 810.5 383.438 M810.5 307.438 C809.632 325.143, 810.285 341.485, 810.5 383.438 M810.5 383.438 C809.943 387.306, 806.451 393.297, 800.5 393.438 M810.5 383.438 C809.043 386.956, 804.766 394.909, 800.5 393.438 M800.5 393.438 C754.2 393.322, 703.297 392.013, 639.5 393.438 M800.5 393.438 C766.28 392.485, 730.376 391.263, 639.5 393.438 M639.5 393.438 C631.996 394.624, 628.014 387.381, 629.5 383.438 M639.5 393.438 C634.076 394.428, 628.601 387.967, 629.5 383.438 M629.5 383.438 C628.144 358.548, 630.873 333.462, 629.5 307.438 M629.5 383.438 C630.36 361.731, 629.826 341.166, 629.5 307.438" stroke="rgb(102, 56, 0)" stroke-width="1" fill="none"/></g><g clip-path="url(#ygc111_0_0)"><g class="text-container" transform="matrix(1, 0, 0, 1, 720, 338.438)"><text font-family="'Arial'" font-size="12px" font-style="normal" font-weight="normal" text-decoration="none" text-anchor="middle" fill="rgb(0, 0, 0)" fill-opacity="1" dy="0.9166666666666666em" transform="" data-sketchy-clip-path="ygc111_0_0" style="font-style: normal;font-weight: 400;font-size: 12px;font-family: Comic Sans MS, cursive;" stroke="none" stroke-width="1px" dominant-baseline="auto">Cliente</text></g></g><g clip-path="url(#ygc111_0_0)"><path d="M645.69 320.616 L648.593 316.163 L652.527 313.072 L819.819 313.669 L825.485 319.092 L826.014 321.068 L826.401 400.472 L819.494 407.554 L816.929 410.208 L650.243 407.63 L643.494 401.742 L645.78 396.781 L644.272 320.662" stroke="none" stroke-width="0" fill="rgb(0, 150, 255)"/><path d="M644.5 322.438 M644.5 322.438 C643.318 315.355, 650.676 312.78, 654.5 312.438 M654.5 312.438 C690.925 313.346, 726.869 313.551, 815.5 312.438 M815.5 312.438 C821.657 313.301, 824.15 318.324, 825.5 322.438 M825.5 322.438 C826.443 353.082, 824.737 381.153, 825.5 398.438 M825.5 398.438 C825.695 403.695, 820.659 408.484, 815.5 408.438 M815.5 408.438 C752.083 410.194, 691.869 409.801, 654.5 408.438 M654.5 408.438 C650.155 409.297, 645.027 405.595, 644.5 398.438 M644.5 398.438 C645.043 373.673, 646.859 343.782, 644.5 322.438" stroke="rgb(102, 56, 0)" stroke-width="1" fill="none"/></g><g clip-path="url(#ygc111_0_0)"><g class="text-container" transform="matrix(1, 0, 0, 1, 735, 353.438)"><text font-family="'Arial'" font-size="12px" font-style="normal" font-weight="normal" text-decoration="none" text-anchor="middle" fill="rgb(0, 0, 0)" fill-opacity="1" dy="0.9166666666666666em" transform="" data-sketchy-clip-path="ygc111_0_0" style="font-style: normal;font-weight: 400;font-size: 12px;font-family: Comic Sans MS, cursive;" stroke="none" stroke-width="1px" dominant-baseline="auto">Cliente</text></g></g><g clip-path="url(#ygc111_0_0)"><path d="M658.531 337.992 L664.101 329.663 L668.872 326.031 L832.995 329.845 L840.167 332.121 L840.498 338.935 L838.453 418.966 L832.968 423.068 L831.937 424.432 L665.453 422.586 L661.914 415.993 L660.18 414.51 L657.835 337.128" stroke="none" stroke-width="0" fill="rgb(0, 150, 255)"/><path d="M659.5 337.438 M659.5 337.438 C660.229 333.338, 664.81 328.668, 669.5 327.438 M669.5 327.438 C707.034 329.211, 746.662 328.382, 830.5 327.438 M830.5 327.438 C834.133 326.475, 840.729 330.453, 840.5 337.438 M840.5 337.438 C841.962 357.779, 842.827 377.362, 840.5 413.438 M840.5 413.438 C841.654 417.101, 835.793 425.245, 830.5 423.438 M830.5 423.438 C797.977 426.613, 762.197 425.937, 669.5 423.438 M669.5 423.438 C663.535 423.015, 657.69 420.607, 659.5 413.438 M659.5 413.438 C658.435 387.627, 660.373 360.554, 659.5 337.438" stroke="rgb(102, 56, 0)" stroke-width="1" fill="none"/></g><g clip-path="url(#ygc111_0_0)"><g class="text-container" transform="matrix(1, 0, 0, 1, 750, 368.438)"><text font-family="'Arial'" font-size="12px" font-style="normal" font-weight="normal" text-decoration="none" text-anchor="middle" fill="rgb(0, 0, 0)" fill-opacity="1" dy="0.9166666666666666em" transform="" data-sketchy-clip-path="ygc111_0_0" style="font-style: normal;font-weight: 400;font-size: 12px;font-family: Comic Sans MS, cursive;" stroke="none" stroke-width="1px" dominant-baseline="auto">Cliente</text></g></g><g clip-path="url(#ygc111_0_0)"><path d="M674.786 352.254 L677.539 343.645 L685.11 341.95 L848.282 344.644 L854.567 349.571 L855.945 350.624 L854.77 432.24 L851.194 438.648 L845.644 439.592 L679.003 436.663 L676.316 431.44 L672.635 427.097 L673.084 351.518" stroke="none" stroke-width="0" fill="rgb(0, 150, 255)"/><path d="M674.5 352.438 M674.5 352.438 C673.886 345.981, 678.299 343.012, 684.5 342.438 M684.5 342.438 C730.518 340.756, 780.753 342.015, 845.5 342.438 M845.5 342.438 C850.788 341.889, 856.518 347.686, 855.5 352.438 M855.5 352.438 C855.182 368.68, 853.339 381.584, 855.5 428.438 M855.5 428.438 C855.497 433.337, 850.259 437.617, 845.5 438.438 M845.5 438.438 C782.725 436.053, 716.526 437.702, 684.5 438.438 M684.5 438.438 C679.785 438.009, 673.566 434.425, 674.5 428.438 M674.5 428.438 C676.401 411.8, 673.1 393.568, 674.5 352.438" stroke="rgb(102, 56, 0)" stroke-width="1" fill="none"/></g><g clip-path="url(#ygc111_0_0)"><g class="text-container" transform="matrix(1, 0, 0, 1, 765, 383.438)"><text font-family="'Arial'" font-size="12px" font-style="normal" font-weight="normal" text-decoration="none" text-anchor="middle" fill="rgb(0, 0, 0)" fill-opacity="1" dy="0.9166666666666666em" transform="" data-sketchy-clip-path="ygc111_0_0" style="font-style: normal;font-weight: 400;font-size: 12px;font-family: Comic Sans MS, cursive;" stroke="none" stroke-width="1px" dominant-baseline="auto">Cliente</text></g></g><g clip-path="url(#ygc111_0_0)"><path d="M690.35 367.907 L692.533 361.15 L698.4 356.973 L865.693 358.427 L869.478 361.837 L871.073 366.389 L868.382 445.506 L863.657 454.439 L860.128 451.593 L695.171 451.16 L690.264 445.894 L688.374 442.398 L691.496 367.365" stroke="none" stroke-width="0" fill="rgb(0, 150, 255)"/><path d="M689.5 367.438 M689.5 367.438 C690.299 361.718, 694.721 359.173, 699.5 357.438 M689.5 367.438 C689.785 362.234, 692.706 356.198, 699.5 357.438 M699.5 357.438 C748.101 356.935, 795.596 358.148, 860.5 357.438 M699.5 357.438 C736.271 358.604, 770.953 357.977, 860.5 357.438 M860.5 357.438 C867.095 355.902, 868.721 362.993, 870.5 367.438 M860.5 357.438 C868.101 359.317, 870.347 361.489, 870.5 367.438 M870.5 367.438 C871.701 388.754, 869.775 409.326, 870.5 443.438 M870.5 367.438 C870.306 390.551, 870.757 413.378, 870.5 443.438 M870.5 443.438 C871.457 448.116, 867.056 453.665, 860.5 453.438 M870.5 443.438 C869.53 447.729, 868.041 452.543, 860.5 453.438 M860.5 453.438 C801.377 453.073, 737.983 452.824, 699.5 453.438 M860.5 453.438 C802.382 452.985, 744.377 453.775, 699.5 453.438 M699.5 453.438 C692.043 453.404, 690.108 447.015, 689.5 443.438 M699.5 453.438 C695.093 455.079, 687.921 447.656, 689.5 443.438 M689.5 443.438 C689.701 426.058, 687.241 403.384, 689.5 367.438 M689.5 443.438 C689.772 427.562, 689.295 412.232, 689.5 367.438" stroke="rgb(102, 56, 0)" stroke-width="1" fill="none"/></g><g clip-path="url(#ygc111_0_0)"><g class="text-container" transform="matrix(1, 0, 0, 1, 780, 398.438)"><text font-family="'Arial'" font-size="12px" font-style="normal" font-weight="normal" text-decoration="none" text-anchor="middle" fill="rgb(0, 0, 0)" fill-opacity="1" dy="0.9166666666666666em" transform="" data-sketchy-clip-path="ygc111_0_0" style="font-style: normal;font-weight: 400;font-size: 12px;font-family: Comic Sans MS, cursive;" stroke="none" stroke-width="1px" dominant-baseline="auto">Cliente</text></g></g><g clip-path="url(#ygc111_0_0)"><path d="M703.734 383.032 L706.768 376.194 L714.658 374.26 L878.295 372.45 L884.535 380.517 L885.908 383.863 L886.152 463.534 L878.458 466.307 L873.604 468.271 L709.536 466.99 L703.478 463.126 L703.65 459.942 L704.768 381.353" stroke="none" stroke-width="0" fill="rgb(0, 150, 255)"/><path d="M704.5 382.438 M704.5 382.438 C706.012 378.289, 708.86 371.57, 714.5 372.438 M714.5 372.438 C770.921 370.492, 823.791 371.669, 875.5 372.438 M875.5 372.438 C881.278 373.819, 885.66 377.887, 885.5 382.438 M885.5 382.438 C883.681 403.902, 885.657 422.239, 885.5 458.438 M885.5 458.438 C884.829 465.047, 879.786 467.806, 875.5 468.438 M875.5 468.438 C813.352 465.541, 751.65 465.944, 714.5 468.438 M714.5 468.438 C707.678 467.371, 703.984 465.608, 704.5 458.438 M704.5 458.438 C705.625 428.591, 704.764 399.166, 704.5 382.438" stroke="rgb(102, 56, 0)" stroke-width="1" fill="none"/></g><g clip-path="url(#ygc111_0_0)"><g class="text-container" transform="matrix(1, 0, 0, 1, 795, 413.438)"><text font-family="'Arial'" font-size="12px" font-style="normal" font-weight="normal" text-decoration="none" text-anchor="middle" fill="rgb(0, 0, 0)" fill-opacity="1" dy="0.9166666666666666em" transform="" data-sketchy-clip-path="ygc111_0_0" style="font-style: normal;font-weight: 400;font-size: 12px;font-family: Comic Sans MS, cursive;" stroke="none" stroke-width="1px" dominant-baseline="auto">Cliente</text></g></g><g clip-path="url(#ygc111_0_0)"><path d="M720.667 397.126 L723.546 391.687 L731.165 388.898 L895.348 386.593 L900.396 395.204 L898.656 399.289 L899.053 475.501 L894.695 481.173 L889.947 482.415 L726.361 484.484 L719.015 477.21 L718.68 474.727 L717.766 399.131" stroke="none" stroke-width="0" fill="rgb(0, 150, 255)"/><path d="M719.5 397.438 M719.5 397.438 C720.634 392.899, 724.941 389.379, 729.5 387.438 M729.5 387.438 C779.271 387.425, 833.882 388.295, 890.5 387.438 M890.5 387.438 C896.267 386.138, 900.727 391.662, 900.5 397.438 M900.5 397.438 C900.215 425.574, 900.243 454.436, 900.5 473.438 M900.5 473.438 C900.532 478.71, 895.904 484.696, 890.5 483.438 M890.5 483.438 C832.052 482.477, 769.227 482.903, 729.5 483.438 M729.5 483.438 C723.956 482.521, 718.334 479.828, 719.5 473.438 M719.5 473.438 C718.09 457.291, 720.674 440.294, 719.5 397.438" stroke="rgb(102, 56, 0)" stroke-width="1" fill="none"/></g><g clip-path="url(#ygc111_0_0)"><g class="text-container" transform="matrix(1, 0, 0, 1, 810, 428.438)"><text font-family="'Arial'" font-size="12px" font-style="normal" font-weight="normal" text-decoration="none" text-anchor="middle" fill="rgb(0, 0, 0)" fill-opacity="1" dy="0.9166666666666666em" transform="" data-sketchy-clip-path="ygc111_0_0" style="font-style: normal;font-weight: 400;font-size: 12px;font-family: Comic Sans MS, cursive;" stroke="none" stroke-width="1px" dominant-baseline="auto">Cliente</text></g></g><g clip-path="url(#ygc111_0_0)"><path d="M341.566 374.655 L347.851 367.851 L354.443 367.335 L517.503 365.721 L524.45 371.393 L525.089 375.842 L524.981 453.954 L517.739 462.499 L513.225 462.822 L351.263 460.248 L342.498 457.32 L341.536 450.344 L343.708 376.808" stroke="none" stroke-width="0" fill="rgb(255, 0, 210)"/><path d="M343.5 375.438 M343.5 375.438 C344.809 369.811, 348.115 364.823, 353.5 365.438 M343.5 375.438 C345.178 368.595, 346.218 364.502, 353.5 365.438 M353.5 365.438 C394.974 367.71, 433.644 366.913, 514.5 365.438 M353.5 365.438 C390.454 363.482, 425.503 363.588, 514.5 365.438 M514.5 365.438 C520.153 366.391, 523.811 371.757, 524.5 375.438 M514.5 365.438 C522.152 363.459, 523.787 368.652, 524.5 375.438 M524.5 375.438 C524.547 403.129, 525.347 427.487, 524.5 451.438 M524.5 375.438 C524.222 398.914, 525.295 422.914, 524.5 451.438 M524.5 451.438 C523.866 456.604, 519.054 460.73, 514.5 461.438 M524.5 451.438 C523.785 455.833, 519.557 461.988, 514.5 461.438 M514.5 461.438 C458.056 461.483, 397.718 459.494, 353.5 461.438 M514.5 461.438 C455.018 461.836, 397.406 461.556, 353.5 461.438 M353.5 461.438 C347.216 462.53, 343.14 457.549, 343.5 451.438 M353.5 461.438 C347.369 460.912, 341.44 458.943, 343.5 451.438 M343.5 451.438 C342.639 434.621, 341.52 417.758, 343.5 375.438 M343.5 451.438 C344.455 421.464, 343.352 391.38, 343.5 375.438" stroke="rgb(102, 56, 0)" stroke-width="1" fill="none"/></g><g clip-path="url(#ygc111_0_0)"><g class="text-container" transform="matrix(1, 0, 0, 1, 434, 406.438)"><text font-family="'Arial'" font-size="12px" font-style="normal" font-weight="normal" text-decoration="none" text-anchor="middle" fill="rgb(0, 0, 0)" fill-opacity="1" dy="0.9166666666666666em" transform="" data-sketchy-clip-path="ygc111_0_0" style="font-style: normal;font-weight: 400;font-size: 12px;font-family: Comic Sans MS, cursive;" stroke="none" stroke-width="1px" dominant-baseline="auto">Consultoría</text></g></g><g clip-path="url(#ygc111_0_0)"><path d="M358.035 390.238 L360.523 382.301 L369.183 380.034 L534.705 380.655 L538.326 385.22 L538.75 390.844 L540.311 468.758 L535.186 474.55 L528.624 475.74 L362.887 475.959 L358.969 470.683 L357.112 467.453 L359.036 391.068" stroke="none" stroke-width="0" fill="rgb(255, 0, 210)"/><path d="M358.5 390.438 M358.5 390.438 C357.138 383.161, 362.339 380.212, 368.5 380.438 M368.5 380.438 C410.943 379.926, 451.772 378.505, 529.5 380.438 M529.5 380.438 C533.731 380.64, 540.676 383.244, 539.5 390.438 M539.5 390.438 C539.201 410.543, 539.301 430.061, 539.5 466.438 M539.5 466.438 C537.948 472.767, 536.953 475.71, 529.5 476.438 M529.5 476.438 C487.818 474.668, 448.64 476.402, 368.5 476.438 M368.5 476.438 C362.134 476.9, 359.555 471.72, 358.5 466.438 M358.5 466.438 C358.812 444.499, 359.223 419.572, 358.5 390.438" stroke="rgb(102, 56, 0)" stroke-width="1" fill="none"/></g><g clip-path="url(#ygc111_0_0)"><g class="text-container" transform="matrix(1, 0, 0, 1, 449, 421.438)"><text font-family="'Arial'" font-size="12px" font-style="normal" font-weight="normal" text-decoration="none" text-anchor="middle" fill="rgb(0, 0, 0)" fill-opacity="1" dy="0.9166666666666666em" transform="" data-sketchy-clip-path="ygc111_0_0" style="font-style: normal;font-weight: 400;font-size: 12px;font-family: Comic Sans MS, cursive;" stroke="none" stroke-width="1px" dominant-baseline="auto">Consultoría</text></g></g><g clip-path="url(#ygc111_0_0)"><path d="M373.871 405.177 L376.827 398.708 L385.024 394.069 L547.32 395.741 L552.383 403.004 L554.458 406.74 L555.646 486.17 L546.763 490.424 L544.435 490.981 L377.771 490.35 L375.852 486.303 L375.358 483.275 L374.088 406.438" stroke="none" stroke-width="0" fill="rgb(255, 0, 210)"/><path d="M373.5 405.438 M373.5 405.438 C374.618 401.723, 377.772 394.752, 383.5 395.438 M383.5 395.438 C429.201 394.272, 473.576 393.827, 544.5 395.438 M544.5 395.438 C551.463 397.317, 554.885 398.587, 554.5 405.438 M554.5 405.438 C554.109 421.928, 555.795 439.05, 554.5 481.438 M554.5 481.438 C553.004 486.592, 550.383 491.639, 544.5 491.438 M544.5 491.438 C510.792 490.488, 480.346 490.304, 383.5 491.438 M383.5 491.438 C377.89 489.909, 371.54 487.253, 373.5 481.438 M373.5 481.438 C372.696 458.298, 372.566 438.561, 373.5 405.438" stroke="rgb(102, 56, 0)" stroke-width="1" fill="none"/></g><g clip-path="url(#ygc111_0_0)"><g class="text-container" transform="matrix(1, 0, 0, 1, 464, 436.438)"><text font-family="'Arial'" font-size="12px" font-style="normal" font-weight="normal" text-decoration="none" text-anchor="middle" fill="rgb(0, 0, 0)" fill-opacity="1" dy="0.9166666666666666em" transform="" data-sketchy-clip-path="ygc111_0_0" style="font-style: normal;font-weight: 400;font-size: 12px;font-family: Comic Sans MS, cursive;" stroke="none" stroke-width="1px" dominant-baseline="auto">Consultoría</text></g></g><g clip-path="url(#ygc111_0_0)"><path d="M387.627 419.47 L390.497 413.092 L399.244 409.622 L564.805 409.702 L567.335 415.688 L568.339 419.805 L568.451 501.368 L563.548 507.349 L560.278 507.273 L393.854 505.643 L390.882 502.277 L387.749 495.847 L387.726 418.702" stroke="none" stroke-width="0" fill="rgb(255, 0, 210)"/><path d="M388.5 420.438 M388.5 420.438 C386.6 414.715, 393.696 408.922, 398.5 410.438 M398.5 410.438 C459.415 411.315, 522.603 409.769, 559.5 410.438 M559.5 410.438 C563.279 412.024, 570.501 415.742, 569.5 420.438 M569.5 420.438 C570.488 435.897, 571.406 455.687, 569.5 496.438 M569.5 496.438 C568.019 502.041, 563.111 505.61, 559.5 506.438 M559.5 506.438 C512.274 508.019, 464.453 506.052, 398.5 506.438 M398.5 506.438 C393.305 506.242, 387.574 501.073, 388.5 496.438 M388.5 496.438 C386.492 477.23, 388.621 456.231, 388.5 420.438" stroke="rgb(102, 56, 0)" stroke-width="1" fill="none"/></g><g clip-path="url(#ygc111_0_0)"><g class="text-container" transform="matrix(1, 0, 0, 1, 479, 451.438)"><text font-family="'Arial'" font-size="12px" font-style="normal" font-weight="normal" text-decoration="none" text-anchor="middle" fill="rgb(0, 0, 0)" fill-opacity="1" dy="0.9166666666666666em" transform="" data-sketchy-clip-path="ygc111_0_0" style="font-style: normal;font-weight: 400;font-size: 12px;font-family: Comic Sans MS, cursive;" stroke="none" stroke-width="1px" dominant-baseline="auto">Consultoría</text></g></g><g clip-path="url(#ygc111_0_0)"><path d="M652.551 449.31 L649.707 441.497 L667.614 457.424 L651.809 471.788 L652.046 466.857 L524.797 467.01 L532.127 458.256 L524.903 450.639 L652.375 448.333" stroke="none" stroke-width="0" fill="rgb(210, 0, 255)"/><path d="M652.452 448.071 M651.457 449.679 C651.322 447.696, 651.924 445.927, 651.573 443.785 M652.104 443.979 C656.53 445.927, 658.207 448.753, 666.787 459.62 M665.824 458.136 C661.963 463.954, 659.842 468.286, 652.822 472.366 M652.098 473.953 C651.244 472.707, 651.349 471.391, 651.189 466.978 M652.561 466.721 C618.121 467.824, 581.864 468.517, 526.147 468.455 M524.032 466.998 C527.264 464.586, 529.973 462.19, 533.12 458.606 M533.447 457.424 C531.664 457.38, 528.121 454.308, 523.491 448.212 M525.491 449.142 C559.947 450.821, 597.647 450.313, 651.54 450.267" stroke="rgb(102, 56, 0)" stroke-width="1" fill="none"/></g><g clip-path="url(#ygc111_0_0)"><g class="text-container" transform="matrix(1, 0, 0, 1, 595.5, 451.438)"><text font-family="'Arial'" font-size="12px" font-style="normal" font-weight="normal" text-decoration="none" text-anchor="middle" fill="rgb(0, 0, 0)" fill-opacity="1" dy="0.9166666666666666em" transform="" data-sketchy-clip-path="ygc111_0_0" style="font-style: normal;font-weight: 400;font-size: 12px;font-family: Comic Sans MS, cursive;" stroke="none" stroke-width="1px" dominant-baseline="auto">Ofrezco Soporte</text></g></g><g clip-path="url(#ygc111_0_0)"><path d="M389.873 446.636 L393.224 440.496 L407.781 455.644 L390.546 471.553 L390.256 465.947 L264.334 466.067 L274.638 455.078 L263.387 446.619 L393.563 448.295" stroke="none" stroke-width="0" fill="rgb(210, 0, 255)"/><path d="M390.632 446.076 M392.191 447.264 C391.237 445.856, 392.174 444.188, 391.619 441.416 M391.069 440.616 C395.258 445.763, 397.299 448.855, 408.222 455.567 M408.237 454.708 C402.172 458.998, 398.415 465.6, 391.583 470.715 M392.031 471.15 C391.11 469.449, 391.23 467.378, 391.536 465.064 M393.176 465.311 C359.685 466.536, 331.213 466.65, 264.491 465.095 M264.565 465.716 C268.7 463.011, 272.004 458.775, 273.758 456.283 M274.623 455.979 C270.163 452.597, 268.397 449.883, 264.63 446.292 M262.7 446.07 C312.621 449.24, 361.293 448.791, 391.937 449.182" stroke="rgb(102, 56, 0)" stroke-width="1" fill="none"/></g><g clip-path="url(#ygc111_0_0)"><g class="text-container" transform="matrix(1, 0, 0, 1, 335.625, 449.188)"><text font-family="'Arial'" font-size="12px" font-style="normal" font-weight="normal" text-decoration="none" text-anchor="middle" fill="rgb(0, 0, 0)" fill-opacity="1" dy="0.9166666666666666em" transform="" data-sketchy-clip-path="ygc111_0_0" style="font-style: normal;font-weight: 400;font-size: 12px;font-family: Comic Sans MS, cursive;" stroke="none" stroke-width="1px" dominant-baseline="auto">Tengo el conocimiento</text></g></g><g clip-path="url(#ygc111_0_0)"><path d="M646.438 536.586 L647.334 527.935 L653.757 527.564 L817.987 526.361 L825.738 534.014 L826.098 536.296 L823.03 614.898 L821.107 622.438 L814.457 623.81 L652.417 620.203 L646.722 616.149 L645.527 611.821 L643.2 535.166" stroke="none" stroke-width="0" fill="rgb(0, 150, 255)"/><path d="M644.5 536.438 M644.5 536.438 C643.236 532.144, 647.092 525.947, 654.5 526.438 M654.5 526.438 C690.293 526.136, 723.862 526.485, 815.5 526.438 M815.5 526.438 C821.278 528.263, 824.456 529.915, 825.5 536.438 M825.5 536.438 C824.244 552.844, 825.093 571.817, 825.5 612.438 M825.5 612.438 C824.694 617.7, 820.006 621.278, 815.5 622.438 M815.5 622.438 C753.622 619.504, 695.587 619.728, 654.5 622.438 M654.5 622.438 C647.248 623, 644.067 619.221, 644.5 612.438 M644.5 612.438 C644.884 596.337, 643.297 578.418, 644.5 536.438" stroke="rgb(102, 56, 0)" stroke-width="1" fill="none"/></g><g clip-path="url(#ygc111_0_0)"><g class="text-container" transform="matrix(1, 0, 0, 1, 735, 567.438)"><text font-family="'Arial'" font-size="12px" font-style="normal" font-weight="normal" text-decoration="none" text-anchor="middle" fill="rgb(0, 0, 0)" fill-opacity="1" dy="0.9166666666666666em" transform="" data-sketchy-clip-path="ygc111_0_0" style="font-style: normal;font-weight: 400;font-size: 12px;font-family: Comic Sans MS, cursive;" stroke="none" stroke-width="1px" dominant-baseline="auto">Cliente</text></g></g><g clip-path="url(#ygc111_0_0)"><path d="M658.337 552.905 L662.564 544.754 L668.518 542.707 L834.844 544.032 L840.574 545.861 L838.925 550.307 L839.386 632.867 L834.401 634.895 L828.834 637.875 L663.698 638.294 L661.125 630.961 L660.884 626.733 L659.077 549.479" stroke="none" stroke-width="0" fill="rgb(0, 150, 255)"/><path d="M659.5 551.438 M659.5 551.438 C661.313 544.251, 665.461 542.353, 669.5 541.438 M659.5 551.438 C657.265 546.921, 663.118 542.527, 669.5 541.438 M669.5 541.438 C728.049 542.383, 784.893 542.804, 830.5 541.438 M669.5 541.438 C719.992 542.643, 771.633 541.373, 830.5 541.438 M830.5 541.438 C835.573 542.149, 839.598 544.188, 840.5 551.438 M830.5 541.438 C833.772 542.531, 840.88 545.541, 840.5 551.438 M840.5 551.438 C839.116 566.853, 840.275 583.369, 840.5 627.438 M840.5 551.438 C840.952 568.508, 840.9 586.668, 840.5 627.438 M840.5 627.438 C840.681 634.259, 837.569 637.991, 830.5 637.438 M840.5 627.438 C841.641 633.613, 836.07 638.989, 830.5 637.438 M830.5 637.438 C788.834 638.764, 750.435 638.403, 669.5 637.438 M830.5 637.438 C766.52 638.467, 702.61 638.472, 669.5 637.438 M669.5 637.438 C665.938 638.04, 660.875 634.135, 659.5 627.438 M669.5 637.438 C663.408 637.103, 660.844 634.438, 659.5 627.438 M659.5 627.438 C660.606 613.823, 660.933 596.767, 659.5 551.438 M659.5 627.438 C659.389 602.94, 659.716 577.189, 659.5 551.438" stroke="rgb(102, 56, 0)" stroke-width="1" fill="none"/></g><g clip-path="url(#ygc111_0_0)"><g class="text-container" transform="matrix(1, 0, 0, 1, 750, 582.438)"><text font-family="'Arial'" font-size="12px" font-style="normal" font-weight="normal" text-decoration="none" text-anchor="middle" fill="rgb(0, 0, 0)" fill-opacity="1" dy="0.9166666666666666em" transform="" data-sketchy-clip-path="ygc111_0_0" style="font-style: normal;font-weight: 400;font-size: 12px;font-family: Comic Sans MS, cursive;" stroke="none" stroke-width="1px" dominant-baseline="auto">Cliente</text></g></g><g clip-path="url(#ygc111_0_0)"><path d="M673.162 566.746 L679.027 560.694 L684.06 557.375 L850.852 555.357 L855.546 562.295 L856.864 568.068 L853.003 648.08 L848.353 651.622 L846.774 653.077 L679.078 652.9 L676.548 646.319 L673.256 640.607 L675.72 564.568" stroke="none" stroke-width="0" fill="rgb(0, 150, 255)"/><path d="M674.5 566.438 M674.5 566.438 C674.527 561.284, 678.019 556.137, 684.5 556.438 M674.5 566.438 C676.769 560.918, 681.136 554.47, 684.5 556.438 M684.5 556.438 C750.023 557.941, 814.399 557.304, 845.5 556.438 M684.5 556.438 C726.238 556.767, 769.073 557.086, 845.5 556.438 M845.5 556.438 C851.285 556.51, 856.304 562.398, 855.5 566.438 M845.5 556.438 C851.707 554.487, 854.541 562.919, 855.5 566.438 M855.5 566.438 C856.757 591.929, 855.749 622.076, 855.5 642.438 M855.5 566.438 C857.113 594.397, 857.083 623.691, 855.5 642.438 M855.5 642.438 C856.784 647.943, 850.823 653.378, 845.5 652.438 M855.5 642.438 C856.946 647.643, 850.181 651.72, 845.5 652.438 M845.5 652.438 C791.685 655.029, 738.214 654.878, 684.5 652.438 M845.5 652.438 C802.2 653.317, 757.13 652.47, 684.5 652.438 M684.5 652.438 C677.366 653.194, 673.31 647.91, 674.5 642.438 M684.5 652.438 C679.572 651.53, 675.857 648.157, 674.5 642.438 M674.5 642.438 C676.712 623.767, 673.429 604.784, 674.5 566.438 M674.5 642.438 C673.833 620.7, 674.661 598.753, 674.5 566.438" stroke="rgb(102, 56, 0)" stroke-width="1" fill="none"/></g><g clip-path="url(#ygc111_0_0)"><g class="text-container" transform="matrix(1, 0, 0, 1, 765, 597.438)"><text font-family="'Arial'" font-size="12px" font-style="normal" font-weight="normal" text-decoration="none" text-anchor="middle" fill="rgb(0, 0, 0)" fill-opacity="1" dy="0.9166666666666666em" transform="" data-sketchy-clip-path="ygc111_0_0" style="font-style: normal;font-weight: 400;font-size: 12px;font-family: Comic Sans MS, cursive;" stroke="none" stroke-width="1px" dominant-baseline="auto">Cliente</text></g></g><g clip-path="url(#ygc111_0_0)"><path d="M690.527 583.12 L693.27 573.001 L699.346 569.892 L862.994 573.724 L870.673 576.038 L870.8 581.274 L870.538 659.833 L864.472 664.768 L861.723 668.402 L693.733 667.006 L691.722 660.214 L689.062 656.566 L691.469 580.2" stroke="none" stroke-width="0" fill="rgb(0, 150, 255)"/><path d="M689.5 581.438 M689.5 581.438 C688.83 575.713, 695.853 572.034, 699.5 571.438 M699.5 571.438 C760.823 570.6, 819.162 568.626, 860.5 571.438 M860.5 571.438 C866.933 569.873, 871.702 573.984, 870.5 581.438 M870.5 581.438 C868.873 599.748, 868.772 615.59, 870.5 657.438 M870.5 657.438 C871.882 662.294, 865.752 667.081, 860.5 667.438 M860.5 667.438 C804.993 665.377, 750.591 666.661, 699.5 667.438 M699.5 667.438 C693.466 669.199, 689.85 662.967, 689.5 657.438 M689.5 657.438 C687.728 635.044, 689.305 611.39, 689.5 581.438" stroke="rgb(102, 56, 0)" stroke-width="1" fill="none"/></g><g clip-path="url(#ygc111_0_0)"><g class="text-container" transform="matrix(1, 0, 0, 1, 780, 612.438)"><text font-family="'Arial'" font-size="12px" font-style="normal" font-weight="normal" text-decoration="none" text-anchor="middle" fill="rgb(0, 0, 0)" fill-opacity="1" dy="0.9166666666666666em" transform="" data-sketchy-clip-path="ygc111_0_0" style="font-style: normal;font-weight: 400;font-size: 12px;font-family: Comic Sans MS, cursive;" stroke="none" stroke-width="1px" dominant-baseline="auto">Cliente</text></g></g><g clip-path="url(#ygc111_0_0)"><path d="M706.177 595.261 L706.333 588.564 L712.854 585.901 L877.585 586.197 L883.101 592.554 L886.069 597.449 L885.273 674.914 L881.076 680.735 L877.416 684.082 L711.737 682.19 L706.022 674.856 L705.24 672.549 L706.112 595.022" stroke="none" stroke-width="0" fill="rgb(0, 150, 255)"/><path d="M704.5 596.438 M704.5 596.438 C702.64 592.191, 710.078 585.106, 714.5 586.438 M714.5 586.438 C774.317 586.696, 830.631 585.298, 875.5 586.438 M875.5 586.438 C881.26 585.733, 887.138 591.391, 885.5 596.438 M885.5 596.438 C885.799 622.436, 886.026 649.819, 885.5 672.438 M885.5 672.438 C885.192 676.137, 882.693 680.596, 875.5 682.438 M875.5 682.438 C825.704 681.56, 774.148 680.205, 714.5 682.438 M714.5 682.438 C708.8 683.434, 704.356 679.388, 704.5 672.438 M704.5 672.438 C705.357 646.229, 706.133 620.174, 704.5 596.438" stroke="rgb(102, 56, 0)" stroke-width="1" fill="none"/></g><g clip-path="url(#ygc111_0_0)"><g class="text-container" transform="matrix(1, 0, 0, 1, 795, 627.438)"><text font-family="'Arial'" font-size="12px" font-style="normal" font-weight="normal" text-decoration="none" text-anchor="middle" fill="rgb(0, 0, 0)" fill-opacity="1" dy="0.9166666666666666em" transform="" data-sketchy-clip-path="ygc111_0_0" style="font-style: normal;font-weight: 400;font-size: 12px;font-family: Comic Sans MS, cursive;" stroke="none" stroke-width="1px" dominant-baseline="auto">Cliente</text></g></g><g clip-path="url(#ygc111_0_0)"><path d="M718.929 609.51 L723.731 603.977 L730.539 601.094 L893.914 602.918 L897.736 608.776 L901.38 612.244 L900.344 692.902 L893.038 697.331 L888.704 695.586 L726.445 696.615 L719.419 690.055 L719.162 688.539 L718.164 611.701" stroke="none" stroke-width="0" fill="rgb(0, 150, 255)"/><path d="M719.5 611.438 M719.5 611.438 C719.545 606.378, 723.818 599.623, 729.5 601.438 M719.5 611.438 C718.542 606.392, 725.145 602.191, 729.5 601.438 M729.5 601.438 C788.809 601.119, 844.308 602.868, 890.5 601.438 M729.5 601.438 C770.509 602.729, 812.492 601.168, 890.5 601.438 M890.5 601.438 C894.871 600.011, 902.32 607.694, 900.5 611.438 M890.5 601.438 C893.859 601.474, 901.211 606.877, 900.5 611.438 M900.5 611.438 C901.624 630.416, 899.049 651.685, 900.5 687.438 M900.5 611.438 C900.35 632.287, 900.159 653.649, 900.5 687.438 M900.5 687.438 C901.642 692.941, 895.64 695.541, 890.5 697.438 M900.5 687.438 C899.284 695.14, 894.107 696.929, 890.5 697.438 M890.5 697.438 C849.796 697.573, 808.078 696.3, 729.5 697.438 M890.5 697.438 C842.495 698.638, 794.987 697.812, 729.5 697.438 M729.5 697.438 C722.357 697.069, 721.192 691.833, 719.5 687.438 M729.5 697.438 C723.73 696.789, 717.213 693.573, 719.5 687.438 M719.5 687.438 C717.245 669.929, 718.525 653.024, 719.5 611.438 M719.5 687.438 C719.457 664.81, 721.026 642.565, 719.5 611.438" stroke="rgb(102, 56, 0)" stroke-width="1" fill="none"/></g><g clip-path="url(#ygc111_0_0)"><g class="text-container" transform="matrix(1, 0, 0, 1, 810, 642.438)"><text font-family="'Arial'" font-size="12px" font-style="normal" font-weight="normal" text-decoration="none" text-anchor="middle" fill="rgb(0, 0, 0)" fill-opacity="1" dy="0.9166666666666666em" transform="" data-sketchy-clip-path="ygc111_0_0" style="font-style: normal;font-weight: 400;font-size: 12px;font-family: Comic Sans MS, cursive;" stroke="none" stroke-width="1px" dominant-baseline="auto">Cliente</text></g></g><g clip-path="url(#ygc111_0_0)"><path d="M733.938 628.012 L736.397 620.673 L743.521 616.559 L910.602 616.886 L913.239 622.893 L916.429 627.886 L914.122 705.312 L911.231 711.875 L906.929 711.036 L740.806 712.203 L736.286 706.387 L734.172 703.434 L732.646 626.02" stroke="none" stroke-width="0" fill="rgb(0, 150, 255)"/><path d="M734.5 626.438 M734.5 626.438 C734.238 619.124, 740.207 617.996, 744.5 616.438 M734.5 626.438 C736.166 618.734, 738.319 618.26, 744.5 616.438 M744.5 616.438 C801.29 616.732, 854.78 618.65, 905.5 616.438 M744.5 616.438 C792.45 618.188, 838.906 617.23, 905.5 616.438 M905.5 616.438 C910.416 618.041, 914.322 622.427, 915.5 626.438 M905.5 616.438 C912.674 617.585, 914.04 621.151, 915.5 626.438 M915.5 626.438 C916.397 648.745, 914.697 670.122, 915.5 702.438 M915.5 626.438 C914.314 644.945, 915.111 660.985, 915.5 702.438 M915.5 702.438 C916.969 707.818, 911.418 712.077, 905.5 712.438 M915.5 702.438 C915.012 709.056, 910.908 713.68, 905.5 712.438 M905.5 712.438 C858.919 713.524, 808.985 711.204, 744.5 712.438 M905.5 712.438 C857.485 712.912, 809.687 713.956, 744.5 712.438 M744.5 712.438 C737.893 711.358, 735.212 705.981, 734.5 702.438 M744.5 712.438 C736.772 712.574, 734.01 708.025, 734.5 702.438 M734.5 702.438 C734.532 678.791, 732.381 655.306, 734.5 626.438 M734.5 702.438 C735.412 683.469, 734.989 662.75, 734.5 626.438" stroke="rgb(102, 56, 0)" stroke-width="1" fill="none"/></g><g clip-path="url(#ygc111_0_0)"><g class="text-container" transform="matrix(1, 0, 0, 1, 825, 657.438)"><text font-family="'Arial'" font-size="12px" font-style="normal" font-weight="normal" text-decoration="none" text-anchor="middle" fill="rgb(0, 0, 0)" fill-opacity="1" dy="0.9166666666666666em" transform="" data-sketchy-clip-path="ygc111_0_0" style="font-style: normal;font-weight: 400;font-size: 12px;font-family: Comic Sans MS, cursive;" stroke="none" stroke-width="1px" dominant-baseline="auto">Cliente</text></g></g><g clip-path="url(#ygc111_0_0)"><path d="M360.325 605.567 L361.511 596.672 L368.725 592.836 L533.879 595.768 L539.495 598.747 L539.213 602.794 L537.058 684.125 L535.313 690.303 L527.525 690.924 L364.665 691.307 L360.559 684.357 L360.23 680.192 L357.94 604.232" stroke="none" stroke-width="0" fill="rgb(255, 0, 210)"/><path d="M358.5 604.438 M358.5 604.438 C358.535 600.735, 364.321 593.052, 368.5 594.438 M368.5 594.438 C408.228 594.671, 448.303 593.52, 529.5 594.438 M529.5 594.438 C534.616 592.452, 541.328 597.131, 539.5 604.438 M539.5 604.438 C540.504 628.865, 540.09 653.712, 539.5 680.438 M539.5 680.438 C538.572 687.122, 536.943 689.383, 529.5 690.438 M529.5 690.438 C496.381 691.995, 463.441 692.466, 368.5 690.438 M368.5 690.438 C361.062 691.498, 357.69 686.512, 358.5 680.438 M358.5 680.438 C358.458 664.519, 357.743 646.567, 358.5 604.438" stroke="rgb(102, 56, 0)" stroke-width="1" fill="none"/></g><g clip-path="url(#ygc111_0_0)"><g class="text-container" transform="matrix(1, 0, 0, 1, 449, 635.438)"><text font-family="'Arial'" font-size="12px" font-style="normal" font-weight="normal" text-decoration="none" text-anchor="middle" fill="rgb(0, 0, 0)" fill-opacity="1" dy="0.9166666666666666em" transform="" data-sketchy-clip-path="ygc111_0_0" style="font-style: normal;font-weight: 400;font-size: 12px;font-family: Comic Sans MS, cursive;" stroke="none" stroke-width="1px" dominant-baseline="auto">Consultoría</text></g></g><g clip-path="url(#ygc111_0_0)"><path d="M373.701 618.653 L375.512 611.852 L383.008 608.621 L548.544 611.827 L555.367 615.312 L554.535 618.281 L552.881 697.753 L547.181 706.405 L544.749 706.092 L377.936 704.533 L374.616 700.56 L374.243 693.609 L373.443 620.029" stroke="none" stroke-width="0" fill="rgb(255, 0, 210)"/><path d="M373.5 619.438 M373.5 619.438 C373.972 613.831, 379.092 609.761, 383.5 609.438 M383.5 609.438 C417.299 606.903, 454.571 609.204, 544.5 609.438 M544.5 609.438 C551.23 611.365, 555.667 614.464, 554.5 619.438 M554.5 619.438 C554.665 639.17, 556.508 663.495, 554.5 695.438 M554.5 695.438 C554.185 702.06, 551.76 706.813, 544.5 705.438 M544.5 705.438 C496.494 705.977, 448.133 702.874, 383.5 705.438 M383.5 705.438 C378.742 704.244, 371.644 702.77, 373.5 695.438 M373.5 695.438 C373.896 678.69, 373.498 663.867, 373.5 619.438" stroke="rgb(102, 56, 0)" stroke-width="1" fill="none"/></g><g clip-path="url(#ygc111_0_0)"><g class="text-container" transform="matrix(1, 0, 0, 1, 464, 650.438)"><text font-family="'Arial'" font-size="12px" font-style="normal" font-weight="normal" text-decoration="none" text-anchor="middle" fill="rgb(0, 0, 0)" fill-opacity="1" dy="0.9166666666666666em" transform="" data-sketchy-clip-path="ygc111_0_0" style="font-style: normal;font-weight: 400;font-size: 12px;font-family: Comic Sans MS, cursive;" stroke="none" stroke-width="1px" dominant-baseline="auto">Consultoría</text></g></g><g clip-path="url(#ygc111_0_0)"><path d="M390.187 633.579 L392.415 625.805 L398.767 623.24 L564.539 623.533 L569.265 629.047 L569.781 635.22 L568.484 712.799 L562.2 718.867 L561.358 720.36 L394.601 719.386 L390.278 713.513 L387.23 710.243 L387.453 632.702" stroke="none" stroke-width="0" fill="rgb(255, 0, 210)"/><path d="M388.5 634.438 M388.5 634.438 C388.993 629.546, 393.606 626.377, 398.5 624.438 M398.5 624.438 C432.94 626.909, 466.495 626.615, 559.5 624.438 M559.5 624.438 C563.1 624.144, 569.575 627.847, 569.5 634.438 M569.5 634.438 C569.483 660.054, 570.988 685.572, 569.5 710.438 M569.5 710.438 C570.004 714.23, 565.261 720.337, 559.5 720.438 M559.5 720.438 C509.648 719.468, 464.339 721.229, 398.5 720.438 M398.5 720.438 C392.038 718.759, 387.346 716.519, 388.5 710.438 M388.5 710.438 C387.453 680.649, 389.269 652.619, 388.5 634.438" stroke="rgb(102, 56, 0)" stroke-width="1" fill="none"/></g><g clip-path="url(#ygc111_0_0)"><g class="text-container" transform="matrix(1, 0, 0, 1, 479, 665.438)"><text font-family="'Arial'" font-size="12px" font-style="normal" font-weight="normal" text-decoration="none" text-anchor="middle" fill="rgb(0, 0, 0)" fill-opacity="1" dy="0.9166666666666666em" transform="" data-sketchy-clip-path="ygc111_0_0" style="font-style: normal;font-weight: 400;font-size: 12px;font-family: Comic Sans MS, cursive;" stroke="none" stroke-width="1px" dominant-baseline="auto">Consultoría</text></g></g><g clip-path="url(#ygc111_0_0)"><path d="M405.329 650.976 L408.328 640.898 L413.667 639.22 L580.343 639.341 L584.717 645.749 L582.561 649.144 L582.282 730.072 L579.332 735.729 L573.481 734.888 L411.197 736.507 L406.085 727.736 L402.224 725.204 L404.061 650.664" stroke="none" stroke-width="0" fill="rgb(255, 0, 210)"/><path d="M403.5 649.438 M403.5 649.438 C405.114 642.693, 408.261 637.894, 413.5 639.438 M413.5 639.438 C454.414 641.106, 491.815 640.447, 574.5 639.438 M574.5 639.438 C580.913 637.669, 583.696 644.52, 584.5 649.438 M584.5 649.438 C583.416 663.786, 583.276 682.173, 584.5 725.438 M584.5 725.438 C583.292 730.156, 579.106 736.852, 574.5 735.438 M574.5 735.438 C527.192 734.645, 476.727 734.138, 413.5 735.438 M413.5 735.438 C408.125 735.182, 403.451 730.547, 403.5 725.438 M403.5 725.438 C403.225 701.413, 405.226 680.322, 403.5 649.438" stroke="rgb(102, 56, 0)" stroke-width="1" fill="none"/></g><g clip-path="url(#ygc111_0_0)"><g class="text-container" transform="matrix(1, 0, 0, 1, 494, 680.438)"><text font-family="'Arial'" font-size="12px" font-style="normal" font-weight="normal" text-decoration="none" text-anchor="middle" fill="rgb(0, 0, 0)" fill-opacity="1" dy="0.9166666666666666em" transform="" data-sketchy-clip-path="ygc111_0_0" style="font-style: normal;font-weight: 400;font-size: 12px;font-family: Comic Sans MS, cursive;" stroke="none" stroke-width="1px" dominant-baseline="auto">Consultoría</text></g></g><g clip-path="url(#ygc111_0_0)"><path d="M665.365 677.529 L666.192 672.484 L681.542 686.255 L665.09 703.927 L667.53 696.353 L540.555 696.336 L547.686 688.197 L539.584 679.9 L668.276 679.126" stroke="none" stroke-width="0" fill="rgb(210, 0, 255)"/><path d="M664.793 678.756 M666.255 678.796 C666.418 675.783, 667.109 674.19, 666.236 672.524 M664.972 670.782 C670.54 677.116, 672.566 680.685, 681.535 688.163 M683.138 688.918 C676.81 694.086, 671.004 698.237, 667.061 702.886 M666.992 702.219 C666.834 701.216, 666.679 699.776, 665.995 696.214 M666.076 696.136 C634.751 697.886, 608.416 697.695, 540.415 694.787 M538.68 695.646 C543.975 692.141, 545.539 691.122, 549.437 686.404 M547.519 688.127 C546.007 684.107, 542.131 681.127, 539.174 679.513 M538.89 678.625 C579.22 678.6, 617.146 679.068, 664.67 677.43" stroke="rgb(102, 56, 0)" stroke-width="1" fill="none"/></g><g clip-path="url(#ygc111_0_0)"><g class="text-container" transform="matrix(1, 0, 0, 1, 610.5, 680.438)"><text font-family="'Arial'" font-size="12px" font-style="normal" font-weight="normal" text-decoration="none" text-anchor="middle" fill="rgb(0, 0, 0)" fill-opacity="1" dy="0.9166666666666666em" transform="" data-sketchy-clip-path="ygc111_0_0" style="font-style: normal;font-weight: 400;font-size: 12px;font-family: Comic Sans MS, cursive;" stroke="none" stroke-width="1px" dominant-baseline="auto">Ofrezco Soporte</text></g></g><g clip-path="url(#ygc111_0_0)"><path d="M188.835 230.148 L192.21 219.03 L196.178 214.311 L199.254 209.325 L206.539 210.479 L260.456 210.488 L266.995 210.504 L271.931 216.53 L274.13 226.456 L272.663 235.022 L272.33 241.938 L265.701 245.868 L257.026 245.999 L206.127 245.749 L197.071 242.977 L193.894 236.986 L188.945 226.912" stroke="none" stroke-width="0" fill="rgb(255, 0, 160)"/><path d="M188.875 228.188 M188.875 228.188 C189.674 218.789, 197.361 207.035, 208.125 208.938 M208.125 208.938 C223.906 209.073, 236.858 209.75, 256.875 208.938 M256.875 208.938 C265.613 210.529, 275.846 218.443, 276.125 228.188 M276.125 228.188 C275.461 238.741, 267.157 248.835, 256.875 247.438 M256.875 247.438 C243.035 248.5, 228.886 247.579, 208.125 247.438 M208.125 247.438 C195.639 247.2, 188.278 238.879, 188.875 228.188 M188.875 228.188 C188.875 228.188, 188.875 228.188, 188.875 228.188" stroke="rgb(102, 56, 0)" stroke-width="1" fill="none"/></g><g clip-path="url(#ygc111_0_0)"><g class="text-container" transform="matrix(1, 0, 0, 1, 232.5, 221.188)"><text font-family="'Arial'" font-size="12px" font-style="normal" font-weight="normal" text-decoration="none" text-anchor="middle" fill="rgb(0, 0, 0)" fill-opacity="1" dy="0.9166666666666666em" transform="" data-sketchy-clip-path="ygc111_0_0" style="font-style: normal;font-weight: 400;font-size: 12px;font-family: Comic Sans MS, cursive;" stroke="none" stroke-width="1px" dominant-baseline="auto">Tu Empresa</text></g></g><g clip-path="url(#ygc111_0_0)"><path d="M164.267 459.118 L164.372 451.653 L166.61 443.528 L174.016 441.232 L180.531 436.333 L233.361 439.46 L240.938 442.837 L247.407 448.266 L249.152 457.202 L247.157 465.09 L244.088 471.75 L239.511 476.428 L229.448 475.202 L176.628 474.744 L169.93 472.059 L164.729 467.792 L164.047 458.5" stroke="none" stroke-width="0" fill="rgb(255, 0, 160)"/><path d="M162.75 457.188 M162.75 457.188 C161.013 447.798, 170.968 436.277, 182 437.938 M162.75 457.188 C163.088 445.113, 171.906 437.772, 182 437.938 M182 437.938 C197.426 437.727, 212.402 437.467, 230.75 437.938 M182 437.938 C196.172 438.418, 209.22 436.76, 230.75 437.938 M230.75 437.938 C242.854 438.473, 250.031 447.204, 250 457.188 M230.75 437.938 C239.468 436.662, 248.826 448.588, 250 457.188 M250 457.188 C249.306 468.637, 239.656 474.544, 230.75 476.438 M250 457.188 C249.191 467.079, 240.356 476.99, 230.75 476.438 M230.75 476.438 C217.661 473.969, 200.814 474.639, 182 476.438 M230.75 476.438 C212.847 476.41, 195.877 476.899, 182 476.438 M182 476.438 C170.627 477.149, 163.286 467.632, 162.75 457.188 M182 476.438 C172.739 474.433, 164.199 469.353, 162.75 457.188 M162.75 457.188 C162.75 457.188, 162.75 457.188, 162.75 457.188 M162.75 457.188 C162.75 457.188, 162.75 457.188, 162.75 457.188" stroke="rgb(102, 56, 0)" stroke-width="1" fill="none"/></g><g clip-path="url(#ygc111_0_0)"><g class="text-container" transform="matrix(1, 0, 0, 1, 206.375, 450.188)"><text font-family="'Arial'" font-size="12px" font-style="normal" font-weight="normal" text-decoration="none" text-anchor="middle" fill="rgb(0, 0, 0)" fill-opacity="1" dy="0.9166666666666666em" transform="" data-sketchy-clip-path="ygc111_0_0" style="font-style: normal;font-weight: 400;font-size: 12px;font-family: Comic Sans MS, cursive;" stroke="none" stroke-width="1px" dominant-baseline="auto">Tu Empresa</text></g></g><g clip-path="url(#ygc111_0_0)"><path d="M397.843 661.591 L394.966 656.871 L413.604 674.23 L394.913 688.701 L395.908 682.409 L267.911 680.051 L279.478 671.839 L268.008 662.215 L397.996 664.3" stroke="none" stroke-width="0" fill="rgb(210, 0, 255)"/><path d="M396.849 662.82 M396.452 663.514 C396.288 661.556, 396.185 659.432, 396.24 657.88 M394.803 657.547 C400.693 663.034, 407.297 664.958, 409.892 673.028 M410.048 672.617 C404.83 677.766, 399.672 683.889, 397.57 686.106 M396.216 686.978 C396.298 684.682, 396.158 682.392, 396.727 680.999 M395.557 680.606 C355.418 680.352, 315.405 681.705, 271.372 681.551 M270.885 682.375 C273.607 678.504, 275.845 675.629, 278.91 671.318 M278.102 672.898 C275.091 670.53, 271.822 667.304, 270.695 663.411 M270.781 662.728 C309.12 663.723, 347.778 662.886, 394.955 662.288" stroke="rgb(102, 56, 0)" stroke-width="1" fill="none"/></g><g clip-path="url(#ygc111_0_0)"><g class="text-container" transform="matrix(1, 0, 0, 1, 340.75, 665.438)"><text font-family="'Arial'" font-size="12px" font-style="normal" font-weight="normal" text-decoration="none" text-anchor="middle" fill="rgb(0, 0, 0)" fill-opacity="1" dy="0.9166666666666666em" transform="" data-sketchy-clip-path="ygc111_0_0" style="font-style: normal;font-weight: 400;font-size: 12px;font-family: Comic Sans MS, cursive;" stroke="none" stroke-width="1px" dominant-baseline="auto">Tengo el conocimiento</text></g></g></svg>