<?xml version="1.0" encoding="UTF-8"?><svg xmlns="http://www.w3.org/2000/svg" xmlns:xlink="http://www.w3.org/1999/xlink" fill-opacity="1" color-rendering="auto" color-interpolation="auto" text-rendering="auto" stroke="black" stroke-linecap="square" width="1214" stroke-miterlimit="10" shape-rendering="auto" stroke-opacity="1" fill="black" stroke-dasharray="none" font-weight="normal" stroke-width="1" height="126" font-family="'Dialog'" font-style="normal" stroke-linejoin="miter" font-size="12px" stroke-dashoffset="0" image-rendering="auto">
  <!--Generated by ySVG 2.5-->
  <defs id="genericDefs"/>
  <g>
    <defs id="defs1">
      <clipPath clipPathUnits="userSpaceOnUse" id="clipPath1">
        <path d="M0 0 L1214 0 L1214 126 L0 126 L0 0 Z"/>
      </clipPath>
      <clipPath clipPathUnits="userSpaceOnUse" id="clipPath2">
        <path d="M79 300 L1293 300 L1293 426 L79 426 L79 300 Z"/>
      </clipPath>
    </defs>
    <g fill="rgb(237,130,37)" text-rendering="geometricPrecision" shape-rendering="geometricPrecision" transform="matrix(1,0,0,1,-79,-300)" stroke="rgb(237,130,37)">
      <path d="M94.25 359.25 L267.05 359.25 L286.25 381.25 L267.05 403.25 L94.25 403.25 L113.45 381.25 Z" fill-rule="evenodd" clip-path="url(#clipPath2)" stroke="none"/>
    </g>
    <g text-rendering="geometricPrecision" stroke-miterlimit="1.45" shape-rendering="geometricPrecision" transform="matrix(1,0,0,1,-79,-300)" stroke-linecap="butt">
      <path fill="none" d="M94.25 359.25 L267.05 359.25 L286.25 381.25 L267.05 403.25 L94.25 403.25 L113.45 381.25 Z" fill-rule="evenodd" clip-path="url(#clipPath2)"/>
      <text x="157.5342" xml:space="preserve" y="385.4043" clip-path="url(#clipPath2)" font-family="sans-serif" stroke="none">Endpoint A</text>
    </g>
    <g fill="rgb(237,130,37)" text-rendering="geometricPrecision" shape-rendering="geometricPrecision" transform="matrix(1,0,0,1,-79,-300)" stroke="rgb(237,130,37)">
      <path d="M587.7812 359.25 L760.5812 359.25 L779.7812 381.25 L760.5812 403.25 L587.7812 403.25 L606.9813 381.25 Z" fill-rule="evenodd" clip-path="url(#clipPath2)" stroke="none"/>
    </g>
    <g text-rendering="geometricPrecision" stroke-miterlimit="1.45" shape-rendering="geometricPrecision" transform="matrix(1,0,0,1,-79,-300)" stroke-linecap="butt">
      <path fill="none" d="M587.7812 359.25 L760.5812 359.25 L779.7812 381.25 L760.5812 403.25 L587.7812 403.25 L606.9813 381.25 Z" fill-rule="evenodd" clip-path="url(#clipPath2)"/>
      <text x="651.0537" xml:space="preserve" y="385.4043" clip-path="url(#clipPath2)" font-family="sans-serif" stroke="none">Endpoint B</text>
    </g>
    <g fill="rgb(237,90,0)" text-rendering="geometricPrecision" shape-rendering="geometricPrecision" transform="matrix(1,0,0,1,-79,-300)" stroke="rgb(237,90,0)">
      <rect x="343.5938" y="352" clip-path="url(#clipPath2)" width="192" rx="4" ry="4" height="58.5" stroke="none"/>
    </g>
    <g text-rendering="geometricPrecision" stroke-miterlimit="1.45" shape-rendering="geometricPrecision" transform="matrix(1,0,0,1,-79,-300)" stroke-linecap="butt">
      <rect x="343.5938" y="352" clip-path="url(#clipPath2)" fill="none" width="192" rx="4" ry="4" height="58.5"/>
      <text x="416.6836" y="385.4043" clip-path="url(#clipPath2)" font-family="sans-serif" stroke="none" font-weight="bold" xml:space="preserve">Router</text>
    </g>
    <g fill="rgb(237,130,37)" text-rendering="geometricPrecision" shape-rendering="geometricPrecision" transform="matrix(1,0,0,1,-79,-300)" stroke="rgb(237,130,37)">
      <rect x="94.25" width="38.75" height="44" y="359.25" clip-path="url(#clipPath2)" stroke="none"/>
    </g>
    <g text-rendering="geometricPrecision" stroke-miterlimit="1.45" shape-rendering="geometricPrecision" transform="matrix(1,0,0,1,-79,-300)" stroke-linecap="butt">
      <rect fill="none" x="94.25" width="38.75" height="44" y="359.25" clip-path="url(#clipPath2)"/>
    </g>
    <g fill="rgb(237,130,37)" text-rendering="geometricPrecision" shape-rendering="geometricPrecision" transform="matrix(1,0,0,1,-79,-300)" stroke="rgb(237,130,37)">
      <path d="M1068.1875 359.25 L1240.9875 359.25 L1260.1875 381.25 L1240.9875 403.25 L1068.1875 403.25 L1087.3875 381.25 Z" fill-rule="evenodd" clip-path="url(#clipPath2)" stroke="none"/>
    </g>
    <g text-rendering="geometricPrecision" stroke-miterlimit="1.45" shape-rendering="geometricPrecision" transform="matrix(1,0,0,1,-79,-300)" stroke-linecap="butt">
      <path fill="none" d="M1068.1875 359.25 L1240.9875 359.25 L1260.1875 381.25 L1240.9875 403.25 L1068.1875 403.25 L1087.3875 381.25 Z" fill-rule="evenodd" clip-path="url(#clipPath2)"/>
      <text x="1130.9561" xml:space="preserve" y="385.4043" clip-path="url(#clipPath2)" font-family="sans-serif" stroke="none">Endpoint D</text>
    </g>
    <g fill="rgb(237,90,0)" text-rendering="geometricPrecision" shape-rendering="geometricPrecision" transform="matrix(1,0,0,1,-79,-300)" stroke="rgb(237,90,0)">
      <rect x="831.9688" y="352" clip-path="url(#clipPath2)" width="192" rx="4" ry="4" height="58.5" stroke="none"/>
    </g>
    <g text-rendering="geometricPrecision" stroke-miterlimit="1.45" shape-rendering="geometricPrecision" transform="matrix(1,0,0,1,-79,-300)" stroke-linecap="butt">
      <rect x="831.9688" y="352" clip-path="url(#clipPath2)" fill="none" width="192" rx="4" ry="4" height="58.5"/>
      <text x="905.0586" y="385.4043" clip-path="url(#clipPath2)" font-family="sans-serif" stroke="none" font-weight="bold" xml:space="preserve">Router</text>
    </g>
    <g fill="rgb(204,153,255)" text-rendering="geometricPrecision" shape-rendering="geometricPrecision" transform="matrix(1,0,0,1,-79,-300)" stroke="rgb(204,153,255)">
      <path d="M270.2969 317.504 L353.5145 317.504 L344.2681 347.504 L261.0505 347.504 Z" fill-rule="evenodd" clip-path="url(#clipPath2)" stroke="none"/>
    </g>
    <g text-rendering="geometricPrecision" stroke-miterlimit="1.45" shape-rendering="geometricPrecision" transform="matrix(1,0,0,1,-79,-300)" stroke-linecap="butt">
      <path fill="none" d="M270.2969 317.504 L353.5145 317.504 L344.2681 347.504 L261.0505 347.504 Z" fill-rule="evenodd" clip-path="url(#clipPath2)"/>
      <text x="271.8479" xml:space="preserve" y="336.6583" clip-path="url(#clipPath2)" font-family="sans-serif" stroke="none">Exchange A</text>
    </g>
    <g fill="rgb(204,153,255)" text-rendering="geometricPrecision" shape-rendering="geometricPrecision" transform="matrix(1,0,0,1,-79,-300)" stroke="rgb(204,153,255)">
      <path d="M494.3236 317.504 L577.5413 317.504 L568.2949 347.504 L485.0772 347.504 Z" fill-rule="evenodd" clip-path="url(#clipPath2)" stroke="none"/>
    </g>
    <g text-rendering="geometricPrecision" stroke-miterlimit="1.45" shape-rendering="geometricPrecision" transform="matrix(1,0,0,1,-79,-300)" stroke-linecap="butt">
      <path fill="none" d="M494.3236 317.504 L577.5413 317.504 L568.2949 347.504 L485.0772 347.504 Z" fill-rule="evenodd" clip-path="url(#clipPath2)"/>
      <text x="495.8747" xml:space="preserve" y="336.6583" clip-path="url(#clipPath2)" font-family="sans-serif" stroke="none">Exchange A</text>
    </g>
    <g fill="rgb(204,153,255)" text-rendering="geometricPrecision" shape-rendering="geometricPrecision" transform="matrix(1,0,0,1,-79,-300)" stroke="rgb(204,153,255)">
      <path d="M751.5234 320.75 L834.741 320.75 L825.4946 350.75 L742.277 350.75 Z" fill-rule="evenodd" clip-path="url(#clipPath2)" stroke="none"/>
    </g>
    <g text-rendering="geometricPrecision" stroke-miterlimit="1.45" shape-rendering="geometricPrecision" transform="matrix(1,0,0,1,-79,-300)" stroke-linecap="butt">
      <path fill="none" d="M751.5234 320.75 L834.741 320.75 L825.4946 350.75 L742.277 350.75 Z" fill-rule="evenodd" clip-path="url(#clipPath2)"/>
      <text x="753.0627" xml:space="preserve" y="339.9043" clip-path="url(#clipPath2)" font-family="sans-serif" stroke="none">Exchange B</text>
    </g>
    <g fill="rgb(204,153,255)" text-rendering="geometricPrecision" shape-rendering="geometricPrecision" transform="matrix(1,0,0,1,-79,-300)" stroke="rgb(204,153,255)">
      <path d="M973.2349 315.98 L1056.4525 315.98 L1047.2061 345.98 L963.9885 345.98 Z" fill-rule="evenodd" clip-path="url(#clipPath2)" stroke="none"/>
    </g>
    <g text-rendering="geometricPrecision" stroke-miterlimit="1.45" shape-rendering="geometricPrecision" transform="matrix(1,0,0,1,-79,-300)" stroke-linecap="butt">
      <path fill="none" d="M973.2349 315.98 L1056.4525 315.98 L1047.2061 345.98 L963.9885 345.98 Z" fill-rule="evenodd" clip-path="url(#clipPath2)"/>
      <text x="974.7742" xml:space="preserve" y="335.1343" clip-path="url(#clipPath2)" font-family="sans-serif" stroke="none">Exchange B</text>
    </g>
    <g fill="rgb(237,130,37)" text-rendering="geometricPrecision" shape-rendering="geometricPrecision" transform="matrix(1,0,0,1,-79,-300)" stroke="rgb(237,130,37)">
      <rect x="1239.042" width="38.75" height="44" y="359.25" clip-path="url(#clipPath2)" stroke="none"/>
    </g>
    <g text-rendering="geometricPrecision" stroke-miterlimit="1.45" shape-rendering="geometricPrecision" transform="matrix(1,0,0,1,-79,-300)" stroke-linecap="butt">
      <rect fill="none" x="1239.042" width="38.75" height="44" y="359.25" clip-path="url(#clipPath2)"/>
    </g>
    <g stroke-linecap="butt" transform="matrix(1,0,0,1,-79,-300)" fill="rgb(237,130,37)" text-rendering="geometricPrecision" shape-rendering="geometricPrecision" stroke="rgb(237,130,37)" stroke-width="7" stroke-miterlimit="1.45">
      <path d="M315.5809 370.75 L315.5809 377.75 L286.2865 377.75 L286.2865 384.75 L315.5809 384.75 L315.5809 391.75 L343.5809 381.25 L315.5809 370.75 Z" stroke="none" clip-path="url(#clipPath2)"/>
      <path fill="none" d="M315.5809 370.75 L315.5809 377.75 L286.2865 377.75 L286.2865 384.75 L315.5809 384.75 L315.5809 391.75 L343.5809 381.25 L315.5809 370.75 Z" stroke-width="1" clip-path="url(#clipPath2)" stroke="rgb(237,110,0)"/>
    </g>
    <g stroke-linecap="butt" transform="matrix(1,0,0,1,-79,-300)" fill="rgb(237,130,37)" text-rendering="geometricPrecision" shape-rendering="geometricPrecision" stroke="rgb(237,130,37)" stroke-width="7" stroke-miterlimit="1.45">
      <path d="M585.9637 370.75 L585.9637 377.75 L535.5981 377.75 L535.5981 384.75 L585.9637 384.75 L585.9637 391.75 L606.9637 381.25 L585.9637 370.75 Z" stroke="none" clip-path="url(#clipPath2)"/>
      <path fill="none" d="M585.9637 370.75 L585.9637 377.75 L535.5981 377.75 L535.5981 384.75 L585.9637 384.75 L585.9637 391.75 L606.9637 381.25 L585.9637 370.75 Z" stroke-width="1" clip-path="url(#clipPath2)" stroke="rgb(237,110,0)"/>
    </g>
    <g stroke-linecap="butt" transform="matrix(1,0,0,1,-79,-300)" fill="rgb(237,130,37)" text-rendering="geometricPrecision" shape-rendering="geometricPrecision" stroke="rgb(237,130,37)" stroke-width="7" stroke-miterlimit="1.45">
      <path d="M803.9584 370.75 L803.9584 377.75 L779.7916 377.75 L779.7916 384.75 L803.9584 384.75 L803.9584 391.75 L831.9584 381.25 L803.9584 370.75 Z" stroke="none" clip-path="url(#clipPath2)"/>
      <path fill="none" d="M803.9584 370.75 L803.9584 377.75 L779.7916 377.75 L779.7916 384.75 L803.9584 384.75 L803.9584 391.75 L831.9584 381.25 L803.9584 370.75 Z" stroke-width="1" clip-path="url(#clipPath2)" stroke="rgb(237,110,0)"/>
    </g>
    <g stroke-linecap="butt" transform="matrix(1,0,0,1,-79,-300)" fill="rgb(237,130,37)" text-rendering="geometricPrecision" shape-rendering="geometricPrecision" stroke="rgb(237,130,37)" stroke-width="7" stroke-miterlimit="1.45">
      <path d="M1066.3738 370.75 L1066.3738 377.75 L1023.9963 377.75 L1023.9963 384.75 L1066.3738 384.75 L1066.3738 391.75 L1087.3738 381.25 L1066.3738 370.75 Z" stroke="none" clip-path="url(#clipPath2)"/>
      <path fill="none" d="M1066.3738 370.75 L1066.3738 377.75 L1023.9963 377.75 L1023.9963 384.75 L1066.3738 384.75 L1066.3738 391.75 L1087.3738 381.25 L1066.3738 370.75 Z" stroke-width="1" clip-path="url(#clipPath2)" stroke="rgb(237,110,0)"/>
    </g>
  </g>
</svg>
