<?xml version="1.0" encoding="UTF-8"?><svg xmlns="http://www.w3.org/2000/svg" xmlns:xlink="http://www.w3.org/1999/xlink" fill-opacity="1" color-rendering="auto" color-interpolation="auto" text-rendering="auto" stroke="black" stroke-linecap="square" width="853" stroke-miterlimit="10" shape-rendering="auto" stroke-opacity="1" fill="black" stroke-dasharray="none" font-weight="normal" stroke-width="1" height="288" font-family="'Dialog'" font-style="normal" stroke-linejoin="miter" font-size="12px" stroke-dashoffset="0" image-rendering="auto">
  <!--Generated by ySVG 2.5-->
  <defs id="genericDefs"/>
  <g>
    <defs id="defs1">
      <clipPath clipPathUnits="userSpaceOnUse" id="clipPath1">
        <path d="M0 0 L853 0 L853 288 L0 288 L0 0 Z"/>
      </clipPath>
      <clipPath clipPathUnits="userSpaceOnUse" id="clipPath2">
        <path d="M501 283 L1354 283 L1354 571 L501 571 L501 283 Z"/>
      </clipPath>
    </defs>
    <g fill="rgb(237,130,37)" text-rendering="geometricPrecision" shape-rendering="geometricPrecision" transform="matrix(1,0,0,1,-501,-283)" stroke="rgb(237,130,37)">
      <path d="M516.9756 320.75 L689.7757 320.75 L708.9756 342.75 L689.7757 364.75 L516.9756 364.75 L536.1757 342.75 Z" fill-rule="evenodd" clip-path="url(#clipPath2)" stroke="none"/>
    </g>
    <g text-rendering="geometricPrecision" stroke-miterlimit="1.45" shape-rendering="geometricPrecision" transform="matrix(1,0,0,1,-501,-283)" stroke-linecap="butt">
      <path fill="none" d="M516.9756 320.75 L689.7757 320.75 L708.9756 342.75 L689.7757 364.75 L516.9756 364.75 L536.1757 342.75 Z" fill-rule="evenodd" clip-path="url(#clipPath2)"/>
      <text x="582.3809" xml:space="preserve" y="346.9043" clip-path="url(#clipPath2)" font-family="sans-serif" stroke="none">Consumer</text>
    </g>
    <g fill="rgb(237,130,37)" text-rendering="geometricPrecision" shape-rendering="geometricPrecision" transform="matrix(1,0,0,1,-501,-283)" stroke="rgb(237,130,37)">
      <path d="M1146.9618 320.75 L1319.7618 320.75 L1338.9618 342.75 L1319.7618 364.75 L1146.9618 364.75 L1166.1619 342.75 Z" fill-rule="evenodd" clip-path="url(#clipPath2)" stroke="none"/>
    </g>
    <g text-rendering="geometricPrecision" stroke-miterlimit="1.45" shape-rendering="geometricPrecision" transform="matrix(1,0,0,1,-501,-283)" stroke-linecap="butt">
      <path fill="none" d="M1146.9618 320.75 L1319.7618 320.75 L1338.9618 342.75 L1319.7618 364.75 L1146.9618 364.75 L1166.1619 342.75 Z" fill-rule="evenodd" clip-path="url(#clipPath2)"/>
      <text x="1216.1376" xml:space="preserve" y="346.9043" clip-path="url(#clipPath2)" font-family="sans-serif" stroke="none">Producer</text>
    </g>
    <g fill="rgb(237,90,0)" text-rendering="geometricPrecision" shape-rendering="geometricPrecision" transform="matrix(1,0,0,1,-501,-283)" stroke="rgb(237,90,0)">
      <rect x="831.9688" y="313.5" clip-path="url(#clipPath2)" width="192" rx="4" ry="4" height="58.5" stroke="none"/>
    </g>
    <g text-rendering="geometricPrecision" stroke-miterlimit="1.45" shape-rendering="geometricPrecision" transform="matrix(1,0,0,1,-501,-283)" stroke-linecap="butt">
      <rect x="831.9688" y="313.5" clip-path="url(#clipPath2)" fill="none" width="192" rx="4" ry="4" height="58.5"/>
      <text x="905.0586" y="346.9043" clip-path="url(#clipPath2)" font-family="sans-serif" stroke="none" font-weight="bold" xml:space="preserve">Router</text>
    </g>
    <g fill="rgb(204,153,255)" text-rendering="geometricPrecision" shape-rendering="geometricPrecision" transform="matrix(1,0,0,1,-501,-283)" stroke="rgb(204,153,255)">
      <path d="M733.4866 298.9037 L816.7042 298.9037 L807.4578 328.9037 L724.2402 328.9037 Z" fill-rule="evenodd" clip-path="url(#clipPath2)" stroke="none"/>
    </g>
    <g text-rendering="geometricPrecision" stroke-miterlimit="1.45" shape-rendering="geometricPrecision" transform="matrix(1,0,0,1,-501,-283)" stroke-linecap="butt">
      <path fill="none" d="M733.4866 298.9037 L816.7042 298.9037 L807.4578 328.9037 L724.2402 328.9037 Z" fill-rule="evenodd" clip-path="url(#clipPath2)"/>
      <text x="741.0494" xml:space="preserve" y="318.058" clip-path="url(#clipPath2)" font-family="sans-serif" stroke="none">Exchange</text>
    </g>
    <g fill="rgb(204,153,255)" text-rendering="geometricPrecision" shape-rendering="geometricPrecision" transform="matrix(1,0,0,1,-501,-283)" stroke="rgb(204,153,255)">
      <path d="M1048.4797 298.9037 L1131.6973 298.9037 L1122.4509 328.9037 L1039.2333 328.9037 Z" fill-rule="evenodd" clip-path="url(#clipPath2)" stroke="none"/>
    </g>
    <g text-rendering="geometricPrecision" stroke-miterlimit="1.45" shape-rendering="geometricPrecision" transform="matrix(1,0,0,1,-501,-283)" stroke-linecap="butt">
      <path fill="none" d="M1048.4797 298.9037 L1131.6973 298.9037 L1122.4509 328.9037 L1039.2333 328.9037 Z" fill-rule="evenodd" clip-path="url(#clipPath2)"/>
      <text x="1056.0425" xml:space="preserve" y="318.058" clip-path="url(#clipPath2)" font-family="sans-serif" stroke="none">Exchange</text>
    </g>
    <g fill="rgb(51,102,255)" text-rendering="geometricPrecision" shape-rendering="geometricPrecision" transform="matrix(1,0,0,1,-501,-283)" stroke="rgb(51,102,255)">
      <path d="M516.9756 492.8867 L573.2112 466.8263 L652.7402 466.8263 L708.9756 492.8867 L708.9756 529.7416 L652.7402 555.802 L573.2112 555.802 L516.9756 529.7416 Z" fill-rule="evenodd" clip-path="url(#clipPath2)" stroke="none"/>
    </g>
    <g stroke-linecap="butt" transform="matrix(1,0,0,1,-501,-283)" fill="navy" text-rendering="geometricPrecision" shape-rendering="geometricPrecision" stroke="navy" stroke-miterlimit="1.45">
      <path fill="none" d="M516.9756 492.8867 L573.2112 466.8263 L652.7402 466.8263 L708.9756 492.8867 L708.9756 529.7416 L652.7402 555.802 L573.2112 555.802 L516.9756 529.7416 Z" fill-rule="evenodd" clip-path="url(#clipPath2)"/>
      <text x="563.6954" y="515.4684" clip-path="url(#clipPath2)" fill="black" font-family="sans-serif" stroke="none" xml:space="preserve">External System</text>
    </g>
    <g fill="rgb(51,102,255)" text-rendering="geometricPrecision" shape-rendering="geometricPrecision" transform="matrix(1,0,0,1,-501,-283)" stroke="rgb(51,102,255)">
      <path d="M1146.9618 492.8867 L1203.1973 466.8263 L1282.7263 466.8263 L1338.9618 492.8867 L1338.9618 529.7416 L1282.7263 555.802 L1203.1973 555.802 L1146.9618 529.7416 Z" fill-rule="evenodd" clip-path="url(#clipPath2)" stroke="none"/>
    </g>
    <g stroke-linecap="butt" transform="matrix(1,0,0,1,-501,-283)" fill="navy" text-rendering="geometricPrecision" shape-rendering="geometricPrecision" stroke="navy" stroke-miterlimit="1.45">
      <path fill="none" d="M1146.9618 492.8867 L1203.1973 466.8263 L1282.7263 466.8263 L1338.9618 492.8867 L1338.9618 529.7416 L1282.7263 555.802 L1203.1973 555.802 L1146.9618 529.7416 Z" fill-rule="evenodd" clip-path="url(#clipPath2)"/>
      <text x="1193.6815" y="515.4684" clip-path="url(#clipPath2)" fill="black" font-family="sans-serif" stroke="none" xml:space="preserve">External System</text>
    </g>
    <g stroke-linecap="butt" transform="matrix(1,0,0,1,-501,-283)" fill="rgb(237,130,37)" text-rendering="geometricPrecision" shape-rendering="geometricPrecision" stroke="rgb(237,130,37)" stroke-width="7" stroke-miterlimit="1.45">
      <path d="M803.9539 332.25 L803.9539 339.25 L708.9906 339.25 L708.9906 346.25 L803.9539 346.25 L803.9539 353.25 L831.9539 342.75 L803.9539 332.25 Z" stroke="none" clip-path="url(#clipPath2)"/>
      <path fill="none" d="M803.9539 332.25 L803.9539 339.25 L708.9906 339.25 L708.9906 346.25 L803.9539 346.25 L803.9539 353.25 L831.9539 342.75 L803.9539 332.25 Z" stroke-width="1" clip-path="url(#clipPath2)" stroke="rgb(237,110,0)"/>
    </g>
    <g stroke-linecap="butt" transform="matrix(1,0,0,1,-501,-283)" fill="rgb(237,130,37)" text-rendering="geometricPrecision" shape-rendering="geometricPrecision" stroke="rgb(237,130,37)" stroke-width="7" stroke-miterlimit="1.45">
      <path d="M1145.1444 332.25 L1145.1444 339.25 L1023.9566 339.25 L1023.9566 346.25 L1145.1444 346.25 L1145.1444 353.25 L1166.1444 342.75 L1145.1444 332.25 Z" stroke="none" clip-path="url(#clipPath2)"/>
      <path fill="none" d="M1145.1444 332.25 L1145.1444 339.25 L1023.9566 339.25 L1023.9566 346.25 L1145.1444 346.25 L1145.1444 353.25 L1166.1444 342.75 L1145.1444 332.25 Z" stroke-width="1" clip-path="url(#clipPath2)" stroke="rgb(237,110,0)"/>
    </g>
    <g stroke-linecap="butt" transform="matrix(1,0,0,1,-501,-283)" fill="rgb(204,153,255)" text-rendering="geometricPrecision" shape-rendering="geometricPrecision" stroke="rgb(204,153,255)" stroke-width="5" stroke-miterlimit="1.45">
      <path d="M612.9756 364.7671 L605.4756 382.7671 L610.4756 379.7671 L610.4756 451.842 L605.4756 448.842 L612.9756 466.842 L620.4756 448.842 L615.4756 451.842 L615.4756 379.7671 L620.4756 382.7671 L612.9756 364.7671 Z" stroke="none" clip-path="url(#clipPath2)"/>
    </g>
    <g stroke-linecap="round" transform="matrix(1,0,0,1,-501,-283)" fill="purple" text-rendering="geometricPrecision" shape-rendering="geometricPrecision" stroke-dasharray="4,3,0,3" stroke="purple" stroke-miterlimit="1.45">
      <path fill="none" d="M612.9756 364.7671 L605.4756 382.7671 L610.4756 379.7671 L610.4756 451.842 L605.4756 448.842 L612.9756 466.842 L620.4756 448.842 L615.4756 451.842 L615.4756 379.7671 L620.4756 382.7671 L612.9756 364.7671 Z" clip-path="url(#clipPath2)"/>
    </g>
    <g stroke-linecap="butt" transform="matrix(1,0,0,1,-501,-283)" fill="rgb(204,153,255)" text-rendering="geometricPrecision" shape-rendering="geometricPrecision" stroke="rgb(204,153,255)" stroke-width="5" stroke-miterlimit="1.45">
      <path d="M1242.9618 364.7671 L1235.4618 382.7671 L1240.4618 379.7671 L1240.4618 451.842 L1235.4618 448.842 L1242.9618 466.842 L1250.4618 448.842 L1245.4618 451.842 L1245.4618 379.7671 L1250.4618 382.7671 L1242.9618 364.7671 Z" stroke="none" clip-path="url(#clipPath2)"/>
    </g>
    <g stroke-linecap="round" transform="matrix(1,0,0,1,-501,-283)" fill="purple" text-rendering="geometricPrecision" shape-rendering="geometricPrecision" stroke-dasharray="4,3,0,3" stroke="purple" stroke-miterlimit="1.45">
      <path fill="none" d="M1242.9618 364.7671 L1235.4618 382.7671 L1240.4618 379.7671 L1240.4618 451.842 L1235.4618 448.842 L1242.9618 466.842 L1250.4618 448.842 L1245.4618 451.842 L1245.4618 379.7671 L1250.4618 382.7671 L1242.9618 364.7671 Z" clip-path="url(#clipPath2)"/>
    </g>
  </g>
</svg>
