<?xml version="1.0" encoding="UTF-8"?><svg xmlns="http://www.w3.org/2000/svg" xmlns:xlink="http://www.w3.org/1999/xlink" fill-opacity="1" color-rendering="auto" color-interpolation="auto" text-rendering="auto" stroke="black" stroke-linecap="square" width="853" stroke-miterlimit="10" shape-rendering="auto" stroke-opacity="1" fill="black" stroke-dasharray="none" font-weight="normal" stroke-width="1" height="273" font-family="'Dialog'" font-style="normal" stroke-linejoin="miter" font-size="12px" stroke-dashoffset="0" image-rendering="auto">
  <!--Generated by ySVG 2.5-->
  <defs id="genericDefs"/>
  <g>
    <defs id="defs1">
      <clipPath clipPathUnits="userSpaceOnUse" id="clipPath1">
        <path d="M0 0 L853 0 L853 273 L0 273 L0 0 Z"/>
      </clipPath>
      <clipPath clipPathUnits="userSpaceOnUse" id="clipPath2">
        <path d="M501 298 L1354 298 L1354 571 L501 571 L501 298 Z"/>
      </clipPath>
    </defs>
    <g fill="rgb(237,90,0)" text-rendering="geometricPrecision" shape-rendering="geometricPrecision" transform="matrix(1,0,0,1,-501,-298)" stroke="rgb(237,90,0)">
      <rect x="831.9688" y="313.5" clip-path="url(#clipPath2)" width="192" rx="4" ry="4" height="58.5" stroke="none"/>
    </g>
    <g text-rendering="geometricPrecision" stroke-miterlimit="1.45" shape-rendering="geometricPrecision" transform="matrix(1,0,0,1,-501,-298)" stroke-linecap="butt">
      <rect x="831.9688" y="313.5" clip-path="url(#clipPath2)" fill="none" width="192" rx="4" ry="4" height="58.5"/>
      <text x="905.0586" y="346.9043" clip-path="url(#clipPath2)" font-family="sans-serif" stroke="none" font-weight="bold" xml:space="preserve">Router</text>
    </g>
    <g fill="rgb(204,153,255)" text-rendering="geometricPrecision" shape-rendering="geometricPrecision" transform="matrix(1,0,0,1,-501,-298)" stroke="rgb(204,153,255)">
      <path d="M696.4866 373.9037 L779.7042 373.9037 L770.4578 403.9037 L687.2402 403.9037 Z" fill-rule="evenodd" clip-path="url(#clipPath2)" stroke="none"/>
    </g>
    <g text-rendering="geometricPrecision" stroke-miterlimit="1.45" shape-rendering="geometricPrecision" transform="matrix(1,0,0,1,-501,-298)" stroke-linecap="butt">
      <path fill="none" d="M696.4866 373.9037 L779.7042 373.9037 L770.4578 403.9037 L687.2402 403.9037 Z" fill-rule="evenodd" clip-path="url(#clipPath2)"/>
      <text x="707.1754" xml:space="preserve" y="393.058" clip-path="url(#clipPath2)" font-family="sans-serif" stroke="none">Message</text>
    </g>
    <g fill="rgb(204,153,255)" text-rendering="geometricPrecision" shape-rendering="geometricPrecision" transform="matrix(1,0,0,1,-501,-298)" stroke="rgb(204,153,255)">
      <path d="M1104.4797 373.9037 L1187.6973 373.9037 L1178.4509 403.9037 L1095.2333 403.9037 Z" fill-rule="evenodd" clip-path="url(#clipPath2)" stroke="none"/>
    </g>
    <g text-rendering="geometricPrecision" stroke-miterlimit="1.45" shape-rendering="geometricPrecision" transform="matrix(1,0,0,1,-501,-298)" stroke-linecap="butt">
      <path fill="none" d="M1104.4797 373.9037 L1187.6973 373.9037 L1178.4509 403.9037 L1095.2333 403.9037 Z" fill-rule="evenodd" clip-path="url(#clipPath2)"/>
      <text x="1115.1685" xml:space="preserve" y="393.058" clip-path="url(#clipPath2)" font-family="sans-serif" stroke="none">Message</text>
    </g>
    <g fill="rgb(51,102,255)" text-rendering="geometricPrecision" shape-rendering="geometricPrecision" transform="matrix(1,0,0,1,-501,-298)" stroke="rgb(51,102,255)">
      <path d="M516.9756 492.8867 L573.2112 466.8263 L652.7402 466.8263 L708.9756 492.8867 L708.9756 529.7416 L652.7402 555.802 L573.2112 555.802 L516.9756 529.7416 Z" fill-rule="evenodd" clip-path="url(#clipPath2)" stroke="none"/>
    </g>
    <g stroke-linecap="butt" transform="matrix(1,0,0,1,-501,-298)" fill="navy" text-rendering="geometricPrecision" shape-rendering="geometricPrecision" stroke="navy" stroke-miterlimit="1.45">
      <path fill="none" d="M516.9756 492.8867 L573.2112 466.8263 L652.7402 466.8263 L708.9756 492.8867 L708.9756 529.7416 L652.7402 555.802 L573.2112 555.802 L516.9756 529.7416 Z" fill-rule="evenodd" clip-path="url(#clipPath2)"/>
      <text x="563.6954" y="515.4684" clip-path="url(#clipPath2)" fill="black" font-family="sans-serif" stroke="none" xml:space="preserve">External System</text>
    </g>
    <g fill="rgb(51,102,255)" text-rendering="geometricPrecision" shape-rendering="geometricPrecision" transform="matrix(1,0,0,1,-501,-298)" stroke="rgb(51,102,255)">
      <path d="M1146.9618 492.8867 L1203.1973 466.8263 L1282.7263 466.8263 L1338.9618 492.8867 L1338.9618 529.7416 L1282.7263 555.802 L1203.1973 555.802 L1146.9618 529.7416 Z" fill-rule="evenodd" clip-path="url(#clipPath2)" stroke="none"/>
    </g>
    <g stroke-linecap="butt" transform="matrix(1,0,0,1,-501,-298)" fill="navy" text-rendering="geometricPrecision" shape-rendering="geometricPrecision" stroke="navy" stroke-miterlimit="1.45">
      <path fill="none" d="M1146.9618 492.8867 L1203.1973 466.8263 L1282.7263 466.8263 L1338.9618 492.8867 L1338.9618 529.7416 L1282.7263 555.802 L1203.1973 555.802 L1146.9618 529.7416 Z" fill-rule="evenodd" clip-path="url(#clipPath2)"/>
      <text x="1193.6815" y="515.4684" clip-path="url(#clipPath2)" fill="black" font-family="sans-serif" stroke="none" xml:space="preserve">External System</text>
    </g>
    <g stroke-linecap="butt" transform="matrix(1,0,0,1,-501,-298)" fill="rgb(204,153,255)" text-rendering="geometricPrecision" shape-rendering="geometricPrecision" stroke="rgb(204,153,255)" stroke-width="5" stroke-miterlimit="1.45">
      <path d="M832.2286 369.4402 L813.042 372.9223 L818.277 375.4903 L818.277 375.4903 L680.8709 464.4028 L680.6733 458.5753 L669.6356 474.6507 L688.8222 471.1687 L683.5872 468.6007 L683.5872 468.6007 L820.9933 379.6881 L821.1909 385.5157 L832.2286 369.4402 Z" stroke="none" clip-path="url(#clipPath2)"/>
    </g>
    <g stroke-linecap="round" transform="matrix(1,0,0,1,-501,-298)" fill="purple" text-rendering="geometricPrecision" shape-rendering="geometricPrecision" stroke-dasharray="4,3,0,3" stroke="purple" stroke-miterlimit="1.45">
      <path fill="none" d="M832.2286 369.4402 L813.042 372.9223 L818.277 375.4903 L818.277 375.4903 L680.8709 464.4028 L680.6733 458.5753 L669.6356 474.6507 L688.8222 471.1687 L683.5872 468.6007 L683.5872 468.6007 L820.9933 379.6881 L821.1909 385.5157 L832.2286 369.4402 Z" clip-path="url(#clipPath2)"/>
    </g>
    <g stroke-linecap="butt" transform="matrix(1,0,0,1,-501,-298)" fill="rgb(204,153,255)" text-rendering="geometricPrecision" shape-rendering="geometricPrecision" stroke="rgb(204,153,255)" stroke-width="5" stroke-miterlimit="1.45">
      <path d="M1020.6334 371.9568 L1031.9017 387.8715 L1032.0153 382.0416 L1171.1984 469.2827 L1166.0009 471.926 L1185.2357 475.1309 L1173.9674 459.2163 L1173.8539 465.0462 L1173.8539 465.0462 L1034.6708 377.8051 L1034.6708 377.8051 L1039.8683 375.1619 L1020.6334 371.9568 Z" stroke="none" clip-path="url(#clipPath2)"/>
    </g>
    <g stroke-linecap="round" transform="matrix(1,0,0,1,-501,-298)" fill="purple" text-rendering="geometricPrecision" shape-rendering="geometricPrecision" stroke-dasharray="4,3,0,3" stroke="purple" stroke-miterlimit="1.45">
      <path fill="none" d="M1020.6334 371.9568 L1031.9017 387.8715 L1032.0153 382.0416 L1171.1984 469.2827 L1166.0009 471.926 L1185.2357 475.1309 L1173.9674 459.2163 L1173.8539 465.0462 L1173.8539 465.0462 L1034.6708 377.8051 L1034.6708 377.8051 L1039.8683 375.1619 L1020.6334 371.9568 Z" clip-path="url(#clipPath2)"/>
    </g>
  </g>
</svg>
