<?xml version="1.0" encoding="UTF-8" standalone="no"?>
<!-- Created with Inkscape (http://www.inkscape.org/) -->

<svg
   xmlns:dc="http://purl.org/dc/elements/1.1/"
   xmlns:cc="http://creativecommons.org/ns#"
   xmlns:rdf="http://www.w3.org/1999/02/22-rdf-syntax-ns#"
   xmlns:svg="http://www.w3.org/2000/svg"
   xmlns="http://www.w3.org/2000/svg"
   xmlns:sodipodi="http://sodipodi.sourceforge.net/DTD/sodipodi-0.dtd"
   xmlns:inkscape="http://www.inkscape.org/namespaces/inkscape"
   version="1.0"
   width="400"
   height="380"
   id="svg2"
   sodipodi:docname="Cat_silhouette.svg"
   inkscape:version="0.92.3 (2405546, 2018-03-11)">
  <metadata
     id="metadata3862">
    <rdf:RDF>
      <cc:Work
         rdf:about="">
        <dc:format>image/svg+xml</dc:format>
        <dc:type
           rdf:resource="http://purl.org/dc/dcmitype/StillImage" />
      </cc:Work>
    </rdf:RDF>
  </metadata>
  <sodipodi:namedview
     pagecolor="#ffffff"
     bordercolor="#666666"
     borderopacity="1"
     objecttolerance="10"
     gridtolerance="10"
     guidetolerance="10"
     inkscape:pageopacity="0"
     inkscape:pageshadow="2"
     inkscape:window-width="1366"
     inkscape:window-height="671"
     id="namedview3860"
     showgrid="false"
     inkscape:zoom="0.62105263"
     inkscape:cx="-128.47458"
     inkscape:cy="190"
     inkscape:window-x="0"
     inkscape:window-y="27"
     inkscape:window-maximized="1"
     inkscape:current-layer="svg2" />
  <defs
     id="defs5" />
  <path
     d="M 151.34904,307.20455 L 264.34904,307.20455 C 264.34904,291.14096 263.2021,287.95455 236.59904,287.95455 C 240.84904,275.20455 258.12424,244.35808 267.72404,244.35808 C 276.21707,244.35808 286.34904,244.82592 286.34904,264.20455 C 286.34904,286.20455 323.37171,321.67547 332.34904,307.20455 C 345.72769,285.63897 309.34904,292.21514 309.34904,240.20455 C 309.34904,169.05135 350.87417,179.18071 350.87417,139.20455 C 350.87417,119.20455 345.34904,116.50374 345.34904,102.20455 C 345.34904,83.30695 361.99717,84.403577 358.75805,68.734879 C 356.52061,57.911656 354.76962,49.23199 353.46516,36.143889 C 352.53959,26.857305 352.24452,16.959398 342.59855,17.357382 C 331.26505,17.824992 326.96549,37.77419 309.34904,39.204549 C 291.76851,40.631991 276.77834,24.238028 269.97404,26.579549 C 263.22709,28.901334 265.34904,47.204549 269.34904,60.204549 C 275.63588,80.636771 289.34904,107.20455 264.34904,111.20455 C 239.34904,115.20455 196.34904,119.20455 165.34904,160.20455 C 134.34904,201.20455 135.49342,249.3212 123.34904,264.20455 C 82.590696,314.15529 40.823919,293.64625 40.823919,335.20455 C 40.823919,353.81019 72.349045,367.20455 77.349045,361.20455 C 82.349045,355.20455 34.863764,337.32587 87.995492,316.20455 C 133.38711,298.16014 137.43914,294.47663 151.34904,307.20455 z "
     style="fill:#aa007f;fill-opacity:1;fill-rule:evenodd;stroke:none;stroke-width:1px;stroke-linecap:butt;stroke-linejoin:miter;stroke-opacity:1"
     id="path1891" />
  <path
     inkscape:connector-curvature="0"
     d="m 200.93321,220.58662 43.65985,11.69862 c 1.66302,-6.20649 1.54975,-7.55637 -8.72887,-10.31052 2.96205,-4.48622 12.83013,-14.61593 16.53921,-13.62208 3.28144,0.87926 7.14771,2.10896 5.14149,9.59629 -2.27761,8.50015 8.35463,26.03793 13.32135,21.37619 7.40173,-6.94724 -7.3347,-8.17259 -1.95017,-28.26794 7.36632,-27.49149 22.36172,-19.27881 26.50036,-34.72441 2.07055,-7.72741 0.21542,-9.34292 1.69578,-14.86771 1.95643,-7.30147 8.27523,-5.15423 8.64588,-11.54348 0.25602,-4.41341 0.47808,-7.94825 1.32905,-13.14015 0.6038,-3.68389 1.51451,-7.53869 -2.25361,-8.38355 -4.42734,-0.99265 -8.15386,6.27 -15.10841,4.99886 -6.94038,-1.26855 -11.0349,-9.15458 -13.90629,-8.95433 -2.8472,0.19858 -3.92222,7.49008 -3.7226,12.927 0.31374,8.54527 2.86161,20.22996 -7.21176,19.18725 -10.07337,-1.04271 -27.1014,-3.94892 -43.32352,8.68291 -16.22211,12.63183 -20.76136,31.34115 -26.99442,35.83436 -20.9191,15.07987 -34.93329,2.83177 -39.23572,18.88866 -1.9262,7.18867 8.86748,15.62757 11.4205,13.82699 2.55302,-1.80059 -13.94295,-13.62442 8.77221,-16.28447 19.40607,-2.27253 21.353,-3.27623 25.40969,3.08151 z"
     style="fill:#4c083b;fill-opacity:1;fill-rule:evenodd;stroke:none;stroke-width:0.40000001px;stroke-linecap:butt;stroke-linejoin:miter;stroke-opacity:1"
     id="path1891-6" />
</svg>
