<?xml version="1.0" encoding="utf-8"?>
<!-- Generator: Adobe Illustrator 24.3.0, SVG Export Plug-In . SVG Version: 6.00 Build 0)  -->
<svg version="1.1" id="Ebene_1" xmlns="http://www.w3.org/2000/svg" xmlns:xlink="http://www.w3.org/1999/xlink" x="0px" y="0px"
	 viewBox="0 0 297.6 89.3" style="enable-background:new 0 0 297.6 89.3;" xml:space="preserve">
<style type="text/css">
	.st0{fill:#FFFFFF;}
	.st1{fill-rule:evenodd;clip-rule:evenodd;fill:#FFFFFF;}
</style>
<g>
	<g>
		<path class="st0" d="M61.3,45.9c-0.2,0-0.3,0-0.5-0.1c-0.5-0.1-0.8-0.4-1.1-0.8c-0.2-0.4-0.3-0.9-0.2-1.4c0.2-0.8,0.9-1.3,1.7-1.3
			c0.2,0,0.3,0,0.5,0.1c1,0.3,1.5,1.2,1.3,2.2C62.8,45.4,62.1,45.9,61.3,45.9L61.3,45.9z"/>
		<path class="st0" d="M60.8,45.8c0.9,0.3,1.9-0.3,2.2-1.2c0.3-0.9-0.3-1.9-1.2-2.2c-0.9-0.3-1.9,0.3-2.2,1.2
			C59.3,44.6,59.9,45.6,60.8,45.8z"/>
		<path class="st0" d="M58.8,37.7c-0.8,0-1.5-0.5-1.7-1.3c-0.3-1,0.3-1.9,1.3-2.2c0.2,0,0.3-0.1,0.5-0.1c0.8,0,1.5,0.5,1.7,1.3
			c0.3,1-0.3,1.9-1.3,2.2C59.1,37.7,58.9,37.7,58.8,37.7C58.8,37.7,58.8,37.7,58.8,37.7z"/>
		<path class="st0" d="M59.2,37.6c0.9-0.3,1.5-1.2,1.2-2.2c-0.3-0.9-1.2-1.5-2.2-1.2c-0.9,0.3-1.5,1.2-1.2,2.2
			C57.3,37.3,58.3,37.9,59.2,37.6z"/>
		<path class="st0" d="M52.5,31.8c-0.5,0-0.9-0.2-1.3-0.5s-0.5-0.8-0.5-1.3c0-0.5,0.2-0.9,0.5-1.3c0.3-0.3,0.8-0.5,1.3-0.5
			c0.5,0,0.9,0.2,1.3,0.5c0.3,0.3,0.5,0.8,0.5,1.3c0,0.5-0.2,0.9-0.5,1.3C53.4,31.6,53,31.8,52.5,31.8L52.5,31.8z"/>
		<path class="st0" d="M51.3,28.8c-0.7,0.7-0.7,1.8,0,2.5c0.7,0.7,1.8,0.7,2.5,0c0.7-0.7,0.7-1.8,0-2.5C53.1,28.1,52,28.1,51.3,28.8
			z"/>
		<path class="st0" d="M44.1,29.9c-0.2,0-0.3,0-0.5-0.1c-1-0.3-1.5-1.2-1.3-2.2c0.2-0.8,0.9-1.3,1.7-1.3c0.2,0,0.3,0,0.5,0.1
			c0.5,0.1,0.9,0.4,1.1,0.8c0.2,0.4,0.3,0.9,0.2,1.4C45.7,29.3,45,29.9,44.1,29.9C44.1,29.9,44.1,29.9,44.1,29.9z"/>
		<path class="st0" d="M44.6,26.4c-0.9-0.3-1.9,0.3-2.2,1.2c-0.3,0.9,0.3,1.9,1.2,2.2c0.9,0.3,1.9-0.3,2.2-1.2
			C46.1,27.6,45.5,26.6,44.6,26.4z"/>
		<path class="st0" d="M35.9,32.3c-0.8,0-1.5-0.5-1.7-1.3c-0.3-1,0.3-1.9,1.3-2.2c0.2,0,0.3-0.1,0.5-0.1c0.8,0,1.5,0.5,1.7,1.3
			c0.3,1-0.3,1.9-1.3,2.2C36.2,32.3,36.1,32.3,35.9,32.3z"/>
		<path class="st0" d="M36.4,32.3c0.9-0.3,1.5-1.2,1.2-2.2c-0.3-0.9-1.2-1.5-2.2-1.2c-0.9,0.3-1.5,1.2-1.2,2.2
			C34.5,31.9,35.4,32.5,36.4,32.3z"/>
		<path class="st0" d="M30,38.6c-0.5,0-0.9-0.2-1.3-0.5c-0.3-0.3-0.5-0.8-0.5-1.3c0-0.5,0.2-0.9,0.5-1.3c0.3-0.3,0.8-0.5,1.3-0.5
			c0.5,0,0.9,0.2,1.3,0.5c0.7,0.7,0.7,1.8,0,2.5C31,38.4,30.5,38.6,30,38.6z"/>
		<path class="st0" d="M28.8,35.6c-0.7,0.7-0.7,1.8,0,2.5c0.7,0.7,1.8,0.7,2.5,0c0.7-0.7,0.7-1.8,0-2.5
			C30.6,34.9,29.5,34.9,28.8,35.6z"/>
		<path class="st0" d="M28.1,47c-0.2,0-0.3,0-0.5-0.1c-1-0.3-1.5-1.2-1.3-2.2c0.2-0.8,0.9-1.3,1.7-1.3c0.2,0,0.3,0,0.5,0.1
			c1,0.3,1.5,1.2,1.3,2.2C29.6,46.4,28.9,47,28.1,47L28.1,47z"/>
		<path class="st0" d="M28.5,43.5c-0.9-0.3-1.9,0.3-2.2,1.2c-0.3,0.9,0.3,1.9,1.2,2.2c0.9,0.3,1.9-0.3,2.2-1.2
			C30,44.7,29.5,43.7,28.5,43.5z"/>
		<path class="st0" d="M30.5,55.2c-0.8,0-1.5-0.5-1.7-1.3c-0.3-1,0.3-1.9,1.3-2.2c0.2,0,0.3-0.1,0.5-0.1c0.8,0,1.5,0.5,1.7,1.3
			c0.3,1-0.3,1.9-1.3,2.2C30.9,55.2,30.7,55.2,30.5,55.2L30.5,55.2z"/>
		<path class="st0" d="M30.1,51.7c-0.9,0.3-1.5,1.2-1.2,2.2c0.3,0.9,1.2,1.5,2.2,1.2c0.9-0.3,1.5-1.2,1.2-2.2
			C32,52,31,51.5,30.1,51.7z"/>
		<path class="st0" d="M36.8,61.1c-0.5,0-0.9-0.2-1.3-0.5c-0.3-0.3-0.5-0.8-0.5-1.3c0-0.5,0.2-0.9,0.5-1.3c0.3-0.3,0.8-0.5,1.3-0.5
			c0.5,0,0.9,0.2,1.3,0.5c0.7,0.7,0.7,1.8,0,2.5C37.7,60.9,37.3,61.1,36.8,61.1z"/>
		<path class="st0" d="M38.1,60.5c0.7-0.7,0.7-1.8,0-2.5c-0.7-0.7-1.8-0.7-2.5,0c-0.7,0.7-0.7,1.8,0,2.5
			C36.3,61.2,37.4,61.2,38.1,60.5z"/>
		<path class="st0" d="M45.2,63.1c-0.2,0-0.3,0-0.5-0.1c-0.5-0.1-0.9-0.4-1.1-0.8c-0.2-0.4-0.3-0.9-0.2-1.4c0.2-0.8,0.9-1.3,1.7-1.3
			c0.2,0,0.3,0,0.5,0.1c0.5,0.1,0.8,0.4,1.1,0.8c0.2,0.4,0.3,0.9,0.2,1.4C46.7,62.5,46,63.1,45.2,63.1L45.2,63.1z"/>
		<path class="st0" d="M44.7,63c0.9,0.3,1.9-0.3,2.2-1.2c0.3-0.9-0.3-1.9-1.2-2.2c-0.9-0.3-1.9,0.3-2.2,1.2
			C43.2,61.7,43.8,62.7,44.7,63z"/>
		<path class="st0" d="M53.4,60.6c-0.8,0-1.5-0.5-1.7-1.3c-0.1-0.5-0.1-0.9,0.2-1.4c0.2-0.4,0.6-0.7,1.1-0.8c0.2,0,0.3-0.1,0.5-0.1
			c0.8,0,1.5,0.5,1.7,1.3c0.3,1-0.3,1.9-1.3,2.2C53.7,60.6,53.6,60.6,53.4,60.6L53.4,60.6z"/>
		<path class="st0" d="M53,57.1c-0.9,0.3-1.5,1.2-1.2,2.2c0.3,0.9,1.2,1.5,2.2,1.2c0.9-0.3,1.5-1.2,1.2-2.2
			C54.9,57.4,53.9,56.8,53,57.1z"/>
		<path class="st0" d="M59.3,54.3c-0.5,0-0.9-0.2-1.3-0.5c-0.7-0.7-0.7-1.8,0-2.5c0.3-0.3,0.8-0.5,1.3-0.5c0.5,0,0.9,0.2,1.3,0.5
			c0.7,0.7,0.7,1.8,0,2.5C60.2,54.1,59.8,54.3,59.3,54.3z"/>
		<path class="st0" d="M60.6,53.8c0.7-0.7,0.7-1.8,0-2.5c-0.7-0.7-1.8-0.7-2.5,0c-0.7,0.7-0.7,1.8,0,2.5
			C58.7,54.4,59.9,54.4,60.6,53.8z"/>
		<g>
			<path class="st0" d="M69.6,46.8c-0.2,0-0.4,0-0.5-0.1c-1.1-0.3-1.8-1.5-1.5-2.6c0.2-0.9,1.1-1.6,2-1.6c0.2,0,0.4,0,0.5,0.1
				c1.1,0.3,1.8,1.5,1.5,2.6C71.4,46.2,70.6,46.8,69.6,46.8C69.6,46.8,69.6,46.8,69.6,46.8z"/>
			<path class="st0" d="M70.2,42.7c-1.1-0.3-2.2,0.4-2.5,1.5c-0.3,1.1,0.4,2.2,1.5,2.5c1.1,0.3,2.2-0.4,2.5-1.5
				C71.9,44.2,71.3,43,70.2,42.7z"/>
			<path class="st0" d="M66.3,34.3c-0.9,0-1.8-0.6-2-1.6c-0.1-0.5-0.1-1.1,0.2-1.6c0.3-0.5,0.7-0.8,1.3-1c0.2,0,0.4-0.1,0.5-0.1
				c0.9,0,1.8,0.6,2,1.6c0.1,0.5,0.1,1.1-0.2,1.6c-0.3,0.5-0.7,0.8-1.3,1C66.7,34.3,66.5,34.3,66.3,34.3
				C66.3,34.3,66.3,34.3,66.3,34.3z"/>
			<path class="st0" d="M66.8,34.2c1.1-0.3,1.8-1.4,1.5-2.5c-0.3-1.1-1.4-1.8-2.5-1.5c-1.1,0.3-1.8,1.4-1.5,2.5
				C64.6,33.9,65.7,34.5,66.8,34.2z"/>
			<path class="st0" d="M57.2,25.2c-0.6,0-1.1-0.2-1.5-0.6c-0.4-0.4-0.6-0.9-0.6-1.5c0-0.6,0.2-1.1,0.6-1.5c0.4-0.4,0.9-0.6,1.5-0.6
				c0.6,0,1.1,0.2,1.5,0.6c0.8,0.8,0.8,2.1,0,3C58.3,25,57.8,25.2,57.2,25.2C57.2,25.2,57.2,25.2,57.2,25.2z"/>
			<path class="st0" d="M55.7,24.5c0.8,0.8,2.1,0.8,2.9,0c0.8-0.8,0.8-2.1,0-2.9c-0.8-0.8-2.1-0.8-2.9,0
				C54.9,22.4,54.9,23.7,55.7,24.5z"/>
			<path class="st0" d="M44.7,21.8c-0.2,0-0.4,0-0.5-0.1c-1.1-0.3-1.8-1.5-1.5-2.6c0.2-0.9,1.1-1.6,2-1.6c0.2,0,0.4,0,0.5,0.1
				c1.1,0.3,1.8,1.5,1.5,2.6C46.5,21.2,45.7,21.8,44.7,21.8L44.7,21.8z"/>
			<path class="st0" d="M44.2,21.7c1.1,0.3,2.2-0.4,2.5-1.5c0.3-1.1-0.4-2.2-1.5-2.5c-1.1-0.3-2.2,0.4-2.5,1.5
				C42.4,20.3,43.1,21.4,44.2,21.7z"/>
			<path class="st0" d="M32.2,25.1c-0.9,0-1.8-0.6-2-1.6c-0.3-1.1,0.4-2.3,1.5-2.6c0.2,0,0.4-0.1,0.5-0.1c0.9,0,1.8,0.6,2,1.6
				c0.3,1.1-0.4,2.3-1.5,2.6C32.6,25.1,32.4,25.1,32.2,25.1z"/>
			<path class="st0" d="M31.7,21c-1.1,0.3-1.8,1.4-1.5,2.5c0.3,1.1,1.4,1.8,2.5,1.5c1.1-0.3,1.8-1.4,1.5-2.5
				C33.9,21.4,32.8,20.7,31.7,21z"/>
			<path class="st0" d="M23.1,34.2c-0.6,0-1.1-0.2-1.5-0.6c-0.4-0.4-0.6-0.9-0.6-1.5s0.2-1.1,0.6-1.5c0.4-0.4,0.9-0.6,1.5-0.6
				c0.6,0,1.1,0.2,1.5,0.6c0.4,0.4,0.6,0.9,0.6,1.5c0,0.6-0.2,1.1-0.6,1.5C24.2,34,23.6,34.2,23.1,34.2L23.1,34.2z"/>
			<path class="st0" d="M21.6,33.6c0.8,0.8,2.1,0.8,2.9,0c0.8-0.8,0.8-2.1,0-2.9c-0.8-0.8-2.1-0.8-2.9,0
				C20.8,31.5,20.8,32.8,21.6,33.6z"/>
			<path class="st0" d="M19.7,46.7c-0.2,0-0.4,0-0.5-0.1c-1.1-0.3-1.8-1.5-1.5-2.6c0.2-0.9,1.1-1.6,2-1.6c0.2,0,0.4,0,0.5,0.1
				c1.1,0.3,1.8,1.5,1.5,2.6C21.5,46.1,20.6,46.7,19.7,46.7L19.7,46.7z"/>
			<path class="st0" d="M19.2,46.6c1.1,0.3,2.2-0.4,2.5-1.5c0.3-1.1-0.4-2.2-1.5-2.5c-1.1-0.3-2.2,0.4-2.5,1.5
				C17.4,45.2,18.1,46.3,19.2,46.6z"/>
			<path class="st0" d="M23,59.2c-0.9,0-1.8-0.6-2-1.6c-0.3-1.1,0.4-2.3,1.5-2.6c0.2,0,0.4-0.1,0.5-0.1c0.9,0,1.8,0.6,2,1.6
				c0.3,1.1-0.4,2.3-1.5,2.6C23.4,59.2,23.2,59.2,23,59.2C23,59.2,23,59.2,23,59.2z"/>
			<path class="st0" d="M22.5,55.1c-1.1,0.3-1.8,1.4-1.5,2.5c0.3,1.1,1.4,1.8,2.5,1.5c1.1-0.3,1.8-1.4,1.5-2.5
				C24.7,55.5,23.6,54.8,22.5,55.1z"/>
			<path class="st0" d="M32.1,68.3c-0.6,0-1.1-0.2-1.5-0.6c-0.4-0.4-0.6-0.9-0.6-1.5c0-0.6,0.2-1.1,0.6-1.5c0.4-0.4,0.9-0.6,1.5-0.6
				c0.6,0,1.1,0.2,1.5,0.6c0.8,0.8,0.8,2.1,0,3C33.2,68.1,32.7,68.3,32.1,68.3L32.1,68.3z"/>
			<path class="st0" d="M33.6,64.8c-0.8-0.8-2.1-0.8-2.9,0c-0.8,0.8-0.8,2.1,0,2.9c0.8,0.8,2.1,0.8,2.9,0
				C34.4,66.9,34.4,65.6,33.6,64.8z"/>
			<path class="st0" d="M44.6,71.7c-0.2,0-0.4,0-0.5-0.1c-0.5-0.1-1-0.5-1.3-1c-0.3-0.5-0.4-1.1-0.2-1.6c0.2-0.9,1.1-1.6,2-1.6
				c0.2,0,0.4,0,0.5,0.1c0.5,0.1,1,0.5,1.3,1c0.3,0.5,0.4,1.1,0.2,1.6C46.4,71.1,45.6,71.7,44.6,71.7L44.6,71.7z"/>
			<path class="st0" d="M45.1,67.6c-1.1-0.3-2.2,0.4-2.5,1.5c-0.3,1.1,0.4,2.2,1.5,2.5c1.1,0.3,2.2-0.4,2.5-1.5
				C46.9,69.1,46.2,67.9,45.1,67.6z"/>
			<path class="st0" d="M57.1,68.4c-0.9,0-1.8-0.6-2-1.6c-0.1-0.5-0.1-1.1,0.2-1.6c0.3-0.5,0.7-0.8,1.3-1c0.2,0,0.4-0.1,0.5-0.1
				c0.9,0,1.8,0.6,2,1.6c0.3,1.1-0.4,2.3-1.5,2.6C57.5,68.4,57.3,68.4,57.1,68.4C57.1,68.4,57.1,68.4,57.1,68.4z"/>
			<path class="st0" d="M57.6,68.3c1.1-0.3,1.8-1.4,1.5-2.5c-0.3-1.1-1.4-1.8-2.5-1.5c-1.1,0.3-1.8,1.4-1.5,2.5
				C55.4,67.9,56.5,68.6,57.6,68.3z"/>
			<path class="st0" d="M66.3,59.3c-0.6,0-1.1-0.2-1.5-0.6c-0.8-0.8-0.8-2.1,0-3c0.4-0.4,0.9-0.6,1.5-0.6c0.6,0,1.1,0.2,1.5,0.6
				c0.8,0.8,0.8,2.1,0,3C67.3,59.1,66.8,59.3,66.3,59.3L66.3,59.3z"/>
			<path class="st0" d="M67.7,55.7c-0.8-0.8-2.1-0.8-2.9,0c-0.8,0.8-0.8,2.1,0,2.9c0.8,0.8,2.1,0.8,2.9,0
				C68.5,57.8,68.5,56.5,67.7,55.7z"/>
		</g>
		<g>
			<path class="st0" d="M78.2,51.2c-0.2,0-0.5,0-0.7-0.1c-1.4-0.4-2.3-1.9-1.9-3.3c0.3-1.2,1.4-2,2.6-2c0.2,0,0.5,0,0.7,0.1
				c0.7,0.2,1.3,0.6,1.6,1.3c0.4,0.6,0.5,1.3,0.3,2C80.5,50.4,79.4,51.2,78.2,51.2L78.2,51.2z"/>
			<path class="st0" d="M77.5,51.1c1.4,0.4,2.9-0.5,3.3-1.9c0.4-1.4-0.5-2.9-1.9-3.3c-1.4-0.4-2.9,0.5-3.3,1.9
				C75.2,49.2,76.1,50.7,77.5,51.1z"/>
			<path class="st0" d="M75.6,33.9c-1.2,0-2.3-0.8-2.6-2c-0.4-1.4,0.5-2.9,1.9-3.3c0.2-0.1,0.5-0.1,0.7-0.1c1.2,0,2.3,0.8,2.6,2
				c0.4,1.4-0.5,2.9-1.9,3.3C76.1,33.9,75.8,33.9,75.6,33.9L75.6,33.9z"/>
			<path class="st0" d="M78.2,30.6c-0.4-1.4-1.8-2.3-3.3-1.9c-1.4,0.4-2.3,1.8-1.9,3.3c0.4,1.4,1.8,2.3,3.3,1.9
				C77.7,33.4,78.6,32,78.2,30.6z"/>
			<path class="st0" d="M64.8,20.3c-0.7,0-1.4-0.3-1.9-0.8c-0.5-0.5-0.8-1.2-0.8-1.9c0-0.7,0.3-1.4,0.8-1.9c0.5-0.5,1.2-0.8,1.9-0.8
				s1.4,0.3,1.9,0.8c0.5,0.5,0.8,1.2,0.8,1.9c0,0.7-0.3,1.4-0.8,1.9C66.1,20,65.5,20.3,64.8,20.3z"/>
			<path class="st0" d="M66.6,15.7c-1-1-2.7-1-3.8,0c-1,1-1,2.7,0,3.8c1,1,2.7,1,3.8,0C67.7,18.4,67.7,16.7,66.6,15.7z"/>
			<path class="st0" d="M48.5,13.8c-0.2,0-0.5,0-0.7-0.1c-1.4-0.4-2.3-1.9-1.9-3.3c0.3-1.2,1.4-2,2.6-2c0.2,0,0.5,0,0.7,0.1
				c0.7,0.2,1.3,0.6,1.6,1.3c0.4,0.6,0.5,1.3,0.3,2C50.8,13,49.7,13.8,48.5,13.8L48.5,13.8z"/>
			<path class="st0" d="M47.8,13.7c1.4,0.4,2.9-0.5,3.3-1.9c0.4-1.4-0.5-2.9-1.9-3.3c-1.4-0.4-2.9,0.5-3.3,1.9
				C45.6,11.9,46.4,13.3,47.8,13.7z"/>
			<path class="st0" d="M31.2,16.4c-1.2,0-2.3-0.8-2.6-2c-0.4-1.4,0.5-2.9,1.9-3.3c0.2-0.1,0.5-0.1,0.7-0.1c1.2,0,2.3,0.8,2.6,2
				c0.2,0.7,0.1,1.4-0.3,2s-0.9,1.1-1.6,1.3C31.7,16.4,31.5,16.4,31.2,16.4z"/>
			<path class="st0" d="M31.9,16.3c1.4-0.4,2.3-1.8,1.9-3.3c-0.4-1.4-1.8-2.3-3.3-1.9c-1.4,0.4-2.3,1.8-1.9,3.3
				C29.1,15.8,30.5,16.7,31.9,16.3z"/>
			<path class="st0" d="M17.6,27.3c-0.7,0-1.4-0.3-1.9-0.8c-1.1-1.1-1-2.8,0-3.8c0.5-0.5,1.2-0.8,1.9-0.8c0.7,0,1.4,0.3,1.9,0.8
				c0.5,0.5,0.8,1.2,0.8,1.9c0,0.7-0.3,1.4-0.8,1.9C19,27,18.3,27.3,17.6,27.3L17.6,27.3z"/>
			<path class="st0" d="M19.5,22.7c-1-1-2.7-1-3.8,0c-1,1-1,2.7,0,3.8c1,1,2.7,1,3.8,0C20.5,25.4,20.5,23.7,19.5,22.7z"/>
			<path class="st0" d="M11.2,43.5c-0.2,0-0.5,0-0.7-0.1c-0.7-0.2-1.3-0.6-1.6-1.3c-0.4-0.6-0.5-1.3-0.3-2c0.3-1.2,1.4-2,2.6-2
				c0.2,0,0.5,0,0.7,0.1c1.4,0.4,2.3,1.9,1.9,3.3C13.4,42.7,12.4,43.5,11.2,43.5L11.2,43.5z"/>
			<path class="st0" d="M11.8,38.2c-1.4-0.4-2.9,0.5-3.3,1.9C8.2,41.5,9,43,10.5,43.4c1.4,0.4,2.9-0.5,3.3-1.9
				C14.1,40.1,13.3,38.6,11.8,38.2z"/>
			<path class="st0" d="M13.7,60.8c-1.2,0-2.3-0.8-2.6-2c-0.4-1.4,0.5-2.9,1.9-3.3c0.2-0.1,0.5-0.1,0.7-0.1c1.2,0,2.3,0.8,2.6,2
				c0.4,1.4-0.5,2.9-1.9,3.3C14.2,60.7,14,60.8,13.7,60.8L13.7,60.8z"/>
			<path class="st0" d="M13,55.5c-1.4,0.4-2.3,1.8-1.9,3.3c0.4,1.4,1.8,2.3,3.3,1.9c1.4-0.4,2.3-1.8,1.9-3.3
				C15.9,56,14.4,55.1,13,55.5z"/>
			<path class="st0" d="M24.6,74.4c-0.7,0-1.4-0.3-1.9-0.8c-0.5-0.5-0.8-1.2-0.8-1.9c0-0.7,0.3-1.4,0.8-1.9c0.5-0.5,1.2-0.8,1.9-0.8
				c0.7,0,1.4,0.3,1.9,0.8c1,1.1,1,2.8,0,3.8C26,74.2,25.3,74.4,24.6,74.4L24.6,74.4z"/>
			<path class="st0" d="M26.5,69.9c-1-1-2.7-1-3.8,0c-1,1-1,2.7,0,3.8c1,1,2.7,1,3.8,0C27.5,72.6,27.5,70.9,26.5,69.9z"/>
			<path class="st0" d="M40.8,80.9c-0.2,0-0.5,0-0.7-0.1c-1.4-0.4-2.3-1.9-1.9-3.3c0.3-1.2,1.4-2,2.6-2c0.2,0,0.5,0,0.7,0.1
				c0.7,0.2,1.3,0.6,1.6,1.3c0.4,0.6,0.5,1.3,0.3,2C43.1,80,42,80.9,40.8,80.9L40.8,80.9z"/>
			<path class="st0" d="M41.5,75.6c-1.4-0.4-2.9,0.5-3.3,1.9c-0.4,1.4,0.5,2.9,1.9,3.3c1.4,0.4,2.9-0.5,3.3-1.9
				C43.8,77.4,42.9,76,41.5,75.6z"/>
			<path class="st0" d="M58.1,78.3c-1.2,0-2.3-0.8-2.6-2c-0.2-0.7-0.1-1.4,0.3-2c0.4-0.6,0.9-1.1,1.6-1.3c0.2-0.1,0.5-0.1,0.7-0.1
				c1.2,0,2.3,0.8,2.6,2c0.4,1.4-0.5,2.9-1.9,3.3C58.5,78.3,58.3,78.3,58.1,78.3L58.1,78.3z"/>
			<path class="st0" d="M57.4,73c-1.4,0.4-2.3,1.8-1.9,3.3c0.4,1.4,1.8,2.3,3.3,1.9c1.4-0.4,2.3-1.8,1.9-3.3
				C60.3,73.5,58.8,72.6,57.4,73z"/>
			<path class="st0" d="M71.8,67.4c-0.7,0-1.4-0.3-1.9-0.8c-0.5-0.5-0.8-1.2-0.8-1.9c0-0.7,0.3-1.4,0.8-1.9c0.5-0.5,1.2-0.8,1.9-0.8
				c0.7,0,1.4,0.3,1.9,0.8c1,1,1,2.8,0,3.8C73.2,67.2,72.5,67.4,71.8,67.4z"/>
			<path class="st0" d="M73.6,66.6c1-1,1-2.7,0-3.8c-1-1-2.7-1-3.8,0c-1,1-1,2.7,0,3.8C70.9,67.7,72.6,67.7,73.6,66.6z"/>
		</g>
		<g>
			<path class="st0" d="M86.2,58.9c-0.3,0-0.5,0-0.8-0.1c-0.8-0.2-1.5-0.7-1.9-1.5c-0.4-0.7-0.5-1.6-0.3-2.4c0.4-1.4,1.6-2.3,3-2.3
				c0.3,0,0.5,0,0.8,0.1c1.7,0.4,2.7,2.2,2.2,3.8C88.9,58,87.6,58.9,86.2,58.9L86.2,58.9z"/>
			<path class="st0" d="M87,52.8c-1.7-0.4-3.4,0.5-3.8,2.2c-0.4,1.7,0.5,3.4,2.2,3.8c1.7,0.4,3.4-0.5,3.8-2.2
				C89.6,54.9,88.6,53.2,87,52.8z"/>
			<path class="st0" d="M86.2,36.7c-1.4,0-2.7-1-3-2.3c-0.2-0.8-0.1-1.7,0.3-2.4c0.4-0.7,1.1-1.2,1.9-1.5c0.3-0.1,0.5-0.1,0.8-0.1
				c1.4,0,2.7,1,3,2.3c0.2,0.8,0.1,1.7-0.3,2.4s-1.1,1.2-1.9,1.5C86.7,36.6,86.5,36.7,86.2,36.7L86.2,36.7z"/>
			<path class="st0" d="M87,36.5c1.7-0.4,2.6-2.1,2.2-3.8c-0.4-1.7-2.1-2.6-3.8-2.2c-1.7,0.4-2.6,2.1-2.2,3.8
				C83.6,36,85.3,37,87,36.5z"/>
			<path class="st0" d="M75.1,17.4c-0.8,0-1.6-0.3-2.2-0.9c-0.6-0.6-0.9-1.4-0.9-2.2c0-0.8,0.3-1.6,0.9-2.2c0.6-0.6,1.4-0.9,2.2-0.9
				c0.8,0,1.6,0.3,2.2,0.9c1.2,1.2,1.2,3.2,0,4.4C76.7,17.1,75.9,17.4,75.1,17.4L75.1,17.4z"/>
			<path class="st0" d="M72.9,16.5c1.2,1.2,3.2,1.2,4.4,0c1.2-1.2,1.2-3.2,0-4.4c-1.2-1.2-3.2-1.2-4.4,0
				C71.7,13.3,71.7,15.2,72.9,16.5z"/>
			<path class="st0" d="M55.8,6.3c-0.3,0-0.5,0-0.8-0.1c-1.7-0.4-2.7-2.2-2.2-3.8C53.1,1,54.4,0,55.8,0c0.3,0,0.5,0,0.8,0.1
				c1.7,0.4,2.7,2.2,2.2,3.8C58.5,5.3,57.2,6.3,55.8,6.3C55.8,6.3,55.8,6.3,55.8,6.3z"/>
			<path class="st0" d="M55,6.1c1.7,0.4,3.4-0.5,3.8-2.2c0.4-1.7-0.5-3.4-2.2-3.8c-1.7-0.4-3.4,0.5-3.8,2.2C52.3,4,53.3,5.7,55,6.1z
				"/>
			<path class="st0" d="M33.5,6.3c-1.4,0-2.7-1-3-2.3c-0.2-0.8-0.1-1.7,0.3-2.4c0.4-0.7,1.1-1.2,1.9-1.5C33,0,33.3,0,33.5,0
				c1.4,0,2.7,1,3,2.3C37,4,36,5.7,34.3,6.2C34.1,6.2,33.8,6.3,33.5,6.3C33.5,6.3,33.5,6.3,33.5,6.3z"/>
			<path class="st0" d="M34.3,6.1C36,5.7,37,4,36.5,2.3c-0.4-1.7-2.1-2.6-3.8-2.2c-1.7,0.4-2.6,2.1-2.2,3.8
				C31,5.6,32.7,6.6,34.3,6.1z"/>
			<path class="st0" d="M14.3,17.4c-0.8,0-1.6-0.3-2.2-0.9c-0.6-0.6-0.9-1.4-0.9-2.2c0-0.8,0.3-1.6,0.9-2.2c0.6-0.6,1.4-0.9,2.2-0.9
				s1.6,0.3,2.2,0.9c0.6,0.6,0.9,1.4,0.9,2.2c0,0.8-0.3,1.6-0.9,2.2C15.9,17.1,15.1,17.4,14.3,17.4L14.3,17.4z"/>
			<path class="st0" d="M12.1,16.5c1.2,1.2,3.2,1.2,4.4,0c1.2-1.2,1.2-3.2,0-4.4c-1.2-1.2-3.2-1.2-4.4,0
				C10.9,13.3,10.9,15.2,12.1,16.5z"/>
			<path class="st0" d="M3.1,36.7c-0.3,0-0.5,0-0.8-0.1c-1.7-0.4-2.7-2.2-2.2-3.8c0.4-1.4,1.6-2.3,3-2.3c0.3,0,0.5,0,0.8,0.1
				c0.8,0.2,1.5,0.7,1.9,1.5c0.4,0.7,0.5,1.6,0.3,2.4C5.8,35.7,4.6,36.7,3.1,36.7C3.1,36.7,3.1,36.7,3.1,36.7z"/>
			<path class="st0" d="M3.9,30.5c-1.7-0.4-3.4,0.5-3.8,2.2c-0.4,1.7,0.5,3.4,2.2,3.8C4,37,5.7,36,6.1,34.3
				C6.6,32.7,5.6,31,3.9,30.5z"/>
			<path class="st0" d="M3.1,58.9c-1.4,0-2.7-1-3-2.3c-0.2-0.8-0.1-1.7,0.3-2.4c0.4-0.7,1.1-1.2,1.9-1.5c0.3-0.1,0.5-0.1,0.8-0.1
				c1.4,0,2.7,1,3,2.3c0.2,0.8,0.1,1.7-0.3,2.4c-0.4,0.7-1.1,1.2-1.9,1.5C3.7,58.9,3.4,58.9,3.1,58.9L3.1,58.9z"/>
			<path class="st0" d="M2.3,52.8c-1.7,0.4-2.6,2.1-2.2,3.8c0.4,1.7,2.1,2.6,3.8,2.2c1.7-0.4,2.6-2.1,2.2-3.8
				C5.7,53.3,4,52.3,2.3,52.8z"/>
			<path class="st0" d="M14.3,78.2c-0.8,0-1.6-0.3-2.2-0.9c-1.2-1.2-1.2-3.2,0-4.4c0.6-0.6,1.4-0.9,2.2-0.9c0.8,0,1.6,0.3,2.2,0.9
				c0.6,0.6,0.9,1.4,0.9,2.2c0,0.8-0.3,1.6-0.9,2.2C15.9,77.9,15.1,78.2,14.3,78.2C14.3,78.2,14.3,78.2,14.3,78.2z"/>
			<path class="st0" d="M16.5,72.9c-1.2-1.2-3.2-1.2-4.4,0c-1.2,1.2-1.2,3.2,0,4.4c1.2,1.2,3.2,1.2,4.4,0
				C17.7,76,17.7,74.1,16.5,72.9z"/>
			<path class="st0" d="M33.5,89.3c-0.3,0-0.5,0-0.8-0.1c-0.8-0.2-1.5-0.7-1.9-1.5c-0.4-0.7-0.5-1.6-0.3-2.4c0.4-1.4,1.6-2.3,3-2.3
				c0.3,0,0.5,0,0.8,0.1c0.8,0.2,1.5,0.7,1.9,1.5c0.4,0.7,0.5,1.6,0.3,2.4C36.2,88.4,35,89.3,33.5,89.3L33.5,89.3z"/>
			<path class="st0" d="M34.3,83.2c-1.7-0.4-3.4,0.5-3.8,2.2c-0.4,1.7,0.5,3.4,2.2,3.8c1.7,0.4,3.4-0.5,3.8-2.2
				C37,85.3,36,83.6,34.3,83.2z"/>
			<path class="st0" d="M55.8,89.3c-1.4,0-2.7-1-3-2.3c-0.2-0.8-0.1-1.7,0.3-2.4c0.4-0.7,1.1-1.2,1.9-1.5c0.3-0.1,0.5-0.1,0.8-0.1
				c1.4,0,2.7,1,3,2.3c0.4,1.7-0.5,3.4-2.2,3.8C56.3,89.3,56.1,89.3,55.8,89.3L55.8,89.3z"/>
			<path class="st0" d="M55,83.2c-1.7,0.4-2.6,2.1-2.2,3.8c0.4,1.7,2.1,2.6,3.8,2.2c1.7-0.4,2.6-2.1,2.2-3.8
				C58.3,83.7,56.6,82.7,55,83.2z"/>
			<path class="st0" d="M75.1,78.2c-0.8,0-1.6-0.3-2.2-0.9c-0.6-0.6-0.9-1.4-0.9-2.2c0-0.8,0.3-1.6,0.9-2.2c0.6-0.6,1.4-0.9,2.2-0.9
				c0.8,0,1.6,0.3,2.2,0.9c0.6,0.6,0.9,1.4,0.9,2.2c0,0.8-0.3,1.6-0.9,2.2C76.7,77.9,75.9,78.2,75.1,78.2L75.1,78.2z"/>
			<path class="st0" d="M77.3,72.9c-1.2-1.2-3.2-1.2-4.4,0c-1.2,1.2-1.2,3.2,0,4.4c1.2,1.2,3.2,1.2,4.4,0
				C78.5,76,78.5,74.1,77.3,72.9z"/>
		</g>
	</g>
	<g>
		<path class="st1" d="M41.4,39.2l3.3,0c-0.2,0.9-1.7,8-1.7,8.1c0,0.4,0,0.7,0.2,0.9c0.2,0.2,0.4,0.3,0.6,0.3c0.1,0,0.3,0,0.4-0.1
			c0.4-0.1,0.7-0.3,1-0.5c0.1-0.1,0.2-0.1,0.3-0.2c0.1,0,0.1-0.1,0.1-0.2l1.7-8c0,0,0-0.1,0-0.1l3.3-0.1c-0.1,0.9-1.2,6.1-1.6,8
			c0,0.1,0,0.3,0,0.4c0,0.4,0.2,0.7,0.6,0.8c0.1,0,0.3,0.1,0.4,0.1l0,0c0.2,0,0.4-0.1,0.6-0.2c0.3-0.2,0.7-0.4,1-0.7
			c0.3-0.2,0.7-0.5,1-0.8c0.2-0.2,0.5-0.3,0.8-0.3c0.1,0,0.3,0,0.4,0l-0.6,0.7c-0.5,0.5-1,1-1.5,1.4c-0.5,0.5-1.1,0.9-1.7,1.4
			c-0.5,0.4-1.1,0.5-1.7,0.5c-0.4,0-0.8-0.1-1.3-0.2c-0.8-0.3-1.2-0.8-1.4-1.7c-0.1,0.1-0.2,0.3-0.4,0.4c-0.9,0.7-1.8,1.5-3.1,1.5
			l-0.2,0.9L42,52.3l-0.1,0.2c0,0.2-0.1,0.4-0.1,0.5c0,0.4-0.2,0.5-0.6,0.6c-0.6,0.1-1.8,0.4-2.5,0.6c-0.3,0.1-0.5,0.1-0.5,0.1
			L41.4,39.2z"/>
		<path class="st1" d="M53.9,46.5c-0.7,0.7-1.4,1.4-2.1,2.1c-0.5,0.5-1.1,1-1.7,1.4c-0.9,0.6-1.9,0.6-2.9,0.3
			c-0.8-0.3-1.2-0.8-1.4-1.7c-1,0.8-2,1.8-3.5,1.9c-0.1,0.6-0.2,1.1-0.4,1.7c-0.1,0.3-0.1,0.5-0.2,0.8c0,0.4-0.2,0.5-0.6,0.6
			c-0.9,0.2-2.8,0.7-3,0.7c1.1-5,2.1-10.1,3.2-15.1c1.1,0,2.2,0,3.3,0c-0.2,0.8-1.7,8-1.7,8.1c-0.1,0.9,0.5,1.4,1.3,1.1
			c0.5-0.1,0.9-0.5,1.3-0.7c0.1,0,0.1-0.2,0.1-0.3c0.6-2.7,1.1-5.3,1.7-8c0-0.1,0-0.1,0.1-0.2c1.1,0,2.1,0,3.2,0
			c-0.2,0.8-1.3,6.1-1.7,8c0,0.1,0,0.3,0,0.4c0,0.4,0.2,0.7,0.6,0.8c0.4,0.1,0.7,0.1,1.1-0.1c0.3-0.2,0.7-0.4,1-0.7
			c0.3-0.3,0.7-0.5,1-0.8C53.1,46.5,53.4,46.4,53.9,46.5z"/>
	</g>
	<polygon class="st0" points="119.5,51.8 119.5,40 115.4,51.7 113.2,51.8 109,40 109.1,51.7 106.8,51.8 106.8,37.6 110.3,37.5 
		114.3,48.8 114.4,48.8 118.2,37.6 121.9,37.5 122,51.8 	"/>
	<polygon class="st0" points="133.8,51.8 133.7,37.6 136.2,37.5 136.2,51.8 	"/>
	<path class="st0" d="M154.4,52.1c-1,0-2-0.2-2.8-0.6c-0.8-0.4-1.5-0.9-2.1-1.6c-0.6-0.7-1-1.5-1.3-2.4c-0.3-0.9-0.4-1.9-0.4-3
		s0.2-2.1,0.5-3c0.3-0.9,0.8-1.7,1.3-2.4c0.6-0.7,1.3-1.2,2.1-1.6c0.8-0.4,1.7-0.6,2.8-0.6c1,0,1.8,0.1,2.6,0.4
		c0.8,0.3,1.5,0.7,2,1.3l-1.5,1.3c-0.5-0.4-0.9-0.7-1.4-0.9c-0.5-0.2-1-0.3-1.6-0.3c-0.7,0-1.3,0.2-1.8,0.5
		c-0.5,0.3-0.9,0.7-1.3,1.2c-0.3,0.5-0.6,1.1-0.8,1.8c-0.2,0.7-0.3,1.4-0.3,2.2c0,0.8,0.1,1.5,0.3,2.2c0.2,0.7,0.4,1.3,0.8,1.8
		c0.3,0.5,0.8,0.9,1.3,1.2c0.5,0.3,1.1,0.5,1.8,0.5c0.6,0,1.2-0.1,1.7-0.4c0.5-0.3,0.9-0.6,1.2-1l1.5,1.2c-0.5,0.6-1.1,1.1-1.8,1.4
		C156.4,52,155.5,52.1,154.4,52.1z"/>
	<path class="st0" d="M177.4,51.8l-3.2-6.3l-2.1,0l0.1,6.3l-2.4,0.1l-0.1-14.2l4.9-0.1c0.7,0,1.3,0.1,1.9,0.2
		c0.6,0.1,1.2,0.4,1.6,0.7c0.5,0.3,0.8,0.7,1.1,1.2c0.3,0.5,0.4,1.1,0.4,1.8c0,0.6-0.1,1.1-0.3,1.5c-0.2,0.4-0.5,0.8-0.8,1.1
		c-0.3,0.3-0.7,0.5-1,0.7c-0.4,0.2-0.7,0.3-1.1,0.3l3.6,6.6H177.4z M172.1,44l2.1-0.1c0.9,0,1.6-0.2,2.1-0.6c0.5-0.4,0.8-1,0.8-1.8
		c0-0.5-0.1-0.9-0.3-1.2c-0.2-0.3-0.4-0.5-0.7-0.7c-0.3-0.2-0.6-0.3-1-0.4c-0.4-0.1-0.7-0.1-1.1-0.1h-2.1V44z"/>
	<path class="st0" d="M196.6,52.1c-1,0-1.9-0.2-2.7-0.5c-0.8-0.4-1.5-0.9-2-1.5c-0.6-0.7-1-1.5-1.3-2.4c-0.3-0.9-0.4-1.9-0.4-3
		c0-1.1,0.1-2.1,0.4-3c0.3-0.9,0.7-1.7,1.2-2.4c0.5-0.6,1.2-1.2,2-1.5c0.8-0.4,1.7-0.5,2.7-0.5c1,0,1.9,0.2,2.7,0.5
		c0.8,0.4,1.5,0.9,2,1.5c0.6,0.6,1,1.4,1.3,2.4c0.3,0.9,0.4,1.9,0.4,3c0,1.1-0.1,2.1-0.4,3c-0.3,0.9-0.7,1.7-1.3,2.4
		c-0.6,0.7-1.2,1.2-2,1.5C198.5,51.9,197.6,52.1,196.6,52.1z M196.6,38.9c-0.6,0-1.2,0.1-1.7,0.4c-0.5,0.3-0.9,0.7-1.2,1.2
		s-0.6,1.1-0.7,1.8s-0.2,1.5-0.2,2.2c0,0.8,0.1,1.5,0.2,2.2s0.4,1.3,0.7,1.8c0.3,0.5,0.7,0.9,1.2,1.2c0.5,0.3,1,0.4,1.7,0.4
		c0.6,0,1.2-0.1,1.6-0.4c0.5-0.3,0.9-0.7,1.2-1.2c0.3-0.5,0.6-1.1,0.7-1.8c0.2-0.7,0.2-1.5,0.2-2.2c0-0.8-0.1-1.5-0.2-2.2
		c-0.2-0.7-0.4-1.3-0.7-1.8c-0.3-0.5-0.7-0.9-1.2-1.2C197.8,39.1,197.2,38.9,196.6,38.9z"/>
	<polygon class="st0" points="223.3,51.8 215.7,38.9 215.7,51.7 214.7,51.8 214.7,37.6 215.9,37.5 223.5,50.4 223.5,37.6 
		224.4,37.5 224.5,51.8 	"/>
	<polygon class="st0" points="223.3,51.7 215.5,38.3 215.5,51.6 214.9,51.7 214.8,37.7 215.8,37.7 223.7,51 223.6,37.7 224.3,37.7 
		224.3,51.7 	"/>
	<path class="st0" d="M244.6,51.8l-1.4-4l-6.3,0l-1.4,3.9l-0.9,0l4.9-14.2l1.3,0l4.8,14.3H244.6z M237.2,47.1l5.8-0.1l-2.9-8.6
		L237.2,47.1z"/>
	<path class="st0" d="M244.7,51.7l-1.4-4l-6.5,0l-1.4,3.9l-0.6,0l4.8-13.9l1.1,0l4.7,14H244.7z M237,47.3l6.2-0.1l-3.1-9.1L237,47.3
		z"/>
	<path class="st0" d="M260.2,52.1c-1,0-1.8-0.1-2.4-0.4c-0.6-0.3-1.2-0.7-1.5-1.2c-0.4-0.5-0.7-1.1-0.8-1.8
		c-0.1-0.7-0.2-1.4-0.2-2.2v-8.9l0.9-0.1l0.1,8.8c0,0.6,0,1.2,0.1,1.8c0.1,0.6,0.3,1.1,0.6,1.6c0.3,0.5,0.7,0.8,1.2,1.1
		c0.5,0.3,1.2,0.4,2.1,0.4c0.9,0,1.6-0.1,2.1-0.4c0.5-0.3,0.9-0.7,1.2-1.1c0.3-0.5,0.5-1,0.6-1.6c0.1-0.6,0.1-1.2,0.1-1.9v-8.7
		l0.9-0.1l0.1,9c0,0.8-0.1,1.5-0.2,2.2c-0.2,0.7-0.4,1.3-0.8,1.8c-0.4,0.5-0.9,0.9-1.5,1.2C261.9,52,261.1,52.1,260.2,52.1z"/>
	<path class="st0" d="M260.2,52c-0.9,0-1.7-0.1-2.3-0.4c-0.6-0.3-1.1-0.7-1.5-1.2c-0.4-0.5-0.6-1.1-0.8-1.7
		c-0.1-0.7-0.2-1.4-0.2-2.1v-8.8l0.6-0.1l0.1,8.6c0,0.6,0,1.3,0.1,1.9c0.1,0.6,0.3,1.2,0.6,1.7c0.3,0.5,0.7,0.9,1.3,1.2
		c0.5,0.3,1.3,0.5,2.2,0.5c0.9,0,1.6-0.1,2.1-0.4c0.5-0.3,1-0.7,1.3-1.2c0.3-0.5,0.5-1,0.6-1.6c0.1-0.6,0.1-1.3,0.1-1.9v-8.6
		l0.6-0.1l0.1,8.8c0,0.8-0.1,1.5-0.2,2.1c-0.2,0.7-0.4,1.2-0.8,1.7c-0.4,0.5-0.9,0.9-1.5,1.2C261.9,51.8,261.1,52,260.2,52z"/>
	<polygon class="st0" points="278.7,51.8 278.6,38.3 275,38.3 275,37.6 283.2,37.5 283.3,38.3 279.5,38.3 279.6,51.8 	"/>
	<polygon class="st0" points="278.8,51.7 278.8,38.1 275.1,38.2 275.1,37.7 283.1,37.7 283.1,38.1 279.4,38.2 279.5,51.7 	"/>
	<path class="st0" d="M293.6,42.1c-0.6,0-1.1-0.1-1.6-0.3c-0.5-0.2-0.9-0.5-1.3-0.9c-0.4-0.4-0.6-0.8-0.8-1.4
		c-0.2-0.5-0.3-1.1-0.3-1.8c0-0.7,0.1-1.3,0.3-1.8c0.2-0.5,0.5-1,0.8-1.4c0.4-0.4,0.8-0.7,1.3-0.9c0.5-0.2,1-0.3,1.6-0.3
		c0.6,0,1.1,0.1,1.6,0.3c0.5,0.2,0.9,0.5,1.3,0.9c0.4,0.4,0.6,0.8,0.8,1.4c0.2,0.5,0.3,1.1,0.3,1.8c0,0.7-0.1,1.3-0.3,1.8
		c-0.2,0.5-0.5,1-0.8,1.4c-0.4,0.4-0.8,0.7-1.3,0.9C294.7,42,294.2,42.1,293.6,42.1z M293.6,34.2c-0.5,0-0.9,0.1-1.3,0.3
		c-0.4,0.2-0.7,0.4-1,0.7c-0.3,0.3-0.5,0.7-0.6,1.1c-0.2,0.4-0.2,0.9-0.2,1.4c0,0.5,0.1,1,0.2,1.4c0.1,0.4,0.4,0.8,0.6,1.1
		c0.3,0.3,0.6,0.6,1,0.7c0.4,0.2,0.8,0.3,1.3,0.3c0.5,0,0.9-0.1,1.3-0.3c0.4-0.2,0.7-0.4,1-0.7c0.3-0.3,0.5-0.7,0.6-1.1
		c0.1-0.4,0.2-0.9,0.2-1.4c0-0.5-0.1-1-0.2-1.4c-0.1-0.4-0.4-0.8-0.6-1.1c-0.3-0.3-0.6-0.6-1-0.7C294.5,34.3,294.1,34.2,293.6,34.2z
		 M294.8,40.3l-1.4-2.1l-0.5,0l0.1,2l-0.8,0.1l-0.1-4.9l1.6-0.1c0.5,0,0.9,0.1,1.2,0.3c0.3,0.2,0.5,0.6,0.5,1.1c0,0.5-0.1,0.8-0.4,1
		c-0.2,0.2-0.5,0.3-0.8,0.4l1.6,2.2H294.8z M292.9,37.5l0.5-0.1c0.4,0,0.7-0.1,0.9-0.2c0.2-0.1,0.3-0.3,0.3-0.6
		c0-0.3-0.1-0.5-0.2-0.5c-0.2-0.1-0.4-0.2-0.7-0.2h-0.7V37.5z"/>
	<path class="st0" d="M293.6,42c-0.6,0-1.1-0.1-1.6-0.3c-0.5-0.2-0.9-0.5-1.2-0.8c-0.3-0.4-0.6-0.8-0.8-1.3
		c-0.2-0.5-0.3-1.1-0.3-1.7c0-0.6,0.1-1.2,0.3-1.7c0.2-0.5,0.5-1,0.8-1.3c0.3-0.4,0.8-0.6,1.2-0.8c0.5-0.2,1-0.3,1.6-0.3
		c0.6,0,1.1,0.1,1.6,0.3c0.5,0.2,0.9,0.5,1.2,0.8c0.3,0.4,0.6,0.8,0.8,1.3c0.2,0.5,0.3,1.1,0.3,1.7c0,0.6-0.1,1.2-0.3,1.7
		c-0.2,0.5-0.5,1-0.8,1.3c-0.3,0.4-0.8,0.6-1.2,0.8C294.7,41.9,294.2,42,293.6,42z M293.6,34.1c-0.5,0-1,0.1-1.4,0.3
		c-0.4,0.2-0.7,0.4-1,0.8c-0.3,0.3-0.5,0.7-0.7,1.2c-0.2,0.5-0.2,1-0.2,1.5c0,0.5,0.1,1,0.2,1.5c0.2,0.4,0.4,0.8,0.7,1.2
		c0.3,0.3,0.6,0.6,1,0.8c0.4,0.2,0.9,0.3,1.4,0.3s1-0.1,1.4-0.3c0.4-0.2,0.8-0.4,1-0.8c0.3-0.3,0.5-0.7,0.7-1.2
		c0.2-0.4,0.2-0.9,0.2-1.5c0-0.5-0.1-1-0.2-1.5c-0.2-0.4-0.4-0.8-0.7-1.2c-0.3-0.3-0.6-0.6-1-0.8C294.6,34.2,294.1,34.1,293.6,34.1z
		 M294.8,40.1l-1.4-2.1l-0.8,0l0.1,2l-0.5,0.1l-0.1-4.6l1.5-0.1c0.5,0,0.8,0.1,1.1,0.3c0.3,0.2,0.4,0.5,0.4,1c0,0.4-0.1,0.7-0.4,0.9
		c-0.2,0.2-0.6,0.3-0.9,0.4l1.5,2.1l0.1,0.1H294.8z M292.7,37.7l0.6-0.1c0.4,0,0.7-0.1,0.9-0.2c0.2-0.1,0.4-0.4,0.4-0.7
		c0-0.3-0.1-0.6-0.3-0.7c-0.2-0.1-0.5-0.2-0.7-0.2h-0.9V37.7z"/>
</g>
</svg>
