<?xml version="1.0" encoding="UTF-8"?><svg xmlns="http://www.w3.org/2000/svg" xmlns:xlink="http://www.w3.org/1999/xlink" fill-opacity="1" color-rendering="auto" color-interpolation="auto" text-rendering="auto" stroke="black" stroke-linecap="square" width="853" stroke-miterlimit="10" shape-rendering="auto" stroke-opacity="1" fill="black" stroke-dasharray="none" font-weight="normal" stroke-width="1" height="125" font-family="'Dialog'" font-style="normal" stroke-linejoin="miter" font-size="12px" stroke-dashoffset="0" image-rendering="auto">
  <!--Generated by ySVG 2.5-->
  <defs id="genericDefs"/>
  <g>
    <defs id="defs1">
      <clipPath clipPathUnits="userSpaceOnUse" id="clipPath1">
        <path d="M0 0 L853 0 L853 125 L0 125 L0 0 Z"/>
      </clipPath>
      <clipPath clipPathUnits="userSpaceOnUse" id="clipPath2">
        <path d="M501 446 L1354 446 L1354 571 L501 571 L501 446 Z"/>
      </clipPath>
    </defs>
    <g fill="rgb(51,102,255)" text-rendering="geometricPrecision" shape-rendering="geometricPrecision" transform="matrix(1,0,0,1,-501,-446)" stroke="rgb(51,102,255)">
      <path d="M516.9756 492.8867 L573.2112 466.8263 L652.7402 466.8263 L708.9756 492.8867 L708.9756 529.7416 L652.7402 555.802 L573.2112 555.802 L516.9756 529.7416 Z" fill-rule="evenodd" clip-path="url(#clipPath2)" stroke="none"/>
    </g>
    <g stroke-linecap="butt" transform="matrix(1,0,0,1,-501,-446)" fill="navy" text-rendering="geometricPrecision" shape-rendering="geometricPrecision" stroke="navy" stroke-miterlimit="1.45">
      <path fill="none" d="M516.9756 492.8867 L573.2112 466.8263 L652.7402 466.8263 L708.9756 492.8867 L708.9756 529.7416 L652.7402 555.802 L573.2112 555.802 L516.9756 529.7416 Z" fill-rule="evenodd" clip-path="url(#clipPath2)"/>
      <text x="563.6954" y="515.4684" clip-path="url(#clipPath2)" fill="black" font-family="sans-serif" stroke="none" xml:space="preserve">External System</text>
    </g>
    <g fill="rgb(51,102,255)" text-rendering="geometricPrecision" shape-rendering="geometricPrecision" transform="matrix(1,0,0,1,-501,-446)" stroke="rgb(51,102,255)">
      <path d="M1146.9618 492.8867 L1203.1973 466.8263 L1282.7263 466.8263 L1338.9618 492.8867 L1338.9618 529.7416 L1282.7263 555.802 L1203.1973 555.802 L1146.9618 529.7416 Z" fill-rule="evenodd" clip-path="url(#clipPath2)" stroke="none"/>
    </g>
    <g stroke-linecap="butt" transform="matrix(1,0,0,1,-501,-446)" fill="navy" text-rendering="geometricPrecision" shape-rendering="geometricPrecision" stroke="navy" stroke-miterlimit="1.45">
      <path fill="none" d="M1146.9618 492.8867 L1203.1973 466.8263 L1282.7263 466.8263 L1338.9618 492.8867 L1338.9618 529.7416 L1282.7263 555.802 L1203.1973 555.802 L1146.9618 529.7416 Z" fill-rule="evenodd" clip-path="url(#clipPath2)"/>
      <text x="1193.6815" y="515.4684" clip-path="url(#clipPath2)" fill="black" font-family="sans-serif" stroke="none" xml:space="preserve">External System</text>
    </g>
    <g fill="rgb(204,153,255)" text-rendering="geometricPrecision" shape-rendering="geometricPrecision" transform="matrix(1,0,0,1,-501,-446)" stroke="rgb(204,153,255)">
      <path d="M890.9832 461.3141 L974.2007 461.3141 L964.9543 491.3141 L881.7368 491.3141 Z" fill-rule="evenodd" clip-path="url(#clipPath2)" stroke="none"/>
    </g>
    <g text-rendering="geometricPrecision" stroke-miterlimit="1.45" shape-rendering="geometricPrecision" transform="matrix(1,0,0,1,-501,-446)" stroke-linecap="butt">
      <path fill="none" d="M890.9832 461.3141 L974.2007 461.3141 L964.9543 491.3141 L881.7368 491.3141 Z" fill-rule="evenodd" clip-path="url(#clipPath2)"/>
      <text x="901.6719" xml:space="preserve" y="480.4684" clip-path="url(#clipPath2)" font-family="sans-serif" stroke="none">Message</text>
    </g>
    <g stroke-linecap="butt" transform="matrix(1,0,0,1,-501,-446)" fill="rgb(204,153,255)" text-rendering="geometricPrecision" shape-rendering="geometricPrecision" stroke="rgb(204,153,255)" stroke-width="5" stroke-miterlimit="1.45">
      <path d="M726.9557 503.8141 L708.9557 511.3141 L726.9557 518.8141 L723.9557 513.8141 L1131.9443 513.8141 L1128.9443 518.8141 L1146.9443 511.3141 L1128.9443 503.8141 L1131.9443 508.8141 L723.9557 508.8141 L726.9557 503.8141 Z" stroke="none" clip-path="url(#clipPath2)"/>
    </g>
    <g stroke-linecap="round" transform="matrix(1,0,0,1,-501,-446)" fill="purple" text-rendering="geometricPrecision" shape-rendering="geometricPrecision" stroke-dasharray="4,3,0,3" stroke="purple" stroke-miterlimit="1.45">
      <path fill="none" d="M726.9557 503.8141 L708.9557 511.3141 L726.9557 518.8141 L723.9557 513.8141 L1131.9443 513.8141 L1128.9443 518.8141 L1146.9443 511.3141 L1128.9443 503.8141 L1131.9443 508.8141 L723.9557 508.8141 L726.9557 503.8141 Z" clip-path="url(#clipPath2)"/>
    </g>
  </g>
</svg>
