<?xml version="1.0" encoding="UTF-8" standalone="no"?>
<!-- Created with Inkscape (http://www.inkscape.org/) -->

<svg
   width="500"
   height="550"
   id="svg2"
   sodipodi:version="0.32"
   inkscape:version="1.1.2 (0a00cf5339, 2022-02-04)"
   version="1.0"
   sodipodi:docname="MVC-Process.svg"
   inkscape:output_extension="org.inkscape.output.svg.inkscape"
   inkscape:export-filename="/Users/regis/Pictures/SVG/MVC.png"
   inkscape:export-xdpi="90"
   inkscape:export-ydpi="90"
   xmlns:inkscape="http://www.inkscape.org/namespaces/inkscape"
   xmlns:sodipodi="http://sodipodi.sourceforge.net/DTD/sodipodi-0.dtd"
   xmlns="http://www.w3.org/2000/svg"
   xmlns:svg="http://www.w3.org/2000/svg"
   xmlns:rdf="http://www.w3.org/1999/02/22-rdf-syntax-ns#"
   xmlns:cc="http://creativecommons.org/ns#"
   xmlns:dc="http://purl.org/dc/elements/1.1/">
  <defs
     id="defs4">
    <marker
       style="overflow:visible;"
       id="marker72473"
       refX="0.0"
       refY="0.0"
       orient="auto"
       inkscape:stockid="Arrow1Lend"
       inkscape:isstock="true">
      <path
         transform="scale(0.8) rotate(180) translate(12.5,0)"
         style="fill-rule:evenodd;fill:context-stroke;stroke:context-stroke;stroke-width:1.0pt;"
         d="M 0.0,0.0 L 5.0,-5.0 L -12.5,0.0 L 5.0,5.0 L 0.0,0.0 z "
         id="path9749" />
    </marker>
    <marker
       style="overflow:visible"
       id="Arrow1Lstart"
       refX="0.0"
       refY="0.0"
       orient="auto"
       inkscape:stockid="Arrow1Lstart"
       inkscape:isstock="true">
      <path
         transform="scale(0.8) translate(12.5,0)"
         style="fill-rule:evenodd;fill:context-stroke;stroke:context-stroke;stroke-width:1.0pt"
         d="M 0.0,0.0 L 5.0,-5.0 L -12.5,0.0 L 5.0,5.0 L 0.0,0.0 z "
         id="path9746" />
    </marker>
    <linearGradient
       id="linearGradient2846"
       inkscape:swatch="solid">
      <stop
         style="stop-color:#b4eab4;stop-opacity:1;"
         offset="0"
         id="stop2844" />
    </linearGradient>
    <marker
       inkscape:stockid="Arrow2Mstart"
       orient="auto"
       refY="0"
       refX="0"
       id="Arrow2Mstart"
       style="overflow:visible">
      <path
         id="path3232"
         style="font-size:12px;fill-rule:evenodd;stroke-width:0.625;stroke-linejoin:round"
         d="M 8.7185878,4.0337352 L -2.2072895,0.016013256 L 8.7185884,-4.0017078 C 6.97309,-1.6296469 6.9831476,1.6157441 8.7185878,4.0337352 z"
         transform="scale(0.6,0.6)" />
    </marker>
    <marker
       inkscape:stockid="Arrow2Mend"
       orient="auto"
       refY="0"
       refX="0"
       id="Arrow2Mend"
       style="overflow:visible">
      <path
         id="path3235"
         style="font-size:12px;fill-rule:evenodd;stroke-width:0.625;stroke-linejoin:round"
         d="M 8.7185878,4.0337352 L -2.2072895,0.016013256 L 8.7185884,-4.0017078 C 6.97309,-1.6296469 6.9831476,1.6157441 8.7185878,4.0337352 z"
         transform="scale(-0.6,-0.6)" />
    </marker>
    <marker
       inkscape:stockid="Arrow1Send"
       orient="auto"
       refY="0"
       refX="0"
       id="Arrow1Send"
       style="overflow:visible">
      <path
         id="path3223"
         d="M 0,0 L 5,-5 L -12.5,0 L 5,5 L 0,0 z"
         style="fill-rule:evenodd;stroke:#000000;stroke-width:1pt;marker-start:none"
         transform="matrix(-0.2,0,0,-0.2,-1.2,0)" />
    </marker>
    <marker
       inkscape:stockid="Arrow1Lend"
       orient="auto"
       refY="0"
       refX="0"
       id="Arrow1Lend"
       style="overflow:visible">
      <path
         id="path3211"
         d="M 0,0 L 5,-5 L -12.5,0 L 5,5 L 0,0 z"
         style="fill-rule:evenodd;stroke:#000000;stroke-width:1pt;marker-start:none"
         transform="matrix(-0.8,0,0,-0.8,-10,0)" />
    </marker>
    <inkscape:perspective
       sodipodi:type="inkscape:persp3d"
       inkscape:vp_x="0 : 526.18109 : 1"
       inkscape:vp_y="0 : 1000 : 0"
       inkscape:vp_z="744.09448 : 526.18109 : 1"
       inkscape:persp3d-origin="372.04724 : 350.78739 : 1"
       id="perspective10" />
  </defs>
  <sodipodi:namedview
     id="base"
     pagecolor="#ffffff"
     bordercolor="#666666"
     borderopacity="1.0"
     gridtolerance="10000"
     guidetolerance="10"
     objecttolerance="10"
     inkscape:pageopacity="0.0"
     inkscape:pageshadow="2"
     inkscape:zoom="1.4088798"
     inkscape:cx="211.87045"
     inkscape:cy="251.26345"
     inkscape:document-units="px"
     inkscape:current-layer="layer1"
     showgrid="false"
     showguides="true"
     inkscape:guide-bbox="true"
     inkscape:window-width="1920"
     inkscape:window-height="1043"
     inkscape:window-x="0"
     inkscape:window-y="0"
     inkscape:pagecheckerboard="0"
     inkscape:window-maximized="1"
     inkscape:snap-text-baseline="true" />
  <metadata
     id="metadata7">
    <rdf:RDF>
      <cc:Work
         rdf:about="">
        <dc:format>image/svg+xml</dc:format>
        <dc:type
           rdf:resource="http://purl.org/dc/dcmitype/StillImage" />
      </cc:Work>
    </rdf:RDF>
  </metadata>
  <g
     inkscape:label="Layer 1"
     inkscape:groupmode="layer"
     id="layer1">
    <path
       sodipodi:type="arc"
       style="fill:#b4eab4;fill-opacity:1;fill-rule:nonzero;stroke:none;stroke-width:1.12496865;stroke-linecap:round;stroke-linejoin:round;marker:none;marker-start:none;marker-mid:none;marker-end:none;stroke-miterlimit:4;stroke-dasharray:none;stroke-dashoffset:0;stroke-opacity:0.36904764;visibility:visible;display:inline;overflow:visible;enable-background:accumulate;-inkscape-font-specification:Verdana Bold;font-family:Verdana;font-weight:bold;font-style:normal;font-stretch:normal;font-variant:normal"
       id="path2383"
       sodipodi:cx="204.5"
       sodipodi:cy="499.36218"
       sodipodi:rx="33.5"
       sodipodi:ry="33"
       d="M 238,499.36218 A 33.5,33 0 1 1 171,499.36218 A 33.5,33 0 1 1 238,499.36218 z"
       transform="matrix(1.7910448,0,0,1.8181818,-132.87975,-440.3757)" />
    <rect
       style="fill:#b4eaea;fill-opacity:1;fill-rule:nonzero;stroke:none;stroke-width:1;stroke-linecap:round;stroke-linejoin:round;marker:none;marker-start:none;marker-mid:none;marker-end:none;stroke-miterlimit:4;stroke-dasharray:none;stroke-dashoffset:0;stroke-opacity:0.36904764;visibility:visible;display:inline;overflow:visible;enable-background:accumulate;-inkscape-font-specification:Verdana Bold;font-family:Verdana;font-weight:bold;font-style:normal;font-stretch:normal;font-variant:normal"
       id="rect3155"
       width="188"
       height="82"
       x="15.5"
       y="227.94446" />
    <rect
       style="fill:#eaeab4;fill-opacity:1;fill-rule:nonzero;stroke:none;stroke-width:1;stroke-linecap:round;stroke-linejoin:round;marker:none;marker-start:none;marker-mid:none;marker-end:none;stroke-miterlimit:4;stroke-dasharray:none;stroke-dashoffset:0;stroke-opacity:0.36904764;visibility:visible;display:inline;overflow:visible;enable-background:accumulate;-inkscape-font-specification:Verdana Bold;font-family:Verdana;font-weight:bold;font-style:normal;font-stretch:normal;font-variant:normal"
       id="rect3157"
       width="254"
       height="82"
       x="230.5"
       y="227.94446" />
    <rect
       style="font-style:normal;font-variant:normal;font-weight:bold;font-stretch:normal;font-family:Verdana;-inkscape-font-specification:'Verdana Bold';display:inline;overflow:visible;visibility:visible;fill:#eab4ea;fill-opacity:1;fill-rule:nonzero;stroke:none;stroke-width:1;stroke-linecap:round;stroke-linejoin:round;stroke-miterlimit:4;stroke-dasharray:none;stroke-dashoffset:0;stroke-opacity:0.369048;marker:none;marker-start:none;marker-mid:none;marker-end:none;enable-background:accumulate"
       id="rect3159"
       width="204"
       height="82"
       x="130.5"
       y="22.444471" />
    <text
       xml:space="preserve"
       style="font-size:26px;font-style:normal;font-variant:normal;font-weight:bold;font-stretch:normal;fill:#333333;fill-opacity:1;stroke:none;stroke-width:1px;stroke-linecap:butt;stroke-linejoin:miter;stroke-opacity:1;font-family:Verdana;-inkscape-font-specification:Verdana Bold"
       x="176.27318"
       y="73.441475"
       id="text3161"><tspan
         sodipodi:role="line"
         id="tspan3163"
         x="176.27318"
         y="73.441475">MODEL</tspan></text>
    <text
       xml:space="preserve"
       style="font-size:26px;font-style:normal;font-variant:normal;font-weight:bold;font-stretch:normal;fill:#333333;fill-opacity:1;stroke:none;stroke-width:1px;stroke-linecap:butt;stroke-linejoin:miter;stroke-opacity:1;font-family:Verdana;-inkscape-font-specification:Verdana Bold"
       x="69.17334"
       y="279.20145"
       id="text3165"><tspan
         sodipodi:role="line"
         id="tspan3167"
         x="69.17334"
         y="279.20145">VIEW</tspan></text>
    <text
       xml:space="preserve"
       style="font-size:26px;font-style:normal;font-variant:normal;font-weight:bold;font-stretch:normal;fill:#333333;fill-opacity:1;stroke:none;stroke-width:1px;stroke-linecap:butt;stroke-linejoin:miter;stroke-opacity:1;font-family:Verdana;-inkscape-font-specification:Verdana Bold"
       x="259.49854"
       y="278.94147"
       id="text3169"><tspan
         sodipodi:role="line"
         id="tspan3171"
         x="259.49854"
         y="278.94147">CONTROLLER</tspan></text>
    <text
       xml:space="preserve"
       style="font-size:20px;font-style:normal;font-variant:normal;font-weight:bold;font-stretch:normal;fill:#dcdcdc;fill-opacity:1;stroke:#dcdcdc;stroke-width:1px;stroke-linecap:butt;stroke-linejoin:miter;stroke-opacity:0.90000147;font-family:Verdana;-inkscape-font-specification:Verdana Bold"
       x="-81.661507"
       y="503.71768"
       id="text3173"
       transform="matrix(0.6769594,-0.7360204,0.7360204,0.6769594,0,0)"><tspan
         sodipodi:role="line"
         id="tspan3175"
         x="-81.661507"
         y="503.71768">USES</tspan></text>
    <text
       xml:space="preserve"
       style="font-size:20px;font-style:normal;font-variant:normal;font-weight:bold;font-stretch:normal;fill:#dcdcdc;fill-opacity:1;stroke:#dcdcdc;stroke-width:1px;stroke-linecap:butt;stroke-linejoin:miter;stroke-opacity:0.90000147;font-family:Verdana;-inkscape-font-specification:Verdana Bold"
       x="289.5"
       y="166.82448"
       id="text3177"><tspan
         sodipodi:role="line"
         id="tspan3179"
         x="289.5"
         y="166.82448">MANIPULATES</tspan></text>
    <path
       style="font-style:normal;font-variant:normal;font-weight:bold;font-stretch:normal;fill:none;fill-rule:evenodd;stroke:#dcdcdc;stroke-width:2px;stroke-linecap:butt;stroke-linejoin:miter;stroke-opacity:1;font-family:Verdana;-inkscape-font-specification:Verdana Bold;fill-opacity:1;marker-end:"
       d="M 288.80074,419.01135 L 305.87756,400.67065"
       id="path3181" />
    <path
       style="font-style:normal;font-variant:normal;font-weight:bold;font-stretch:normal;fill:none;fill-rule:evenodd;stroke:#dcdcdc;stroke-width:2px;stroke-linecap:butt;stroke-linejoin:miter;marker-end:url(#marker72473);stroke-opacity:1;font-family:Verdana;-inkscape-font-specification:Verdana Bold;fill-opacity:1"
       d="M 352.16308,348.60357 L 375.60713,322.57199"
       id="path3183"
       sodipodi:nodetypes="cc" />
    <path
       style="font-style:normal;font-variant:normal;font-weight:bold;font-stretch:normal;fill:none;fill-rule:evenodd;stroke:#dcdcdc;stroke-width:2px;stroke-linecap:butt;stroke-linejoin:miter;stroke-opacity:1;font-family:Verdana;-inkscape-font-specification:Verdana Bold;fill-opacity:1;marker-end:"
       d="M 99.715109,321.32805 L 113.36941,339.21018"
       id="path3185"
       sodipodi:nodetypes="cc" />
    <path
       style="fill:none;fill-rule:nonzero;stroke:#dcdcdc;stroke-width:2px;stroke-linecap:butt;stroke-linejoin:miter;marker-end:url(#marker72473);stroke-opacity:1;-inkscape-font-specification:Verdana Bold;font-family:Verdana;font-weight:bold;font-style:normal;font-stretch:normal;font-variant:normal;fill-opacity:1"
       d="M 153.33318,393.30583 L 176.23372,422.93853"
       id="path3187"
       sodipodi:nodetypes="cc" />
    <text
       xml:space="preserve"
       style="font-size:20px;font-style:normal;font-variant:normal;font-weight:bold;font-stretch:normal;fill:#dcdcdc;fill-opacity:1;stroke:#dcdcdc;stroke-width:1px;stroke-linecap:butt;stroke-linejoin:miter;stroke-opacity:0.90000147;font-family:Verdana;-inkscape-font-specification:Verdana Bold"
       x="350.35611"
       y="102.61337"
       id="text3189"
       transform="matrix(0.563762,0.8259373,-0.8259373,0.563762,0,0)"><tspan
         sodipodi:role="line"
         id="tspan3191"
         x="350.35611"
         y="102.61337">SEES</tspan></text>
    <path
       style="fill:none;fill-rule:evenodd;stroke:#dcdcdc;stroke-width:2px;stroke-linecap:butt;stroke-linejoin:miter;stroke-opacity:1;-inkscape-font-specification:Verdana Bold;font-family:Verdana;font-weight:bold;font-style:normal;font-stretch:normal;font-variant:normal;fill-opacity:1;marker-end:"
       d="M 117.5,65.444466 C 107.7032,66.633386 93.84264,72.210746 91.5,99.444466 L 91.5,141.44447"
       id="path3193"
       sodipodi:nodetypes="ccc" />
    <path
       style="font-style:normal;font-variant:normal;font-weight:bold;font-stretch:normal;font-family:Verdana;-inkscape-font-specification:'Verdana Bold';fill:none;fill-opacity:1;fill-rule:evenodd;stroke:#dcdcdc;stroke-width:2.24568px;stroke-linecap:butt;stroke-linejoin:miter;stroke-opacity:1;marker-start:url(#Arrow1Lstart);marker-end:"
       d="m 344.99847,65.200646 c 31.7375,-0.831177 53.71114,6.933933 56.59327,34.842444 v 43.04066"
       id="path3195"
       sodipodi:nodetypes="ccc" />
    <text
       xml:space="preserve"
       style="font-size:20px;font-style:normal;font-variant:normal;font-weight:bold;font-stretch:normal;fill:#dcdcdc;fill-opacity:1;stroke:#dcdcdc;stroke-width:1px;stroke-linecap:butt;stroke-linejoin:miter;stroke-opacity:0.90000147;font-family:Verdana;-inkscape-font-specification:Verdana Bold"
       x="39.167664"
       y="166.82448"
       id="text3197"><tspan
         sodipodi:role="line"
         id="tspan3199"
         x="39.167664"
         y="166.82448">UPDATES</tspan></text>
    <text
       xml:space="preserve"
       style="font-size:26px;font-style:normal;font-variant:normal;font-weight:bold;font-stretch:normal;fill:#333333;fill-opacity:1;stroke:none;stroke-width:1px;stroke-linecap:butt;stroke-linejoin:miter;stroke-opacity:1;font-family:Verdana;-inkscape-font-specification:Verdana Bold"
       x="194.14006"
       y="475.70148"
       id="text3201"><tspan
         sodipodi:role="line"
         id="tspan3203"
         x="194.14006"
         y="475.70148">USER</tspan></text>
    <path
       style="fill:none;fill-rule:evenodd;stroke:#dcdcdc;stroke-width:2px;stroke-linecap:butt;stroke-linejoin:miter;marker-end:url(#marker72473);stroke-opacity:1;-inkscape-font-specification:Verdana Bold;font-family:Verdana;font-weight:bold;font-style:normal;font-stretch:normal;font-variant:normal;fill-opacity:1"
       d="M 93.5,175.44447 L 93.5,219.44447"
       id="path8205"
       sodipodi:nodetypes="cc" />
    <path
       style="font-style:normal;font-variant:normal;font-weight:bold;font-stretch:normal;font-family:Verdana;-inkscape-font-specification:'Verdana Bold';fill:none;fill-opacity:1;fill-rule:evenodd;stroke:#dcdcdc;stroke-width:2.0702px;stroke-linecap:butt;stroke-linejoin:miter;stroke-opacity:1;marker-end:"
       d="M 402.2382,218.69743 V 175.84029"
       id="path8207"
       sodipodi:nodetypes="cc" />
    <path
       style="opacity:0;fill:#dcdcdc;fill-opacity:1;fill-rule:nonzero;stroke:#dcdcdc;stroke-width:1.22209;stroke-linejoin:round;stroke-opacity:1"
       d="m 92.059253,217.54872 c -3.243341,-10.9018 -7.949878,-27.68661 -7.949878,-28.35146 0,-0.38788 1.916417,1.19118 4.258703,3.50903 l 4.258703,4.21427 v -10.80199 c 0,-6.72813 0.267687,-10.80198 0.709783,-10.80198 0.441643,0 0.709784,4.02211 0.709784,10.64675 0,5.85572 0.229509,10.64676 0.510019,10.64676 0.28051,0 2.196926,-1.66595 4.258702,-3.70212 2.061781,-2.03616 3.748681,-3.31872 3.748681,-2.85013 0,0.66601 -7.749977,28.66714 -8.787451,31.74957 -0.131393,0.39039 -0.904064,-1.52603 -1.717046,-4.2587 z"
       id="path72752" />
    <path
       style="opacity:0;fill:#dcdcdc;fill-opacity:1;fill-rule:nonzero;stroke:#dcdcdc;stroke-width:1.22209;stroke-linejoin:round;stroke-opacity:1"
       d="m 163.77317,414.97369 c -7.52002,-5.51967 -13.37754,-10.13418 -13.01671,-10.25445 0.36083,-0.12028 2.84044,0.0798 5.51025,0.44462 2.66981,0.36482 4.95416,0.57479 5.07633,0.46661 0.12217,-0.10819 -1.71267,-2.70521 -4.07741,-5.77115 -2.36475,-3.06594 -4.30127,-5.81399 -4.30338,-6.10678 -0.0115,-1.59681 1.89091,0.0823 5.85001,5.16312 l 4.438,5.69547 0.58562,-4.45334 c 1.08361,-8.24048 1.17338,-8.14139 7.84422,8.65851 3.43776,8.65769 6.14143,15.84293 6.00815,15.9672 -0.13327,0.12427 -6.39506,-4.29014 -13.91508,-9.80981 z"
       id="path74126" />
    <path
       style="font-variation-settings:normal;opacity:0;vector-effect:none;fill:#dcdcdc;fill-opacity:1;stroke:#dcdcdc;stroke-width:0.86742;stroke-linecap:butt;stroke-linejoin:round;stroke-miterlimit:4;stroke-dasharray:none;stroke-dashoffset:0;stroke-opacity:1;-inkscape-stroke:none;stop-color:#000000;stop-opacity:1"
       d="m 163.77317,414.97369 c -7.52002,-5.51967 -13.37754,-10.13418 -13.01671,-10.25445 0.36083,-0.12028 2.84044,0.0798 5.51025,0.44462 2.66981,0.36482 4.95416,0.57479 5.07633,0.46661 0.12217,-0.10819 -1.71267,-2.70521 -4.07741,-5.77115 -2.36475,-3.06594 -4.30127,-5.81399 -4.30338,-6.10678 -0.0115,-1.59681 1.89091,0.0823 5.85001,5.16312 l 4.438,5.69547 0.58562,-4.45334 c 1.08361,-8.24048 1.17338,-8.14139 7.84422,8.65851 3.43776,8.65769 6.14143,15.84293 6.00815,15.9672 -0.13327,0.12427 -6.39506,-4.29014 -13.91508,-9.80981 z"
       id="path74218" />
    <path
       style="font-variation-settings:normal;opacity:0;vector-effect:none;fill:#dcdcdc;fill-opacity:1;stroke:#dcdcdc;stroke-width:0.86742;stroke-linecap:butt;stroke-linejoin:round;stroke-miterlimit:4;stroke-dasharray:none;stroke-dashoffset:0;stroke-opacity:1;-inkscape-stroke:none;stop-color:#000000;stop-opacity:1;fill-rule:evenodd"
       d="m 92.059253,217.54872 c -3.243341,-10.9018 -7.949878,-27.68661 -7.949878,-28.35146 0,-0.38788 1.916417,1.19118 4.258703,3.50903 l 4.258703,4.21427 v -10.80199 c 0,-6.72813 0.267687,-10.80198 0.709783,-10.80198 0.441643,0 0.709784,4.02211 0.709784,10.64675 0,5.85572 0.229509,10.64676 0.510019,10.64676 0.28051,0 2.196926,-1.66595 4.258702,-3.70212 2.061781,-2.03616 3.748681,-3.31872 3.748681,-2.85013 0,0.66601 -7.749977,28.66714 -8.787451,31.74957 -0.131393,0.39039 -0.904064,-1.52603 -1.717046,-4.2587 z"
       id="path74428" />
    <path
       style="font-variation-settings:normal;opacity:0;vector-effect:none;fill:#dcdcdc;fill-opacity:1;stroke:#dcdcdc;stroke-width:0.86742;stroke-linecap:butt;stroke-linejoin:round;stroke-miterlimit:4;stroke-dasharray:none;stroke-dashoffset:0;stroke-opacity:1;-inkscape-stroke:none;stop-color:#000000;stop-opacity:1"
       d="m 92.059253,217.54872 c -3.243341,-10.9018 -7.949878,-27.68661 -7.949878,-28.35146 0,-0.38788 1.916417,1.19118 4.258703,3.50903 l 4.258703,4.21427 v -10.80199 c 0,-6.72813 0.267687,-10.80198 0.709783,-10.80198 0.441643,0 0.709784,4.02211 0.709784,10.64675 0,5.85572 0.229509,10.64676 0.510019,10.64676 0.28051,0 2.196926,-1.66595 4.258702,-3.70212 2.061781,-2.03616 3.748681,-3.31872 3.748681,-2.85013 0,0.66601 -7.749977,28.66714 -8.787451,31.74957 -0.131393,0.39039 -0.904064,-1.52603 -1.717046,-4.2587 z"
       id="path74504" />
  </g>
</svg>
