<?xml version="1.0" encoding="UTF-8" standalone="no"?>
<svg
   fill-opacity="1"
   color-rendering="auto"
   color-interpolation="auto"
   text-rendering="auto"
   stroke="black"
   stroke-linecap="square"
   width="1086"
   stroke-miterlimit="10"
   shape-rendering="auto"
   stroke-opacity="1"
   fill="black"
   stroke-dasharray="none"
   font-weight="normal"
   stroke-width="1"
   height="153"
   font-family="'Dialog'"
   font-style="normal"
   stroke-linejoin="miter"
   font-size="12px"
   stroke-dashoffset="0"
   image-rendering="auto"
   version="1.1"
   id="svg1084"
   sodipodi:docname="schema.svg"
   inkscape:version="1.1.2 (0a00cf5339, 2022-02-04)"
   xmlns:inkscape="http://www.inkscape.org/namespaces/inkscape"
   xmlns:sodipodi="http://sodipodi.sourceforge.net/DTD/sodipodi-0.dtd"
   xmlns="http://www.w3.org/2000/svg"
   xmlns:svg="http://www.w3.org/2000/svg">
  <sodipodi:namedview
     id="namedview1086"
     pagecolor="#ffffff"
     bordercolor="#666666"
     borderopacity="1.0"
     inkscape:pageshadow="2"
     inkscape:pageopacity="0.0"
     inkscape:pagecheckerboard="0"
     showgrid="false"
     inkscape:zoom="0.94567219"
     inkscape:cx="543"
     inkscape:cy="-93.055501"
     inkscape:window-width="1920"
     inkscape:window-height="983"
     inkscape:window-x="0"
     inkscape:window-y="0"
     inkscape:window-maximized="1"
     inkscape:current-layer="g1082" />
  <!--Generated by ySVG 2.5-->
  <defs
     id="genericDefs" />
  <g
     id="g1082">
    <defs
       id="defs1">
      <clipPath
         clipPathUnits="userSpaceOnUse"
         id="clipPath1">
        <path
           d="M0 0 L1086 0 L1086 153 L0 153 L0 0 Z"
           id="path1001" />
      </clipPath>
      <clipPath
         clipPathUnits="userSpaceOnUse"
         id="clipPath2">
        <path
           d="M1 330 L1087 330 L1087 483 L1 483 L1 330 Z"
           id="path1004" />
      </clipPath>
    </defs>
    <g
       fill="rgb(153,204,255)"
       text-rendering="geometricPrecision"
       shape-rendering="geometricPrecision"
       transform="matrix(1,0,0,1,-1,-330)"
       stroke="rgb(153,204,255)"
       id="g1010">
      <rect
         x="16"
         y="345"
         clip-path="url(#clipPath2)"
         width="179"
         rx="4"
         ry="4"
         height="123"
         stroke="none"
         id="rect1008" />
    </g>
    <g
       text-rendering="geometricPrecision"
       stroke-miterlimit="1.45"
       shape-rendering="geometricPrecision"
       transform="matrix(1,0,0,1,-1,-330)"
       stroke-linecap="butt"
       id="g1016">
      <rect
         x="16"
         y="345"
         clip-path="url(#clipPath2)"
         fill="none"
         width="179"
         rx="4"
         ry="4"
         height="123"
         id="rect1012" />
      <text
         x="101.3955"
         xml:space="preserve"
         y="410.6543"
         clip-path="url(#clipPath2)"
         font-family="sans-serif"
         stroke="none"
         id="text1014">A</text>
    </g>
    <g
       fill="rgb(153,204,255)"
       text-rendering="geometricPrecision"
       shape-rendering="geometricPrecision"
       transform="matrix(1,0,0,1,-1,-330)"
       stroke="rgb(153,204,255)"
       id="g1020">
      <rect
         x="454.1667"
         y="345"
         clip-path="url(#clipPath2)"
         width="179"
         rx="4"
         ry="4"
         height="123"
         stroke="none"
         id="rect1018" />
    </g>
    <g
       text-rendering="geometricPrecision"
       stroke-miterlimit="1.45"
       shape-rendering="geometricPrecision"
       transform="matrix(1,0,0,1,-1,-330)"
       stroke-linecap="butt"
       id="g1026">
      <rect
         x="454.1667"
         y="345"
         clip-path="url(#clipPath2)"
         fill="none"
         width="179"
         rx="4"
         ry="4"
         height="123"
         id="rect1022" />
      <text
         x="539.5505"
         xml:space="preserve"
         y="410.6543"
         clip-path="url(#clipPath2)"
         font-family="sans-serif"
         stroke="none"
         id="text1024">B</text>
    </g>
    <g
       fill="rgb(153,204,255)"
       text-rendering="geometricPrecision"
       shape-rendering="geometricPrecision"
       transform="matrix(1,0,0,1,-1,-330)"
       stroke="rgb(153,204,255)"
       id="g1030">
      <rect
         x="892.3333"
         y="345"
         clip-path="url(#clipPath2)"
         width="179"
         rx="4"
         ry="4"
         height="123"
         stroke="none"
         id="rect1028" />
    </g>
    <g
       text-rendering="geometricPrecision"
       stroke-miterlimit="1.45"
       shape-rendering="geometricPrecision"
       transform="matrix(1,0,0,1,-1,-330)"
       stroke-linecap="butt"
       id="g1036">
      <rect
         x="892.3333"
         y="345"
         clip-path="url(#clipPath2)"
         fill="none"
         width="179"
         rx="4"
         ry="4"
         height="123"
         id="rect1032" />
      <text
         x="977.6439"
         xml:space="preserve"
         y="410.6543"
         clip-path="url(#clipPath2)"
         font-family="sans-serif"
         stroke="none"
         id="text1034">C</text>
    </g>
    <g
       fill="rgb(153,51,102)"
       text-rendering="geometricPrecision"
       shape-rendering="geometricPrecision"
       transform="matrix(1,0,0,1,-1,-330)"
       stroke="rgb(153,51,102)"
       id="g1040"
       style="fill:#ed4917;fill-opacity:1">
      <path
         d="M183 391.5 L210 391.5 L213 406.5 L210 421.5 L183 421.5 L186 406.5 Z"
         fill-rule="evenodd"
         clip-path="url(#clipPath2)"
         stroke="none"
         id="path1038"
         style="fill:#ed4917;fill-opacity:1" />
    </g>
    <g
       text-rendering="geometricPrecision"
       stroke-miterlimit="1.45"
       shape-rendering="geometricPrecision"
       transform="matrix(1,0,0,1,-1,-330)"
       stroke-linecap="butt"
       id="g1044">
      <path
         fill="none"
         d="M183 391.5 L210 391.5 L213 406.5 L210 421.5 L183 421.5 L186 406.5 Z"
         fill-rule="evenodd"
         clip-path="url(#clipPath2)"
         id="path1042" />
    </g>
    <g
       fill="rgb(153,51,102)"
       text-rendering="geometricPrecision"
       shape-rendering="geometricPrecision"
       transform="matrix(1,0,0,1,-1,-330)"
       stroke="rgb(153,51,102)"
       id="g1048">
      <path
         d="M449 391.5 L476 391.5 L479 406.5 L476 421.5 L449 421.5 L452 406.5 Z"
         fill-rule="evenodd"
         clip-path="url(#clipPath2)"
         stroke="none"
         id="path1046" />
    </g>
    <g
       text-rendering="geometricPrecision"
       stroke-miterlimit="1.45"
       shape-rendering="geometricPrecision"
       transform="matrix(1,0,0,1,-1,-330)"
       stroke-linecap="butt"
       id="g1052"
       style="fill:#ed4917;fill-opacity:1">
      <path
         fill="none"
         d="M449 391.5 L476 391.5 L479 406.5 L476 421.5 L449 421.5 L452 406.5 Z"
         fill-rule="evenodd"
         clip-path="url(#clipPath2)"
         id="path1050"
         style="fill:#ed4917;fill-opacity:1" />
    </g>
    <g
       fill="rgb(153,51,102)"
       text-rendering="geometricPrecision"
       shape-rendering="geometricPrecision"
       transform="matrix(1,0,0,1,-1,-330)"
       stroke="rgb(153,51,102)"
       id="g1056">
      <path
         d="M886.3333 391.5 L913.3333 391.5 L916.3333 406.5 L913.3333 421.5 L886.3333 421.5 L889.3333 406.5 Z"
         fill-rule="evenodd"
         clip-path="url(#clipPath2)"
         stroke="none"
         id="path1054" />
    </g>
    <g
       text-rendering="geometricPrecision"
       stroke-miterlimit="1.45"
       shape-rendering="geometricPrecision"
       transform="matrix(1,0,0,1,-1,-330)"
       stroke-linecap="butt"
       id="g1060"
       style="fill:#ed4917;fill-opacity:1">
      <path
         fill="none"
         d="M886.3333 391.5 L913.3333 391.5 L916.3333 406.5 L913.3333 421.5 L886.3333 421.5 L889.3333 406.5 Z"
         fill-rule="evenodd"
         clip-path="url(#clipPath2)"
         id="path1058"
         style="fill:#ed4917;fill-opacity:1" />
    </g>
    <g
       fill="rgb(153,51,102)"
       text-rendering="geometricPrecision"
       shape-rendering="geometricPrecision"
       transform="matrix(1,0,0,1,-1,-330)"
       stroke="rgb(153,51,102)"
       id="g1064">
      <path
         d="M623 391.5 L650 391.5 L653 406.5 L650 421.5 L623 421.5 L626 406.5 Z"
         fill-rule="evenodd"
         clip-path="url(#clipPath2)"
         stroke="none"
         id="path1062" />
    </g>
    <g
       text-rendering="geometricPrecision"
       stroke-miterlimit="1.45"
       shape-rendering="geometricPrecision"
       transform="matrix(1,0,0,1,-1,-330)"
       stroke-linecap="butt"
       id="g1068"
       style="fill:#ed4917;fill-opacity:1">
      <path
         fill="none"
         d="M623 391.5 L650 391.5 L653 406.5 L650 421.5 L623 421.5 L626 406.5 Z"
         fill-rule="evenodd"
         clip-path="url(#clipPath2)"
         id="path1066"
         style="fill:#ed4917;fill-opacity:1" />
    </g>
    <g
       stroke-linecap="butt"
       transform="matrix(1,0,0,1,-1,-330)"
       fill="rgb(204,153,255)"
       text-rendering="geometricPrecision"
       shape-rendering="geometricPrecision"
       stroke="rgb(204,153,255)"
       stroke-width="7"
       stroke-miterlimit="1.45"
       id="g1074"
       style="fill:#cc762b;fill-opacity:1">
      <path
         d="M426.1728 396 L426.1728 403 L212.9794 403 L212.9794 410 L426.1728 410 L426.1728 417 L454.1728 406.5 L426.1728 396 Z"
         stroke="none"
         clip-path="url(#clipPath2)"
         id="path1070"
         style="fill:#cc762b;fill-opacity:1" />
      <path
         fill="none"
         d="M426.1728 396 L426.1728 403 L212.9794 403 L212.9794 410 L426.1728 410 L426.1728 417 L454.1728 406.5 L426.1728 396 Z"
         stroke-width="1"
         clip-path="url(#clipPath2)"
         stroke="rgb(153,51,102)"
         id="path1072"
         style="fill:#cc762b;fill-opacity:1" />
    </g>
    <g
       stroke-linecap="butt"
       transform="matrix(1,0,0,1,-1,-330)"
       fill="rgb(204,153,255)"
       text-rendering="geometricPrecision"
       shape-rendering="geometricPrecision"
       stroke="rgb(204,153,255)"
       stroke-width="7"
       stroke-miterlimit="1.45"
       id="g1080"
       style="fill:#cc762b;fill-opacity:1">
      <path
         d="M864.3641 396 L864.3641 403 L653.0167 403 L653.0167 410 L864.3641 410 L864.3641 417 L892.3641 406.5 L864.3641 396 Z"
         stroke="none"
         clip-path="url(#clipPath2)"
         id="path1076"
         style="fill:#cc762b;fill-opacity:1" />
      <path
         fill="none"
         d="M864.3641 396 L864.3641 403 L653.0167 403 L653.0167 410 L864.3641 410 L864.3641 417 L892.3641 406.5 L864.3641 396 Z"
         stroke-width="1"
         clip-path="url(#clipPath2)"
         stroke="rgb(153,51,102)"
         id="path1078"
         style="fill:#cc762b;fill-opacity:1" />
    </g>
  </g>
</svg>
