<?xml version="1.0" encoding="UTF-8"?><svg xmlns="http://www.w3.org/2000/svg" xmlns:xlink="http://www.w3.org/1999/xlink" fill-opacity="1" color-rendering="auto" color-interpolation="auto" text-rendering="auto" stroke="black" stroke-linecap="square" width="676" stroke-miterlimit="10" shape-rendering="auto" stroke-opacity="1" fill="black" stroke-dasharray="none" font-weight="normal" stroke-width="1" height="395" font-family="'Dialog'" font-style="normal" stroke-linejoin="miter" font-size="12px" stroke-dashoffset="0" image-rendering="auto">
  <!--Generated by ySVG 2.5-->
  <defs id="genericDefs"/>
  <g>
    <defs id="defs1">
      <clipPath clipPathUnits="userSpaceOnUse" id="clipPath1">
        <path d="M0 0 L676 0 L676 395 L0 395 L0 0 Z"/>
      </clipPath>
      <clipPath clipPathUnits="userSpaceOnUse" id="clipPath2">
        <path d="M182 227 L858 227 L858 622 L182 622 L182 227 Z"/>
      </clipPath>
    </defs>
    <g fill="rgb(204,255,255)" text-rendering="geometricPrecision" shape-rendering="geometricPrecision" transform="matrix(1,0,0,1,-182,-227)" stroke="rgb(204,255,255)">
      <path d="M251.675 242.2986 L338.625 242.2986 L328.9639 281.8472 L242.0139 281.8472 Z" fill-rule="evenodd" clip-path="url(#clipPath2)" stroke="none"/>
    </g>
    <g text-rendering="geometricPrecision" stroke-miterlimit="1.45" shape-rendering="geometricPrecision" transform="matrix(1,0,0,1,-182,-227)" stroke-linecap="butt">
      <path fill="none" d="M251.675 242.2986 L338.625 242.2986 L328.9639 281.8472 L242.0139 281.8472 Z" fill-rule="evenodd" clip-path="url(#clipPath2)"/>
      <text x="264.922" xml:space="preserve" y="266.2272" clip-path="url(#clipPath2)" font-family="sans-serif" stroke="none">data.csv</text>
    </g>
    <g fill="rgb(233,120,38)" text-rendering="geometricPrecision" shape-rendering="geometricPrecision" transform="matrix(1,0,0,1,-182,-227)" stroke="rgb(233,120,38)">
      <rect x="242.0139" width="96.6111" height="39.5486" y="328.6389" clip-path="url(#clipPath2)" stroke="none"/>
    </g>
    <g text-rendering="geometricPrecision" stroke-miterlimit="1.45" shape-rendering="geometricPrecision" transform="matrix(1,0,0,1,-182,-227)" stroke-linecap="butt">
      <rect fill="none" x="242.0139" width="96.6111" height="39.5486" y="328.6389" clip-path="url(#clipPath2)"/>
      <text x="277.6984" xml:space="preserve" y="352.5675" clip-path="url(#clipPath2)" font-family="sans-serif" stroke="none">split</text>
    </g>
    <g fill="rgb(255,102,0)" text-rendering="geometricPrecision" shape-rendering="geometricPrecision" transform="matrix(1,0,0,1,-182,-227)" stroke="rgb(255,102,0)">
      <rect x="242.0139" width="8.9375" height="39.5486" y="328.6389" clip-path="url(#clipPath2)" stroke="none"/>
    </g>
    <g text-rendering="geometricPrecision" stroke-miterlimit="1.45" shape-rendering="geometricPrecision" transform="matrix(1,0,0,1,-182,-227)" stroke-linecap="butt">
      <rect fill="none" x="242.0139" width="8.9375" height="39.5486" y="328.6389" clip-path="url(#clipPath2)"/>
    </g>
    <g fill="rgb(255,102,0)" text-rendering="geometricPrecision" shape-rendering="geometricPrecision" transform="matrix(1,0,0,1,-182,-227)" stroke="rgb(255,102,0)">
      <rect x="329.6875" width="8.9375" height="39.5486" y="328.6389" clip-path="url(#clipPath2)" stroke="none"/>
    </g>
    <g text-rendering="geometricPrecision" stroke-miterlimit="1.45" shape-rendering="geometricPrecision" transform="matrix(1,0,0,1,-182,-227)" stroke-linecap="butt">
      <rect fill="none" x="329.6875" width="8.9375" height="39.5486" y="328.6389" clip-path="url(#clipPath2)"/>
    </g>
    <g fill="rgb(255,204,153)" text-rendering="geometricPrecision" shape-rendering="geometricPrecision" transform="matrix(1,0,0,1,-182,-227)" stroke="rgb(255,204,153)">
      <path d="M366.2583 328.6389 L453.2083 328.6389 L443.5472 368.1875 L356.5972 368.1875 Z" fill-rule="evenodd" clip-path="url(#clipPath2)" stroke="none"/>
    </g>
    <g text-rendering="geometricPrecision" stroke-miterlimit="1.45" shape-rendering="geometricPrecision" transform="matrix(1,0,0,1,-182,-227)" stroke-linecap="butt">
      <path fill="none" d="M366.2583 328.6389 L453.2083 328.6389 L443.5472 368.1875 L356.5972 368.1875 Z" fill-rule="evenodd" clip-path="url(#clipPath2)"/>
      <text x="391.3881" xml:space="preserve" y="352.5675" clip-path="url(#clipPath2)" font-family="sans-serif" stroke="none">data</text>
    </g>
    <g fill="rgb(204,255,204)" text-rendering="geometricPrecision" shape-rendering="geometricPrecision" transform="matrix(1,0,0,1,-182,-227)" stroke="rgb(204,255,204)">
      <path d="M480.8417 242.2986 L567.7917 242.2986 L558.1306 281.8472 L471.1805 281.8472 Z" fill-rule="evenodd" clip-path="url(#clipPath2)" stroke="none"/>
    </g>
    <g text-rendering="geometricPrecision" stroke-miterlimit="1.45" shape-rendering="geometricPrecision" transform="matrix(1,0,0,1,-182,-227)" stroke-linecap="butt">
      <path fill="none" d="M480.8417 242.2986 L567.7917 242.2986 L558.1306 281.8472 L471.1805 281.8472 Z" fill-rule="evenodd" clip-path="url(#clipPath2)"/>
      <text x="495.4568" xml:space="preserve" y="266.2272" clip-path="url(#clipPath2)" font-family="sans-serif" stroke="none">XML API</text>
    </g>
    <g fill="rgb(233,120,38)" text-rendering="geometricPrecision" shape-rendering="geometricPrecision" transform="matrix(1,0,0,1,-182,-227)" stroke="rgb(233,120,38)">
      <rect x="471.1806" width="96.6111" height="39.5486" y="328.6389" clip-path="url(#clipPath2)" stroke="none"/>
    </g>
    <g text-rendering="geometricPrecision" stroke-miterlimit="1.45" shape-rendering="geometricPrecision" transform="matrix(1,0,0,1,-182,-227)" stroke-linecap="butt">
      <rect fill="none" x="471.1806" width="96.6111" height="39.5486" y="328.6389" clip-path="url(#clipPath2)"/>
      <text x="496.2976" xml:space="preserve" y="352.5675" clip-path="url(#clipPath2)" font-family="sans-serif" stroke="none">process</text>
    </g>
    <g fill="rgb(255,102,0)" text-rendering="geometricPrecision" shape-rendering="geometricPrecision" transform="matrix(1,0,0,1,-182,-227)" stroke="rgb(255,102,0)">
      <rect x="471.1806" width="8.9375" height="39.5486" y="328.6389" clip-path="url(#clipPath2)" stroke="none"/>
    </g>
    <g text-rendering="geometricPrecision" stroke-miterlimit="1.45" shape-rendering="geometricPrecision" transform="matrix(1,0,0,1,-182,-227)" stroke-linecap="butt">
      <rect fill="none" x="471.1806" width="8.9375" height="39.5486" y="328.6389" clip-path="url(#clipPath2)"/>
    </g>
    <g fill="rgb(255,102,0)" text-rendering="geometricPrecision" shape-rendering="geometricPrecision" transform="matrix(1,0,0,1,-182,-227)" stroke="rgb(255,102,0)">
      <rect x="558.8542" width="8.9375" height="39.5486" y="328.6389" clip-path="url(#clipPath2)" stroke="none"/>
    </g>
    <g text-rendering="geometricPrecision" stroke-miterlimit="1.45" shape-rendering="geometricPrecision" transform="matrix(1,0,0,1,-182,-227)" stroke-linecap="butt">
      <rect fill="none" x="558.8542" width="8.9375" height="39.5486" y="328.6389" clip-path="url(#clipPath2)"/>
    </g>
    <g fill="rgb(255,204,153)" text-rendering="geometricPrecision" shape-rendering="geometricPrecision" transform="matrix(1,0,0,1,-182,-227)" stroke="rgb(255,204,153)">
      <path d="M595.425 328.6389 L682.375 328.6389 L672.7139 368.1875 L585.7639 368.1875 Z" fill-rule="evenodd" clip-path="url(#clipPath2)" stroke="none"/>
    </g>
    <g text-rendering="geometricPrecision" stroke-miterlimit="1.45" shape-rendering="geometricPrecision" transform="matrix(1,0,0,1,-182,-227)" stroke-linecap="butt">
      <path fill="none" d="M595.425 328.6389 L682.375 328.6389 L672.7139 368.1875 L585.7639 368.1875 Z" fill-rule="evenodd" clip-path="url(#clipPath2)"/>
      <text x="601.67" xml:space="preserve" y="352.5675" clip-path="url(#clipPath2)" font-family="sans-serif" stroke="none">properties'</text>
    </g>
    <g fill="rgb(255,255,153)" text-rendering="geometricPrecision" shape-rendering="geometricPrecision" transform="matrix(1,0,0,1,-182,-227)" stroke="rgb(255,255,153)">
      <path d="M756.0153 414.9792 L842.9653 414.9792 L833.3041 454.5278 L746.3542 454.5278 Z" fill-rule="evenodd" clip-path="url(#clipPath2)" stroke="none"/>
    </g>
    <g text-rendering="geometricPrecision" stroke-miterlimit="1.45" shape-rendering="geometricPrecision" transform="matrix(1,0,0,1,-182,-227)" stroke-linecap="butt">
      <path fill="none" d="M756.0153 414.9792 L842.9653 414.9792 L833.3041 454.5278 L746.3542 454.5278 Z" fill-rule="evenodd" clip-path="url(#clipPath2)"/>
      <text x="785.9234" xml:space="preserve" y="438.9078" clip-path="url(#clipPath2)" font-family="sans-serif" stroke="none">DB</text>
    </g>
    <g fill="rgb(233,120,38)" text-rendering="geometricPrecision" shape-rendering="geometricPrecision" transform="matrix(1,0,0,1,-182,-227)" stroke="rgb(233,120,38)">
      <rect x="590.9722" width="96.6111" height="39.5486" y="406.5833" clip-path="url(#clipPath2)" stroke="none"/>
    </g>
    <g text-rendering="geometricPrecision" stroke-miterlimit="1.45" shape-rendering="geometricPrecision" transform="matrix(1,0,0,1,-182,-227)" stroke-linecap="butt">
      <rect fill="none" x="590.9722" width="96.6111" height="39.5486" y="406.5833" clip-path="url(#clipPath2)"/>
      <text x="616.0893" xml:space="preserve" y="430.5119" clip-path="url(#clipPath2)" font-family="sans-serif" stroke="none">process</text>
    </g>
    <g fill="rgb(255,102,0)" text-rendering="geometricPrecision" shape-rendering="geometricPrecision" transform="matrix(1,0,0,1,-182,-227)" stroke="rgb(255,102,0)">
      <rect x="590.9722" width="8.9375" height="39.5486" y="406.5833" clip-path="url(#clipPath2)" stroke="none"/>
    </g>
    <g text-rendering="geometricPrecision" stroke-miterlimit="1.45" shape-rendering="geometricPrecision" transform="matrix(1,0,0,1,-182,-227)" stroke-linecap="butt">
      <rect fill="none" x="590.9722" width="8.9375" height="39.5486" y="406.5833" clip-path="url(#clipPath2)"/>
    </g>
    <g fill="rgb(255,102,0)" text-rendering="geometricPrecision" shape-rendering="geometricPrecision" transform="matrix(1,0,0,1,-182,-227)" stroke="rgb(255,102,0)">
      <rect x="678.6458" width="8.9375" height="39.5486" y="406.5833" clip-path="url(#clipPath2)" stroke="none"/>
    </g>
    <g text-rendering="geometricPrecision" stroke-miterlimit="1.45" shape-rendering="geometricPrecision" transform="matrix(1,0,0,1,-182,-227)" stroke-linecap="butt">
      <rect fill="none" x="678.6458" width="8.9375" height="39.5486" y="406.5833" clip-path="url(#clipPath2)"/>
    </g>
    <g fill="rgb(255,204,153)" text-rendering="geometricPrecision" shape-rendering="geometricPrecision" transform="matrix(1,0,0,1,-182,-227)" stroke="rgb(255,204,153)">
      <path d="M366.2583 484.5278 L453.2083 484.5278 L443.5472 524.0764 L356.5972 524.0764 Z" fill-rule="evenodd" clip-path="url(#clipPath2)" stroke="none"/>
    </g>
    <g text-rendering="geometricPrecision" stroke-miterlimit="1.45" shape-rendering="geometricPrecision" transform="matrix(1,0,0,1,-182,-227)" stroke-linecap="butt">
      <path fill="none" d="M366.2583 484.5278 L453.2083 484.5278 L443.5472 524.0764 L356.5972 524.0764 Z" fill-rule="evenodd" clip-path="url(#clipPath2)"/>
      <text x="386.4399" xml:space="preserve" y="508.4564" clip-path="url(#clipPath2)" font-family="sans-serif" stroke="none">data'''</text>
    </g>
    <g fill="rgb(255,204,153)" text-rendering="geometricPrecision" shape-rendering="geometricPrecision" transform="matrix(1,0,0,1,-182,-227)" stroke="rgb(255,204,153)">
      <path d="M600.6334 484.5278 L687.5833 484.5278 L677.9222 524.0764 L590.9722 524.0764 Z" fill-rule="evenodd" clip-path="url(#clipPath2)" stroke="none"/>
    </g>
    <g text-rendering="geometricPrecision" stroke-miterlimit="1.45" shape-rendering="geometricPrecision" transform="matrix(1,0,0,1,-182,-227)" stroke-linecap="butt">
      <path fill="none" d="M600.6334 484.5278 L687.5833 484.5278 L677.9222 524.0764 L590.9722 524.0764 Z" fill-rule="evenodd" clip-path="url(#clipPath2)"/>
      <text x="605.2289" xml:space="preserve" y="508.4564" clip-path="url(#clipPath2)" font-family="sans-serif" stroke="none">properties''</text>
    </g>
    <g fill="rgb(233,120,38)" text-rendering="geometricPrecision" shape-rendering="geometricPrecision" transform="matrix(1,0,0,1,-182,-227)" stroke="rgb(233,120,38)">
      <rect x="471.1806" width="96.6111" height="39.5486" y="484.5278" clip-path="url(#clipPath2)" stroke="none"/>
    </g>
    <g text-rendering="geometricPrecision" stroke-miterlimit="1.45" shape-rendering="geometricPrecision" transform="matrix(1,0,0,1,-182,-227)" stroke-linecap="butt">
      <rect fill="none" x="471.1806" width="96.6111" height="39.5486" y="484.5278" clip-path="url(#clipPath2)"/>
      <text x="488.5047" xml:space="preserve" y="508.4564" clip-path="url(#clipPath2)" font-family="sans-serif" stroke="none">aggregate</text>
    </g>
    <g fill="rgb(255,102,0)" text-rendering="geometricPrecision" shape-rendering="geometricPrecision" transform="matrix(1,0,0,1,-182,-227)" stroke="rgb(255,102,0)">
      <rect x="471.1806" width="8.9375" height="39.5486" y="484.5278" clip-path="url(#clipPath2)" stroke="none"/>
    </g>
    <g text-rendering="geometricPrecision" stroke-miterlimit="1.45" shape-rendering="geometricPrecision" transform="matrix(1,0,0,1,-182,-227)" stroke-linecap="butt">
      <rect fill="none" x="471.1806" width="8.9375" height="39.5486" y="484.5278" clip-path="url(#clipPath2)"/>
    </g>
    <g fill="rgb(255,102,0)" text-rendering="geometricPrecision" shape-rendering="geometricPrecision" transform="matrix(1,0,0,1,-182,-227)" stroke="rgb(255,102,0)">
      <rect x="558.8542" width="8.9375" height="39.5486" y="484.5278" clip-path="url(#clipPath2)" stroke="none"/>
    </g>
    <g text-rendering="geometricPrecision" stroke-miterlimit="1.45" shape-rendering="geometricPrecision" transform="matrix(1,0,0,1,-182,-227)" stroke-linecap="butt">
      <rect fill="none" x="558.8542" width="8.9375" height="39.5486" y="484.5278" clip-path="url(#clipPath2)"/>
    </g>
    <g fill="rgb(233,120,38)" text-rendering="geometricPrecision" shape-rendering="geometricPrecision" transform="matrix(1,0,0,1,-182,-227)" stroke="rgb(233,120,38)">
      <rect x="242.0139" width="96.6111" height="39.5486" y="484.5278" clip-path="url(#clipPath2)" stroke="none"/>
    </g>
    <g text-rendering="geometricPrecision" stroke-miterlimit="1.45" shape-rendering="geometricPrecision" transform="matrix(1,0,0,1,-182,-227)" stroke-linecap="butt">
      <rect fill="none" x="242.0139" width="96.6111" height="39.5486" y="484.5278" clip-path="url(#clipPath2)"/>
      <text x="275.0118" xml:space="preserve" y="508.4564" clip-path="url(#clipPath2)" font-family="sans-serif" stroke="none">store</text>
    </g>
    <g fill="rgb(255,102,0)" text-rendering="geometricPrecision" shape-rendering="geometricPrecision" transform="matrix(1,0,0,1,-182,-227)" stroke="rgb(255,102,0)">
      <rect x="242.0139" width="8.9375" height="39.5486" y="484.5278" clip-path="url(#clipPath2)" stroke="none"/>
    </g>
    <g text-rendering="geometricPrecision" stroke-miterlimit="1.45" shape-rendering="geometricPrecision" transform="matrix(1,0,0,1,-182,-227)" stroke-linecap="butt">
      <rect fill="none" x="242.0139" width="8.9375" height="39.5486" y="484.5278" clip-path="url(#clipPath2)"/>
    </g>
    <g fill="rgb(255,102,0)" text-rendering="geometricPrecision" shape-rendering="geometricPrecision" transform="matrix(1,0,0,1,-182,-227)" stroke="rgb(255,102,0)">
      <rect x="329.6875" width="8.9375" height="39.5486" y="484.5278" clip-path="url(#clipPath2)" stroke="none"/>
    </g>
    <g text-rendering="geometricPrecision" stroke-miterlimit="1.45" shape-rendering="geometricPrecision" transform="matrix(1,0,0,1,-182,-227)" stroke-linecap="butt">
      <rect fill="none" x="329.6875" width="8.9375" height="39.5486" y="484.5278" clip-path="url(#clipPath2)"/>
    </g>
    <g fill="rgb(233,120,38)" text-rendering="geometricPrecision" shape-rendering="geometricPrecision" transform="matrix(1,0,0,1,-182,-227)" stroke="rgb(233,120,38)">
      <rect x="476.3889" width="96.6111" height="39.5486" y="337.0347" clip-path="url(#clipPath2)" stroke="none"/>
    </g>
    <g text-rendering="geometricPrecision" stroke-miterlimit="1.45" shape-rendering="geometricPrecision" transform="matrix(1,0,0,1,-182,-227)" stroke-linecap="butt">
      <rect fill="none" x="476.3889" width="96.6111" height="39.5486" y="337.0347" clip-path="url(#clipPath2)"/>
      <text x="501.506" xml:space="preserve" y="360.9633" clip-path="url(#clipPath2)" font-family="sans-serif" stroke="none">process</text>
    </g>
    <g fill="rgb(255,102,0)" text-rendering="geometricPrecision" shape-rendering="geometricPrecision" transform="matrix(1,0,0,1,-182,-227)" stroke="rgb(255,102,0)">
      <rect x="476.3889" width="8.9375" height="39.5486" y="337.0347" clip-path="url(#clipPath2)" stroke="none"/>
    </g>
    <g text-rendering="geometricPrecision" stroke-miterlimit="1.45" shape-rendering="geometricPrecision" transform="matrix(1,0,0,1,-182,-227)" stroke-linecap="butt">
      <rect fill="none" x="476.3889" width="8.9375" height="39.5486" y="337.0347" clip-path="url(#clipPath2)"/>
    </g>
    <g fill="rgb(255,102,0)" text-rendering="geometricPrecision" shape-rendering="geometricPrecision" transform="matrix(1,0,0,1,-182,-227)" stroke="rgb(255,102,0)">
      <rect x="564.0625" width="8.9375" height="39.5486" y="337.0347" clip-path="url(#clipPath2)" stroke="none"/>
    </g>
    <g text-rendering="geometricPrecision" stroke-miterlimit="1.45" shape-rendering="geometricPrecision" transform="matrix(1,0,0,1,-182,-227)" stroke-linecap="butt">
      <rect fill="none" x="564.0625" width="8.9375" height="39.5486" y="337.0347" clip-path="url(#clipPath2)"/>
    </g>
    <g fill="rgb(255,204,153)" text-rendering="geometricPrecision" shape-rendering="geometricPrecision" transform="matrix(1,0,0,1,-182,-227)" stroke="rgb(255,204,153)">
      <path d="M600.6334 337.0347 L687.5833 337.0347 L677.9222 376.5833 L590.9722 376.5833 Z" fill-rule="evenodd" clip-path="url(#clipPath2)" stroke="none"/>
    </g>
    <g text-rendering="geometricPrecision" stroke-miterlimit="1.45" shape-rendering="geometricPrecision" transform="matrix(1,0,0,1,-182,-227)" stroke-linecap="butt">
      <path fill="none" d="M600.6334 337.0347 L687.5833 337.0347 L677.9222 376.5833 L590.9722 376.5833 Z" fill-rule="evenodd" clip-path="url(#clipPath2)"/>
      <text x="624.1137" xml:space="preserve" y="360.9633" clip-path="url(#clipPath2)" font-family="sans-serif" stroke="none">data'</text>
    </g>
    <g fill="rgb(233,120,38)" text-rendering="geometricPrecision" shape-rendering="geometricPrecision" transform="matrix(1,0,0,1,-182,-227)" stroke="rgb(233,120,38)">
      <rect x="596.1806" width="96.6111" height="39.5486" y="414.9792" clip-path="url(#clipPath2)" stroke="none"/>
    </g>
    <g text-rendering="geometricPrecision" stroke-miterlimit="1.45" shape-rendering="geometricPrecision" transform="matrix(1,0,0,1,-182,-227)" stroke-linecap="butt">
      <rect fill="none" x="596.1806" width="96.6111" height="39.5486" y="414.9792" clip-path="url(#clipPath2)"/>
      <text x="619.6482" xml:space="preserve" y="438.9078" clip-path="url(#clipPath2)" font-family="sans-serif" stroke="none">process'</text>
    </g>
    <g fill="rgb(255,102,0)" text-rendering="geometricPrecision" shape-rendering="geometricPrecision" transform="matrix(1,0,0,1,-182,-227)" stroke="rgb(255,102,0)">
      <rect x="596.1806" width="8.9375" height="39.5486" y="414.9792" clip-path="url(#clipPath2)" stroke="none"/>
    </g>
    <g text-rendering="geometricPrecision" stroke-miterlimit="1.45" shape-rendering="geometricPrecision" transform="matrix(1,0,0,1,-182,-227)" stroke-linecap="butt">
      <rect fill="none" x="596.1806" width="8.9375" height="39.5486" y="414.9792" clip-path="url(#clipPath2)"/>
    </g>
    <g fill="rgb(255,102,0)" text-rendering="geometricPrecision" shape-rendering="geometricPrecision" transform="matrix(1,0,0,1,-182,-227)" stroke="rgb(255,102,0)">
      <rect x="683.8542" width="8.9375" height="39.5486" y="414.9792" clip-path="url(#clipPath2)" stroke="none"/>
    </g>
    <g text-rendering="geometricPrecision" stroke-miterlimit="1.45" shape-rendering="geometricPrecision" transform="matrix(1,0,0,1,-182,-227)" stroke-linecap="butt">
      <rect fill="none" x="683.8542" width="8.9375" height="39.5486" y="414.9792" clip-path="url(#clipPath2)"/>
    </g>
    <g fill="rgb(255,204,153)" text-rendering="geometricPrecision" shape-rendering="geometricPrecision" transform="matrix(1,0,0,1,-182,-227)" stroke="rgb(255,204,153)">
      <path d="M605.8417 492.9236 L692.7917 492.9236 L683.1306 532.4722 L596.1805 532.4722 Z" fill-rule="evenodd" clip-path="url(#clipPath2)" stroke="none"/>
    </g>
    <g text-rendering="geometricPrecision" stroke-miterlimit="1.45" shape-rendering="geometricPrecision" transform="matrix(1,0,0,1,-182,-227)" stroke-linecap="butt">
      <path fill="none" d="M605.8417 492.9236 L692.7917 492.9236 L683.1306 532.4722 L596.1805 532.4722 Z" fill-rule="evenodd" clip-path="url(#clipPath2)"/>
      <text x="627.6726" xml:space="preserve" y="516.8522" clip-path="url(#clipPath2)" font-family="sans-serif" stroke="none">data''</text>
      <circle fill="none" r="7.1875" clip-path="url(#clipPath2)" cx="204.8264" cy="340.6007" stroke="gray"/>
    </g>
    <g fill="rgb(255,204,153)" text-rendering="geometricPrecision" shape-rendering="geometricPrecision" transform="matrix(1,0,0,1,-182,-227)" stroke="rgb(255,204,153)">
      <path d="M371.4667 337.0347 L458.4167 337.0347 L448.7556 376.5833 L361.8055 376.5833 Z" fill-rule="evenodd" clip-path="url(#clipPath2)" stroke="none"/>
    </g>
    <g text-rendering="geometricPrecision" stroke-miterlimit="1.45" shape-rendering="geometricPrecision" transform="matrix(1,0,0,1,-182,-227)" stroke-linecap="butt">
      <path fill="none" d="M371.4667 337.0347 L458.4167 337.0347 L448.7556 376.5833 L361.8055 376.5833 Z" fill-rule="evenodd" clip-path="url(#clipPath2)"/>
      <text x="396.5965" xml:space="preserve" y="360.9633" clip-path="url(#clipPath2)" font-family="sans-serif" stroke="none">data</text>
    </g>
    <g fill="rgb(255,255,153)" text-rendering="geometricPrecision" shape-rendering="geometricPrecision" transform="matrix(1,0,0,1,-182,-227)" stroke="rgb(255,255,153)">
      <path d="M251.675 566.5349 L338.625 566.5349 L328.9639 606.0834 L242.0139 606.0834 Z" fill-rule="evenodd" clip-path="url(#clipPath2)" stroke="none"/>
    </g>
    <g text-rendering="geometricPrecision" stroke-miterlimit="1.45" shape-rendering="geometricPrecision" transform="matrix(1,0,0,1,-182,-227)" stroke-linecap="butt">
      <path fill="none" d="M251.675 566.5349 L338.625 566.5349 L328.9639 606.0834 L242.0139 606.0834 Z" fill-rule="evenodd" clip-path="url(#clipPath2)"/>
      <text x="281.5831" xml:space="preserve" y="590.4633" clip-path="url(#clipPath2)" font-family="sans-serif" stroke="none">DB</text>
      <path fill="none" d="M290.3195 281.8452 L290.3195 320.6389" clip-path="url(#clipPath2)" stroke="gray"/>
      <path fill="gray" d="M290.3195 328.6389 L295.3195 316.6389 L290.3195 319.6389 L285.3195 316.6389 Z" clip-path="url(#clipPath2)" stroke="none"/>
      <path fill="none" d="M338.625 348.4132 L353.4403 348.4132" clip-path="url(#clipPath2)" stroke="gray"/>
      <path fill="gray" d="M361.4403 348.4132 L349.4403 343.4132 L352.4403 348.4132 L349.4403 353.4132 Z" clip-path="url(#clipPath2)" stroke="none"/>
      <path fill="none" d="M519.4861 281.8452 L519.4861 320.6389" clip-path="url(#clipPath2)" stroke="gray"/>
      <path fill="gray" d="M519.4861 328.6389 L524.4861 316.6389 L519.4861 319.6389 L514.4861 316.6389 Z" clip-path="url(#clipPath2)" stroke="none"/>
      <path fill="none" d="M595.7889 504.3021 L575.7917 504.3021" clip-path="url(#clipPath2)" stroke="gray"/>
      <path fill="gray" d="M567.7917 504.3021 L579.7917 509.3021 L576.7917 504.3021 L579.7917 499.3021 Z" clip-path="url(#clipPath2)" stroke="none"/>
      <path fill="none" d="M471.1805 504.3021 L456.3652 504.3021" clip-path="url(#clipPath2)" stroke="gray"/>
      <path fill="gray" d="M448.3652 504.3021 L460.3652 509.3021 L457.3652 504.3021 L460.3652 499.3021 Z" clip-path="url(#clipPath2)" stroke="none"/>
      <path fill="none" d="M361.4025 504.3021 L346.625 504.3021" clip-path="url(#clipPath2)" stroke="gray"/>
      <path fill="gray" d="M338.625 504.3021 L350.625 509.3021 L347.625 504.3021 L350.625 499.3021 Z" clip-path="url(#clipPath2)" stroke="none"/>
      <path fill="none" d="M573.0176 348.4132 L582.576 348.4132" clip-path="url(#clipPath2)" stroke="gray"/>
      <path fill="gray" d="M590.576 348.4132 L578.576 343.4132 L581.576 348.4132 L578.576 353.4132 Z" clip-path="url(#clipPath2)" stroke="none"/>
      <path fill="none" d="M573 356.809 L587.8154 356.809" clip-path="url(#clipPath2)" stroke="gray"/>
      <path fill="gray" d="M595.8154 356.809 L583.8154 351.809 L586.8154 356.809 L583.8154 361.809 Z" clip-path="url(#clipPath2)" stroke="none"/>
      <path fill="none" d="M634.7126 376.6304 L636.7311 398.6168" clip-path="url(#clipPath2)" stroke="gray"/>
      <path fill="gray" d="M637.4624 406.5833 L641.3445 394.1765 L636.6396 397.621 L631.3864 395.0906 Z" clip-path="url(#clipPath2)" stroke="none"/>
      <path fill="none" d="M640.5977 376.5616 L642.6314 406.997" clip-path="url(#clipPath2)" stroke="gray"/>
      <path fill="gray" d="M643.1648 414.9792 L647.3536 402.6725 L642.5648 405.9992 L637.3759 403.3393 Z" clip-path="url(#clipPath2)" stroke="none"/>
      <path fill="none" d="M751.2135 434.7535 L700.7917 434.7535" clip-path="url(#clipPath2)" stroke="gray"/>
      <path fill="gray" d="M692.7917 434.7535 L704.7917 439.7535 L701.7917 434.7535 L704.7917 429.7535 Z" clip-path="url(#clipPath2)" stroke="none"/>
      <path fill="none" d="M639.2778 454.5472 L639.2778 476.5265" clip-path="url(#clipPath2)" stroke="gray"/>
      <path fill="gray" d="M639.2778 484.5265 L644.2778 472.5265 L639.2778 475.5265 L634.2778 472.5265 Z" clip-path="url(#clipPath2)" stroke="none"/>
      <path fill="none" d="M644.4861 454.5278 L644.4861 484.9008" clip-path="url(#clipPath2)" stroke="gray"/>
      <path fill="gray" d="M644.4861 492.9008 L649.4861 480.9008 L644.4861 483.9008 L639.4861 480.9008 Z" clip-path="url(#clipPath2)" stroke="none"/>
      <path fill="none" d="M601.0151 512.6979 L575.7985 512.6979" clip-path="url(#clipPath2)" stroke="gray"/>
      <path fill="gray" d="M567.7985 512.6979 L579.7985 517.6979 L576.7985 512.6979 L579.7985 507.6979 Z" clip-path="url(#clipPath2)" stroke="none"/>
      <path fill="none" d="M211.9841 341.2548 L234.0471 343.2709" clip-path="url(#clipPath2)" stroke="gray"/>
      <path fill="gray" d="M242.0139 343.999 L230.5187 337.9277 L233.0512 343.1799 L229.6087 347.8862 Z" clip-path="url(#clipPath2)" stroke="none"/>
      <path fill="none" d="M338.6496 356.809 L358.6689 356.809" clip-path="url(#clipPath2)" stroke="gray"/>
      <path fill="gray" d="M366.6689 356.809 L354.6689 351.809 L357.6689 356.809 L354.6689 361.809 Z" clip-path="url(#clipPath2)" stroke="none"/>
      <path fill="none" d="M455.6408 348.4132 L463.1805 348.4132" clip-path="url(#clipPath2)" stroke="gray"/>
      <path fill="gray" d="M471.1805 348.4132 L459.1805 343.4132 L462.1805 348.4132 L459.1805 353.4132 Z" clip-path="url(#clipPath2)" stroke="none"/>
      <path fill="none" d="M453.6188 356.809 L468.3889 356.809" clip-path="url(#clipPath2)" stroke="gray"/>
      <path fill="gray" d="M476.3889 356.809 L464.3889 351.809 L467.3889 356.809 L464.3889 361.809 Z" clip-path="url(#clipPath2)" stroke="none"/>
      <path fill="none" d="M290.3195 524.0764 L290.3195 558.5271" clip-path="url(#clipPath2)" stroke="gray"/>
      <path fill="gray" d="M290.3195 566.5271 L295.3195 554.5271 L290.3195 557.5271 L285.3195 554.5271 Z" clip-path="url(#clipPath2)" stroke="none"/>
    </g>
  </g>
</svg>
