<?xml version="1.0" encoding="UTF-8"?><svg xmlns="http://www.w3.org/2000/svg" xmlns:xlink="http://www.w3.org/1999/xlink" fill-opacity="1" color-rendering="auto" color-interpolation="auto" text-rendering="auto" stroke="black" stroke-linecap="square" width="492" stroke-miterlimit="10" shape-rendering="auto" stroke-opacity="1" fill="black" stroke-dasharray="none" font-weight="normal" stroke-width="1" height="289" font-family="'Dialog'" font-style="normal" stroke-linejoin="miter" font-size="12px" stroke-dashoffset="0" image-rendering="auto">
  <!--Generated by ySVG 2.5-->
  <defs id="genericDefs"/>
  <g>
    <defs id="defs1">
      <clipPath clipPathUnits="userSpaceOnUse" id="clipPath1">
        <path d="M0 0 L492 0 L492 289 L0 289 L0 0 Z"/>
      </clipPath>
      <clipPath clipPathUnits="userSpaceOnUse" id="clipPath2">
        <path d="M1091 282 L1583 282 L1583 571 L1091 571 L1091 282 Z"/>
      </clipPath>
    </defs>
    <g fill="rgb(237,130,37)" text-rendering="geometricPrecision" shape-rendering="geometricPrecision" transform="matrix(1,0,0,1,-1091,-282)" stroke="rgb(237,130,37)">
      <path d="M1106.8307 297.6926 L1521.1819 297.6926 L1567.2212 342.1804 L1521.1819 386.6683 L1106.8307 386.6683 L1152.869 342.1804 Z" fill-rule="evenodd" clip-path="url(#clipPath2)" stroke="none"/>
    </g>
    <g text-rendering="geometricPrecision" stroke-miterlimit="1.45" shape-rendering="geometricPrecision" transform="matrix(1,0,0,1,-1091,-282)" stroke-linecap="butt">
      <path fill="none" d="M1106.8307 297.6926 L1521.1819 297.6926 L1567.2212 342.1804 L1521.1819 386.6683 L1106.8307 386.6683 L1152.869 342.1804 Z" fill-rule="evenodd" clip-path="url(#clipPath2)"/>
      <text x="1145.863" xml:space="preserve" y="314.8312" clip-path="url(#clipPath2)" font-family="sans-serif" stroke="none">Endpoint</text>
    </g>
    <g fill="rgb(255,102,0)" text-rendering="geometricPrecision" shape-rendering="geometricPrecision" transform="matrix(1,0,0,1,-1091,-282)" stroke="rgb(255,102,0)">
      <path d="M1146.9617 320.75 L1319.7617 320.75 L1338.9617 342.75 L1319.7617 364.75 L1146.9617 364.75 L1166.1616 342.75 Z" fill-rule="evenodd" clip-path="url(#clipPath2)" stroke="none"/>
    </g>
    <g text-rendering="geometricPrecision" stroke-miterlimit="1.45" shape-rendering="geometricPrecision" transform="matrix(1,0,0,1,-1091,-282)" stroke-linecap="butt">
      <path fill="none" d="M1146.9617 320.75 L1319.7617 320.75 L1338.9617 342.75 L1319.7617 364.75 L1146.9617 364.75 L1166.1616 342.75 Z" fill-rule="evenodd" clip-path="url(#clipPath2)"/>
      <text x="1212.3671" xml:space="preserve" y="346.9043" clip-path="url(#clipPath2)" font-family="sans-serif" stroke="none">Consumer</text>
    </g>
    <g fill="rgb(255,102,0)" text-rendering="geometricPrecision" shape-rendering="geometricPrecision" transform="matrix(1,0,0,1,-1091,-282)" stroke="rgb(255,102,0)">
      <path d="M1323.3617 320.75 L1496.1616 320.75 L1515.3617 342.75 L1496.1616 364.75 L1323.3617 364.75 L1342.5616 342.75 Z" fill-rule="evenodd" clip-path="url(#clipPath2)" stroke="none"/>
    </g>
    <g text-rendering="geometricPrecision" stroke-miterlimit="1.45" shape-rendering="geometricPrecision" transform="matrix(1,0,0,1,-1091,-282)" stroke-linecap="butt">
      <path fill="none" d="M1323.3617 320.75 L1496.1616 320.75 L1515.3617 342.75 L1496.1616 364.75 L1323.3617 364.75 L1342.5616 342.75 Z" fill-rule="evenodd" clip-path="url(#clipPath2)"/>
      <text x="1392.5376" xml:space="preserve" y="346.9043" clip-path="url(#clipPath2)" font-family="sans-serif" stroke="none">Producer</text>
    </g>
    <g fill="rgb(51,102,255)" text-rendering="geometricPrecision" shape-rendering="geometricPrecision" transform="matrix(1,0,0,1,-1091,-282)" stroke="rgb(51,102,255)">
      <path d="M1233.1423 492.8867 L1289.3778 466.8264 L1368.9069 466.8264 L1425.1423 492.8867 L1425.1423 529.7416 L1368.9069 555.8019 L1289.3778 555.8019 L1233.1423 529.7416 Z" fill-rule="evenodd" clip-path="url(#clipPath2)" stroke="none"/>
    </g>
    <g stroke-linecap="butt" transform="matrix(1,0,0,1,-1091,-282)" fill="navy" text-rendering="geometricPrecision" shape-rendering="geometricPrecision" stroke="navy" stroke-miterlimit="1.45">
      <path fill="none" d="M1233.1423 492.8867 L1289.3778 466.8264 L1368.9069 466.8264 L1425.1423 492.8867 L1425.1423 529.7416 L1368.9069 555.8019 L1289.3778 555.8019 L1233.1423 529.7416 Z" fill-rule="evenodd" clip-path="url(#clipPath2)"/>
      <text x="1279.8617" y="515.4684" clip-path="url(#clipPath2)" fill="black" font-family="sans-serif" stroke="none" xml:space="preserve">External System</text>
    </g>
    <g stroke-linecap="butt" transform="matrix(1,0,0,1,-1091,-282)" fill="rgb(204,153,255)" text-rendering="geometricPrecision" shape-rendering="geometricPrecision" stroke="rgb(204,153,255)" stroke-width="5" stroke-miterlimit="1.45">
      <path d="M1329.142 386.6979 L1321.642 404.6979 L1326.642 401.6979 L1326.642 451.804 L1321.642 448.804 L1329.142 466.804 L1336.642 448.804 L1331.642 451.804 L1331.642 401.6979 L1336.642 404.6979 L1329.142 386.6979 Z" stroke="none" clip-path="url(#clipPath2)"/>
    </g>
    <g stroke-linecap="round" transform="matrix(1,0,0,1,-1091,-282)" fill="purple" text-rendering="geometricPrecision" shape-rendering="geometricPrecision" stroke-dasharray="4,3,0,3" stroke="purple" stroke-miterlimit="1.45">
      <path fill="none" d="M1329.142 386.6979 L1321.642 404.6979 L1326.642 401.6979 L1326.642 451.804 L1321.642 448.804 L1329.142 466.804 L1336.642 448.804 L1331.642 451.804 L1331.642 401.6979 L1336.642 404.6979 L1329.142 386.6979 Z" clip-path="url(#clipPath2)"/>
    </g>
  </g>
</svg>
