<?xml version="1.0" encoding="UTF-8"?><svg xmlns="http://www.w3.org/2000/svg" xmlns:xlink="http://www.w3.org/1999/xlink" fill-opacity="1" color-rendering="auto" color-interpolation="auto" text-rendering="auto" stroke="black" stroke-linecap="square" width="1660" stroke-miterlimit="10" shape-rendering="auto" stroke-opacity="1" fill="black" stroke-dasharray="none" font-weight="normal" stroke-width="1" height="288" font-family="'Dialog'" font-style="normal" stroke-linejoin="miter" font-size="12px" stroke-dashoffset="0" image-rendering="auto">
  <!--Generated by ySVG 2.5-->
  <defs id="genericDefs"/>
  <g>
    <defs id="defs1">
      <clipPath clipPathUnits="userSpaceOnUse" id="clipPath1">
        <path d="M0 0 L1660 0 L1660 288 L0 288 L0 0 Z"/>
      </clipPath>
      <clipPath clipPathUnits="userSpaceOnUse" id="clipPath2">
        <path d="M501 283 L2161 283 L2161 571 L501 571 L501 283 Z"/>
      </clipPath>
    </defs>
    <g fill="rgb(237,130,37)" text-rendering="geometricPrecision" shape-rendering="geometricPrecision" transform="matrix(1,0,0,1,-501,-283)" stroke="rgb(237,130,37)">
      <path d="M516.9756 320.75 L689.7755 320.75 L708.9755 342.75 L689.7755 364.75 L516.9756 364.75 L536.1755 342.75 Z" fill-rule="evenodd" clip-path="url(#clipPath2)" stroke="none"/>
    </g>
    <g text-rendering="geometricPrecision" stroke-miterlimit="1.45" shape-rendering="geometricPrecision" transform="matrix(1,0,0,1,-501,-283)" stroke-linecap="butt">
      <path fill="none" d="M516.9756 320.75 L689.7755 320.75 L708.9755 342.75 L689.7755 364.75 L516.9756 364.75 L536.1755 342.75 Z" fill-rule="evenodd" clip-path="url(#clipPath2)"/>
      <text x="586.1514" xml:space="preserve" y="346.9043" clip-path="url(#clipPath2)" font-family="sans-serif" stroke="none">Producer</text>
    </g>
    <g fill="rgb(237,130,37)" text-rendering="geometricPrecision" shape-rendering="geometricPrecision" transform="matrix(1,0,0,1,-501,-283)" stroke="rgb(237,130,37)">
      <path d="M1146.9617 320.75 L1319.7617 320.75 L1338.9617 342.75 L1319.7617 364.75 L1146.9617 364.75 L1166.1616 342.75 Z" fill-rule="evenodd" clip-path="url(#clipPath2)" stroke="none"/>
    </g>
    <g text-rendering="geometricPrecision" stroke-miterlimit="1.45" shape-rendering="geometricPrecision" transform="matrix(1,0,0,1,-501,-283)" stroke-linecap="butt">
      <path fill="none" d="M1146.9617 320.75 L1319.7617 320.75 L1338.9617 342.75 L1319.7617 364.75 L1146.9617 364.75 L1166.1616 342.75 Z" fill-rule="evenodd" clip-path="url(#clipPath2)"/>
      <text x="1212.3671" xml:space="preserve" y="346.9043" clip-path="url(#clipPath2)" font-family="sans-serif" stroke="none">Consumer</text>
    </g>
    <g fill="rgb(237,90,0)" text-rendering="geometricPrecision" shape-rendering="geometricPrecision" transform="matrix(1,0,0,1,-501,-283)" stroke="rgb(237,90,0)">
      <rect x="831.9688" y="313.5" clip-path="url(#clipPath2)" width="192" rx="4" ry="4" height="58.5" stroke="none"/>
    </g>
    <g text-rendering="geometricPrecision" stroke-miterlimit="1.45" shape-rendering="geometricPrecision" transform="matrix(1,0,0,1,-501,-283)" stroke-linecap="butt">
      <rect x="831.9688" y="313.5" clip-path="url(#clipPath2)" fill="none" width="192" rx="4" ry="4" height="58.5"/>
      <text x="905.0586" y="346.9043" clip-path="url(#clipPath2)" font-family="sans-serif" stroke="none" font-weight="bold" xml:space="preserve">Router</text>
    </g>
    <g fill="rgb(204,153,255)" text-rendering="geometricPrecision" shape-rendering="geometricPrecision" transform="matrix(1,0,0,1,-501,-283)" stroke="rgb(204,153,255)">
      <path d="M733.4866 298.9037 L816.7043 298.9037 L807.4579 328.9037 L724.2402 328.9037 Z" fill-rule="evenodd" clip-path="url(#clipPath2)" stroke="none"/>
    </g>
    <g text-rendering="geometricPrecision" stroke-miterlimit="1.45" shape-rendering="geometricPrecision" transform="matrix(1,0,0,1,-501,-283)" stroke-linecap="butt">
      <path fill="none" d="M733.4866 298.9037 L816.7043 298.9037 L807.4579 328.9037 L724.2402 328.9037 Z" fill-rule="evenodd" clip-path="url(#clipPath2)"/>
      <text x="741.0494" xml:space="preserve" y="318.058" clip-path="url(#clipPath2)" font-family="sans-serif" stroke="none">Exchange</text>
    </g>
    <g fill="rgb(204,153,255)" text-rendering="geometricPrecision" shape-rendering="geometricPrecision" transform="matrix(1,0,0,1,-501,-283)" stroke="rgb(204,153,255)">
      <path d="M1048.4797 298.9037 L1131.6971 298.9037 L1122.4507 328.9037 L1039.2334 328.9037 Z" fill-rule="evenodd" clip-path="url(#clipPath2)" stroke="none"/>
    </g>
    <g text-rendering="geometricPrecision" stroke-miterlimit="1.45" shape-rendering="geometricPrecision" transform="matrix(1,0,0,1,-501,-283)" stroke-linecap="butt">
      <path fill="none" d="M1048.4797 298.9037 L1131.6971 298.9037 L1122.4507 328.9037 L1039.2334 328.9037 Z" fill-rule="evenodd" clip-path="url(#clipPath2)"/>
      <text x="1056.0425" xml:space="preserve" y="318.058" clip-path="url(#clipPath2)" font-family="sans-serif" stroke="none">Exchange</text>
    </g>
    <g fill="rgb(51,102,255)" text-rendering="geometricPrecision" shape-rendering="geometricPrecision" transform="matrix(1,0,0,1,-501,-283)" stroke="rgb(51,102,255)">
      <path d="M516.9758 492.8866 L573.211 466.8262 L652.7398 466.8262 L708.9753 492.8866 L708.9753 529.7422 L652.7398 555.8029 L573.211 555.8029 L516.9758 529.7422 Z" fill-rule="evenodd" clip-path="url(#clipPath2)" stroke="none"/>
    </g>
    <g stroke-linecap="butt" transform="matrix(1,0,0,1,-501,-283)" fill="navy" text-rendering="geometricPrecision" shape-rendering="geometricPrecision" stroke="navy" stroke-miterlimit="1.45">
      <path fill="none" d="M516.9758 492.8866 L573.211 466.8262 L652.7398 466.8262 L708.9753 492.8866 L708.9753 529.7422 L652.7398 555.8029 L573.211 555.8029 L516.9758 529.7422 Z" fill-rule="evenodd" clip-path="url(#clipPath2)"/>
      <text x="563.6954" y="515.4684" clip-path="url(#clipPath2)" fill="black" font-family="sans-serif" stroke="none" xml:space="preserve">External System</text>
    </g>
    <g fill="rgb(237,130,37)" text-rendering="geometricPrecision" shape-rendering="geometricPrecision" transform="matrix(1,0,0,1,-501,-283)" stroke="rgb(237,130,37)">
      <path d="M1323.3617 320.75 L1496.1616 320.75 L1515.3617 342.75 L1496.1616 364.75 L1323.3617 364.75 L1342.5616 342.75 Z" fill-rule="evenodd" clip-path="url(#clipPath2)" stroke="none"/>
    </g>
    <g text-rendering="geometricPrecision" stroke-miterlimit="1.45" shape-rendering="geometricPrecision" transform="matrix(1,0,0,1,-501,-283)" stroke-linecap="butt">
      <path fill="none" d="M1323.3617 320.75 L1496.1616 320.75 L1515.3617 342.75 L1496.1616 364.75 L1323.3617 364.75 L1342.5616 342.75 Z" fill-rule="evenodd" clip-path="url(#clipPath2)"/>
      <text x="1392.5376" xml:space="preserve" y="346.9043" clip-path="url(#clipPath2)" font-family="sans-serif" stroke="none">Producer</text>
    </g>
    <g fill="rgb(237,130,37)" text-rendering="geometricPrecision" shape-rendering="geometricPrecision" transform="matrix(1,0,0,1,-501,-283)" stroke="rgb(237,130,37)">
      <path d="M1953.348 320.75 L2126.1479 320.75 L2145.3477 342.75 L2126.1479 364.75 L1953.348 364.75 L1972.5479 342.75 Z" fill-rule="evenodd" clip-path="url(#clipPath2)" stroke="none"/>
    </g>
    <g text-rendering="geometricPrecision" stroke-miterlimit="1.45" shape-rendering="geometricPrecision" transform="matrix(1,0,0,1,-501,-283)" stroke-linecap="butt">
      <path fill="none" d="M1953.348 320.75 L2126.1479 320.75 L2145.3477 342.75 L2126.1479 364.75 L1953.348 364.75 L1972.5479 342.75 Z" fill-rule="evenodd" clip-path="url(#clipPath2)"/>
      <text x="2018.7532" xml:space="preserve" y="346.9043" clip-path="url(#clipPath2)" font-family="sans-serif" stroke="none">Consumer</text>
    </g>
    <g fill="rgb(237,90,0)" text-rendering="geometricPrecision" shape-rendering="geometricPrecision" transform="matrix(1,0,0,1,-501,-283)" stroke="rgb(237,90,0)">
      <rect x="1638.3549" y="313.5" clip-path="url(#clipPath2)" width="192" rx="4" ry="4" height="58.5" stroke="none"/>
    </g>
    <g text-rendering="geometricPrecision" stroke-miterlimit="1.45" shape-rendering="geometricPrecision" transform="matrix(1,0,0,1,-501,-283)" stroke-linecap="butt">
      <rect x="1638.3549" y="313.5" clip-path="url(#clipPath2)" fill="none" width="192" rx="4" ry="4" height="58.5"/>
      <text x="1711.4447" y="346.9043" clip-path="url(#clipPath2)" font-family="sans-serif" stroke="none" font-weight="bold" xml:space="preserve">Router</text>
    </g>
    <g fill="rgb(204,153,255)" text-rendering="geometricPrecision" shape-rendering="geometricPrecision" transform="matrix(1,0,0,1,-501,-283)" stroke="rgb(204,153,255)">
      <path d="M1539.8726 298.9037 L1623.0902 298.9037 L1613.8438 328.9037 L1530.6262 328.9037 Z" fill-rule="evenodd" clip-path="url(#clipPath2)" stroke="none"/>
    </g>
    <g text-rendering="geometricPrecision" stroke-miterlimit="1.45" shape-rendering="geometricPrecision" transform="matrix(1,0,0,1,-501,-283)" stroke-linecap="butt">
      <path fill="none" d="M1539.8726 298.9037 L1623.0902 298.9037 L1613.8438 328.9037 L1530.6262 328.9037 Z" fill-rule="evenodd" clip-path="url(#clipPath2)"/>
      <text x="1547.4355" xml:space="preserve" y="318.058" clip-path="url(#clipPath2)" font-family="sans-serif" stroke="none">Exchange</text>
    </g>
    <g fill="rgb(204,153,255)" text-rendering="geometricPrecision" shape-rendering="geometricPrecision" transform="matrix(1,0,0,1,-501,-283)" stroke="rgb(204,153,255)">
      <path d="M1854.8656 298.9037 L1938.0835 298.9037 L1928.8369 328.9037 L1845.6193 328.9037 Z" fill-rule="evenodd" clip-path="url(#clipPath2)" stroke="none"/>
    </g>
    <g text-rendering="geometricPrecision" stroke-miterlimit="1.45" shape-rendering="geometricPrecision" transform="matrix(1,0,0,1,-501,-283)" stroke-linecap="butt">
      <path fill="none" d="M1854.8656 298.9037 L1938.0835 298.9037 L1928.8369 328.9037 L1845.6193 328.9037 Z" fill-rule="evenodd" clip-path="url(#clipPath2)"/>
      <text x="1862.4286" xml:space="preserve" y="318.058" clip-path="url(#clipPath2)" font-family="sans-serif" stroke="none">Exchange</text>
    </g>
    <g fill="rgb(51,102,255)" text-rendering="geometricPrecision" shape-rendering="geometricPrecision" transform="matrix(1,0,0,1,-501,-283)" stroke="rgb(51,102,255)">
      <path d="M1233.1423 492.8867 L1289.3778 466.8264 L1368.9069 466.8264 L1425.1423 492.8867 L1425.1423 529.7416 L1368.9069 555.8019 L1289.3778 555.8019 L1233.1423 529.7416 Z" fill-rule="evenodd" clip-path="url(#clipPath2)" stroke="none"/>
    </g>
    <g stroke-linecap="butt" transform="matrix(1,0,0,1,-501,-283)" fill="navy" text-rendering="geometricPrecision" shape-rendering="geometricPrecision" stroke="navy" stroke-miterlimit="1.45">
      <path fill="none" d="M1233.1423 492.8867 L1289.3778 466.8264 L1368.9069 466.8264 L1425.1423 492.8867 L1425.1423 529.7416 L1368.9069 555.8019 L1289.3778 555.8019 L1233.1423 529.7416 Z" fill-rule="evenodd" clip-path="url(#clipPath2)"/>
      <text x="1279.8617" y="515.4684" clip-path="url(#clipPath2)" fill="black" font-family="sans-serif" stroke="none" xml:space="preserve">External System</text>
    </g>
    <g fill="rgb(51,102,255)" text-rendering="geometricPrecision" shape-rendering="geometricPrecision" transform="matrix(1,0,0,1,-501,-283)" stroke="rgb(51,102,255)">
      <path d="M1953.348 492.8867 L2009.5831 466.8264 L2089.1123 466.8264 L2145.3477 492.8867 L2145.3477 529.7416 L2089.1123 555.8019 L2009.5831 555.8019 L1953.348 529.7416 Z" fill-rule="evenodd" clip-path="url(#clipPath2)" stroke="none"/>
    </g>
    <g stroke-linecap="butt" transform="matrix(1,0,0,1,-501,-283)" fill="navy" text-rendering="geometricPrecision" shape-rendering="geometricPrecision" stroke="navy" stroke-miterlimit="1.45">
      <path fill="none" d="M1953.348 492.8867 L2009.5831 466.8264 L2089.1123 466.8264 L2145.3477 492.8867 L2145.3477 529.7416 L2089.1123 555.8019 L2009.5831 555.8019 L1953.348 529.7416 Z" fill-rule="evenodd" clip-path="url(#clipPath2)"/>
      <text x="2000.0676" y="515.4684" clip-path="url(#clipPath2)" fill="black" font-family="sans-serif" stroke="none" xml:space="preserve">External System</text>
    </g>
    <g stroke-linecap="butt" transform="matrix(1,0,0,1,-501,-283)" fill="rgb(237,130,37)" text-rendering="geometricPrecision" shape-rendering="geometricPrecision" stroke="rgb(237,130,37)" stroke-width="7" stroke-miterlimit="1.45">
      <path d="M803.9539 332.25 L803.9539 339.25 L708.9906 339.25 L708.9906 346.25 L803.9539 346.25 L803.9539 353.25 L831.9539 342.75 L803.9539 332.25 Z" stroke="none" clip-path="url(#clipPath2)"/>
      <path fill="none" d="M803.9539 332.25 L803.9539 339.25 L708.9906 339.25 L708.9906 346.25 L803.9539 346.25 L803.9539 353.25 L831.9539 342.75 L803.9539 332.25 Z" stroke-width="1" clip-path="url(#clipPath2)" stroke="rgb(237,110,0)"/>
    </g>
    <g stroke-linecap="butt" transform="matrix(1,0,0,1,-501,-283)" fill="rgb(237,130,37)" text-rendering="geometricPrecision" shape-rendering="geometricPrecision" stroke="rgb(237,130,37)" stroke-width="7" stroke-miterlimit="1.45">
      <path d="M1145.1444 332.25 L1145.1444 339.25 L1023.9566 339.25 L1023.9566 346.25 L1145.1444 346.25 L1145.1444 353.25 L1166.1444 342.75 L1145.1444 332.25 Z" stroke="none" clip-path="url(#clipPath2)"/>
      <path fill="none" d="M1145.1444 332.25 L1145.1444 339.25 L1023.9566 339.25 L1023.9566 346.25 L1145.1444 346.25 L1145.1444 353.25 L1166.1444 342.75 L1145.1444 332.25 Z" stroke-width="1" clip-path="url(#clipPath2)" stroke="rgb(237,110,0)"/>
    </g>
    <g stroke-linecap="butt" transform="matrix(1,0,0,1,-501,-283)" fill="rgb(204,153,255)" text-rendering="geometricPrecision" shape-rendering="geometricPrecision" stroke="rgb(204,153,255)" stroke-width="5" stroke-miterlimit="1.45">
      <path d="M612.9756 364.7671 L605.4756 382.7671 L610.4756 379.7671 L610.4756 451.842 L605.4756 448.842 L612.9756 466.842 L620.4756 448.842 L615.4756 451.842 L615.4756 379.7671 L620.4756 382.7671 L612.9756 364.7671 Z" stroke="none" clip-path="url(#clipPath2)"/>
    </g>
    <g stroke-linecap="round" transform="matrix(1,0,0,1,-501,-283)" fill="purple" text-rendering="geometricPrecision" shape-rendering="geometricPrecision" stroke-dasharray="4,3,0,3" stroke="purple" stroke-miterlimit="1.45">
      <path fill="none" d="M612.9756 364.7671 L605.4756 382.7671 L610.4756 379.7671 L610.4756 451.842 L605.4756 448.842 L612.9756 466.842 L620.4756 448.842 L615.4756 451.842 L615.4756 379.7671 L620.4756 382.7671 L612.9756 364.7671 Z" clip-path="url(#clipPath2)"/>
    </g>
    <g stroke-linecap="butt" transform="matrix(1,0,0,1,-501,-283)" fill="rgb(237,130,37)" text-rendering="geometricPrecision" shape-rendering="geometricPrecision" stroke="rgb(237,130,37)" stroke-width="7" stroke-miterlimit="1.45">
      <path d="M1610.34 332.25 L1610.34 339.25 L1515.3767 339.25 L1515.3767 346.25 L1610.34 346.25 L1610.34 353.25 L1638.34 342.75 L1610.34 332.25 Z" stroke="none" clip-path="url(#clipPath2)"/>
      <path fill="none" d="M1610.34 332.25 L1610.34 339.25 L1515.3767 339.25 L1515.3767 346.25 L1610.34 346.25 L1610.34 353.25 L1638.34 342.75 L1610.34 332.25 Z" stroke-width="1" clip-path="url(#clipPath2)" stroke="rgb(237,110,0)"/>
    </g>
    <g stroke-linecap="butt" transform="matrix(1,0,0,1,-501,-283)" fill="rgb(237,130,37)" text-rendering="geometricPrecision" shape-rendering="geometricPrecision" stroke="rgb(237,130,37)" stroke-width="7" stroke-miterlimit="1.45">
      <path d="M1951.5305 332.25 L1951.5305 339.25 L1830.3428 339.25 L1830.3428 346.25 L1951.5305 346.25 L1951.5305 353.25 L1972.5305 342.75 L1951.5305 332.25 Z" stroke="none" clip-path="url(#clipPath2)"/>
      <path fill="none" d="M1951.5305 332.25 L1951.5305 339.25 L1830.3428 339.25 L1830.3428 346.25 L1951.5305 346.25 L1951.5305 353.25 L1972.5305 342.75 L1951.5305 332.25 Z" stroke-width="1" clip-path="url(#clipPath2)" stroke="rgb(237,110,0)"/>
    </g>
    <g stroke-linecap="butt" transform="matrix(1,0,0,1,-501,-283)" fill="rgb(204,153,255)" text-rendering="geometricPrecision" shape-rendering="geometricPrecision" stroke="rgb(204,153,255)" stroke-width="5" stroke-miterlimit="1.45">
      <path d="M1329.142 354.0727 L1321.642 372.0727 L1326.642 369.0727 L1326.642 451.8213 L1321.642 448.8213 L1329.142 466.8213 L1336.642 448.8213 L1331.642 451.8213 L1331.642 369.0727 L1336.642 372.0727 L1329.142 354.0727 Z" stroke="none" clip-path="url(#clipPath2)"/>
    </g>
    <g stroke-linecap="round" transform="matrix(1,0,0,1,-501,-283)" fill="purple" text-rendering="geometricPrecision" shape-rendering="geometricPrecision" stroke-dasharray="4,3,0,3" stroke="purple" stroke-miterlimit="1.45">
      <path fill="none" d="M1329.142 354.0727 L1321.642 372.0727 L1326.642 369.0727 L1326.642 451.8213 L1321.642 448.8213 L1329.142 466.8213 L1336.642 448.8213 L1331.642 451.8213 L1331.642 369.0727 L1336.642 372.0727 L1329.142 354.0727 Z" clip-path="url(#clipPath2)"/>
    </g>
    <g stroke-linecap="butt" transform="matrix(1,0,0,1,-501,-283)" fill="rgb(204,153,255)" text-rendering="geometricPrecision" shape-rendering="geometricPrecision" stroke="rgb(204,153,255)" stroke-width="5" stroke-miterlimit="1.45">
      <path d="M2049.3479 364.7671 L2041.8479 382.7671 L2046.8479 379.7671 L2046.8479 451.842 L2041.8479 448.842 L2049.3479 466.842 L2056.8479 448.842 L2051.8479 451.842 L2051.8479 379.7671 L2056.8479 382.7671 L2049.3479 364.7671 Z" stroke="none" clip-path="url(#clipPath2)"/>
    </g>
    <g stroke-linecap="round" transform="matrix(1,0,0,1,-501,-283)" fill="purple" text-rendering="geometricPrecision" shape-rendering="geometricPrecision" stroke-dasharray="4,3,0,3" stroke="purple" stroke-miterlimit="1.45">
      <path fill="none" d="M2049.3479 364.7671 L2041.8479 382.7671 L2046.8479 379.7671 L2046.8479 451.842 L2041.8479 448.842 L2049.3479 466.842 L2056.8479 448.842 L2051.8479 451.842 L2051.8479 379.7671 L2056.8479 382.7671 L2049.3479 364.7671 Z" clip-path="url(#clipPath2)"/>
    </g>
  </g>
</svg>
